M48
;Layer_Color=9474304
;FILE_FORMAT=2:4
INCH,LZ
;TYPE=PLATED
T1F00S00C0.0079
T2F00S00C0.0138
T5F00S00C0.0280
T6F00S00C0.0315
T7F00S00C0.0400
T8F00S00C0.0413
T10F00S00C0.0504
T11F00S00C0.0551
T12F00S00C0.0591
T13F00S00C0.0984
%
T01
X032984Y01618
Y016902
X033345Y017263
X033706Y016902
X034068Y017263
X034429Y016902
X034068Y016541
X034429Y01618
X033706
X033345Y016541
Y015819
X034068
T02
X01465Y0132
X01515Y01315
Y01385
X01465
Y0144
X01515
X01723Y014277
X0173Y0137
X01795
X0179Y0143
X01865
X0187Y0137
X0311Y011
X03185Y01205
Y0132
X03585Y0138
Y0152
X0397Y0147
Y0131
X0398Y01175
X0404Y01205
X03905Y01215
X03695Y0109
X03535Y01095
X0451Y01275
X04495Y0142
X044Y01545
X04565Y01575
X04435Y018
X044Y0185
X03985Y0186
X03979Y019316
X03835Y0195
X03795
Y02
X03835
X0385Y02085
X0379Y0221
X039074Y022616
X0399Y0221
X0397Y0216
X0404Y02285
X04245Y02275
X0434Y0227
X0442
X04405Y0255
X042365Y024602
X04175Y0261
Y02705
X0396Y0275
X0395Y0257
X03985Y0253
X04035Y02555
X0378Y0247
X0379Y0238
X036068Y023657
X0359Y0228
X036692Y022806
X035445Y022155
X034772Y02185
X03555Y02105
X036Y0202
X03485
X03255Y02015
X0327Y01975
X032393Y0206
X0327Y0213
X0321Y0215
X03182Y021193
X031431Y020424
X0324Y02345
Y0244
X033955Y024365
X03395Y02485
Y026607
X0346Y0263
Y02745
Y0278
X0351
X03355
Y0274
X0331
Y02775
X0326
X03265Y0274
X035898Y026298
X0367Y025
X03655Y0246
X035352Y02419
X0373Y02
X0271
X026342
X025583
X024825
X024067
X023308
X02255
X02205Y02025
Y02155
X01975Y02145
X01955Y0234
X01765
X01785Y0196
X01845
X0172
X01725Y0158
X0179
X01865
X02805Y0167
X02725Y0235
X0272Y0244
X02675Y026
Y02655
Y02715
X02595
Y02655
Y026
X02525
Y02655
Y02715
X024Y02455
X02395Y0231
X0148Y0191
X0126Y0187
X01265Y0178
X0107Y01655
T05
X0192Y0113
X02205Y012
T06
X02425Y014016
Y015984
X0246Y026866
Y028834
T07
X01082Y01831
Y02009
Y02136
Y02314
X01338
Y02136
Y02009
Y01831
T08
X044657Y027708
Y028692
T10
X0157Y028702
X0167
X0177
T11
X02745Y0289
T12
X03145Y0289
T13
X01085Y01085
X046606Y010886
Y02885
X01095
M30
