G04*
G04 #@! TF.GenerationSoftware,Altium Limited,Altium Designer,21.3.2 (30)*
G04*
G04 Layer_Color=128*
%FSTAX24Y24*%
%MOIN*%
G70*
G04*
G04 #@! TF.SameCoordinates,31FF7248-0B4B-413F-84E3-F9EDAC069AC3*
G04*
G04*
G04 #@! TF.FilePolarity,Positive*
G04*
G01*
G75*
%ADD101C,0.0020*%
D101*
X024093Y015984D02*
X024407D01*
X02425Y015827D02*
Y016142D01*
X024093Y014016D02*
X024407D01*
X02425Y013858D02*
Y014173D01*
X031155Y0289D02*
X031745D01*
X03145Y028605D02*
Y029195D01*
X027174Y0289D02*
X027726D01*
X02745Y028624D02*
Y029176D01*
X024443Y028834D02*
X024757D01*
X0246Y028677D02*
Y028992D01*
X024443Y026866D02*
X024757D01*
X0246Y026708D02*
Y027023D01*
X015448Y028702D02*
X015952D01*
X0157Y02845D02*
Y028954D01*
X016448Y028702D02*
X016952D01*
X0167Y02845D02*
Y028954D01*
X017448Y028702D02*
X017952D01*
X0177Y02845D02*
Y028954D01*
X018581Y0158D02*
X018719D01*
X01865Y015731D02*
Y015869D01*
X017831Y0158D02*
X017969D01*
X0179Y015731D02*
Y015869D01*
X017181Y0158D02*
X017319D01*
X01725Y015731D02*
Y015869D01*
X01062Y02314D02*
X01102D01*
X01082Y02294D02*
Y02334D01*
X01062Y02136D02*
X01102D01*
X01082Y02116D02*
Y02156D01*
X01318Y02314D02*
X01358D01*
X01338Y02294D02*
Y02334D01*
X01318Y02136D02*
X01358D01*
X01338Y02116D02*
Y02156D01*
X045482Y014396D02*
X045698D01*
X04559Y014288D02*
Y014504D01*
X045482Y012428D02*
X045698D01*
X04559Y012319D02*
Y012536D01*
X046555Y01479D02*
X046752D01*
X046653Y014691D02*
Y014888D01*
X046555Y012034D02*
X046752D01*
X046653Y011935D02*
Y012132D01*
X01062Y02009D02*
X01102D01*
X01082Y01989D02*
Y02029D01*
X01062Y01831D02*
X01102D01*
X01082Y01811D02*
Y01851D01*
X01318Y02009D02*
X01358D01*
X01338Y01989D02*
Y02029D01*
X01318Y01831D02*
X01358D01*
X01338Y01811D02*
Y01851D01*
X010458Y02885D02*
X011442D01*
X01095Y028358D02*
Y029342D01*
X046114Y02885D02*
X047098D01*
X046606Y028358D02*
Y029342D01*
X046114Y010886D02*
X047098D01*
X046606Y010394D02*
Y011378D01*
X010358Y01085D02*
X011342D01*
X01085Y010358D02*
Y011342D01*
X04445Y027708D02*
X044863D01*
X044657Y027501D02*
Y027915D01*
X04445Y028692D02*
X044863D01*
X044657Y028485D02*
Y028899D01*
X033306Y017263D02*
X033384D01*
X033345Y017224D02*
Y017303D01*
X034028Y017263D02*
X034107D01*
X034068Y017224D02*
Y017303D01*
X032944Y016902D02*
X033023D01*
X032984Y016863D02*
Y016942D01*
X033667Y016902D02*
X033746D01*
X033706Y016863D02*
Y016942D01*
X034389Y016902D02*
X034468D01*
X034429Y016863D02*
Y016942D01*
X033306Y016541D02*
X033384D01*
X033345Y016502D02*
Y01658D01*
X034028Y016541D02*
X034107D01*
X034068Y016502D02*
Y01658D01*
X032944Y01618D02*
X033023D01*
X032984Y01614D02*
Y016219D01*
X033667Y01618D02*
X033746D01*
X033706Y01614D02*
Y016219D01*
X034389Y01618D02*
X034468D01*
X034429Y01614D02*
Y016219D01*
X033306Y015819D02*
X033384D01*
X033345Y015779D02*
Y015858D01*
X034028Y015819D02*
X034107D01*
X034068Y015779D02*
Y015858D01*
X0134Y02435D02*
X0139D01*
X01365Y0241D02*
Y0246D01*
X0119Y02635D02*
X0124D01*
X01215Y0261D02*
Y0266D01*
X0144Y02635D02*
X0149D01*
X01465Y0261D02*
Y0266D01*
X039721Y019316D02*
X039859D01*
X03979Y019247D02*
Y019384D01*
X034703Y02185D02*
X034841D01*
X034772Y021781D02*
Y021919D01*
X035377Y022155D02*
X035514D01*
X035445Y022086D02*
Y022223D01*
X036623Y022806D02*
X036761D01*
X036692Y022737D02*
Y022874D01*
X035781Y0152D02*
X035919D01*
X03585Y015131D02*
Y015269D01*
X035781Y0138D02*
X035919D01*
X03585Y013731D02*
Y013869D01*
X039731Y01175D02*
X039869D01*
X0398Y011681D02*
Y011819D01*
X040331Y01205D02*
X040469D01*
X0404Y011981D02*
Y012119D01*
X039531Y0275D02*
X039669D01*
X0396Y027431D02*
Y027569D01*
X044281Y018D02*
X044419D01*
X04435Y017931D02*
Y018069D01*
X044881Y0142D02*
X045019D01*
X04495Y014131D02*
Y014269D01*
X045581Y01575D02*
X045719D01*
X04565Y015681D02*
Y015819D01*
X045031Y01275D02*
X045169D01*
X0451Y012681D02*
Y012819D01*
X033881Y026607D02*
X034019D01*
X03395Y026538D02*
Y026676D01*
X035999Y023657D02*
X036137D01*
X036068Y023588D02*
Y023726D01*
X035283Y02419D02*
X035421D01*
X035352Y024122D02*
Y024259D01*
X037731Y0247D02*
X037869D01*
X0378Y024631D02*
Y024769D01*
X035831Y0228D02*
X035969D01*
X0359Y022731D02*
Y022869D01*
X037831Y0238D02*
X037969D01*
X0379Y023731D02*
Y023869D01*
X039431Y0257D02*
X039569D01*
X0395Y025631D02*
Y025769D01*
X031362Y020424D02*
X031499D01*
X031431Y020355D02*
Y020493D01*
X031751Y021193D02*
X031889D01*
X03182Y021124D02*
Y021262D01*
X021981Y02025D02*
X022119D01*
X02205Y020181D02*
Y020319D01*
X021981Y02155D02*
X022119D01*
X02205Y021481D02*
Y021619D01*
X032031Y0215D02*
X032169D01*
X0321Y021431D02*
Y021569D01*
X032331Y02345D02*
X032469D01*
X0324Y023381D02*
Y023519D01*
X022481Y02D02*
X022619D01*
X02255Y019931D02*
Y020069D01*
X025514Y02D02*
X025652D01*
X025583Y019931D02*
Y020069D01*
X023998Y02D02*
X024136D01*
X024067Y019931D02*
Y020069D01*
X024756Y02D02*
X024894D01*
X024825Y019931D02*
Y020069D01*
X023239Y02D02*
X023377D01*
X023308Y019931D02*
Y020069D01*
X026273Y02D02*
X026411D01*
X026342Y019931D02*
Y020069D01*
X027031Y02D02*
X027169D01*
X0271Y019931D02*
Y020069D01*
X034531Y0263D02*
X034669D01*
X0346Y026231D02*
Y026369D01*
X032331Y0244D02*
X032469D01*
X0324Y024331D02*
Y024469D01*
X043981Y0255D02*
X044119D01*
X04405Y025431D02*
Y025569D01*
X044131Y0227D02*
X044269D01*
X0442Y022631D02*
Y022769D01*
X043331Y0227D02*
X043469D01*
X0434Y022631D02*
Y022769D01*
X043931Y0185D02*
X044069D01*
X044Y018431D02*
Y018569D01*
X038981Y01215D02*
X039119D01*
X03905Y012081D02*
Y012219D01*
X012531Y0187D02*
X012669D01*
X0126Y018631D02*
Y018769D01*
X012581Y0178D02*
X012719D01*
X01265Y017731D02*
Y017869D01*
X014731Y0191D02*
X014869D01*
X0148Y019031D02*
Y019169D01*
X033031Y02775D02*
X033169D01*
X0331Y027681D02*
Y027819D01*
X034531Y02745D02*
X034669D01*
X0346Y027381D02*
Y027519D01*
X035031Y0278D02*
X035169D01*
X0351Y027731D02*
Y027869D01*
X034531Y0278D02*
X034669D01*
X0346Y027731D02*
Y027869D01*
X033481Y0278D02*
X033619D01*
X03355Y027731D02*
Y027869D01*
X032531Y02775D02*
X032669D01*
X0326Y027681D02*
Y027819D01*
X033481Y0274D02*
X033619D01*
X03355Y027331D02*
Y027469D01*
X033031Y0274D02*
X033169D01*
X0331Y027331D02*
Y027469D01*
X032581Y0274D02*
X032719D01*
X03265Y027331D02*
Y027469D01*
X032631Y01975D02*
X032769D01*
X0327Y019681D02*
Y019819D01*
X032481Y02015D02*
X032619D01*
X03255Y020081D02*
Y020219D01*
X032324Y0206D02*
X032462D01*
X032393Y020531D02*
Y020669D01*
X031781Y0132D02*
X031919D01*
X03185Y013131D02*
Y013269D01*
X031781Y01205D02*
X031919D01*
X03185Y011981D02*
Y012119D01*
X035481Y02105D02*
X035619D01*
X03555Y020981D02*
Y021119D01*
X017581Y0234D02*
X017719D01*
X01765Y023331D02*
Y023469D01*
X019481Y0234D02*
X019619D01*
X01955Y023331D02*
Y023469D01*
X019681Y02145D02*
X019819D01*
X01975Y021381D02*
Y021519D01*
X039005Y022616D02*
X039143D01*
X039074Y022548D02*
Y022685D01*
X037831Y0221D02*
X037969D01*
X0379Y022031D02*
Y022169D01*
X039831Y0221D02*
X039969D01*
X0399Y022031D02*
Y022169D01*
X023881Y0231D02*
X024019D01*
X02395Y023031D02*
Y023169D01*
X023931Y02455D02*
X024069D01*
X024Y024481D02*
Y024619D01*
X036631Y025D02*
X036769D01*
X0367Y024931D02*
Y025069D01*
X035829Y026298D02*
X035967D01*
X035898Y026229D02*
Y026367D01*
X039631Y0216D02*
X039769D01*
X0397Y021531D02*
Y021669D01*
X040331Y02285D02*
X040469D01*
X0404Y022781D02*
Y022919D01*
X042296Y024602D02*
X042434D01*
X042365Y024533D02*
Y024671D01*
X035931Y0202D02*
X036069D01*
X036Y020131D02*
Y020269D01*
X034781Y0202D02*
X034919D01*
X03485Y020131D02*
Y020269D01*
X038431Y02085D02*
X038569D01*
X0385Y020781D02*
Y020919D01*
X032631Y0213D02*
X032769D01*
X0327Y021231D02*
Y021369D01*
X039781Y0253D02*
X039919D01*
X03985Y025231D02*
Y025369D01*
X040281Y02555D02*
X040419D01*
X04035Y025481D02*
Y025619D01*
X042381Y02275D02*
X042519D01*
X04245Y022681D02*
Y022819D01*
X041681Y02705D02*
X041819D01*
X04175Y026981D02*
Y027119D01*
X041681Y0261D02*
X041819D01*
X04175Y026031D02*
Y026169D01*
X036481Y0246D02*
X036619D01*
X03655Y024531D02*
Y024669D01*
X033881Y02485D02*
X034019D01*
X03395Y024781D02*
Y024919D01*
X033886Y024365D02*
X034024D01*
X033955Y024296D02*
Y024434D01*
X027131Y0244D02*
X027269D01*
X0272Y024331D02*
Y024469D01*
X027181Y0235D02*
X027319D01*
X02725Y023431D02*
Y023569D01*
X014581Y0132D02*
X014719D01*
X01465Y013131D02*
Y013269D01*
X014581Y01385D02*
X014719D01*
X01465Y013781D02*
Y013919D01*
X014581Y0144D02*
X014719D01*
X01465Y014331D02*
Y014469D01*
X015081Y01315D02*
X015219D01*
X01515Y013081D02*
Y013219D01*
X015081Y01385D02*
X015219D01*
X01515Y013781D02*
Y013919D01*
X015081Y0144D02*
X015219D01*
X01515Y014331D02*
Y014469D01*
X025181Y026D02*
X025319D01*
X02525Y025931D02*
Y026069D01*
X025181Y02655D02*
X025319D01*
X02525Y026481D02*
Y026619D01*
X025181Y02715D02*
X025319D01*
X02525Y027081D02*
Y027219D01*
X025881Y026D02*
X026019D01*
X02595Y025931D02*
Y026069D01*
X025881Y02655D02*
X026019D01*
X02595Y026481D02*
Y026619D01*
X025881Y02715D02*
X026019D01*
X02595Y027081D02*
Y027219D01*
X026681Y026D02*
X026819D01*
X02675Y025931D02*
Y026069D01*
X026681Y02655D02*
X026819D01*
X02675Y026481D02*
Y026619D01*
X026681Y02715D02*
X026819D01*
X02675Y027081D02*
Y027219D01*
X027981Y0167D02*
X028119D01*
X02805Y016631D02*
Y016769D01*
X039631Y0147D02*
X039769D01*
X0397Y014631D02*
Y014769D01*
X017781Y0196D02*
X017919D01*
X01785Y019531D02*
Y019669D01*
X010631Y01655D02*
X010769D01*
X0107Y016481D02*
Y016619D01*
X043931Y01545D02*
X044069D01*
X044Y015381D02*
Y015519D01*
X037881Y0195D02*
X038019D01*
X03795Y019431D02*
Y019569D01*
X038281Y0195D02*
X038419D01*
X03835Y019431D02*
Y019569D01*
X038281Y02D02*
X038419D01*
X03835Y019931D02*
Y020069D01*
X037881Y02D02*
X038019D01*
X03795Y019931D02*
Y020069D01*
X037231Y02D02*
X037369D01*
X0373Y019931D02*
Y020069D01*
X039781Y0186D02*
X039919D01*
X03985Y018531D02*
Y018669D01*
X039631Y0131D02*
X039769D01*
X0397Y013031D02*
Y013169D01*
X036881Y0109D02*
X037019D01*
X03695Y010831D02*
Y010969D01*
X035281Y01095D02*
X035419D01*
X03535Y010881D02*
Y011019D01*
X031031Y011D02*
X031169D01*
X0311Y010931D02*
Y011069D01*
X018381Y0196D02*
X018519D01*
X01845Y019531D02*
Y019669D01*
X017131Y0196D02*
X017269D01*
X0172Y019531D02*
Y019669D01*
X02191Y012D02*
X02219D01*
X02205Y01186D02*
Y01214D01*
X01906Y0113D02*
X01934D01*
X0192Y01116D02*
Y01144D01*
X017231Y0137D02*
X017369D01*
X0173Y013631D02*
Y013769D01*
X017881Y0137D02*
X018019D01*
X01795Y013631D02*
Y013769D01*
X018631Y0137D02*
X018769D01*
X0187Y013631D02*
Y013769D01*
X018581Y0143D02*
X018719D01*
X01865Y014231D02*
Y014369D01*
X017831Y0143D02*
X017969D01*
X0179Y014231D02*
Y014369D01*
X017161Y014277D02*
X017299D01*
X01723Y014208D02*
Y014346D01*
M02*
