G04*
G04 #@! TF.GenerationSoftware,Altium Limited,Altium Designer,21.3.2 (30)*
G04*
G04 Layer_Color=2752767*
%FSTAX24Y24*%
%MOIN*%
G70*
G04*
G04 #@! TF.SameCoordinates,31FF7248-0B4B-413F-84E3-F9EDAC069AC3*
G04*
G04*
G04 #@! TF.FilePolarity,Positive*
G04*
G01*
G75*
%ADD101C,0.0020*%
%ADD103C,0.0027*%
%ADD104C,0.0013*%
D101*
X02417Y015904D02*
Y016064D01*
X02433D01*
Y015904D01*
X02417D01*
Y013936D02*
Y014096D01*
X02433D01*
Y013936D01*
X02417D01*
X02745Y02882D02*
X02737Y02898D01*
X02753D01*
X02745Y02882D01*
X02452Y028754D02*
Y028914D01*
X02468D01*
Y028754D01*
X02452D01*
Y026786D02*
Y026946D01*
X02468D01*
Y026786D01*
X02452D01*
X0157Y028622D02*
X01574Y028662D01*
X01578D01*
X01574Y028702D01*
X01578Y028742D01*
X01574D01*
X0157Y028782D01*
X01566Y028742D01*
X01562D01*
X01566Y028702D01*
X01562Y028662D01*
X01566D01*
X0157Y028622D01*
X0167D02*
X01674Y028662D01*
X01678D01*
X01674Y028702D01*
X01678Y028742D01*
X01674D01*
X0167Y028782D01*
X01666Y028742D01*
X01662D01*
X01666Y028702D01*
X01662Y028662D01*
X01666D01*
X0167Y028622D01*
X0177D02*
X01774Y028662D01*
X01778D01*
X01774Y028702D01*
X01778Y028742D01*
X01774D01*
X0177Y028782D01*
X01766Y028742D01*
X01762D01*
X01766Y028702D01*
X01762Y028662D01*
X01766D01*
X0177Y028622D01*
X01857Y01572D02*
X01861Y0158D01*
X01857Y01588D01*
X01865Y01584D01*
X01873Y01588D01*
X01869Y0158D01*
X01873Y01572D01*
X01865Y01576D01*
X01857Y01572D01*
X01782D02*
X01786Y0158D01*
X01782Y01588D01*
X0179Y01584D01*
X01798Y01588D01*
X01794Y0158D01*
X01798Y01572D01*
X0179Y01576D01*
X01782Y01572D01*
X01717D02*
X01721Y0158D01*
X01717Y01588D01*
X01725Y01584D01*
X01733Y01588D01*
X01729Y0158D01*
X01733Y01572D01*
X01725Y01576D01*
X01717Y01572D01*
X01078Y0231D02*
Y02306D01*
X01086D01*
Y0231D01*
X0109D01*
Y02318D01*
X01086D01*
Y02322D01*
X01078D01*
Y02318D01*
X01074D01*
Y0231D01*
X01078D01*
Y02132D02*
Y02128D01*
X01086D01*
Y02132D01*
X0109D01*
Y0214D01*
X01086D01*
Y02144D01*
X01078D01*
Y0214D01*
X01074D01*
Y02132D01*
X01078D01*
X01334Y0231D02*
Y02306D01*
X01342D01*
Y0231D01*
X01346D01*
Y02318D01*
X01342D01*
Y02322D01*
X01334D01*
Y02318D01*
X0133D01*
Y0231D01*
X01334D01*
Y02132D02*
Y02128D01*
X01342D01*
Y02132D01*
X01346D01*
Y0214D01*
X01342D01*
Y02144D01*
X01334D01*
Y0214D01*
X0133D01*
Y02132D01*
X01334D01*
X04551Y014316D02*
X04555D01*
X04559Y014356D01*
X04563Y014316D01*
X04567D01*
Y014356D01*
X04563Y014396D01*
X04567Y014436D01*
Y014476D01*
X04563D01*
X04559Y014436D01*
X04555Y014476D01*
X04551D01*
Y014436D01*
X04555Y014396D01*
X04551Y014356D01*
Y014316D01*
Y012348D02*
X04555D01*
X04559Y012388D01*
X04563Y012348D01*
X04567D01*
Y012388D01*
X04563Y012428D01*
X04567Y012468D01*
Y012508D01*
X04563D01*
X04559Y012468D01*
X04555Y012508D01*
X04551D01*
Y012468D01*
X04555Y012428D01*
X04551Y012388D01*
Y012348D01*
X046573Y01479D02*
X046653Y01487D01*
X046733Y01479D01*
X046653Y01471D01*
X046573Y01479D01*
Y012034D02*
X046653Y012114D01*
X046733Y012034D01*
X046653Y011954D01*
X046573Y012034D01*
X01078Y02005D02*
Y02001D01*
X01086D01*
Y02005D01*
X0109D01*
Y02013D01*
X01086D01*
Y02017D01*
X01078D01*
Y02013D01*
X01074D01*
Y02005D01*
X01078D01*
Y01827D02*
Y01823D01*
X01086D01*
Y01827D01*
X0109D01*
Y01835D01*
X01086D01*
Y01839D01*
X01078D01*
Y01835D01*
X01074D01*
Y01827D01*
X01078D01*
X01334Y02005D02*
Y02001D01*
X01342D01*
Y02005D01*
X01346D01*
Y02013D01*
X01342D01*
Y02017D01*
X01334D01*
Y02013D01*
X0133D01*
Y02005D01*
X01334D01*
Y01827D02*
Y01823D01*
X01342D01*
Y01827D01*
X01346D01*
Y01835D01*
X01342D01*
Y01839D01*
X01334D01*
Y01835D01*
X0133D01*
Y01827D01*
X01334D01*
X01087Y02877D02*
Y02893D01*
X01103D01*
Y02877D01*
X01087D01*
X01091Y02881D02*
Y02889D01*
X01099D01*
Y02881D01*
X01091D01*
X046526Y02877D02*
Y02893D01*
X046686D01*
Y02877D01*
X046526D01*
X046566Y02881D02*
Y02889D01*
X046646D01*
Y02881D01*
X046566D01*
X046526Y010806D02*
Y010966D01*
X046686D01*
Y010806D01*
X046526D01*
X046566Y010846D02*
Y010926D01*
X046646D01*
Y010846D01*
X046566D01*
X01077Y01077D02*
Y01093D01*
X01093D01*
Y01077D01*
X01077D01*
X01081Y01081D02*
Y01089D01*
X01089D01*
Y01081D01*
X01081D01*
X033345Y017183D02*
X033265Y017343D01*
X033425D01*
X033345Y017183D01*
Y017223D02*
X033305Y017303D01*
X033385D01*
X033345Y017223D01*
X034068Y017183D02*
X033988Y017343D01*
X034148D01*
X034068Y017183D01*
Y017223D02*
X034028Y017303D01*
X034108D01*
X034068Y017223D01*
X032984Y016822D02*
X032904Y016982D01*
X033064D01*
X032984Y016822D01*
Y016862D02*
X032944Y016942D01*
X033024D01*
X032984Y016862D01*
X033706Y016822D02*
X033626Y016982D01*
X033786D01*
X033706Y016822D01*
Y016862D02*
X033666Y016942D01*
X033746D01*
X033706Y016862D01*
X034429Y016822D02*
X034349Y016982D01*
X034509D01*
X034429Y016822D01*
Y016862D02*
X034389Y016942D01*
X034469D01*
X034429Y016862D01*
X033345Y016461D02*
X033265Y016621D01*
X033425D01*
X033345Y016461D01*
Y016501D02*
X033305Y016581D01*
X033385D01*
X033345Y016501D01*
X034068Y016461D02*
X033988Y016621D01*
X034148D01*
X034068Y016461D01*
Y016501D02*
X034028Y016581D01*
X034108D01*
X034068Y016501D01*
X032984Y0161D02*
X032904Y01626D01*
X033064D01*
X032984Y0161D01*
Y01614D02*
X032944Y01622D01*
X033024D01*
X032984Y01614D01*
X033706Y0161D02*
X033626Y01626D01*
X033786D01*
X033706Y0161D01*
Y01614D02*
X033666Y01622D01*
X033746D01*
X033706Y01614D01*
X034429Y0161D02*
X034349Y01626D01*
X034509D01*
X034429Y0161D01*
Y01614D02*
X034389Y01622D01*
X034469D01*
X034429Y01614D01*
X033345Y015739D02*
X033265Y015898D01*
X033425D01*
X033345Y015739D01*
Y015778D02*
X033305Y015859D01*
X033385D01*
X033345Y015778D01*
X034068Y015739D02*
X033988Y015898D01*
X034148D01*
X034068Y015739D01*
Y015778D02*
X034028Y015859D01*
X034108D01*
X034068Y015778D01*
X01365Y02427D02*
X01369Y02431D01*
X01373D01*
X01369Y02435D01*
X01373Y02439D01*
X01369D01*
X01365Y02443D01*
X01361Y02439D01*
X01357D01*
X01361Y02435D01*
X01357Y02431D01*
X01361D01*
X01365Y02427D01*
Y02431D02*
X01367Y02433D01*
X01369D01*
X01367Y02435D01*
X01369Y02437D01*
X01367D01*
X01365Y02439D01*
X01363Y02437D01*
X01361D01*
X01363Y02435D01*
X01361Y02433D01*
X01363D01*
X01365Y02431D01*
X01215Y02627D02*
X01219Y02631D01*
X01223D01*
X01219Y02635D01*
X01223Y02639D01*
X01219D01*
X01215Y02643D01*
X01211Y02639D01*
X01207D01*
X01211Y02635D01*
X01207Y02631D01*
X01211D01*
X01215Y02627D01*
Y02631D02*
X01217Y02633D01*
X01219D01*
X01217Y02635D01*
X01219Y02637D01*
X01217D01*
X01215Y02639D01*
X01213Y02637D01*
X01211D01*
X01213Y02635D01*
X01211Y02633D01*
X01213D01*
X01215Y02631D01*
X01465Y02627D02*
X01469Y02631D01*
X01473D01*
X01469Y02635D01*
X01473Y02639D01*
X01469D01*
X01465Y02643D01*
X01461Y02639D01*
X01457D01*
X01461Y02635D01*
X01457Y02631D01*
X01461D01*
X01465Y02627D01*
Y02631D02*
X01467Y02633D01*
X01469D01*
X01467Y02635D01*
X01469Y02637D01*
X01467D01*
X01465Y02639D01*
X01463Y02637D01*
X01461D01*
X01463Y02635D01*
X01461Y02633D01*
X01463D01*
X01465Y02631D01*
X03971Y019236D02*
X03975Y019316D01*
X03971Y019396D01*
X03979Y019356D01*
X03987Y019396D01*
X03983Y019316D01*
X03987Y019236D01*
X03979Y019276D01*
X03971Y019236D01*
X034692Y02177D02*
X034732Y02185D01*
X034692Y02193D01*
X034772Y02189D01*
X034852Y02193D01*
X034812Y02185D01*
X034852Y02177D01*
X034772Y02181D01*
X034692Y02177D01*
X035366Y022075D02*
X035405Y022155D01*
X035366Y022235D01*
X035445Y022195D01*
X035526Y022235D01*
X035485Y022155D01*
X035526Y022075D01*
X035445Y022115D01*
X035366Y022075D01*
X036612Y022726D02*
X036652Y022806D01*
X036612Y022886D01*
X036692Y022846D01*
X036772Y022886D01*
X036732Y022806D01*
X036772Y022726D01*
X036692Y022766D01*
X036612Y022726D01*
X03577Y01512D02*
X03581Y0152D01*
X03577Y01528D01*
X03585Y01524D01*
X03593Y01528D01*
X03589Y0152D01*
X03593Y01512D01*
X03585Y01516D01*
X03577Y01512D01*
Y01372D02*
X03581Y0138D01*
X03577Y01388D01*
X03585Y01384D01*
X03593Y01388D01*
X03589Y0138D01*
X03593Y01372D01*
X03585Y01376D01*
X03577Y01372D01*
X03972Y01167D02*
X03976Y01175D01*
X03972Y01183D01*
X0398Y01179D01*
X03988Y01183D01*
X03984Y01175D01*
X03988Y01167D01*
X0398Y01171D01*
X03972Y01167D01*
X04032Y01197D02*
X04036Y01205D01*
X04032Y01213D01*
X0404Y01209D01*
X04048Y01213D01*
X04044Y01205D01*
X04048Y01197D01*
X0404Y01201D01*
X04032Y01197D01*
X03952Y02742D02*
X03956Y0275D01*
X03952Y02758D01*
X0396Y02754D01*
X03968Y02758D01*
X03964Y0275D01*
X03968Y02742D01*
X0396Y02746D01*
X03952Y02742D01*
X04427Y01792D02*
X04431Y018D01*
X04427Y01808D01*
X04435Y01804D01*
X04443Y01808D01*
X04439Y018D01*
X04443Y01792D01*
X04435Y01796D01*
X04427Y01792D01*
X04487Y01412D02*
X04491Y0142D01*
X04487Y01428D01*
X04495Y01424D01*
X04503Y01428D01*
X04499Y0142D01*
X04503Y01412D01*
X04495Y01416D01*
X04487Y01412D01*
X04557Y01567D02*
X04561Y01575D01*
X04557Y01583D01*
X04565Y01579D01*
X04573Y01583D01*
X04569Y01575D01*
X04573Y01567D01*
X04565Y01571D01*
X04557Y01567D01*
X04502Y01267D02*
X04506Y01275D01*
X04502Y01283D01*
X0451Y01279D01*
X04518Y01283D01*
X04514Y01275D01*
X04518Y01267D01*
X0451Y01271D01*
X04502Y01267D01*
X03387Y026527D02*
X03391Y026607D01*
X03387Y026687D01*
X03395Y026647D01*
X03403Y026687D01*
X03399Y026607D01*
X03403Y026527D01*
X03395Y026567D01*
X03387Y026527D01*
X035988Y023577D02*
X036028Y023657D01*
X035988Y023737D01*
X036068Y023697D01*
X036148Y023737D01*
X036108Y023657D01*
X036148Y023577D01*
X036068Y023617D01*
X035988Y023577D01*
X035272Y02411D02*
X035312Y02419D01*
X035272Y02427D01*
X035352Y02423D01*
X035432Y02427D01*
X035392Y02419D01*
X035432Y02411D01*
X035352Y02415D01*
X035272Y02411D01*
X03772Y02462D02*
X03776Y0247D01*
X03772Y02478D01*
X0378Y02474D01*
X03788Y02478D01*
X03784Y0247D01*
X03788Y02462D01*
X0378Y02466D01*
X03772Y02462D01*
X03582Y02272D02*
X03586Y0228D01*
X03582Y02288D01*
X0359Y02284D01*
X03598Y02288D01*
X03594Y0228D01*
X03598Y02272D01*
X0359Y02276D01*
X03582Y02272D01*
X03782Y02372D02*
X03786Y0238D01*
X03782Y02388D01*
X0379Y02384D01*
X03798Y02388D01*
X03794Y0238D01*
X03798Y02372D01*
X0379Y02376D01*
X03782Y02372D01*
X03942Y02562D02*
X03946Y0257D01*
X03942Y02578D01*
X0395Y02574D01*
X03958Y02578D01*
X03954Y0257D01*
X03958Y02562D01*
X0395Y02566D01*
X03942Y02562D01*
X031351Y020344D02*
X031391Y020424D01*
X031351Y020504D01*
X031431Y020464D01*
X031511Y020504D01*
X031471Y020424D01*
X031511Y020344D01*
X031431Y020384D01*
X031351Y020344D01*
X03174Y021113D02*
X03178Y021193D01*
X03174Y021273D01*
X03182Y021233D01*
X0319Y021273D01*
X03186Y021193D01*
X0319Y021113D01*
X03182Y021153D01*
X03174Y021113D01*
X02197Y02017D02*
X02201Y02025D01*
X02197Y02033D01*
X02205Y02029D01*
X02213Y02033D01*
X02209Y02025D01*
X02213Y02017D01*
X02205Y02021D01*
X02197Y02017D01*
Y02147D02*
X02201Y02155D01*
X02197Y02163D01*
X02205Y02159D01*
X02213Y02163D01*
X02209Y02155D01*
X02213Y02147D01*
X02205Y02151D01*
X02197Y02147D01*
X03202Y02142D02*
X03206Y0215D01*
X03202Y02158D01*
X0321Y02154D01*
X03218Y02158D01*
X03214Y0215D01*
X03218Y02142D01*
X0321Y02146D01*
X03202Y02142D01*
X03232Y02337D02*
X03236Y02345D01*
X03232Y02353D01*
X0324Y02349D01*
X03248Y02353D01*
X03244Y02345D01*
X03248Y02337D01*
X0324Y02341D01*
X03232Y02337D01*
X02247Y01992D02*
X02251Y02D01*
X02247Y02008D01*
X02255Y02004D01*
X02263Y02008D01*
X02259Y02D01*
X02263Y01992D01*
X02255Y01996D01*
X02247Y01992D01*
X025503D02*
X025543Y02D01*
X025503Y02008D01*
X025583Y02004D01*
X025663Y02008D01*
X025623Y02D01*
X025663Y01992D01*
X025583Y01996D01*
X025503Y01992D01*
X023987D02*
X024027Y02D01*
X023987Y02008D01*
X024067Y02004D01*
X024147Y02008D01*
X024107Y02D01*
X024147Y01992D01*
X024067Y01996D01*
X023987Y01992D01*
X024745D02*
X024785Y02D01*
X024745Y02008D01*
X024825Y02004D01*
X024905Y02008D01*
X024865Y02D01*
X024905Y01992D01*
X024825Y01996D01*
X024745Y01992D01*
X023228D02*
X023268Y02D01*
X023228Y02008D01*
X023308Y02004D01*
X023388Y02008D01*
X023348Y02D01*
X023388Y01992D01*
X023308Y01996D01*
X023228Y01992D01*
X026262D02*
X026302Y02D01*
X026262Y02008D01*
X026342Y02004D01*
X026422Y02008D01*
X026382Y02D01*
X026422Y01992D01*
X026342Y01996D01*
X026262Y01992D01*
X02702D02*
X02706Y02D01*
X02702Y02008D01*
X0271Y02004D01*
X02718Y02008D01*
X02714Y02D01*
X02718Y01992D01*
X0271Y01996D01*
X02702Y01992D01*
X03452Y02622D02*
X03456Y0263D01*
X03452Y02638D01*
X0346Y02634D01*
X03468Y02638D01*
X03464Y0263D01*
X03468Y02622D01*
X0346Y02626D01*
X03452Y02622D01*
X03232Y02432D02*
X03236Y0244D01*
X03232Y02448D01*
X0324Y02444D01*
X03248Y02448D01*
X03244Y0244D01*
X03248Y02432D01*
X0324Y02436D01*
X03232Y02432D01*
X04397Y02542D02*
X04401Y0255D01*
X04397Y02558D01*
X04405Y02554D01*
X04413Y02558D01*
X04409Y0255D01*
X04413Y02542D01*
X04405Y02546D01*
X04397Y02542D01*
X04412Y02262D02*
X04416Y0227D01*
X04412Y02278D01*
X0442Y02274D01*
X04428Y02278D01*
X04424Y0227D01*
X04428Y02262D01*
X0442Y02266D01*
X04412Y02262D01*
X04332D02*
X04336Y0227D01*
X04332Y02278D01*
X0434Y02274D01*
X04348Y02278D01*
X04344Y0227D01*
X04348Y02262D01*
X0434Y02266D01*
X04332Y02262D01*
X04392Y01842D02*
X04396Y0185D01*
X04392Y01858D01*
X044Y01854D01*
X04408Y01858D01*
X04404Y0185D01*
X04408Y01842D01*
X044Y01846D01*
X04392Y01842D01*
X03897Y01207D02*
X03901Y01215D01*
X03897Y01223D01*
X03905Y01219D01*
X03913Y01223D01*
X03909Y01215D01*
X03913Y01207D01*
X03905Y01211D01*
X03897Y01207D01*
X01252Y01862D02*
X01256Y0187D01*
X01252Y01878D01*
X0126Y01874D01*
X01268Y01878D01*
X01264Y0187D01*
X01268Y01862D01*
X0126Y01866D01*
X01252Y01862D01*
X01257Y01772D02*
X01261Y0178D01*
X01257Y01788D01*
X01265Y01784D01*
X01273Y01788D01*
X01269Y0178D01*
X01273Y01772D01*
X01265Y01776D01*
X01257Y01772D01*
X01472Y01902D02*
X01476Y0191D01*
X01472Y01918D01*
X0148Y01914D01*
X01488Y01918D01*
X01484Y0191D01*
X01488Y01902D01*
X0148Y01906D01*
X01472Y01902D01*
X03302Y02767D02*
X03306Y02775D01*
X03302Y02783D01*
X0331Y02779D01*
X03318Y02783D01*
X03314Y02775D01*
X03318Y02767D01*
X0331Y02771D01*
X03302Y02767D01*
X03452Y02737D02*
X03456Y02745D01*
X03452Y02753D01*
X0346Y02749D01*
X03468Y02753D01*
X03464Y02745D01*
X03468Y02737D01*
X0346Y02741D01*
X03452Y02737D01*
X03502Y02772D02*
X03506Y0278D01*
X03502Y02788D01*
X0351Y02784D01*
X03518Y02788D01*
X03514Y0278D01*
X03518Y02772D01*
X0351Y02776D01*
X03502Y02772D01*
X03452D02*
X03456Y0278D01*
X03452Y02788D01*
X0346Y02784D01*
X03468Y02788D01*
X03464Y0278D01*
X03468Y02772D01*
X0346Y02776D01*
X03452Y02772D01*
X03347D02*
X03351Y0278D01*
X03347Y02788D01*
X03355Y02784D01*
X03363Y02788D01*
X03359Y0278D01*
X03363Y02772D01*
X03355Y02776D01*
X03347Y02772D01*
X03252Y02767D02*
X03256Y02775D01*
X03252Y02783D01*
X0326Y02779D01*
X03268Y02783D01*
X03264Y02775D01*
X03268Y02767D01*
X0326Y02771D01*
X03252Y02767D01*
X03347Y02732D02*
X03351Y0274D01*
X03347Y02748D01*
X03355Y02744D01*
X03363Y02748D01*
X03359Y0274D01*
X03363Y02732D01*
X03355Y02736D01*
X03347Y02732D01*
X03302D02*
X03306Y0274D01*
X03302Y02748D01*
X0331Y02744D01*
X03318Y02748D01*
X03314Y0274D01*
X03318Y02732D01*
X0331Y02736D01*
X03302Y02732D01*
X03257D02*
X03261Y0274D01*
X03257Y02748D01*
X03265Y02744D01*
X03273Y02748D01*
X03269Y0274D01*
X03273Y02732D01*
X03265Y02736D01*
X03257Y02732D01*
X03262Y01967D02*
X03266Y01975D01*
X03262Y01983D01*
X0327Y01979D01*
X03278Y01983D01*
X03274Y01975D01*
X03278Y01967D01*
X0327Y01971D01*
X03262Y01967D01*
X03247Y02007D02*
X03251Y02015D01*
X03247Y02023D01*
X03255Y02019D01*
X03263Y02023D01*
X03259Y02015D01*
X03263Y02007D01*
X03255Y02011D01*
X03247Y02007D01*
X032313Y02052D02*
X032353Y0206D01*
X032313Y02068D01*
X032393Y02064D01*
X032473Y02068D01*
X032433Y0206D01*
X032473Y02052D01*
X032393Y02056D01*
X032313Y02052D01*
X03177Y01312D02*
X03181Y0132D01*
X03177Y01328D01*
X03185Y01324D01*
X03193Y01328D01*
X03189Y0132D01*
X03193Y01312D01*
X03185Y01316D01*
X03177Y01312D01*
Y01197D02*
X03181Y01205D01*
X03177Y01213D01*
X03185Y01209D01*
X03193Y01213D01*
X03189Y01205D01*
X03193Y01197D01*
X03185Y01201D01*
X03177Y01197D01*
X03547Y02097D02*
X03551Y02105D01*
X03547Y02113D01*
X03555Y02109D01*
X03563Y02113D01*
X03559Y02105D01*
X03563Y02097D01*
X03555Y02101D01*
X03547Y02097D01*
X01757Y02332D02*
X01761Y0234D01*
X01757Y02348D01*
X01765Y02344D01*
X01773Y02348D01*
X01769Y0234D01*
X01773Y02332D01*
X01765Y02336D01*
X01757Y02332D01*
X01947D02*
X01951Y0234D01*
X01947Y02348D01*
X01955Y02344D01*
X01963Y02348D01*
X01959Y0234D01*
X01963Y02332D01*
X01955Y02336D01*
X01947Y02332D01*
X01967Y02137D02*
X01971Y02145D01*
X01967Y02153D01*
X01975Y02149D01*
X01983Y02153D01*
X01979Y02145D01*
X01983Y02137D01*
X01975Y02141D01*
X01967Y02137D01*
X038994Y022536D02*
X039034Y022616D01*
X038994Y022696D01*
X039074Y022656D01*
X039154Y022696D01*
X039114Y022616D01*
X039154Y022536D01*
X039074Y022576D01*
X038994Y022536D01*
X03782Y02202D02*
X03786Y0221D01*
X03782Y02218D01*
X0379Y02214D01*
X03798Y02218D01*
X03794Y0221D01*
X03798Y02202D01*
X0379Y02206D01*
X03782Y02202D01*
X03982D02*
X03986Y0221D01*
X03982Y02218D01*
X0399Y02214D01*
X03998Y02218D01*
X03994Y0221D01*
X03998Y02202D01*
X0399Y02206D01*
X03982Y02202D01*
X02387Y02302D02*
X02391Y0231D01*
X02387Y02318D01*
X02395Y02314D01*
X02403Y02318D01*
X02399Y0231D01*
X02403Y02302D01*
X02395Y02306D01*
X02387Y02302D01*
X02392Y02447D02*
X02396Y02455D01*
X02392Y02463D01*
X024Y02459D01*
X02408Y02463D01*
X02404Y02455D01*
X02408Y02447D01*
X024Y02451D01*
X02392Y02447D01*
X03662Y02492D02*
X03666Y025D01*
X03662Y02508D01*
X0367Y02504D01*
X03678Y02508D01*
X03674Y025D01*
X03678Y02492D01*
X0367Y02496D01*
X03662Y02492D01*
X035818Y026218D02*
X035858Y026298D01*
X035818Y026378D01*
X035898Y026338D01*
X035978Y026378D01*
X035938Y026298D01*
X035978Y026218D01*
X035898Y026258D01*
X035818Y026218D01*
X03962Y02152D02*
X03966Y0216D01*
X03962Y02168D01*
X0397Y02164D01*
X03978Y02168D01*
X03974Y0216D01*
X03978Y02152D01*
X0397Y02156D01*
X03962Y02152D01*
X04032Y02277D02*
X04036Y02285D01*
X04032Y02293D01*
X0404Y02289D01*
X04048Y02293D01*
X04044Y02285D01*
X04048Y02277D01*
X0404Y02281D01*
X04032Y02277D01*
X042285Y024522D02*
X042325Y024602D01*
X042285Y024682D01*
X042365Y024642D01*
X042445Y024682D01*
X042405Y024602D01*
X042445Y024522D01*
X042365Y024562D01*
X042285Y024522D01*
X03592Y02012D02*
X03596Y0202D01*
X03592Y02028D01*
X036Y02024D01*
X03608Y02028D01*
X03604Y0202D01*
X03608Y02012D01*
X036Y02016D01*
X03592Y02012D01*
X03477D02*
X03481Y0202D01*
X03477Y02028D01*
X03485Y02024D01*
X03493Y02028D01*
X03489Y0202D01*
X03493Y02012D01*
X03485Y02016D01*
X03477Y02012D01*
X03842Y02077D02*
X03846Y02085D01*
X03842Y02093D01*
X0385Y02089D01*
X03858Y02093D01*
X03854Y02085D01*
X03858Y02077D01*
X0385Y02081D01*
X03842Y02077D01*
X03262Y02122D02*
X03266Y0213D01*
X03262Y02138D01*
X0327Y02134D01*
X03278Y02138D01*
X03274Y0213D01*
X03278Y02122D01*
X0327Y02126D01*
X03262Y02122D01*
X03977Y02522D02*
X03981Y0253D01*
X03977Y02538D01*
X03985Y02534D01*
X03993Y02538D01*
X03989Y0253D01*
X03993Y02522D01*
X03985Y02526D01*
X03977Y02522D01*
X04027Y02547D02*
X04031Y02555D01*
X04027Y02563D01*
X04035Y02559D01*
X04043Y02563D01*
X04039Y02555D01*
X04043Y02547D01*
X04035Y02551D01*
X04027Y02547D01*
X04237Y02267D02*
X04241Y02275D01*
X04237Y02283D01*
X04245Y02279D01*
X04253Y02283D01*
X04249Y02275D01*
X04253Y02267D01*
X04245Y02271D01*
X04237Y02267D01*
X04167Y02697D02*
X04171Y02705D01*
X04167Y02713D01*
X04175Y02709D01*
X04183Y02713D01*
X04179Y02705D01*
X04183Y02697D01*
X04175Y02701D01*
X04167Y02697D01*
Y02602D02*
X04171Y0261D01*
X04167Y02618D01*
X04175Y02614D01*
X04183Y02618D01*
X04179Y0261D01*
X04183Y02602D01*
X04175Y02606D01*
X04167Y02602D01*
X03647Y02452D02*
X03651Y0246D01*
X03647Y02468D01*
X03655Y02464D01*
X03663Y02468D01*
X03659Y0246D01*
X03663Y02452D01*
X03655Y02456D01*
X03647Y02452D01*
X03387Y02477D02*
X03391Y02485D01*
X03387Y02493D01*
X03395Y02489D01*
X03403Y02493D01*
X03399Y02485D01*
X03403Y02477D01*
X03395Y02481D01*
X03387Y02477D01*
X033875Y024285D02*
X033915Y024365D01*
X033875Y024445D01*
X033955Y024405D01*
X034035Y024445D01*
X033995Y024365D01*
X034035Y024285D01*
X033955Y024325D01*
X033875Y024285D01*
X02712Y02432D02*
X02716Y0244D01*
X02712Y02448D01*
X0272Y02444D01*
X02728Y02448D01*
X02724Y0244D01*
X02728Y02432D01*
X0272Y02436D01*
X02712Y02432D01*
X02717Y02342D02*
X02721Y0235D01*
X02717Y02358D01*
X02725Y02354D01*
X02733Y02358D01*
X02729Y0235D01*
X02733Y02342D01*
X02725Y02346D01*
X02717Y02342D01*
X01457Y01312D02*
X01461Y0132D01*
X01457Y01328D01*
X01465Y01324D01*
X01473Y01328D01*
X01469Y0132D01*
X01473Y01312D01*
X01465Y01316D01*
X01457Y01312D01*
Y01377D02*
X01461Y01385D01*
X01457Y01393D01*
X01465Y01389D01*
X01473Y01393D01*
X01469Y01385D01*
X01473Y01377D01*
X01465Y01381D01*
X01457Y01377D01*
Y01432D02*
X01461Y0144D01*
X01457Y01448D01*
X01465Y01444D01*
X01473Y01448D01*
X01469Y0144D01*
X01473Y01432D01*
X01465Y01436D01*
X01457Y01432D01*
X01507Y01307D02*
X01511Y01315D01*
X01507Y01323D01*
X01515Y01319D01*
X01523Y01323D01*
X01519Y01315D01*
X01523Y01307D01*
X01515Y01311D01*
X01507Y01307D01*
Y01377D02*
X01511Y01385D01*
X01507Y01393D01*
X01515Y01389D01*
X01523Y01393D01*
X01519Y01385D01*
X01523Y01377D01*
X01515Y01381D01*
X01507Y01377D01*
Y01432D02*
X01511Y0144D01*
X01507Y01448D01*
X01515Y01444D01*
X01523Y01448D01*
X01519Y0144D01*
X01523Y01432D01*
X01515Y01436D01*
X01507Y01432D01*
X02517Y02592D02*
X02521Y026D01*
X02517Y02608D01*
X02525Y02604D01*
X02533Y02608D01*
X02529Y026D01*
X02533Y02592D01*
X02525Y02596D01*
X02517Y02592D01*
Y02647D02*
X02521Y02655D01*
X02517Y02663D01*
X02525Y02659D01*
X02533Y02663D01*
X02529Y02655D01*
X02533Y02647D01*
X02525Y02651D01*
X02517Y02647D01*
Y02707D02*
X02521Y02715D01*
X02517Y02723D01*
X02525Y02719D01*
X02533Y02723D01*
X02529Y02715D01*
X02533Y02707D01*
X02525Y02711D01*
X02517Y02707D01*
X02587Y02592D02*
X02591Y026D01*
X02587Y02608D01*
X02595Y02604D01*
X02603Y02608D01*
X02599Y026D01*
X02603Y02592D01*
X02595Y02596D01*
X02587Y02592D01*
Y02647D02*
X02591Y02655D01*
X02587Y02663D01*
X02595Y02659D01*
X02603Y02663D01*
X02599Y02655D01*
X02603Y02647D01*
X02595Y02651D01*
X02587Y02647D01*
Y02707D02*
X02591Y02715D01*
X02587Y02723D01*
X02595Y02719D01*
X02603Y02723D01*
X02599Y02715D01*
X02603Y02707D01*
X02595Y02711D01*
X02587Y02707D01*
X02667Y02592D02*
X02671Y026D01*
X02667Y02608D01*
X02675Y02604D01*
X02683Y02608D01*
X02679Y026D01*
X02683Y02592D01*
X02675Y02596D01*
X02667Y02592D01*
Y02647D02*
X02671Y02655D01*
X02667Y02663D01*
X02675Y02659D01*
X02683Y02663D01*
X02679Y02655D01*
X02683Y02647D01*
X02675Y02651D01*
X02667Y02647D01*
Y02707D02*
X02671Y02715D01*
X02667Y02723D01*
X02675Y02719D01*
X02683Y02723D01*
X02679Y02715D01*
X02683Y02707D01*
X02675Y02711D01*
X02667Y02707D01*
X02797Y01662D02*
X02801Y0167D01*
X02797Y01678D01*
X02805Y01674D01*
X02813Y01678D01*
X02809Y0167D01*
X02813Y01662D01*
X02805Y01666D01*
X02797Y01662D01*
X03962Y01462D02*
X03966Y0147D01*
X03962Y01478D01*
X0397Y01474D01*
X03978Y01478D01*
X03974Y0147D01*
X03978Y01462D01*
X0397Y01466D01*
X03962Y01462D01*
X01777Y01952D02*
X01781Y0196D01*
X01777Y01968D01*
X01785Y01964D01*
X01793Y01968D01*
X01789Y0196D01*
X01793Y01952D01*
X01785Y01956D01*
X01777Y01952D01*
X01062Y01647D02*
X01066Y01655D01*
X01062Y01663D01*
X0107Y01659D01*
X01078Y01663D01*
X01074Y01655D01*
X01078Y01647D01*
X0107Y01651D01*
X01062Y01647D01*
X04392Y01537D02*
X04396Y01545D01*
X04392Y01553D01*
X044Y01549D01*
X04408Y01553D01*
X04404Y01545D01*
X04408Y01537D01*
X044Y01541D01*
X04392Y01537D01*
X03787Y01942D02*
X03791Y0195D01*
X03787Y01958D01*
X03795Y01954D01*
X03803Y01958D01*
X03799Y0195D01*
X03803Y01942D01*
X03795Y01946D01*
X03787Y01942D01*
X03827D02*
X03831Y0195D01*
X03827Y01958D01*
X03835Y01954D01*
X03843Y01958D01*
X03839Y0195D01*
X03843Y01942D01*
X03835Y01946D01*
X03827Y01942D01*
Y01992D02*
X03831Y02D01*
X03827Y02008D01*
X03835Y02004D01*
X03843Y02008D01*
X03839Y02D01*
X03843Y01992D01*
X03835Y01996D01*
X03827Y01992D01*
X03787D02*
X03791Y02D01*
X03787Y02008D01*
X03795Y02004D01*
X03803Y02008D01*
X03799Y02D01*
X03803Y01992D01*
X03795Y01996D01*
X03787Y01992D01*
X03722D02*
X03726Y02D01*
X03722Y02008D01*
X0373Y02004D01*
X03738Y02008D01*
X03734Y02D01*
X03738Y01992D01*
X0373Y01996D01*
X03722Y01992D01*
X03977Y01852D02*
X03981Y0186D01*
X03977Y01868D01*
X03985Y01864D01*
X03993Y01868D01*
X03989Y0186D01*
X03993Y01852D01*
X03985Y01856D01*
X03977Y01852D01*
X03962Y01302D02*
X03966Y0131D01*
X03962Y01318D01*
X0397Y01314D01*
X03978Y01318D01*
X03974Y0131D01*
X03978Y01302D01*
X0397Y01306D01*
X03962Y01302D01*
X03687Y01082D02*
X03691Y0109D01*
X03687Y01098D01*
X03695Y01094D01*
X03703Y01098D01*
X03699Y0109D01*
X03703Y01082D01*
X03695Y01086D01*
X03687Y01082D01*
X03527Y01087D02*
X03531Y01095D01*
X03527Y01103D01*
X03535Y01099D01*
X03543Y01103D01*
X03539Y01095D01*
X03543Y01087D01*
X03535Y01091D01*
X03527Y01087D01*
X03102Y01092D02*
X03106Y011D01*
X03102Y01108D01*
X0311Y01104D01*
X03118Y01108D01*
X03114Y011D01*
X03118Y01092D01*
X0311Y01096D01*
X03102Y01092D01*
X01837Y01952D02*
X01841Y0196D01*
X01837Y01968D01*
X01845Y01964D01*
X01853Y01968D01*
X01849Y0196D01*
X01853Y01952D01*
X01845Y01956D01*
X01837Y01952D01*
X01712D02*
X01716Y0196D01*
X01712Y01968D01*
X0172Y01964D01*
X01728Y01968D01*
X01724Y0196D01*
X01728Y01952D01*
X0172Y01956D01*
X01712Y01952D01*
X02197Y01192D02*
X02201Y012D01*
X02197Y01208D01*
X02205Y01204D01*
X02213Y01208D01*
X02209Y012D01*
X02213Y01192D01*
X02205Y01196D01*
X02197Y01192D01*
X02201Y01196D02*
X02203Y012D01*
X02201Y01204D01*
X02205Y01202D01*
X02209Y01204D01*
X02207Y012D01*
X02209Y01196D01*
X02205Y01198D01*
X02201Y01196D01*
X01912Y01122D02*
X01916Y0113D01*
X01912Y01138D01*
X0192Y01134D01*
X01928Y01138D01*
X01924Y0113D01*
X01928Y01122D01*
X0192Y01126D01*
X01912Y01122D01*
X01916Y01126D02*
X01918Y0113D01*
X01916Y01134D01*
X0192Y01132D01*
X01924Y01134D01*
X01922Y0113D01*
X01924Y01126D01*
X0192Y01128D01*
X01916Y01126D01*
X01722Y01362D02*
X01726Y0137D01*
X01722Y01378D01*
X0173Y01374D01*
X01738Y01378D01*
X01734Y0137D01*
X01738Y01362D01*
X0173Y01366D01*
X01722Y01362D01*
X01787D02*
X01791Y0137D01*
X01787Y01378D01*
X01795Y01374D01*
X01803Y01378D01*
X01799Y0137D01*
X01803Y01362D01*
X01795Y01366D01*
X01787Y01362D01*
X01862D02*
X01866Y0137D01*
X01862Y01378D01*
X0187Y01374D01*
X01878Y01378D01*
X01874Y0137D01*
X01878Y01362D01*
X0187Y01366D01*
X01862Y01362D01*
X01857Y01422D02*
X01861Y0143D01*
X01857Y01438D01*
X01865Y01434D01*
X01873Y01438D01*
X01869Y0143D01*
X01873Y01422D01*
X01865Y01426D01*
X01857Y01422D01*
X01782D02*
X01786Y0143D01*
X01782Y01438D01*
X0179Y01434D01*
X01798Y01438D01*
X01794Y0143D01*
X01798Y01422D01*
X0179Y01426D01*
X01782Y01422D01*
X01715Y014197D02*
X01719Y014277D01*
X01715Y014357D01*
X01723Y014317D01*
X01731Y014357D01*
X01727Y014277D01*
X01731Y014197D01*
X01723Y014237D01*
X01715Y014197D01*
D103*
X03153Y0289D02*
G03*
X03153Y0289I-00008J0D01*
G01*
X044737Y027708D02*
G03*
X044737Y027708I-00008J0D01*
G01*
Y028692D02*
G03*
X044737Y028692I-00008J0D01*
G01*
D104*
X044697Y027708D02*
G03*
X044697Y027708I-00004J0D01*
G01*
Y028692D02*
G03*
X044697Y028692I-00004J0D01*
G01*
M02*
