G04*
G04 #@! TF.GenerationSoftware,Altium Limited,Altium Designer,21.3.2 (30)*
G04*
G04 Layer_Color=255*
%FSTAX24Y24*%
%MOIN*%
G70*
G04*
G04 #@! TF.SameCoordinates,31FF7248-0B4B-413F-84E3-F9EDAC069AC3*
G04*
G04*
G04 #@! TF.FilePolarity,Positive*
G04*
G01*
G75*
%ADD19R,0.0394X0.0374*%
G04:AMPARAMS|DCode=20|XSize=35.8mil|YSize=32.7mil|CornerRadius=8.7mil|HoleSize=0mil|Usage=FLASHONLY|Rotation=90.000|XOffset=0mil|YOffset=0mil|HoleType=Round|Shape=RoundedRectangle|*
%AMROUNDEDRECTD20*
21,1,0.0358,0.0154,0,0,90.0*
21,1,0.0185,0.0327,0,0,90.0*
1,1,0.0173,0.0077,0.0093*
1,1,0.0173,0.0077,-0.0093*
1,1,0.0173,-0.0077,-0.0093*
1,1,0.0173,-0.0077,0.0093*
%
%ADD20ROUNDEDRECTD20*%
G04:AMPARAMS|DCode=21|XSize=31.5mil|YSize=39.4mil|CornerRadius=3.9mil|HoleSize=0mil|Usage=FLASHONLY|Rotation=0.000|XOffset=0mil|YOffset=0mil|HoleType=Round|Shape=RoundedRectangle|*
%AMROUNDEDRECTD21*
21,1,0.0315,0.0315,0,0,0.0*
21,1,0.0236,0.0394,0,0,0.0*
1,1,0.0079,0.0118,-0.0157*
1,1,0.0079,-0.0118,-0.0157*
1,1,0.0079,-0.0118,0.0157*
1,1,0.0079,0.0118,0.0157*
%
%ADD21ROUNDEDRECTD21*%
%ADD22R,0.0374X0.0394*%
%ADD23R,0.0394X0.0236*%
%ADD24R,0.0780X0.0220*%
%ADD25R,0.0244X0.0224*%
G04:AMPARAMS|DCode=26|XSize=77.6mil|YSize=23.6mil|CornerRadius=3mil|HoleSize=0mil|Usage=FLASHONLY|Rotation=0.000|XOffset=0mil|YOffset=0mil|HoleType=Round|Shape=RoundedRectangle|*
%AMROUNDEDRECTD26*
21,1,0.0776,0.0177,0,0,0.0*
21,1,0.0717,0.0236,0,0,0.0*
1,1,0.0059,0.0358,-0.0089*
1,1,0.0059,-0.0358,-0.0089*
1,1,0.0059,-0.0358,0.0089*
1,1,0.0059,0.0358,0.0089*
%
%ADD26ROUNDEDRECTD26*%
%ADD27R,0.0728X0.1378*%
G04:AMPARAMS|DCode=28|XSize=47.6mil|YSize=28.7mil|CornerRadius=2.6mil|HoleSize=0mil|Usage=FLASHONLY|Rotation=90.000|XOffset=0mil|YOffset=0mil|HoleType=Round|Shape=RoundedRectangle|*
%AMROUNDEDRECTD28*
21,1,0.0476,0.0236,0,0,90.0*
21,1,0.0425,0.0287,0,0,90.0*
1,1,0.0052,0.0118,0.0212*
1,1,0.0052,0.0118,-0.0212*
1,1,0.0052,-0.0118,-0.0212*
1,1,0.0052,-0.0118,0.0212*
%
%ADD28ROUNDEDRECTD28*%
G04:AMPARAMS|DCode=29|XSize=36.6mil|YSize=51.6mil|CornerRadius=2.7mil|HoleSize=0mil|Usage=FLASHONLY|Rotation=270.000|XOffset=0mil|YOffset=0mil|HoleType=Round|Shape=RoundedRectangle|*
%AMROUNDEDRECTD29*
21,1,0.0366,0.0461,0,0,270.0*
21,1,0.0311,0.0516,0,0,270.0*
1,1,0.0055,-0.0230,-0.0156*
1,1,0.0055,-0.0230,0.0156*
1,1,0.0055,0.0230,0.0156*
1,1,0.0055,0.0230,-0.0156*
%
%ADD29ROUNDEDRECTD29*%
G04:AMPARAMS|DCode=30|XSize=127.6mil|YSize=51.6mil|CornerRadius=3.9mil|HoleSize=0mil|Usage=FLASHONLY|Rotation=270.000|XOffset=0mil|YOffset=0mil|HoleType=Round|Shape=RoundedRectangle|*
%AMROUNDEDRECTD30*
21,1,0.1276,0.0438,0,0,270.0*
21,1,0.1198,0.0516,0,0,270.0*
1,1,0.0077,-0.0219,-0.0599*
1,1,0.0077,-0.0219,0.0599*
1,1,0.0077,0.0219,0.0599*
1,1,0.0077,0.0219,-0.0599*
%
%ADD30ROUNDEDRECTD30*%
G04:AMPARAMS|DCode=31|XSize=35.8mil|YSize=32.7mil|CornerRadius=8.7mil|HoleSize=0mil|Usage=FLASHONLY|Rotation=0.000|XOffset=0mil|YOffset=0mil|HoleType=Round|Shape=RoundedRectangle|*
%AMROUNDEDRECTD31*
21,1,0.0358,0.0154,0,0,0.0*
21,1,0.0185,0.0327,0,0,0.0*
1,1,0.0173,0.0093,-0.0077*
1,1,0.0173,-0.0093,-0.0077*
1,1,0.0173,-0.0093,0.0077*
1,1,0.0173,0.0093,0.0077*
%
%ADD31ROUNDEDRECTD31*%
%ADD32R,0.0433X0.0236*%
%ADD33R,0.0394X0.0382*%
%ADD34R,0.0984X0.0591*%
%ADD35R,0.0610X0.0591*%
%ADD36R,0.0531X0.0157*%
%ADD37R,0.0236X0.0472*%
%ADD38R,0.0787X0.1417*%
G04:AMPARAMS|DCode=39|XSize=49.6mil|YSize=24mil|CornerRadius=6mil|HoleSize=0mil|Usage=FLASHONLY|Rotation=180.000|XOffset=0mil|YOffset=0mil|HoleType=Round|Shape=RoundedRectangle|*
%AMROUNDEDRECTD39*
21,1,0.0496,0.0120,0,0,180.0*
21,1,0.0376,0.0240,0,0,180.0*
1,1,0.0120,-0.0188,0.0060*
1,1,0.0120,0.0188,0.0060*
1,1,0.0120,0.0188,-0.0060*
1,1,0.0120,-0.0188,-0.0060*
%
%ADD39ROUNDEDRECTD39*%
%ADD40R,0.0787X0.0354*%
%ADD41R,0.0354X0.0787*%
%ADD42R,0.0524X0.0524*%
%ADD43R,0.0709X0.0461*%
%ADD85R,0.0515X0.0515*%
%ADD86C,0.0515*%
%ADD87C,0.0787*%
%ADD88R,0.0756X0.0756*%
%ADD89C,0.0756*%
%ADD90C,0.0276*%
%ADD91O,0.1200X0.0600*%
%ADD92O,0.0374X0.0512*%
%ADD93O,0.0610X0.0305*%
%ADD94C,0.1378*%
%ADD95C,0.0620*%
%ADD96R,0.0620X0.0620*%
%ADD97C,0.0118*%
%ADD98O,0.1600X0.1000*%
%ADD99O,0.1000X0.1600*%
D19*
X02915Y014835D02*
D03*
Y015465D02*
D03*
X02905Y017835D02*
D03*
Y017206D02*
D03*
X0281Y017835D02*
D03*
Y017206D02*
D03*
X04145Y014235D02*
D03*
Y014865D02*
D03*
X0415Y01323D02*
D03*
Y0126D02*
D03*
X044206Y022308D02*
D03*
Y021678D02*
D03*
X043406Y022308D02*
D03*
Y021678D02*
D03*
X03085Y025965D02*
D03*
Y025335D02*
D03*
X029933Y025965D02*
D03*
Y025335D02*
D03*
X029017Y025965D02*
D03*
Y025335D02*
D03*
X0281Y025965D02*
D03*
Y025335D02*
D03*
X01765Y02618D02*
D03*
Y02555D02*
D03*
X0148Y021202D02*
D03*
Y021832D02*
D03*
Y020198D02*
D03*
Y019569D02*
D03*
X0215Y01305D02*
D03*
Y01368D02*
D03*
Y012015D02*
D03*
Y011385D02*
D03*
X02285Y019466D02*
D03*
Y018836D02*
D03*
X02385Y019466D02*
D03*
Y018836D02*
D03*
X024738Y019466D02*
D03*
Y018836D02*
D03*
X027131Y019466D02*
D03*
Y018836D02*
D03*
X028119Y019466D02*
D03*
Y018836D02*
D03*
X029Y019466D02*
D03*
Y018836D02*
D03*
X026144Y019466D02*
D03*
Y018836D02*
D03*
X0182Y018781D02*
D03*
Y018152D02*
D03*
X01725Y0188D02*
D03*
Y01817D02*
D03*
X0366Y011565D02*
D03*
Y010935D02*
D03*
X0357Y011565D02*
D03*
Y010935D02*
D03*
X030695Y011637D02*
D03*
Y011007D02*
D03*
X03345Y02835D02*
D03*
Y02898D02*
D03*
X03435Y02835D02*
D03*
Y02898D02*
D03*
X032549Y028335D02*
D03*
Y028965D02*
D03*
X0299Y027515D02*
D03*
Y026885D02*
D03*
X02905Y027515D02*
D03*
Y026885D02*
D03*
D20*
X0284Y014855D02*
D03*
Y015445D02*
D03*
D21*
X02455Y01795D02*
D03*
X023959D02*
D03*
X046245Y0154D02*
D03*
X045655D02*
D03*
X044151Y020858D02*
D03*
X04356D02*
D03*
X017995Y01725D02*
D03*
X017405D02*
D03*
D22*
X038485Y0183D02*
D03*
X039115D02*
D03*
X038468Y017427D02*
D03*
X039098D02*
D03*
X038398Y014976D02*
D03*
X039028D02*
D03*
X038419Y013481D02*
D03*
X039049D02*
D03*
X039038Y012606D02*
D03*
X038408D02*
D03*
X0384Y0116D02*
D03*
X03903D02*
D03*
X043835Y01365D02*
D03*
X044465D02*
D03*
X043835Y01275D02*
D03*
X044465D02*
D03*
X04145Y0275D02*
D03*
X04208D02*
D03*
X041434Y026567D02*
D03*
X042063D02*
D03*
X039885Y0275D02*
D03*
X040515D02*
D03*
X04203Y02555D02*
D03*
X0414D02*
D03*
X04203Y0246D02*
D03*
X0414D02*
D03*
Y0237D02*
D03*
X04203D02*
D03*
X041435Y02185D02*
D03*
X042065D02*
D03*
X041435Y02095D02*
D03*
X042065D02*
D03*
X037315Y02255D02*
D03*
X036685D02*
D03*
X027585Y0244D02*
D03*
X028215D02*
D03*
X029185D02*
D03*
X029815D02*
D03*
X03143D02*
D03*
X0308D02*
D03*
X0308Y0235D02*
D03*
X03143D02*
D03*
X028215D02*
D03*
X027585D02*
D03*
X011135Y01655D02*
D03*
X011765D02*
D03*
X0204Y01135D02*
D03*
X01977D02*
D03*
X042065Y02275D02*
D03*
X041435D02*
D03*
X024985Y02415D02*
D03*
X025615D02*
D03*
X040515Y0266D02*
D03*
X039885D02*
D03*
X04292Y0237D02*
D03*
X04355D02*
D03*
X043565Y024599D02*
D03*
X042935D02*
D03*
X025615Y02215D02*
D03*
X024985D02*
D03*
D23*
X040672Y014126D02*
D03*
Y014874D02*
D03*
X039728Y0145D02*
D03*
X040672Y012526D02*
D03*
Y013274D02*
D03*
X039728Y0129D02*
D03*
D24*
X04037Y0238D02*
D03*
Y0243D02*
D03*
Y0248D02*
D03*
Y0253D02*
D03*
X03843D02*
D03*
Y0248D02*
D03*
Y0243D02*
D03*
Y0238D02*
D03*
X03848Y0226D02*
D03*
Y0221D02*
D03*
Y0216D02*
D03*
Y0211D02*
D03*
X04042D02*
D03*
Y0216D02*
D03*
Y0221D02*
D03*
Y0226D02*
D03*
D25*
X0374Y021539D02*
D03*
Y021161D02*
D03*
X036775Y021161D02*
D03*
Y021539D02*
D03*
X03615Y021539D02*
D03*
Y021161D02*
D03*
X03625Y0246D02*
D03*
Y024978D02*
D03*
Y025568D02*
D03*
Y025946D02*
D03*
X0324Y025568D02*
D03*
Y025946D02*
D03*
Y0246D02*
D03*
Y024978D02*
D03*
X0201Y021461D02*
D03*
Y021839D02*
D03*
X018615Y014929D02*
D03*
Y015307D02*
D03*
X017925Y014929D02*
D03*
Y015307D02*
D03*
X018615Y013089D02*
D03*
Y012711D02*
D03*
X017925Y013089D02*
D03*
Y012711D02*
D03*
X01725Y013089D02*
D03*
Y012711D02*
D03*
X01725Y014929D02*
D03*
Y015307D02*
D03*
D26*
X033415Y025849D02*
D03*
Y025349D02*
D03*
Y024849D02*
D03*
Y024349D02*
D03*
X035364D02*
D03*
Y024849D02*
D03*
Y025349D02*
D03*
Y025849D02*
D03*
X017176Y0219D02*
D03*
Y0224D02*
D03*
Y0229D02*
D03*
Y0234D02*
D03*
X019124D02*
D03*
Y0229D02*
D03*
Y0224D02*
D03*
Y0219D02*
D03*
D27*
X019457Y0285D02*
D03*
X021643D02*
D03*
D28*
X01666Y026422D02*
D03*
Y025099D02*
D03*
D29*
X0191Y019052D02*
D03*
Y01815D02*
D03*
Y017248D02*
D03*
D30*
X021734Y01815D02*
D03*
D31*
X013195Y01655D02*
D03*
X012605D02*
D03*
D32*
X019526Y01295D02*
D03*
Y012576D02*
D03*
Y012202D02*
D03*
X02055D02*
D03*
Y012576D02*
D03*
Y01295D02*
D03*
D33*
X01789Y011948D02*
D03*
X017311D02*
D03*
D34*
X01995Y013772D02*
D03*
Y015228D02*
D03*
D35*
X046653Y013806D02*
D03*
Y013018D02*
D03*
D36*
X0456Y013924D02*
D03*
Y013668D02*
D03*
Y013412D02*
D03*
Y013156D02*
D03*
Y0129D02*
D03*
D37*
X044Y015798D02*
D03*
X0435D02*
D03*
X043D02*
D03*
X0425D02*
D03*
X042D02*
D03*
X0415D02*
D03*
X041D02*
D03*
X0405D02*
D03*
Y018002D02*
D03*
X041D02*
D03*
X0415D02*
D03*
X042D02*
D03*
X0425D02*
D03*
X043D02*
D03*
X0435D02*
D03*
X044D02*
D03*
D38*
X021889Y02565D02*
D03*
X019211D02*
D03*
D39*
X0232Y02389D02*
D03*
X023972Y024264D02*
D03*
Y023516D02*
D03*
X0232Y02249D02*
D03*
X023972Y022864D02*
D03*
Y022116D02*
D03*
D40*
X030754Y019494D02*
D03*
Y018994D02*
D03*
Y018494D02*
D03*
Y017994D02*
D03*
Y017494D02*
D03*
Y016994D02*
D03*
Y016494D02*
D03*
Y015994D02*
D03*
Y015494D02*
D03*
Y014994D02*
D03*
Y014494D02*
D03*
Y013994D02*
D03*
Y013494D02*
D03*
Y012994D02*
D03*
X037446D02*
D03*
Y013494D02*
D03*
Y013994D02*
D03*
Y014494D02*
D03*
Y014994D02*
D03*
Y015494D02*
D03*
Y015994D02*
D03*
Y016494D02*
D03*
Y016994D02*
D03*
Y017494D02*
D03*
Y017994D02*
D03*
Y018494D02*
D03*
Y018994D02*
D03*
Y019494D02*
D03*
D41*
X03185Y0126D02*
D03*
X03235D02*
D03*
X03285D02*
D03*
X03335D02*
D03*
X03385D02*
D03*
X03435D02*
D03*
X03485D02*
D03*
X03535D02*
D03*
X03585D02*
D03*
X03635D02*
D03*
D42*
X032984Y017263D02*
D03*
X033706D02*
D03*
X034429D02*
D03*
X032984Y016541D02*
D03*
X033706D02*
D03*
X034429D02*
D03*
X032984Y015819D02*
D03*
X033706D02*
D03*
X034429D02*
D03*
D43*
X01615Y013679D02*
D03*
Y012521D02*
D03*
D85*
X02425Y015984D02*
D03*
X0246Y028834D02*
D03*
D86*
X02425Y014016D02*
D03*
X0246Y026866D02*
D03*
D87*
X03145Y0289D02*
D03*
X02745D02*
D03*
D88*
X0157Y028702D02*
D03*
D89*
X0167D02*
D03*
X0177D02*
D03*
D90*
X01865Y0158D02*
D03*
X0179D02*
D03*
X01725D02*
D03*
D91*
X01082Y02314D02*
D03*
Y02136D02*
D03*
X01338Y02314D02*
D03*
Y02136D02*
D03*
X01082Y02009D02*
D03*
Y01831D02*
D03*
X01338Y02009D02*
D03*
Y01831D02*
D03*
D92*
X04559Y014396D02*
D03*
Y012428D02*
D03*
D93*
X046653Y01479D02*
D03*
Y012034D02*
D03*
D94*
X01095Y02885D02*
D03*
X046606D02*
D03*
Y010886D02*
D03*
X01085Y01085D02*
D03*
D95*
X044657Y027708D02*
D03*
D96*
Y028692D02*
D03*
D97*
X033345Y017263D02*
D03*
X034068D02*
D03*
X032984Y016902D02*
D03*
X033706D02*
D03*
X034429D02*
D03*
X033345Y016541D02*
D03*
X034068D02*
D03*
X032984Y01618D02*
D03*
X033706D02*
D03*
X034429D02*
D03*
X033345Y015819D02*
D03*
X034068D02*
D03*
D98*
X01365Y02435D02*
D03*
D99*
X01215Y02635D02*
D03*
X01465D02*
D03*
M02*
