G04*
G04 #@! TF.GenerationSoftware,Altium Limited,Altium Designer,21.3.2 (30)*
G04*
G04 Layer_Color=255*
%FSTAX24Y24*%
%MOIN*%
G70*
G04*
G04 #@! TF.SameCoordinates,31FF7248-0B4B-413F-84E3-F9EDAC069AC3*
G04*
G04*
G04 #@! TF.FilePolarity,Positive*
G04*
G01*
G75*
%ADD85R,0.0515X0.0515*%
%ADD86C,0.0515*%
%ADD87C,0.0787*%
%ADD88R,0.0756X0.0756*%
%ADD89C,0.0756*%
%ADD90C,0.0276*%
%ADD91O,0.1200X0.0600*%
%ADD92O,0.0374X0.0512*%
%ADD93O,0.0610X0.0305*%
%ADD94C,0.1378*%
%ADD95C,0.0620*%
%ADD96R,0.0620X0.0620*%
%ADD97C,0.0118*%
%ADD98O,0.1600X0.1000*%
%ADD99O,0.1000X0.1600*%
D85*
X02425Y015984D02*
D03*
X0246Y028834D02*
D03*
D86*
X02425Y014016D02*
D03*
X0246Y026866D02*
D03*
D87*
X03145Y0289D02*
D03*
X02745D02*
D03*
D88*
X0157Y028702D02*
D03*
D89*
X0167D02*
D03*
X0177D02*
D03*
D90*
X01865Y0158D02*
D03*
X0179D02*
D03*
X01725D02*
D03*
D91*
X01082Y02314D02*
D03*
Y02136D02*
D03*
X01338Y02314D02*
D03*
Y02136D02*
D03*
X01082Y02009D02*
D03*
Y01831D02*
D03*
X01338Y02009D02*
D03*
Y01831D02*
D03*
D92*
X04559Y014396D02*
D03*
Y012428D02*
D03*
D93*
X046653Y01479D02*
D03*
Y012034D02*
D03*
D94*
X01095Y02885D02*
D03*
X046606D02*
D03*
Y010886D02*
D03*
X01085Y01085D02*
D03*
D95*
X044657Y027708D02*
D03*
D96*
Y028692D02*
D03*
D97*
X033345Y017263D02*
D03*
X034068D02*
D03*
X032984Y016902D02*
D03*
X033706D02*
D03*
X034429D02*
D03*
X033345Y016541D02*
D03*
X034068D02*
D03*
X032984Y01618D02*
D03*
X033706D02*
D03*
X034429D02*
D03*
X033345Y015819D02*
D03*
X034068D02*
D03*
D98*
X01365Y02435D02*
D03*
D99*
X01215Y02635D02*
D03*
X01465D02*
D03*
M02*
