G04*
G04 #@! TF.GenerationSoftware,Altium Limited,Altium Designer,21.3.2 (30)*
G04*
G04 Layer_Color=32896*
%FSTAX24Y24*%
%MOIN*%
G70*
G04*
G04 #@! TF.SameCoordinates,31FF7248-0B4B-413F-84E3-F9EDAC069AC3*
G04*
G04*
G04 #@! TF.FilePolarity,Positive*
G04*
G01*
G75*
%ADD17C,0.0138*%
%ADD18C,0.0033*%
D17*
X029307Y014835D02*
Y015465D01*
X028993Y014835D02*
Y015465D01*
X029307D01*
X028993Y014835D02*
X029307D01*
X028893Y017206D02*
Y017835D01*
X029207Y017206D02*
Y017835D01*
X028893Y017206D02*
X029207D01*
X028893Y017835D02*
X029207D01*
X027943Y017206D02*
Y017835D01*
X028257Y017206D02*
Y017835D01*
X027943Y017206D02*
X028257D01*
X027943Y017835D02*
X028257D01*
X038485Y018143D02*
X039115D01*
X038485Y018457D02*
X039115D01*
Y018143D02*
Y018457D01*
X038485Y018143D02*
Y018457D01*
X038468Y017269D02*
X039098D01*
X038468Y017584D02*
X039098D01*
Y017269D02*
Y017584D01*
X038468Y017269D02*
Y017584D01*
X038398Y014818D02*
X039028D01*
X038398Y015133D02*
X039028D01*
Y014818D02*
Y015133D01*
X038398Y014818D02*
Y015133D01*
X038419Y013323D02*
X039049D01*
X038419Y013638D02*
X039049D01*
Y013323D02*
Y013638D01*
X038419Y013323D02*
Y013638D01*
X038408Y012763D02*
X039038D01*
X038408Y012448D02*
X039038D01*
X038408D02*
Y012763D01*
X039038Y012448D02*
Y012763D01*
X0384Y011443D02*
X03903D01*
X0384Y011757D02*
X03903D01*
Y011443D02*
Y011757D01*
X0384Y011443D02*
Y011757D01*
X040476Y013909D02*
Y015091D01*
X039924Y013909D02*
Y015091D01*
Y013909D02*
X040476D01*
X039924Y015091D02*
X040476D01*
Y012309D02*
Y013491D01*
X039924Y012309D02*
Y013491D01*
Y012309D02*
X040476D01*
X039924Y013491D02*
X040476D01*
X041607Y014235D02*
Y014865D01*
X041293Y014235D02*
Y014865D01*
X041607D01*
X041293Y014235D02*
X041607D01*
X041343Y0126D02*
Y01323D01*
X041657Y0126D02*
Y01323D01*
X041343Y0126D02*
X041657D01*
X041343Y01323D02*
X041657D01*
X043835Y013493D02*
X044465D01*
X043835Y013807D02*
X044465D01*
Y013493D02*
Y013807D01*
X043835Y013493D02*
Y013807D01*
Y012593D02*
X044465D01*
X043835Y012907D02*
X044465D01*
Y012593D02*
Y012907D01*
X043835Y012593D02*
Y012907D01*
X04145Y027343D02*
X04208D01*
X04145Y027657D02*
X04208D01*
Y027343D02*
Y027657D01*
X04145Y027343D02*
Y027657D01*
X041434Y026409D02*
X042063D01*
X041434Y026724D02*
X042063D01*
Y026409D02*
Y026724D01*
X041434Y026409D02*
Y026724D01*
X039885Y027343D02*
X040515D01*
X039885Y027657D02*
X040515D01*
Y027343D02*
Y027657D01*
X039885Y027343D02*
Y027657D01*
X0414Y025707D02*
X04203D01*
X0414Y025393D02*
X04203D01*
X0414D02*
Y025707D01*
X04203Y025393D02*
Y025707D01*
X0414Y024757D02*
X04203D01*
X0414Y024443D02*
X04203D01*
X0414D02*
Y024757D01*
X04203Y024443D02*
Y024757D01*
Y023543D02*
Y023857D01*
X0414Y023543D02*
Y023857D01*
Y023543D02*
X04203D01*
X0414Y023857D02*
X04203D01*
X041435Y021693D02*
X042065D01*
X041435Y022007D02*
X042065D01*
Y021693D02*
Y022007D01*
X041435Y021693D02*
Y022007D01*
Y020793D02*
X042065D01*
X041435Y021107D02*
X042065D01*
Y020793D02*
Y021107D01*
X041435Y020793D02*
Y021107D01*
X044048Y021678D02*
Y022308D01*
X044363Y021678D02*
Y022308D01*
X044048Y021678D02*
X044363D01*
X044048Y022308D02*
X044363D01*
X043248Y021678D02*
Y022308D01*
X043563Y021678D02*
Y022308D01*
X043248Y021678D02*
X043563D01*
X043248Y022308D02*
X043563D01*
X037243Y021035D02*
X037557D01*
X037243Y021665D02*
X037557D01*
X037243Y021035D02*
Y021665D01*
X037557Y021035D02*
Y021665D01*
X036618Y021665D02*
X036932D01*
X036618Y021035D02*
X036932D01*
Y021665D01*
X036618Y021035D02*
Y021665D01*
X035993Y021035D02*
X036307D01*
X035993Y021665D02*
X036307D01*
X035993Y021035D02*
Y021665D01*
X036307Y021035D02*
Y021665D01*
X036685Y022707D02*
X037315D01*
X036685Y022393D02*
X037315D01*
X036685D02*
Y022707D01*
X037315Y022393D02*
Y022707D01*
X036093Y025104D02*
X036407D01*
X036093Y024474D02*
X036407D01*
Y025104D01*
X036093Y024474D02*
Y025104D01*
Y026072D02*
X036407D01*
X036093Y025442D02*
X036407D01*
Y026072D01*
X036093Y025442D02*
Y026072D01*
X032243D02*
X032557D01*
X032243Y025442D02*
X032557D01*
Y026072D01*
X032243Y025442D02*
Y026072D01*
Y025104D02*
X032557D01*
X032243Y024474D02*
X032557D01*
Y025104D01*
X032243Y024474D02*
Y025104D01*
X030693Y025335D02*
X031007D01*
X030693Y025965D02*
X031007D01*
X030693Y025335D02*
Y025965D01*
X031007Y025335D02*
Y025965D01*
X029776Y025335D02*
Y025965D01*
X030091Y025335D02*
Y025965D01*
X029776Y025335D02*
X030091D01*
X029776Y025965D02*
X030091D01*
X028859Y025335D02*
Y025965D01*
X029174Y025335D02*
Y025965D01*
X028859Y025335D02*
X029174D01*
X028859Y025965D02*
X029174D01*
X027943Y025335D02*
X028257D01*
X027943Y025965D02*
X028257D01*
X027943Y025335D02*
Y025965D01*
X028257Y025335D02*
Y025965D01*
X028215Y024243D02*
Y024557D01*
X027585Y024243D02*
Y024557D01*
Y024243D02*
X028215D01*
X027585Y024557D02*
X028215D01*
X029815Y024243D02*
Y024557D01*
X029185Y024243D02*
Y024557D01*
Y024243D02*
X029815D01*
X029185Y024557D02*
X029815D01*
X0308Y024243D02*
Y024557D01*
X03143Y024243D02*
Y024557D01*
X0308D02*
X03143D01*
X0308Y024243D02*
X03143D01*
X03143Y023343D02*
Y023657D01*
X0308Y023343D02*
Y023657D01*
Y023343D02*
X03143D01*
X0308Y023657D02*
X03143D01*
X027585Y023343D02*
Y023657D01*
X028215Y023343D02*
Y023657D01*
X027585D02*
X028215D01*
X027585Y023343D02*
X028215D01*
X017493Y02555D02*
X017807D01*
X017493Y02618D02*
X017807D01*
X017493Y02555D02*
Y02618D01*
X017807Y02555D02*
Y02618D01*
X020257Y021335D02*
Y021965D01*
X019943Y021335D02*
Y021965D01*
X020257D01*
X019943Y021335D02*
X020257D01*
X014643Y021832D02*
X014957D01*
X014643Y021202D02*
X014957D01*
Y021832D01*
X014643Y021202D02*
Y021832D01*
Y019569D02*
X014957D01*
X014643Y020198D02*
X014957D01*
X014643Y019569D02*
Y020198D01*
X014957Y019569D02*
Y020198D01*
X011765Y016393D02*
Y016707D01*
X011135Y016393D02*
Y016707D01*
Y016393D02*
X011765D01*
X011135Y016707D02*
X011765D01*
X018773Y014803D02*
Y015433D01*
X018458Y014803D02*
Y015433D01*
X018773D01*
X018458Y014803D02*
X018773D01*
X018082D02*
Y015433D01*
X017768Y014803D02*
Y015433D01*
X018082D01*
X017768Y014803D02*
X018082D01*
X021343Y01368D02*
X021657D01*
X021343Y01305D02*
X021657D01*
Y01368D01*
X021343Y01305D02*
Y01368D01*
Y011385D02*
Y012015D01*
X021657Y011385D02*
Y012015D01*
X021343Y011385D02*
X021657D01*
X021343Y012015D02*
X021657D01*
X01977Y011507D02*
X0204D01*
X01977Y011193D02*
X0204D01*
X01977D02*
Y011507D01*
X0204Y011193D02*
Y011507D01*
X019694Y011976D02*
Y013176D01*
X020383Y011976D02*
Y013176D01*
X019694D02*
X020383D01*
X019694Y011976D02*
X020383D01*
X018458Y012585D02*
Y013215D01*
X018773Y012585D02*
Y013215D01*
X018458Y012585D02*
X018773D01*
X018458Y013215D02*
X018773D01*
X017768Y012585D02*
Y013215D01*
X018082Y012585D02*
Y013215D01*
X017768Y012585D02*
X018082D01*
X017768Y013215D02*
X018082D01*
X017093Y012585D02*
Y013215D01*
X017407Y012585D02*
Y013215D01*
X017093Y012585D02*
X017407D01*
X017093Y013215D02*
X017407D01*
X017407Y014803D02*
Y015433D01*
X017093Y014803D02*
Y015433D01*
X017407D01*
X017093Y014803D02*
X017407D01*
X041435Y022907D02*
X042065D01*
X041435Y022593D02*
X042065D01*
X041435D02*
Y022907D01*
X042065Y022593D02*
Y022907D01*
X024985Y023993D02*
X025615D01*
X024985Y024307D02*
X025615D01*
Y023993D02*
Y024307D01*
X024985Y023993D02*
Y024307D01*
X039885Y026443D02*
Y026757D01*
X040515Y026443D02*
Y026757D01*
X039885D02*
X040515D01*
X039885Y026443D02*
X040515D01*
X04355Y023543D02*
Y023857D01*
X04292Y023543D02*
Y023857D01*
Y023543D02*
X04355D01*
X04292Y023857D02*
X04355D01*
X022693Y018836D02*
Y019466D01*
X023007Y018836D02*
Y019466D01*
X022693Y018836D02*
X023007D01*
X022693Y019466D02*
X023007D01*
X023693Y018836D02*
Y019466D01*
X024007Y018836D02*
Y019466D01*
X023693Y018836D02*
X024007D01*
X023693Y019466D02*
X024007D01*
X02458Y018836D02*
Y019466D01*
X024895Y018836D02*
Y019466D01*
X02458Y018836D02*
X024895D01*
X02458Y019466D02*
X024895D01*
X026974Y018836D02*
Y019466D01*
X027289Y018836D02*
Y019466D01*
X026974Y018836D02*
X027289D01*
X026974Y019466D02*
X027289D01*
X027961Y018836D02*
Y019466D01*
X028276Y018836D02*
Y019466D01*
X027961Y018836D02*
X028276D01*
X027961Y019466D02*
X028276D01*
X028843Y018836D02*
Y019466D01*
X029157Y018836D02*
Y019466D01*
X028843Y018836D02*
X029157D01*
X028843Y019466D02*
X029157D01*
X025987Y018836D02*
Y019466D01*
X026302Y018836D02*
Y019466D01*
X025987Y018836D02*
X026302D01*
X025987Y019466D02*
X026302D01*
X018043Y018152D02*
Y018781D01*
X018357Y018152D02*
Y018781D01*
X018043Y018152D02*
X018357D01*
X018043Y018781D02*
X018357D01*
X017093Y01817D02*
Y0188D01*
X017407Y01817D02*
Y0188D01*
X017093Y01817D02*
X017407D01*
X017093Y0188D02*
X017407D01*
X036443Y010935D02*
X036757D01*
X036443Y011565D02*
X036757D01*
X036443Y010935D02*
Y011565D01*
X036757Y010935D02*
Y011565D01*
X035543Y010935D02*
X035857D01*
X035543Y011565D02*
X035857D01*
X035543Y010935D02*
Y011565D01*
X035857Y010935D02*
Y011565D01*
X030538Y011007D02*
X030853D01*
X030538Y011637D02*
X030853D01*
X030538Y011007D02*
Y011637D01*
X030853Y011007D02*
Y011637D01*
X033607Y02835D02*
Y02898D01*
X033293Y02835D02*
Y02898D01*
X033607D01*
X033293Y02835D02*
X033607D01*
X034507D02*
Y02898D01*
X034193Y02835D02*
Y02898D01*
X034507D01*
X034193Y02835D02*
X034507D01*
X032706Y028335D02*
Y028965D01*
X032391Y028335D02*
Y028965D01*
X032706D01*
X032391Y028335D02*
X032706D01*
X029743Y026885D02*
X030057D01*
X029743Y027515D02*
X030057D01*
X029743Y026885D02*
Y027515D01*
X030057Y026885D02*
Y027515D01*
X028893Y026885D02*
X029207D01*
X028893Y027515D02*
X029207D01*
X028893Y026885D02*
Y027515D01*
X029207Y026885D02*
Y027515D01*
X042935Y024756D02*
X043565D01*
X042935Y024441D02*
X043565D01*
X042935D02*
Y024756D01*
X043565Y024441D02*
Y024756D01*
X024985Y021993D02*
Y022307D01*
X025615Y021993D02*
Y022307D01*
X024985D02*
X025615D01*
X024985Y021993D02*
X025615D01*
D18*
X028992Y014825D02*
X029307D01*
X028992Y01484D02*
X029307D01*
X028992Y01478D02*
Y01496D01*
X029007Y015005D01*
X029022Y01502D01*
X029052Y015035D01*
X029082D01*
X029112Y01502D01*
X029127Y015005D01*
X029142Y01496D01*
Y01484D01*
X028992Y01496D02*
X029007Y01499D01*
X029022Y015005D01*
X029052Y01502D01*
X029082D01*
X029112Y015005D01*
X029127Y01499D01*
X029142Y01496D01*
X029307Y01478D02*
Y014885D01*
X029142Y014915D02*
X029157Y014945D01*
X029172Y01496D01*
X029277Y015005D01*
X029292Y01502D01*
Y015035D01*
X029277Y01505D01*
X029157Y014945D02*
X029187Y01496D01*
X029292Y01499D01*
X029307Y015005D01*
Y015035D01*
X029277Y01505D01*
X029262D01*
X029052Y015091D02*
X029037Y015121D01*
X028992Y015166D01*
X029307D01*
X029007Y015151D02*
X029307D01*
Y015091D02*
Y015226D01*
X029022Y01543D02*
X029307D01*
X029217Y01552D02*
Y01528D01*
X028992Y015445D01*
X029307D01*
Y015385D02*
Y01549D01*
X029208Y017698D02*
X028893D01*
X029208Y017683D02*
X028893D01*
X029208Y017743D02*
Y017563D01*
X029193Y017518D01*
X029178Y017503D01*
X029148Y017488D01*
X029118D01*
X029088Y017503D01*
X029073Y017518D01*
X029058Y017563D01*
Y017683D01*
X029208Y017563D02*
X029193Y017533D01*
X029178Y017518D01*
X029148Y017503D01*
X029118D01*
X029088Y017518D01*
X029073Y017533D01*
X029058Y017563D01*
X028893Y017743D02*
Y017638D01*
X029058Y017608D02*
X029043Y017578D01*
X029028Y017563D01*
X028923Y017518D01*
X028908Y017503D01*
Y017488D01*
X028923Y017473D01*
X029043Y017578D02*
X029013Y017563D01*
X028908Y017533D01*
X028893Y017518D01*
Y017488D01*
X028923Y017473D01*
X028938D01*
X029148Y017433D02*
X029163Y017403D01*
X029208Y017358D01*
X028893D01*
X029193Y017373D02*
X028893D01*
Y017433D02*
Y017298D01*
X028258Y017736D02*
X027943D01*
X028258Y017721D02*
X027943D01*
X028258Y017781D02*
Y017601D01*
X028243Y017556D01*
X028228Y017541D01*
X028198Y017526D01*
X028168D01*
X028138Y017541D01*
X028123Y017556D01*
X028108Y017601D01*
Y017721D01*
X028258Y017601D02*
X028243Y017571D01*
X028228Y017556D01*
X028198Y017541D01*
X028168D01*
X028138Y017556D01*
X028123Y017571D01*
X028108Y017601D01*
X027943Y017781D02*
Y017676D01*
X028108Y017646D02*
X028093Y017616D01*
X028078Y017601D01*
X027973Y017556D01*
X027958Y017541D01*
Y017526D01*
X027973Y017511D01*
X028093Y017616D02*
X028063Y017601D01*
X027958Y017571D01*
X027943Y017556D01*
Y017526D01*
X027973Y017511D01*
X027988D01*
X028198Y017455D02*
X028183Y01744D01*
X028168Y017455D01*
X028183Y01747D01*
X028198D01*
X028228Y017455D01*
X028243Y01744D01*
X028258Y017395D01*
Y017335D01*
X028243Y01729D01*
X028228Y017275D01*
X028198Y01726D01*
X028168D01*
X028138Y017275D01*
X028108Y01732D01*
X028078Y017395D01*
X028063Y017425D01*
X028033Y017455D01*
X027988Y01747D01*
X027943D01*
X028258Y017335D02*
X028243Y017305D01*
X028228Y01729D01*
X028198Y017275D01*
X028168D01*
X028138Y01729D01*
X028108Y017335D01*
X028078Y017395D01*
X027973Y01747D02*
X027988Y017455D01*
Y017425D01*
X027958Y01735D01*
Y017305D01*
X027973Y017275D01*
X027988Y01726D01*
X028018D01*
X027988Y017425D02*
X027943Y01735D01*
Y01729D01*
X027958Y017275D01*
X027988Y01726D01*
X038585Y018458D02*
Y018143D01*
X0386Y018458D02*
Y018143D01*
X03854Y018458D02*
X03872D01*
X038765Y018443D01*
X03878Y018428D01*
X038795Y018398D01*
Y018368D01*
X03878Y018338D01*
X038765Y018323D01*
X03872Y018308D01*
X0386D01*
X03872Y018458D02*
X03875Y018443D01*
X038765Y018428D01*
X03878Y018398D01*
Y018368D01*
X038765Y018338D01*
X03875Y018323D01*
X03872Y018308D01*
X03854Y018143D02*
X038645D01*
X038675Y018308D02*
X038705Y018293D01*
X03872Y018278D01*
X038765Y018173D01*
X03878Y018158D01*
X038795D01*
X03881Y018173D01*
X038705Y018293D02*
X03872Y018263D01*
X03875Y018158D01*
X038765Y018143D01*
X038795D01*
X03881Y018173D01*
Y018188D01*
X03903Y018413D02*
X039015Y018398D01*
X03903Y018383D01*
X039045Y018398D01*
Y018413D01*
X03903Y018443D01*
X039Y018458D01*
X038955D01*
X03891Y018443D01*
X03888Y018413D01*
X038865Y018383D01*
X03885Y018323D01*
Y018233D01*
X038865Y018188D01*
X038895Y018158D01*
X03894Y018143D01*
X03897D01*
X039015Y018158D01*
X039045Y018188D01*
X03906Y018233D01*
Y018248D01*
X039045Y018293D01*
X039015Y018323D01*
X03897Y018338D01*
X038955D01*
X03891Y018323D01*
X03888Y018293D01*
X038865Y018248D01*
X038955Y018458D02*
X038925Y018443D01*
X038895Y018413D01*
X03888Y018383D01*
X038865Y018323D01*
Y018233D01*
X03888Y018188D01*
X03891Y018158D01*
X03894Y018143D01*
X03897D02*
X039Y018158D01*
X03903Y018188D01*
X039045Y018233D01*
Y018248D01*
X03903Y018293D01*
X039Y018323D01*
X03897Y018338D01*
X038474Y017584D02*
Y01727D01*
X038489Y017584D02*
Y01727D01*
X038429Y017584D02*
X038609D01*
X038654Y017569D01*
X038669Y017554D01*
X038684Y017524D01*
Y017494D01*
X038669Y017465D01*
X038654Y01745D01*
X038609Y017435D01*
X038489D01*
X038609Y017584D02*
X038639Y017569D01*
X038654Y017554D01*
X038669Y017524D01*
Y017494D01*
X038654Y017465D01*
X038639Y01745D01*
X038609Y017435D01*
X038429Y01727D02*
X038534D01*
X038564Y017435D02*
X038594Y01742D01*
X038609Y017405D01*
X038654Y0173D01*
X038669Y017285D01*
X038684D01*
X038699Y0173D01*
X038594Y01742D02*
X038609Y01739D01*
X038639Y017285D01*
X038654Y01727D01*
X038684D01*
X038699Y0173D01*
Y017315D01*
X038739Y017524D02*
X038769Y017539D01*
X038814Y017584D01*
Y01727D01*
X038799Y017569D02*
Y01727D01*
X038739D02*
X038874D01*
X039018Y017584D02*
X038973Y017569D01*
X038943Y017524D01*
X038928Y01745D01*
Y017405D01*
X038943Y01733D01*
X038973Y017285D01*
X039018Y01727D01*
X039048D01*
X039093Y017285D01*
X039123Y01733D01*
X039138Y017405D01*
Y01745D01*
X039123Y017524D01*
X039093Y017569D01*
X039048Y017584D01*
X039018D01*
X038988Y017569D01*
X038973Y017554D01*
X038958Y017524D01*
X038943Y01745D01*
Y017405D01*
X038958Y01733D01*
X038973Y0173D01*
X038988Y017285D01*
X039018Y01727D01*
X039048D02*
X039078Y017285D01*
X039093Y0173D01*
X039108Y01733D01*
X039123Y017405D01*
Y01745D01*
X039108Y017524D01*
X039093Y017554D01*
X039078Y017569D01*
X039048Y017584D01*
X038498Y015133D02*
Y014818D01*
X038513Y015133D02*
Y014818D01*
X038453Y015133D02*
X038633D01*
X038678Y015118D01*
X038693Y015103D01*
X038708Y015073D01*
Y015043D01*
X038693Y015013D01*
X038678Y014998D01*
X038633Y014983D01*
X038513D01*
X038633Y015133D02*
X038663Y015118D01*
X038678Y015103D01*
X038693Y015073D01*
Y015043D01*
X038678Y015013D01*
X038663Y014998D01*
X038633Y014983D01*
X038453Y014818D02*
X038558D01*
X038588Y014983D02*
X038618Y014968D01*
X038633Y014953D01*
X038678Y014848D01*
X038693Y014833D01*
X038708D01*
X038723Y014848D01*
X038618Y014968D02*
X038633Y014938D01*
X038663Y014833D01*
X038678Y014818D01*
X038708D01*
X038723Y014848D01*
Y014863D01*
X038778Y015073D02*
X038793Y015058D01*
X038778Y015043D01*
X038763Y015058D01*
Y015073D01*
X038778Y015103D01*
X038793Y015118D01*
X038838Y015133D01*
X038898D01*
X038943Y015118D01*
X038958Y015088D01*
Y015043D01*
X038943Y015013D01*
X038898Y014998D01*
X038853D01*
X038898Y015133D02*
X038928Y015118D01*
X038943Y015088D01*
Y015043D01*
X038928Y015013D01*
X038898Y014998D01*
X038928Y014983D01*
X038958Y014953D01*
X038973Y014923D01*
Y014878D01*
X038958Y014848D01*
X038943Y014833D01*
X038898Y014818D01*
X038838D01*
X038793Y014833D01*
X038778Y014848D01*
X038763Y014878D01*
Y014893D01*
X038778Y014908D01*
X038793Y014893D01*
X038778Y014878D01*
X038943Y014968D02*
X038958Y014923D01*
Y014878D01*
X038943Y014848D01*
X038928Y014833D01*
X038898Y014818D01*
X038503Y013638D02*
Y013323D01*
X038518Y013638D02*
Y013323D01*
X038458Y013638D02*
X038638D01*
X038683Y013623D01*
X038698Y013608D01*
X038713Y013578D01*
Y013548D01*
X038698Y013518D01*
X038683Y013503D01*
X038638Y013488D01*
X038518D01*
X038638Y013638D02*
X038668Y013623D01*
X038683Y013608D01*
X038698Y013578D01*
Y013548D01*
X038683Y013518D01*
X038668Y013503D01*
X038638Y013488D01*
X038458Y013323D02*
X038563D01*
X038593Y013488D02*
X038623Y013473D01*
X038638Y013458D01*
X038683Y013353D01*
X038698Y013338D01*
X038713D01*
X038728Y013353D01*
X038623Y013473D02*
X038638Y013443D01*
X038668Y013338D01*
X038683Y013323D01*
X038713D01*
X038728Y013353D01*
Y013368D01*
X038919Y013608D02*
Y013323D01*
X039009Y013413D02*
X038769D01*
X038934Y013638D01*
Y013323D01*
X038874D02*
X038979D01*
X039032Y012448D02*
Y012763D01*
X039017Y012448D02*
Y012763D01*
X039077Y012448D02*
X038898D01*
X038853Y012463D01*
X038838Y012478D01*
X038823Y012508D01*
Y012538D01*
X038838Y012568D01*
X038853Y012583D01*
X038898Y012598D01*
X039017D01*
X038898Y012448D02*
X038868Y012463D01*
X038853Y012478D01*
X038838Y012508D01*
Y012538D01*
X038853Y012568D01*
X038868Y012583D01*
X038898Y012598D01*
X039077Y012763D02*
X038972D01*
X038942Y012598D02*
X038913Y012613D01*
X038898Y012628D01*
X038853Y012733D01*
X038838Y012748D01*
X038823D01*
X038808Y012733D01*
X038913Y012613D02*
X038898Y012643D01*
X038868Y012748D01*
X038853Y012763D01*
X038823D01*
X038808Y012733D01*
Y012718D01*
X038767Y012508D02*
X038737Y012493D01*
X038692Y012448D01*
Y012763D01*
X038707Y012463D02*
Y012763D01*
X038767D02*
X038632D01*
X038398Y012493D02*
X038413Y012508D01*
X038398Y012523D01*
X038383Y012508D01*
Y012493D01*
X038398Y012463D01*
X038428Y012448D01*
X038473D01*
X038518Y012463D01*
X038548Y012493D01*
X038563Y012523D01*
X038578Y012583D01*
Y012673D01*
X038563Y012718D01*
X038533Y012748D01*
X038488Y012763D01*
X038458D01*
X038413Y012748D01*
X038383Y012718D01*
X038368Y012673D01*
Y012658D01*
X038383Y012613D01*
X038413Y012583D01*
X038458Y012568D01*
X038473D01*
X038518Y012583D01*
X038548Y012613D01*
X038563Y012658D01*
X038473Y012448D02*
X038503Y012463D01*
X038533Y012493D01*
X038548Y012523D01*
X038563Y012583D01*
Y012673D01*
X038548Y012718D01*
X038518Y012748D01*
X038488Y012763D01*
X038458D02*
X038428Y012748D01*
X038398Y012718D01*
X038383Y012673D01*
Y012658D01*
X038398Y012613D01*
X038428Y012583D01*
X038458Y012568D01*
X038405Y011758D02*
Y011443D01*
X03842Y011758D02*
Y011443D01*
X03836Y011758D02*
X03854D01*
X038585Y011743D01*
X0386Y011728D01*
X038615Y011698D01*
Y011668D01*
X0386Y011638D01*
X038585Y011623D01*
X03854Y011608D01*
X03842D01*
X03854Y011758D02*
X03857Y011743D01*
X038585Y011728D01*
X0386Y011698D01*
Y011668D01*
X038585Y011638D01*
X03857Y011623D01*
X03854Y011608D01*
X03836Y011443D02*
X038465D01*
X038495Y011608D02*
X038525Y011593D01*
X03854Y011578D01*
X038585Y011473D01*
X0386Y011458D01*
X038615D01*
X03863Y011473D01*
X038525Y011593D02*
X03854Y011563D01*
X03857Y011458D01*
X038585Y011443D01*
X038615D01*
X03863Y011473D01*
Y011488D01*
X038671Y011698D02*
X038701Y011713D01*
X038746Y011758D01*
Y011443D01*
X038731Y011743D02*
Y011443D01*
X038671D02*
X038806D01*
X03889Y011758D02*
X03886Y011608D01*
X03889Y011638D01*
X038935Y011653D01*
X03898D01*
X039025Y011638D01*
X039055Y011608D01*
X03907Y011563D01*
Y011533D01*
X039055Y011488D01*
X039025Y011458D01*
X03898Y011443D01*
X038935D01*
X03889Y011458D01*
X038875Y011473D01*
X03886Y011503D01*
Y011518D01*
X038875Y011533D01*
X03889Y011518D01*
X038875Y011503D01*
X03898Y011653D02*
X03901Y011638D01*
X03904Y011608D01*
X039055Y011563D01*
Y011533D01*
X03904Y011488D01*
X03901Y011458D01*
X03898Y011443D01*
X03889Y011758D02*
X03904D01*
X03889Y011743D02*
X038965D01*
X03904Y011758D01*
X041292Y01424D02*
X041607D01*
X041292Y014255D02*
X041607D01*
X041292Y014195D02*
Y014375D01*
X041307Y01442D01*
X041322Y014435D01*
X041352Y01445D01*
X041382D01*
X041412Y014435D01*
X041427Y01442D01*
X041442Y014375D01*
Y014255D01*
X041292Y014375D02*
X041307Y014405D01*
X041322Y01442D01*
X041352Y014435D01*
X041382D01*
X041412Y01442D01*
X041427Y014405D01*
X041442Y014375D01*
X041607Y014195D02*
Y0143D01*
X041442Y01433D02*
X041457Y01436D01*
X041472Y014375D01*
X041577Y01442D01*
X041592Y014435D01*
Y01445D01*
X041577Y014465D01*
X041457Y01436D02*
X041487Y014375D01*
X041592Y014405D01*
X041607Y01442D01*
Y01445D01*
X041577Y014465D01*
X041562D01*
X041352Y014506D02*
X041337Y014536D01*
X041292Y014581D01*
X041607D01*
X041307Y014566D02*
X041607D01*
Y014506D02*
Y014641D01*
X041352Y01471D02*
X041367Y014725D01*
X041382Y01471D01*
X041367Y014695D01*
X041352D01*
X041322Y01471D01*
X041307Y014725D01*
X041292Y01477D01*
Y01483D01*
X041307Y014875D01*
X041337Y01489D01*
X041382D01*
X041412Y014875D01*
X041427Y01483D01*
Y014785D01*
X041292Y01483D02*
X041307Y01486D01*
X041337Y014875D01*
X041382D01*
X041412Y01486D01*
X041427Y01483D01*
X041442Y01486D01*
X041472Y01489D01*
X041502Y014905D01*
X041547D01*
X041577Y01489D01*
X041592Y014875D01*
X041607Y01483D01*
Y01477D01*
X041592Y014725D01*
X041577Y01471D01*
X041547Y014695D01*
X041532D01*
X041517Y01471D01*
X041532Y014725D01*
X041547Y01471D01*
X041457Y014875D02*
X041502Y01489D01*
X041547D01*
X041577Y014875D01*
X041592Y01486D01*
X041607Y01483D01*
X041658Y01313D02*
X041343D01*
X041658Y013115D02*
X041343D01*
X041658Y013175D02*
Y012995D01*
X041643Y01295D01*
X041628Y012935D01*
X041598Y01292D01*
X041568D01*
X041538Y012935D01*
X041523Y01295D01*
X041508Y012995D01*
Y013115D01*
X041658Y012995D02*
X041643Y012965D01*
X041628Y01295D01*
X041598Y012935D01*
X041568D01*
X041538Y01295D01*
X041523Y012965D01*
X041508Y012995D01*
X041343Y013175D02*
Y01307D01*
X041508Y01304D02*
X041493Y01301D01*
X041478Y012995D01*
X041373Y01295D01*
X041358Y012935D01*
Y01292D01*
X041373Y012905D01*
X041493Y01301D02*
X041463Y012995D01*
X041358Y012965D01*
X041343Y01295D01*
Y01292D01*
X041373Y012905D01*
X041388D01*
X041658Y012835D02*
X041508Y012865D01*
X041538Y012835D01*
X041553Y01279D01*
Y012745D01*
X041538Y0127D01*
X041508Y01267D01*
X041463Y012655D01*
X041433D01*
X041388Y01267D01*
X041358Y0127D01*
X041343Y012745D01*
Y01279D01*
X041358Y012835D01*
X041373Y01285D01*
X041403Y012865D01*
X041418D01*
X041433Y01285D01*
X041418Y012835D01*
X041403Y01285D01*
X041553Y012745D02*
X041538Y012715D01*
X041508Y012685D01*
X041463Y01267D01*
X041433D01*
X041388Y012685D01*
X041358Y012715D01*
X041343Y012745D01*
X041658Y012835D02*
Y012685D01*
X041643Y012835D02*
Y01276D01*
X041658Y012685D01*
X043878Y013808D02*
Y013493D01*
X043893Y013808D02*
Y013493D01*
X043833Y013808D02*
X044013D01*
X044058Y013793D01*
X044073Y013778D01*
X044088Y013748D01*
Y013718D01*
X044073Y013688D01*
X044058Y013673D01*
X044013Y013658D01*
X043893D01*
X044013Y013808D02*
X044043Y013793D01*
X044058Y013778D01*
X044073Y013748D01*
Y013718D01*
X044058Y013688D01*
X044043Y013673D01*
X044013Y013658D01*
X043833Y013493D02*
X043938D01*
X043968Y013658D02*
X043998Y013643D01*
X044013Y013628D01*
X044058Y013523D01*
X044073Y013508D01*
X044088D01*
X044103Y013523D01*
X043998Y013643D02*
X044013Y013613D01*
X044043Y013508D01*
X044058Y013493D01*
X044088D01*
X044103Y013523D01*
Y013538D01*
X044143Y013748D02*
X044173Y013763D01*
X044218Y013808D01*
Y013493D01*
X044203Y013793D02*
Y013493D01*
X044143D02*
X044278D01*
X044332Y013748D02*
X044362Y013763D01*
X044407Y013808D01*
Y013493D01*
X044392Y013793D02*
Y013493D01*
X044332D02*
X044467D01*
X04384Y012908D02*
Y012593D01*
X043855Y012908D02*
Y012593D01*
X043795Y012908D02*
X043975D01*
X04402Y012893D01*
X044035Y012878D01*
X04405Y012848D01*
Y012818D01*
X044035Y012788D01*
X04402Y012773D01*
X043975Y012758D01*
X043855D01*
X043975Y012908D02*
X044005Y012893D01*
X04402Y012878D01*
X044035Y012848D01*
Y012818D01*
X04402Y012788D01*
X044005Y012773D01*
X043975Y012758D01*
X043795Y012593D02*
X0439D01*
X04393Y012758D02*
X04396Y012743D01*
X043975Y012728D01*
X04402Y012623D01*
X044035Y012608D01*
X04405D01*
X044065Y012623D01*
X04396Y012743D02*
X043975Y012713D01*
X044005Y012608D01*
X04402Y012593D01*
X04405D01*
X044065Y012623D01*
Y012638D01*
X044106Y012848D02*
X044136Y012863D01*
X044181Y012908D01*
Y012593D01*
X044166Y012893D02*
Y012593D01*
X044106D02*
X044241D01*
X04431Y012848D02*
X044325Y012833D01*
X04431Y012818D01*
X044295Y012833D01*
Y012848D01*
X04431Y012878D01*
X044325Y012893D01*
X04437Y012908D01*
X04443D01*
X044475Y012893D01*
X04449Y012878D01*
X044505Y012848D01*
Y012818D01*
X04449Y012788D01*
X044445Y012758D01*
X04437Y012728D01*
X04434Y012713D01*
X04431Y012683D01*
X044295Y012638D01*
Y012593D01*
X04443Y012908D02*
X04446Y012893D01*
X044475Y012878D01*
X04449Y012848D01*
Y012818D01*
X044475Y012788D01*
X04443Y012758D01*
X04437Y012728D01*
X044295Y012623D02*
X04431Y012638D01*
X04434D01*
X044415Y012608D01*
X04446D01*
X04449Y012623D01*
X044505Y012638D01*
Y012668D01*
X04434Y012638D02*
X044415Y012593D01*
X044475D01*
X04449Y012608D01*
X044505Y012638D01*
X041422Y027658D02*
Y027343D01*
X041437Y027658D02*
Y027343D01*
X041377Y027658D02*
X041557D01*
X041602Y027643D01*
X041617Y027628D01*
X041632Y027598D01*
Y027568D01*
X041617Y027538D01*
X041602Y027523D01*
X041557Y027508D01*
X041437D01*
X041557Y027658D02*
X041587Y027643D01*
X041602Y027628D01*
X041617Y027598D01*
Y027568D01*
X041602Y027538D01*
X041587Y027523D01*
X041557Y027508D01*
X041377Y027343D02*
X041482D01*
X041512Y027508D02*
X041542Y027493D01*
X041557Y027478D01*
X041602Y027373D01*
X041617Y027358D01*
X041632D01*
X041647Y027373D01*
X041542Y027493D02*
X041557Y027463D01*
X041587Y027358D01*
X041602Y027343D01*
X041632D01*
X041647Y027373D01*
Y027388D01*
X041702Y027598D02*
X041717Y027583D01*
X041702Y027568D01*
X041687Y027583D01*
Y027598D01*
X041702Y027628D01*
X041717Y027643D01*
X041762Y027658D01*
X041822D01*
X041867Y027643D01*
X041882Y027628D01*
X041897Y027598D01*
Y027568D01*
X041882Y027538D01*
X041837Y027508D01*
X041762Y027478D01*
X041732Y027463D01*
X041702Y027433D01*
X041687Y027388D01*
Y027343D01*
X041822Y027658D02*
X041852Y027643D01*
X041867Y027628D01*
X041882Y027598D01*
Y027568D01*
X041867Y027538D01*
X041822Y027508D01*
X041762Y027478D01*
X041687Y027373D02*
X041702Y027388D01*
X041732D01*
X041807Y027358D01*
X041852D01*
X041882Y027373D01*
X041897Y027388D01*
Y027418D01*
X041732Y027388D02*
X041807Y027343D01*
X041867D01*
X041882Y027358D01*
X041897Y027388D01*
X041958Y027598D02*
X041973Y027583D01*
X041958Y027568D01*
X041943Y027583D01*
Y027598D01*
X041958Y027628D01*
X041973Y027643D01*
X042018Y027658D01*
X042078D01*
X042123Y027643D01*
X042138Y027628D01*
X042153Y027598D01*
Y027568D01*
X042138Y027538D01*
X042093Y027508D01*
X042018Y027478D01*
X041988Y027463D01*
X041958Y027433D01*
X041943Y027388D01*
Y027343D01*
X042078Y027658D02*
X042108Y027643D01*
X042123Y027628D01*
X042138Y027598D01*
Y027568D01*
X042123Y027538D01*
X042078Y027508D01*
X042018Y027478D01*
X041943Y027373D02*
X041958Y027388D01*
X041988D01*
X042063Y027358D01*
X042108D01*
X042138Y027373D01*
X042153Y027388D01*
Y027418D01*
X041988Y027388D02*
X042063Y027343D01*
X042123D01*
X042138Y027358D01*
X042153Y027388D01*
X041628Y026679D02*
X041643Y026634D01*
Y026724D01*
X041628Y026679D01*
X041598Y026709D01*
X041553Y026724D01*
X041523D01*
X041478Y026709D01*
X041448Y026679D01*
X041433Y026649D01*
X041418Y026604D01*
Y026529D01*
X041433Y026484D01*
X041448Y026454D01*
X041478Y026424D01*
X041523Y026409D01*
X041553D01*
X041598Y026424D01*
X041628Y026454D01*
X041643Y026484D01*
X041523Y026724D02*
X041493Y026709D01*
X041463Y026679D01*
X041448Y026649D01*
X041433Y026604D01*
Y026529D01*
X041448Y026484D01*
X041463Y026454D01*
X041493Y026424D01*
X041523Y026409D01*
X041703Y026664D02*
X041718Y026649D01*
X041703Y026634D01*
X041688Y026649D01*
Y026664D01*
X041703Y026694D01*
X041718Y026709D01*
X041763Y026724D01*
X041823D01*
X041868Y026709D01*
X041883Y026679D01*
Y026634D01*
X041868Y026604D01*
X041823Y026589D01*
X041778D01*
X041823Y026724D02*
X041853Y026709D01*
X041868Y026679D01*
Y026634D01*
X041853Y026604D01*
X041823Y026589D01*
X041853Y026574D01*
X041883Y026544D01*
X041898Y026514D01*
Y026469D01*
X041883Y026439D01*
X041868Y026424D01*
X041823Y026409D01*
X041763D01*
X041718Y026424D01*
X041703Y026439D01*
X041688Y026469D01*
Y026484D01*
X041703Y026499D01*
X041718Y026484D01*
X041703Y026469D01*
X041868Y026559D02*
X041883Y026514D01*
Y026469D01*
X041868Y026439D01*
X041853Y026424D01*
X041823Y026409D01*
X041944Y026664D02*
X041974Y026679D01*
X042019Y026724D01*
Y026409D01*
X042004Y026709D02*
Y026409D01*
X041944D02*
X042079D01*
X039857Y027658D02*
Y027343D01*
X039872Y027658D02*
Y027343D01*
X039812Y027658D02*
X039992D01*
X040037Y027643D01*
X040052Y027628D01*
X040067Y027598D01*
Y027568D01*
X040052Y027538D01*
X040037Y027523D01*
X039992Y027508D01*
X039872D01*
X039992Y027658D02*
X040022Y027643D01*
X040037Y027628D01*
X040052Y027598D01*
Y027568D01*
X040037Y027538D01*
X040022Y027523D01*
X039992Y027508D01*
X039812Y027343D02*
X039917D01*
X039947Y027508D02*
X039977Y027493D01*
X039992Y027478D01*
X040037Y027373D01*
X040052Y027358D01*
X040067D01*
X040082Y027373D01*
X039977Y027493D02*
X039992Y027463D01*
X040022Y027358D01*
X040037Y027343D01*
X040067D01*
X040082Y027373D01*
Y027388D01*
X040137Y027598D02*
X040152Y027583D01*
X040137Y027568D01*
X040122Y027583D01*
Y027598D01*
X040137Y027628D01*
X040152Y027643D01*
X040197Y027658D01*
X040257D01*
X040302Y027643D01*
X040317Y027613D01*
Y027568D01*
X040302Y027538D01*
X040257Y027523D01*
X040212D01*
X040257Y027658D02*
X040287Y027643D01*
X040302Y027613D01*
Y027568D01*
X040287Y027538D01*
X040257Y027523D01*
X040287Y027508D01*
X040317Y027478D01*
X040332Y027448D01*
Y027403D01*
X040317Y027373D01*
X040302Y027358D01*
X040257Y027343D01*
X040197D01*
X040152Y027358D01*
X040137Y027373D01*
X040122Y027403D01*
Y027418D01*
X040137Y027433D01*
X040152Y027418D01*
X040137Y027403D01*
X040302Y027493D02*
X040317Y027448D01*
Y027403D01*
X040302Y027373D01*
X040287Y027358D01*
X040257Y027343D01*
X040468Y027658D02*
X040423Y027643D01*
X040393Y027598D01*
X040378Y027523D01*
Y027478D01*
X040393Y027403D01*
X040423Y027358D01*
X040468Y027343D01*
X040498D01*
X040543Y027358D01*
X040573Y027403D01*
X040588Y027478D01*
Y027523D01*
X040573Y027598D01*
X040543Y027643D01*
X040498Y027658D01*
X040468D01*
X040438Y027643D01*
X040423Y027628D01*
X040408Y027598D01*
X040393Y027523D01*
Y027478D01*
X040408Y027403D01*
X040423Y027373D01*
X040438Y027358D01*
X040468Y027343D01*
X040498D02*
X040528Y027358D01*
X040543Y027373D01*
X040558Y027403D01*
X040573Y027478D01*
Y027523D01*
X040558Y027598D01*
X040543Y027628D01*
X040528Y027643D01*
X040498Y027658D01*
X042072Y025392D02*
Y025707D01*
X042057Y025392D02*
Y025707D01*
X042117Y025392D02*
X041937D01*
X041892Y025407D01*
X041877Y025422D01*
X041862Y025452D01*
Y025482D01*
X041877Y025512D01*
X041892Y025527D01*
X041937Y025542D01*
X042057D01*
X041937Y025392D02*
X041907Y025407D01*
X041892Y025422D01*
X041877Y025452D01*
Y025482D01*
X041892Y025512D01*
X041907Y025527D01*
X041937Y025542D01*
X042117Y025707D02*
X042012D01*
X041982Y025542D02*
X041952Y025557D01*
X041937Y025572D01*
X041892Y025677D01*
X041877Y025692D01*
X041862D01*
X041847Y025677D01*
X041952Y025557D02*
X041937Y025587D01*
X041907Y025692D01*
X041892Y025707D01*
X041862D01*
X041847Y025677D01*
Y025662D01*
X041656Y025422D02*
Y025707D01*
X041566Y025617D02*
X041806D01*
X041641Y025392D01*
Y025707D01*
X041701D02*
X041596D01*
X041493Y025392D02*
X041523Y025542D01*
X041493Y025512D01*
X041448Y025497D01*
X041403D01*
X041358Y025512D01*
X041328Y025542D01*
X041313Y025587D01*
Y025617D01*
X041328Y025662D01*
X041358Y025692D01*
X041403Y025707D01*
X041448D01*
X041493Y025692D01*
X041508Y025677D01*
X041523Y025647D01*
Y025632D01*
X041508Y025617D01*
X041493Y025632D01*
X041508Y025647D01*
X041403Y025497D02*
X041373Y025512D01*
X041343Y025542D01*
X041328Y025587D01*
Y025617D01*
X041343Y025662D01*
X041373Y025692D01*
X041403Y025707D01*
X041493Y025392D02*
X041343D01*
X041493Y025407D02*
X041418D01*
X041343Y025392D01*
X042058Y024442D02*
Y024757D01*
X042043Y024442D02*
Y024757D01*
X042103Y024442D02*
X041923D01*
X041878Y024457D01*
X041863Y024472D01*
X041848Y024502D01*
Y024532D01*
X041863Y024562D01*
X041878Y024577D01*
X041923Y024592D01*
X042043D01*
X041923Y024442D02*
X041893Y024457D01*
X041878Y024472D01*
X041863Y024502D01*
Y024532D01*
X041878Y024562D01*
X041893Y024577D01*
X041923Y024592D01*
X042103Y024757D02*
X041998D01*
X041968Y024592D02*
X041938Y024607D01*
X041923Y024622D01*
X041878Y024727D01*
X041863Y024742D01*
X041848D01*
X041833Y024727D01*
X041938Y024607D02*
X041923Y024637D01*
X041893Y024742D01*
X041878Y024757D01*
X041848D01*
X041833Y024727D01*
Y024712D01*
X041778Y024502D02*
X041763Y024517D01*
X041778Y024532D01*
X041793Y024517D01*
Y024502D01*
X041778Y024472D01*
X041763Y024457D01*
X041718Y024442D01*
X041658D01*
X041613Y024457D01*
X041598Y024487D01*
Y024532D01*
X041613Y024562D01*
X041658Y024577D01*
X041703D01*
X041658Y024442D02*
X041628Y024457D01*
X041613Y024487D01*
Y024532D01*
X041628Y024562D01*
X041658Y024577D01*
X041628Y024592D01*
X041598Y024622D01*
X041583Y024652D01*
Y024697D01*
X041598Y024727D01*
X041613Y024742D01*
X041658Y024757D01*
X041718D01*
X041763Y024742D01*
X041778Y024727D01*
X041793Y024697D01*
Y024682D01*
X041778Y024667D01*
X041763Y024682D01*
X041778Y024697D01*
X041613Y024607D02*
X041598Y024652D01*
Y024697D01*
X041613Y024727D01*
X041628Y024742D01*
X041658Y024757D01*
X041522Y024502D02*
X041507Y024517D01*
X041522Y024532D01*
X041536Y024517D01*
Y024502D01*
X041522Y024472D01*
X041507Y024457D01*
X041462Y024442D01*
X041402D01*
X041357Y024457D01*
X041342Y024472D01*
X041327Y024502D01*
Y024532D01*
X041342Y024562D01*
X041387Y024592D01*
X041462Y024622D01*
X041492Y024637D01*
X041522Y024667D01*
X041536Y024712D01*
Y024757D01*
X041402Y024442D02*
X041372Y024457D01*
X041357Y024472D01*
X041342Y024502D01*
Y024532D01*
X041357Y024562D01*
X041402Y024592D01*
X041462Y024622D01*
X041536Y024727D02*
X041522Y024712D01*
X041492D01*
X041417Y024742D01*
X041372D01*
X041342Y024727D01*
X041327Y024712D01*
Y024682D01*
X041492Y024712D02*
X041417Y024757D01*
X041357D01*
X041342Y024742D01*
X041327Y024712D01*
X041873Y023587D02*
X041858Y023632D01*
Y023542D01*
X041873Y023587D01*
X041903Y023557D01*
X041948Y023542D01*
X041978D01*
X042023Y023557D01*
X042053Y023587D01*
X042068Y023617D01*
X042083Y023662D01*
Y023737D01*
X042068Y023782D01*
X042053Y023812D01*
X042023Y023842D01*
X041978Y023857D01*
X041948D01*
X041903Y023842D01*
X041873Y023812D01*
X041858Y023782D01*
X041978Y023542D02*
X042008Y023557D01*
X042038Y023587D01*
X042053Y023617D01*
X042068Y023662D01*
Y023737D01*
X042053Y023782D01*
X042038Y023812D01*
X042008Y023842D01*
X041978Y023857D01*
X041798Y023602D02*
X041783Y023617D01*
X041798Y023632D01*
X041813Y023617D01*
Y023602D01*
X041798Y023572D01*
X041783Y023557D01*
X041738Y023542D01*
X041678D01*
X041633Y023557D01*
X041618Y023587D01*
Y023632D01*
X041633Y023662D01*
X041678Y023677D01*
X041723D01*
X041678Y023542D02*
X041648Y023557D01*
X041633Y023587D01*
Y023632D01*
X041648Y023662D01*
X041678Y023677D01*
X041648Y023692D01*
X041618Y023722D01*
X041603Y023752D01*
Y023797D01*
X041618Y023827D01*
X041633Y023842D01*
X041678Y023857D01*
X041738D01*
X041783Y023842D01*
X041798Y023827D01*
X041813Y023797D01*
Y023782D01*
X041798Y023767D01*
X041783Y023782D01*
X041798Y023797D01*
X041633Y023707D02*
X041618Y023752D01*
Y023797D01*
X041633Y023827D01*
X041648Y023842D01*
X041678Y023857D01*
X041542Y023602D02*
X041527Y023617D01*
X041542Y023632D01*
X041557Y023617D01*
Y023602D01*
X041542Y023572D01*
X041527Y023557D01*
X041482Y023542D01*
X041422D01*
X041377Y023557D01*
X041362Y023587D01*
Y023632D01*
X041377Y023662D01*
X041422Y023677D01*
X041467D01*
X041422Y023542D02*
X041392Y023557D01*
X041377Y023587D01*
Y023632D01*
X041392Y023662D01*
X041422Y023677D01*
X041392Y023692D01*
X041362Y023722D01*
X041347Y023752D01*
Y023797D01*
X041362Y023827D01*
X041377Y023842D01*
X041422Y023857D01*
X041482D01*
X041527Y023842D01*
X041542Y023827D01*
X041557Y023797D01*
Y023782D01*
X041542Y023767D01*
X041527Y023782D01*
X041542Y023797D01*
X041377Y023707D02*
X041362Y023752D01*
Y023797D01*
X041377Y023827D01*
X041392Y023842D01*
X041422Y023857D01*
X041407Y022008D02*
Y021693D01*
X041422Y022008D02*
Y021693D01*
X041362Y022008D02*
X041542D01*
X041587Y021993D01*
X041602Y021978D01*
X041617Y021948D01*
Y021918D01*
X041602Y021888D01*
X041587Y021873D01*
X041542Y021858D01*
X041422D01*
X041542Y022008D02*
X041572Y021993D01*
X041587Y021978D01*
X041602Y021948D01*
Y021918D01*
X041587Y021888D01*
X041572Y021873D01*
X041542Y021858D01*
X041362Y021693D02*
X041467D01*
X041497Y021858D02*
X041527Y021843D01*
X041542Y021828D01*
X041587Y021723D01*
X041602Y021708D01*
X041617D01*
X041632Y021723D01*
X041527Y021843D02*
X041542Y021813D01*
X041572Y021708D01*
X041587Y021693D01*
X041617D01*
X041632Y021723D01*
Y021738D01*
X041687Y021948D02*
X041702Y021933D01*
X041687Y021918D01*
X041672Y021933D01*
Y021948D01*
X041687Y021978D01*
X041702Y021993D01*
X041747Y022008D01*
X041807D01*
X041852Y021993D01*
X041867Y021963D01*
Y021918D01*
X041852Y021888D01*
X041807Y021873D01*
X041762D01*
X041807Y022008D02*
X041837Y021993D01*
X041852Y021963D01*
Y021918D01*
X041837Y021888D01*
X041807Y021873D01*
X041837Y021858D01*
X041867Y021828D01*
X041882Y021798D01*
Y021753D01*
X041867Y021723D01*
X041852Y021708D01*
X041807Y021693D01*
X041747D01*
X041702Y021708D01*
X041687Y021723D01*
X041672Y021753D01*
Y021768D01*
X041687Y021783D01*
X041702Y021768D01*
X041687Y021753D01*
X041852Y021843D02*
X041867Y021798D01*
Y021753D01*
X041852Y021723D01*
X041837Y021708D01*
X041807Y021693D01*
X042123Y021903D02*
X042108Y021858D01*
X042078Y021828D01*
X042033Y021813D01*
X042018D01*
X041973Y021828D01*
X041943Y021858D01*
X041928Y021903D01*
Y021918D01*
X041943Y021963D01*
X041973Y021993D01*
X042018Y022008D01*
X042048D01*
X042093Y021993D01*
X042123Y021963D01*
X042138Y021918D01*
Y021828D01*
X042123Y021768D01*
X042108Y021738D01*
X042078Y021708D01*
X042033Y021693D01*
X041988D01*
X041958Y021708D01*
X041943Y021738D01*
Y021753D01*
X041958Y021768D01*
X041973Y021753D01*
X041958Y021738D01*
X042018Y021813D02*
X041988Y021828D01*
X041958Y021858D01*
X041943Y021903D01*
Y021918D01*
X041958Y021963D01*
X041988Y021993D01*
X042018Y022008D01*
X042048D02*
X042078Y021993D01*
X042108Y021963D01*
X042123Y021918D01*
Y021828D01*
X042108Y021768D01*
X042093Y021738D01*
X042063Y021708D01*
X042033Y021693D01*
X041407Y021108D02*
Y020793D01*
X041422Y021108D02*
Y020793D01*
X041362Y021108D02*
X041542D01*
X041587Y021093D01*
X041602Y021078D01*
X041617Y021048D01*
Y021018D01*
X041602Y020988D01*
X041587Y020973D01*
X041542Y020958D01*
X041422D01*
X041542Y021108D02*
X041572Y021093D01*
X041587Y021078D01*
X041602Y021048D01*
Y021018D01*
X041587Y020988D01*
X041572Y020973D01*
X041542Y020958D01*
X041362Y020793D02*
X041467D01*
X041497Y020958D02*
X041527Y020943D01*
X041542Y020928D01*
X041587Y020823D01*
X041602Y020808D01*
X041617D01*
X041632Y020823D01*
X041527Y020943D02*
X041542Y020913D01*
X041572Y020808D01*
X041587Y020793D01*
X041617D01*
X041632Y020823D01*
Y020838D01*
X041687Y021048D02*
X041702Y021033D01*
X041687Y021018D01*
X041672Y021033D01*
Y021048D01*
X041687Y021078D01*
X041702Y021093D01*
X041747Y021108D01*
X041807D01*
X041852Y021093D01*
X041867Y021063D01*
Y021018D01*
X041852Y020988D01*
X041807Y020973D01*
X041762D01*
X041807Y021108D02*
X041837Y021093D01*
X041852Y021063D01*
Y021018D01*
X041837Y020988D01*
X041807Y020973D01*
X041837Y020958D01*
X041867Y020928D01*
X041882Y020898D01*
Y020853D01*
X041867Y020823D01*
X041852Y020808D01*
X041807Y020793D01*
X041747D01*
X041702Y020808D01*
X041687Y020823D01*
X041672Y020853D01*
Y020868D01*
X041687Y020883D01*
X041702Y020868D01*
X041687Y020853D01*
X041852Y020943D02*
X041867Y020898D01*
Y020853D01*
X041852Y020823D01*
X041837Y020808D01*
X041807Y020793D01*
X042003Y021108D02*
X041958Y021093D01*
X041943Y021063D01*
Y021018D01*
X041958Y020988D01*
X042003Y020973D01*
X042063D01*
X042108Y020988D01*
X042123Y021018D01*
Y021063D01*
X042108Y021093D01*
X042063Y021108D01*
X042003D01*
X041973Y021093D01*
X041958Y021063D01*
Y021018D01*
X041973Y020988D01*
X042003Y020973D01*
X042063D02*
X042093Y020988D01*
X042108Y021018D01*
Y021063D01*
X042093Y021093D01*
X042063Y021108D01*
X042003Y020973D02*
X041958Y020958D01*
X041943Y020943D01*
X041928Y020913D01*
Y020853D01*
X041943Y020823D01*
X041958Y020808D01*
X042003Y020793D01*
X042063D01*
X042108Y020808D01*
X042123Y020823D01*
X042138Y020853D01*
Y020913D01*
X042123Y020943D01*
X042108Y020958D01*
X042063Y020973D01*
X042003D02*
X041973Y020958D01*
X041958Y020943D01*
X041943Y020913D01*
Y020853D01*
X041958Y020823D01*
X041973Y020808D01*
X042003Y020793D01*
X042063D02*
X042093Y020808D01*
X042108Y020823D01*
X042123Y020853D01*
Y020913D01*
X042108Y020943D01*
X042093Y020958D01*
X042063Y020973D01*
X044318Y022166D02*
X044273Y022151D01*
X044363D01*
X044318Y022166D01*
X044348Y022196D01*
X044363Y022241D01*
Y022271D01*
X044348Y022316D01*
X044318Y022346D01*
X044288Y022361D01*
X044243Y022376D01*
X044168D01*
X044123Y022361D01*
X044093Y022346D01*
X044063Y022316D01*
X044048Y022271D01*
Y022241D01*
X044063Y022196D01*
X044093Y022166D01*
X044123Y022151D01*
X044363Y022271D02*
X044348Y022301D01*
X044318Y022331D01*
X044288Y022346D01*
X044243Y022361D01*
X044168D01*
X044123Y022346D01*
X044093Y022331D01*
X044063Y022301D01*
X044048Y022271D01*
X044303Y022091D02*
X044288Y022076D01*
X044273Y022091D01*
X044288Y022106D01*
X044303D01*
X044333Y022091D01*
X044348Y022076D01*
X044363Y022031D01*
Y021971D01*
X044348Y021926D01*
X044318Y021911D01*
X044273D01*
X044243Y021926D01*
X044228Y021971D01*
Y022016D01*
X044363Y021971D02*
X044348Y021941D01*
X044318Y021926D01*
X044273D01*
X044243Y021941D01*
X044228Y021971D01*
X044213Y021941D01*
X044183Y021911D01*
X044153Y021896D01*
X044108D01*
X044078Y021911D01*
X044063Y021926D01*
X044048Y021971D01*
Y022031D01*
X044063Y022076D01*
X044078Y022091D01*
X044108Y022106D01*
X044123D01*
X044138Y022091D01*
X044123Y022076D01*
X044108Y022091D01*
X044198Y021926D02*
X044153Y021911D01*
X044108D01*
X044078Y021926D01*
X044063Y021941D01*
X044048Y021971D01*
X044333Y0217D02*
X044048D01*
X044138Y02161D02*
Y02185D01*
X044363Y021685D01*
X044048D01*
Y021745D02*
Y02164D01*
X043518Y022151D02*
X043473Y022136D01*
X043563D01*
X043518Y022151D01*
X043548Y022181D01*
X043563Y022226D01*
Y022256D01*
X043548Y022301D01*
X043518Y022331D01*
X043488Y022346D01*
X043443Y022361D01*
X043368D01*
X043323Y022346D01*
X043293Y022331D01*
X043263Y022301D01*
X043248Y022256D01*
Y022226D01*
X043263Y022181D01*
X043293Y022151D01*
X043323Y022136D01*
X043563Y022256D02*
X043548Y022286D01*
X043518Y022316D01*
X043488Y022331D01*
X043443Y022346D01*
X043368D01*
X043323Y022331D01*
X043293Y022316D01*
X043263Y022286D01*
X043248Y022256D01*
X043503Y022076D02*
X043488Y022061D01*
X043473Y022076D01*
X043488Y022091D01*
X043503D01*
X043533Y022076D01*
X043548Y022061D01*
X043563Y022016D01*
Y021956D01*
X043548Y021911D01*
X043518Y021896D01*
X043473D01*
X043443Y021911D01*
X043428Y021956D01*
Y022001D01*
X043563Y021956D02*
X043548Y021926D01*
X043518Y021911D01*
X043473D01*
X043443Y021926D01*
X043428Y021956D01*
X043413Y021926D01*
X043383Y021896D01*
X043353Y021881D01*
X043308D01*
X043278Y021896D01*
X043263Y021911D01*
X043248Y021956D01*
Y022016D01*
X043263Y022061D01*
X043278Y022076D01*
X043308Y022091D01*
X043323D01*
X043338Y022076D01*
X043323Y022061D01*
X043308Y022076D01*
X043398Y021911D02*
X043353Y021896D01*
X043308D01*
X043278Y021911D01*
X043263Y021926D01*
X043248Y021956D01*
X043563Y021805D02*
X043413Y021835D01*
X043443Y021805D01*
X043458Y02176D01*
Y021715D01*
X043443Y02167D01*
X043413Y02164D01*
X043368Y021625D01*
X043338D01*
X043293Y02164D01*
X043263Y02167D01*
X043248Y021715D01*
Y02176D01*
X043263Y021805D01*
X043278Y02182D01*
X043308Y021835D01*
X043323D01*
X043338Y02182D01*
X043323Y021805D01*
X043308Y02182D01*
X043458Y021715D02*
X043443Y021685D01*
X043413Y021655D01*
X043368Y02164D01*
X043338D01*
X043293Y021655D01*
X043263Y021685D01*
X043248Y021715D01*
X043563Y021805D02*
Y021655D01*
X043548Y021805D02*
Y02173D01*
X043563Y021655D01*
X037242Y020993D02*
X037557D01*
X037242Y021008D02*
X037557D01*
X037242Y020948D02*
Y021128D01*
X037257Y021173D01*
X037272Y021188D01*
X037302Y021203D01*
X037332D01*
X037362Y021188D01*
X037377Y021173D01*
X037392Y021128D01*
Y021008D01*
X037242Y021128D02*
X037257Y021158D01*
X037272Y021173D01*
X037302Y021188D01*
X037332D01*
X037362Y021173D01*
X037377Y021158D01*
X037392Y021128D01*
X037557Y020948D02*
Y021053D01*
X037392Y021083D02*
X037407Y021113D01*
X037422Y021128D01*
X037527Y021173D01*
X037542Y021188D01*
Y021203D01*
X037527Y021218D01*
X037407Y021113D02*
X037437Y021128D01*
X037542Y021158D01*
X037557Y021173D01*
Y021203D01*
X037527Y021218D01*
X037512D01*
X037272Y021409D02*
X037557D01*
X037467Y021498D02*
Y021259D01*
X037242Y021423D01*
X037557D01*
Y021364D02*
Y021468D01*
X037242Y021632D02*
X037257Y021587D01*
X037302Y021557D01*
X037377Y021542D01*
X037422D01*
X037497Y021557D01*
X037542Y021587D01*
X037557Y021632D01*
Y021662D01*
X037542Y021707D01*
X037497Y021737D01*
X037422Y021752D01*
X037377D01*
X037302Y021737D01*
X037257Y021707D01*
X037242Y021662D01*
Y021632D01*
X037257Y021602D01*
X037272Y021587D01*
X037302Y021572D01*
X037377Y021557D01*
X037422D01*
X037497Y021572D01*
X037527Y021587D01*
X037542Y021602D01*
X037557Y021632D01*
Y021662D02*
X037542Y021692D01*
X037527Y021707D01*
X037497Y021722D01*
X037422Y021737D01*
X037377D01*
X037302Y021722D01*
X037272Y021707D01*
X037257Y021692D01*
X037242Y021662D01*
X036933Y021669D02*
X036618D01*
X036933Y021654D02*
X036618D01*
X036933Y021714D02*
Y021534D01*
X036918Y021489D01*
X036903Y021474D01*
X036873Y021459D01*
X036843D01*
X036813Y021474D01*
X036798Y021489D01*
X036783Y021534D01*
Y021654D01*
X036933Y021534D02*
X036918Y021504D01*
X036903Y021489D01*
X036873Y021474D01*
X036843D01*
X036813Y021489D01*
X036798Y021504D01*
X036783Y021534D01*
X036618Y021714D02*
Y021609D01*
X036783Y021579D02*
X036768Y021549D01*
X036753Y021534D01*
X036648Y021489D01*
X036633Y021474D01*
Y021459D01*
X036648Y021444D01*
X036768Y021549D02*
X036738Y021534D01*
X036633Y021504D01*
X036618Y021489D01*
Y021459D01*
X036648Y021444D01*
X036663D01*
X036903Y021254D02*
X036618D01*
X036708Y021164D02*
Y021404D01*
X036933Y021239D01*
X036618D01*
Y021299D02*
Y021194D01*
X036873Y021121D02*
X036888Y021091D01*
X036933Y021046D01*
X036618D01*
X036918Y021061D02*
X036618D01*
Y021121D02*
Y020986D01*
X035992Y020993D02*
X036307D01*
X035992Y021008D02*
X036307D01*
X035992Y020948D02*
Y021128D01*
X036007Y021173D01*
X036022Y021188D01*
X036052Y021203D01*
X036082D01*
X036112Y021188D01*
X036127Y021173D01*
X036142Y021128D01*
Y021008D01*
X035992Y021128D02*
X036007Y021158D01*
X036022Y021173D01*
X036052Y021188D01*
X036082D01*
X036112Y021173D01*
X036127Y021158D01*
X036142Y021128D01*
X036307Y020948D02*
Y021053D01*
X036142Y021083D02*
X036157Y021113D01*
X036172Y021128D01*
X036277Y021173D01*
X036292Y021188D01*
Y021203D01*
X036277Y021218D01*
X036157Y021113D02*
X036187Y021128D01*
X036292Y021158D01*
X036307Y021173D01*
Y021203D01*
X036277Y021218D01*
X036262D01*
X036022Y021409D02*
X036307D01*
X036217Y021498D02*
Y021259D01*
X035992Y021423D01*
X036307D01*
Y021364D02*
Y021468D01*
X036052Y021557D02*
X036067Y021572D01*
X036082Y021557D01*
X036067Y021542D01*
X036052D01*
X036022Y021557D01*
X036007Y021572D01*
X035992Y021617D01*
Y021677D01*
X036007Y021722D01*
X036022Y021737D01*
X036052Y021752D01*
X036082D01*
X036112Y021737D01*
X036142Y021692D01*
X036172Y021617D01*
X036187Y021587D01*
X036217Y021557D01*
X036262Y021542D01*
X036307D01*
X035992Y021677D02*
X036007Y021707D01*
X036022Y021722D01*
X036052Y021737D01*
X036082D01*
X036112Y021722D01*
X036142Y021677D01*
X036172Y021617D01*
X036277Y021542D02*
X036262Y021557D01*
Y021587D01*
X036292Y021662D01*
Y021707D01*
X036277Y021737D01*
X036262Y021752D01*
X036232D01*
X036262Y021587D02*
X036307Y021662D01*
Y021722D01*
X036292Y021737D01*
X036262Y021752D01*
X037357Y022392D02*
Y022707D01*
X037342Y022392D02*
Y022707D01*
X037402Y022392D02*
X037222D01*
X037177Y022407D01*
X037162Y022422D01*
X037147Y022452D01*
Y022482D01*
X037162Y022512D01*
X037177Y022527D01*
X037222Y022542D01*
X037342D01*
X037222Y022392D02*
X037192Y022407D01*
X037177Y022422D01*
X037162Y022452D01*
Y022482D01*
X037177Y022512D01*
X037192Y022527D01*
X037222Y022542D01*
X037402Y022707D02*
X037297D01*
X037267Y022542D02*
X037237Y022557D01*
X037222Y022572D01*
X037177Y022677D01*
X037162Y022692D01*
X037147D01*
X037132Y022677D01*
X037237Y022557D02*
X037222Y022587D01*
X037192Y022692D01*
X037177Y022707D01*
X037147D01*
X037132Y022677D01*
Y022662D01*
X036941Y022422D02*
Y022707D01*
X036852Y022617D02*
X037091D01*
X036927Y022392D01*
Y022707D01*
X036986D02*
X036882D01*
X036793Y022452D02*
X036778Y022467D01*
X036793Y022482D01*
X036808Y022467D01*
Y022452D01*
X036793Y022422D01*
X036778Y022407D01*
X036733Y022392D01*
X036673D01*
X036628Y022407D01*
X036613Y022437D01*
Y022482D01*
X036628Y022512D01*
X036673Y022527D01*
X036718D01*
X036673Y022392D02*
X036643Y022407D01*
X036628Y022437D01*
Y022482D01*
X036643Y022512D01*
X036673Y022527D01*
X036643Y022542D01*
X036613Y022572D01*
X036598Y022602D01*
Y022647D01*
X036613Y022677D01*
X036628Y022692D01*
X036673Y022707D01*
X036733D01*
X036778Y022692D01*
X036793Y022677D01*
X036808Y022647D01*
Y022632D01*
X036793Y022617D01*
X036778Y022632D01*
X036793Y022647D01*
X036628Y022557D02*
X036613Y022602D01*
Y022647D01*
X036628Y022677D01*
X036643Y022692D01*
X036673Y022707D01*
X036408Y025132D02*
X036093D01*
X036408Y025117D02*
X036093D01*
X036408Y025177D02*
Y024997D01*
X036393Y024952D01*
X036378Y024937D01*
X036348Y024922D01*
X036318D01*
X036288Y024937D01*
X036273Y024952D01*
X036258Y024997D01*
Y025117D01*
X036408Y024997D02*
X036393Y024967D01*
X036378Y024952D01*
X036348Y024937D01*
X036318D01*
X036288Y024952D01*
X036273Y024967D01*
X036258Y024997D01*
X036093Y025177D02*
Y025072D01*
X036258Y025042D02*
X036243Y025012D01*
X036228Y024997D01*
X036123Y024952D01*
X036108Y024937D01*
Y024922D01*
X036123Y024907D01*
X036243Y025012D02*
X036213Y024997D01*
X036108Y024967D01*
X036093Y024952D01*
Y024922D01*
X036123Y024907D01*
X036138D01*
X036348Y024852D02*
X036333Y024837D01*
X036318Y024852D01*
X036333Y024867D01*
X036348D01*
X036378Y024852D01*
X036393Y024837D01*
X036408Y024792D01*
Y024732D01*
X036393Y024687D01*
X036363Y024672D01*
X036318D01*
X036288Y024687D01*
X036273Y024732D01*
Y024777D01*
X036408Y024732D02*
X036393Y024702D01*
X036363Y024687D01*
X036318D01*
X036288Y024702D01*
X036273Y024732D01*
X036258Y024702D01*
X036228Y024672D01*
X036198Y024657D01*
X036153D01*
X036123Y024672D01*
X036108Y024687D01*
X036093Y024732D01*
Y024792D01*
X036108Y024837D01*
X036123Y024852D01*
X036153Y024867D01*
X036168D01*
X036183Y024852D01*
X036168Y024837D01*
X036153Y024852D01*
X036243Y024687D02*
X036198Y024672D01*
X036153D01*
X036123Y024687D01*
X036108Y024702D01*
X036093Y024732D01*
X036408Y024581D02*
X036258Y024611D01*
X036288Y024581D01*
X036303Y024536D01*
Y024491D01*
X036288Y024446D01*
X036258Y024416D01*
X036213Y024401D01*
X036183D01*
X036138Y024416D01*
X036108Y024446D01*
X036093Y024491D01*
Y024536D01*
X036108Y024581D01*
X036123Y024596D01*
X036153Y024611D01*
X036168D01*
X036183Y024596D01*
X036168Y024581D01*
X036153Y024596D01*
X036303Y024491D02*
X036288Y024461D01*
X036258Y024431D01*
X036213Y024416D01*
X036183D01*
X036138Y024431D01*
X036108Y024461D01*
X036093Y024491D01*
X036408Y024581D02*
Y024431D01*
X036393Y024581D02*
Y024506D01*
X036408Y024431D01*
Y026115D02*
X036093D01*
X036408Y0261D02*
X036093D01*
X036408Y02616D02*
Y02598D01*
X036393Y025935D01*
X036378Y02592D01*
X036348Y025905D01*
X036318D01*
X036288Y02592D01*
X036273Y025935D01*
X036258Y02598D01*
Y0261D01*
X036408Y02598D02*
X036393Y02595D01*
X036378Y025935D01*
X036348Y02592D01*
X036318D01*
X036288Y025935D01*
X036273Y02595D01*
X036258Y02598D01*
X036093Y02616D02*
Y026055D01*
X036258Y026025D02*
X036243Y025995D01*
X036228Y02598D01*
X036123Y025935D01*
X036108Y02592D01*
Y025905D01*
X036123Y02589D01*
X036243Y025995D02*
X036213Y02598D01*
X036108Y02595D01*
X036093Y025935D01*
Y025905D01*
X036123Y02589D01*
X036138D01*
X036348Y025835D02*
X036333Y02582D01*
X036318Y025835D01*
X036333Y02585D01*
X036348D01*
X036378Y025835D01*
X036393Y02582D01*
X036408Y025775D01*
Y025715D01*
X036393Y02567D01*
X036363Y025655D01*
X036318D01*
X036288Y02567D01*
X036273Y025715D01*
Y02576D01*
X036408Y025715D02*
X036393Y025685D01*
X036363Y02567D01*
X036318D01*
X036288Y025685D01*
X036273Y025715D01*
X036258Y025685D01*
X036228Y025655D01*
X036198Y02564D01*
X036153D01*
X036123Y025655D01*
X036108Y02567D01*
X036093Y025715D01*
Y025775D01*
X036108Y02582D01*
X036123Y025835D01*
X036153Y02585D01*
X036168D01*
X036183Y025835D01*
X036168Y02582D01*
X036153Y025835D01*
X036243Y02567D02*
X036198Y025655D01*
X036153D01*
X036123Y02567D01*
X036108Y025685D01*
X036093Y025715D01*
X036378Y025443D02*
X036093D01*
X036183Y025353D02*
Y025593D01*
X036408Y025428D01*
X036093D01*
Y025488D02*
Y025383D01*
X032558Y026063D02*
X032243D01*
X032558Y026048D02*
X032243D01*
X032558Y026108D02*
Y025928D01*
X032543Y025883D01*
X032528Y025868D01*
X032498Y025853D01*
X032468D01*
X032438Y025868D01*
X032423Y025883D01*
X032408Y025928D01*
Y026048D01*
X032558Y025928D02*
X032543Y025898D01*
X032528Y025883D01*
X032498Y025868D01*
X032468D01*
X032438Y025883D01*
X032423Y025898D01*
X032408Y025928D01*
X032243Y026108D02*
Y026003D01*
X032408Y025973D02*
X032393Y025943D01*
X032378Y025928D01*
X032273Y025883D01*
X032258Y025868D01*
Y025853D01*
X032273Y025838D01*
X032393Y025943D02*
X032363Y025928D01*
X032258Y025898D01*
X032243Y025883D01*
Y025853D01*
X032273Y025838D01*
X032288D01*
X032498Y025782D02*
X032483Y025767D01*
X032468Y025782D01*
X032483Y025797D01*
X032498D01*
X032528Y025782D01*
X032543Y025767D01*
X032558Y025722D01*
Y025662D01*
X032543Y025617D01*
X032528Y025602D01*
X032498Y025587D01*
X032468D01*
X032438Y025602D01*
X032408Y025647D01*
X032378Y025722D01*
X032363Y025752D01*
X032333Y025782D01*
X032288Y025797D01*
X032243D01*
X032558Y025662D02*
X032543Y025632D01*
X032528Y025617D01*
X032498Y025602D01*
X032468D01*
X032438Y025617D01*
X032408Y025662D01*
X032378Y025722D01*
X032273Y025797D02*
X032288Y025782D01*
Y025752D01*
X032258Y025677D01*
Y025632D01*
X032273Y025602D01*
X032288Y025587D01*
X032318D01*
X032288Y025752D02*
X032243Y025677D01*
Y025617D01*
X032258Y025602D01*
X032288Y025587D01*
X032498Y025541D02*
X032513Y025511D01*
X032558Y025466D01*
X032243D01*
X032543Y025481D02*
X032243D01*
Y025541D02*
Y025406D01*
X032558Y025132D02*
X032243D01*
X032558Y025117D02*
X032243D01*
X032558Y025177D02*
Y024997D01*
X032543Y024952D01*
X032528Y024937D01*
X032498Y024922D01*
X032468D01*
X032438Y024937D01*
X032423Y024952D01*
X032408Y024997D01*
Y025117D01*
X032558Y024997D02*
X032543Y024967D01*
X032528Y024952D01*
X032498Y024937D01*
X032468D01*
X032438Y024952D01*
X032423Y024967D01*
X032408Y024997D01*
X032243Y025177D02*
Y025072D01*
X032408Y025042D02*
X032393Y025012D01*
X032378Y024997D01*
X032273Y024952D01*
X032258Y024937D01*
Y024922D01*
X032273Y024907D01*
X032393Y025012D02*
X032363Y024997D01*
X032258Y024967D01*
X032243Y024952D01*
Y024922D01*
X032273Y024907D01*
X032288D01*
X032498Y024852D02*
X032483Y024837D01*
X032468Y024852D01*
X032483Y024867D01*
X032498D01*
X032528Y024852D01*
X032543Y024837D01*
X032558Y024792D01*
Y024732D01*
X032543Y024687D01*
X032513Y024672D01*
X032468D01*
X032438Y024687D01*
X032423Y024732D01*
Y024777D01*
X032558Y024732D02*
X032543Y024702D01*
X032513Y024687D01*
X032468D01*
X032438Y024702D01*
X032423Y024732D01*
X032408Y024702D01*
X032378Y024672D01*
X032348Y024657D01*
X032303D01*
X032273Y024672D01*
X032258Y024687D01*
X032243Y024732D01*
Y024792D01*
X032258Y024837D01*
X032273Y024852D01*
X032303Y024867D01*
X032318D01*
X032333Y024852D01*
X032318Y024837D01*
X032303Y024852D01*
X032393Y024687D02*
X032348Y024672D01*
X032303D01*
X032273Y024687D01*
X032258Y024702D01*
X032243Y024732D01*
X032498Y024596D02*
X032483Y024581D01*
X032468Y024596D01*
X032483Y024611D01*
X032498D01*
X032528Y024596D01*
X032543Y024581D01*
X032558Y024536D01*
Y024476D01*
X032543Y024431D01*
X032513Y024416D01*
X032468D01*
X032438Y024431D01*
X032423Y024476D01*
Y024521D01*
X032558Y024476D02*
X032543Y024446D01*
X032513Y024431D01*
X032468D01*
X032438Y024446D01*
X032423Y024476D01*
X032408Y024446D01*
X032378Y024416D01*
X032348Y024401D01*
X032303D01*
X032273Y024416D01*
X032258Y024431D01*
X032243Y024476D01*
Y024536D01*
X032258Y024581D01*
X032273Y024596D01*
X032303Y024611D01*
X032318D01*
X032333Y024596D01*
X032318Y024581D01*
X032303Y024596D01*
X032393Y024431D02*
X032348Y024416D01*
X032303D01*
X032273Y024431D01*
X032258Y024446D01*
X032243Y024476D01*
X030737Y025492D02*
X030782Y025507D01*
X030692D01*
X030737Y025492D01*
X030707Y025462D01*
X030692Y025417D01*
Y025387D01*
X030707Y025342D01*
X030737Y025312D01*
X030767Y025297D01*
X030812Y025282D01*
X030887D01*
X030932Y025297D01*
X030962Y025312D01*
X030992Y025342D01*
X031007Y025387D01*
Y025417D01*
X030992Y025462D01*
X030962Y025492D01*
X030932Y025507D01*
X030692Y025387D02*
X030707Y025357D01*
X030737Y025327D01*
X030767Y025312D01*
X030812Y025297D01*
X030887D01*
X030932Y025312D01*
X030962Y025327D01*
X030992Y025357D01*
X031007Y025387D01*
X030752Y025567D02*
X030767Y025582D01*
X030782Y025567D01*
X030767Y025552D01*
X030752D01*
X030722Y025567D01*
X030707Y025582D01*
X030692Y025627D01*
Y025687D01*
X030707Y025732D01*
X030737Y025747D01*
X030782D01*
X030812Y025732D01*
X030827Y025687D01*
Y025642D01*
X030692Y025687D02*
X030707Y025717D01*
X030737Y025732D01*
X030782D01*
X030812Y025717D01*
X030827Y025687D01*
X030842Y025717D01*
X030872Y025747D01*
X030902Y025762D01*
X030947D01*
X030977Y025747D01*
X030992Y025732D01*
X031007Y025687D01*
Y025627D01*
X030992Y025582D01*
X030977Y025567D01*
X030947Y025552D01*
X030932D01*
X030917Y025567D01*
X030932Y025582D01*
X030947Y025567D01*
X030857Y025732D02*
X030902Y025747D01*
X030947D01*
X030977Y025732D01*
X030992Y025717D01*
X031007Y025687D01*
X030692Y025898D02*
X030707Y025853D01*
X030752Y025823D01*
X030827Y025808D01*
X030872D01*
X030947Y025823D01*
X030992Y025853D01*
X031007Y025898D01*
Y025928D01*
X030992Y025973D01*
X030947Y026003D01*
X030872Y026018D01*
X030827D01*
X030752Y026003D01*
X030707Y025973D01*
X030692Y025928D01*
Y025898D01*
X030707Y025868D01*
X030722Y025853D01*
X030752Y025838D01*
X030827Y025823D01*
X030872D01*
X030947Y025838D01*
X030977Y025853D01*
X030992Y025868D01*
X031007Y025898D01*
Y025928D02*
X030992Y025958D01*
X030977Y025973D01*
X030947Y025988D01*
X030872Y026003D01*
X030827D01*
X030752Y025988D01*
X030722Y025973D01*
X030707Y025958D01*
X030692Y025928D01*
X030091Y025993D02*
X029776D01*
X030091Y025978D02*
X029776D01*
X030091Y026038D02*
Y025858D01*
X030076Y025813D01*
X030061Y025798D01*
X030031Y025783D01*
X030001D01*
X029971Y025798D01*
X029956Y025813D01*
X029941Y025858D01*
Y025978D01*
X030091Y025858D02*
X030076Y025828D01*
X030061Y025813D01*
X030031Y025798D01*
X030001D01*
X029971Y025813D01*
X029956Y025828D01*
X029941Y025858D01*
X029776Y026038D02*
Y025933D01*
X029941Y025903D02*
X029926Y025873D01*
X029911Y025858D01*
X029806Y025813D01*
X029791Y025798D01*
Y025783D01*
X029806Y025768D01*
X029926Y025873D02*
X029896Y025858D01*
X029791Y025828D01*
X029776Y025813D01*
Y025783D01*
X029806Y025768D01*
X029821D01*
X030031Y025713D02*
X030016Y025698D01*
X030001Y025713D01*
X030016Y025728D01*
X030031D01*
X030061Y025713D01*
X030076Y025698D01*
X030091Y025653D01*
Y025593D01*
X030076Y025548D01*
X030061Y025533D01*
X030031Y025518D01*
X030001D01*
X029971Y025533D01*
X029941Y025578D01*
X029911Y025653D01*
X029896Y025683D01*
X029866Y025713D01*
X029821Y025728D01*
X029776D01*
X030091Y025593D02*
X030076Y025563D01*
X030061Y025548D01*
X030031Y025533D01*
X030001D01*
X029971Y025548D01*
X029941Y025593D01*
X029911Y025653D01*
X029806Y025728D02*
X029821Y025713D01*
Y025683D01*
X029791Y025608D01*
Y025563D01*
X029806Y025533D01*
X029821Y025518D01*
X029851D01*
X029821Y025683D02*
X029776Y025608D01*
Y025548D01*
X029791Y025533D01*
X029821Y025518D01*
X030091Y025397D02*
X030076Y025442D01*
X030046Y025457D01*
X030001D01*
X029971Y025442D01*
X029956Y025397D01*
Y025337D01*
X029971Y025292D01*
X030001Y025277D01*
X030046D01*
X030076Y025292D01*
X030091Y025337D01*
Y025397D01*
X030076Y025427D01*
X030046Y025442D01*
X030001D01*
X029971Y025427D01*
X029956Y025397D01*
Y025337D02*
X029971Y025307D01*
X030001Y025292D01*
X030046D01*
X030076Y025307D01*
X030091Y025337D01*
X029956Y025397D02*
X029941Y025442D01*
X029926Y025457D01*
X029896Y025472D01*
X029836D01*
X029806Y025457D01*
X029791Y025442D01*
X029776Y025397D01*
Y025337D01*
X029791Y025292D01*
X029806Y025277D01*
X029836Y025262D01*
X029896D01*
X029926Y025277D01*
X029941Y025292D01*
X029956Y025337D01*
Y025397D02*
X029941Y025427D01*
X029926Y025442D01*
X029896Y025457D01*
X029836D01*
X029806Y025442D01*
X029791Y025427D01*
X029776Y025397D01*
Y025337D02*
X029791Y025307D01*
X029806Y025292D01*
X029836Y025277D01*
X029896D01*
X029926Y025292D01*
X029941Y025307D01*
X029956Y025337D01*
X029174Y025993D02*
X028859D01*
X029174Y025978D02*
X028859D01*
X029174Y026038D02*
Y025858D01*
X029159Y025813D01*
X029144Y025798D01*
X029114Y025783D01*
X029084D01*
X029054Y025798D01*
X029039Y025813D01*
X029024Y025858D01*
Y025978D01*
X029174Y025858D02*
X029159Y025828D01*
X029144Y025813D01*
X029114Y025798D01*
X029084D01*
X029054Y025813D01*
X029039Y025828D01*
X029024Y025858D01*
X028859Y026038D02*
Y025933D01*
X029024Y025903D02*
X029009Y025873D01*
X028994Y025858D01*
X028889Y025813D01*
X028874Y025798D01*
Y025783D01*
X028889Y025768D01*
X029009Y025873D02*
X028979Y025858D01*
X028874Y025828D01*
X028859Y025813D01*
Y025783D01*
X028889Y025768D01*
X028904D01*
X029114Y025713D02*
X029099Y025698D01*
X029084Y025713D01*
X029099Y025728D01*
X029114D01*
X029144Y025713D01*
X029159Y025698D01*
X029174Y025653D01*
Y025593D01*
X029159Y025548D01*
X029144Y025533D01*
X029114Y025518D01*
X029084D01*
X029054Y025533D01*
X029024Y025578D01*
X028994Y025653D01*
X028979Y025683D01*
X028949Y025713D01*
X028904Y025728D01*
X028859D01*
X029174Y025593D02*
X029159Y025563D01*
X029144Y025548D01*
X029114Y025533D01*
X029084D01*
X029054Y025548D01*
X029024Y025593D01*
X028994Y025653D01*
X028889Y025728D02*
X028904Y025713D01*
Y025683D01*
X028874Y025608D01*
Y025563D01*
X028889Y025533D01*
X028904Y025518D01*
X028934D01*
X028904Y025683D02*
X028859Y025608D01*
Y025548D01*
X028874Y025533D01*
X028904Y025518D01*
X029174Y025472D02*
X029084D01*
X029114D02*
X029144Y025457D01*
X029174Y025427D01*
Y025397D01*
X029129Y025322D01*
Y025292D01*
X029144Y025277D01*
X029174Y025262D01*
X029144Y025457D02*
X029159Y025427D01*
Y025397D01*
X029129Y025322D01*
X029174Y025262D02*
X029129D01*
X029084Y025277D01*
X029009Y025337D01*
X028979Y025352D01*
X028934Y025367D01*
X028859D01*
X029084Y025277D02*
X029009Y025352D01*
X028979Y025367D01*
X028934Y025382D01*
X028859D01*
X027987Y025492D02*
X028032Y025507D01*
X027942D01*
X027987Y025492D01*
X027957Y025462D01*
X027942Y025417D01*
Y025387D01*
X027957Y025342D01*
X027987Y025312D01*
X028017Y025297D01*
X028062Y025282D01*
X028137D01*
X028182Y025297D01*
X028212Y025312D01*
X028242Y025342D01*
X028257Y025387D01*
Y025417D01*
X028242Y025462D01*
X028212Y025492D01*
X028182Y025507D01*
X027942Y025387D02*
X027957Y025357D01*
X027987Y025327D01*
X028017Y025312D01*
X028062Y025297D01*
X028137D01*
X028182Y025312D01*
X028212Y025327D01*
X028242Y025357D01*
X028257Y025387D01*
X028002Y025567D02*
X028017Y025582D01*
X028032Y025567D01*
X028017Y025552D01*
X028002D01*
X027972Y025567D01*
X027957Y025582D01*
X027942Y025627D01*
Y025687D01*
X027957Y025732D01*
X027972Y025747D01*
X028002Y025762D01*
X028032D01*
X028062Y025747D01*
X028092Y025702D01*
X028122Y025627D01*
X028137Y025597D01*
X028167Y025567D01*
X028212Y025552D01*
X028257D01*
X027942Y025687D02*
X027957Y025717D01*
X027972Y025732D01*
X028002Y025747D01*
X028032D01*
X028062Y025732D01*
X028092Y025687D01*
X028122Y025627D01*
X028227Y025552D02*
X028212Y025567D01*
Y025597D01*
X028242Y025672D01*
Y025717D01*
X028227Y025747D01*
X028212Y025762D01*
X028182D01*
X028212Y025597D02*
X028257Y025672D01*
Y025732D01*
X028242Y025747D01*
X028212Y025762D01*
X027942Y025808D02*
X028032D01*
X028002D02*
X027972Y025823D01*
X027942Y025853D01*
Y025883D01*
X027987Y025958D01*
Y025988D01*
X027972Y026003D01*
X027942Y026018D01*
X027972Y025823D02*
X027957Y025853D01*
Y025883D01*
X027987Y025958D01*
X027942Y026018D02*
X027987D01*
X028032Y026003D01*
X028107Y025943D01*
X028137Y025928D01*
X028182Y025913D01*
X028257D01*
X028032Y026003D02*
X028107Y025928D01*
X028137Y025913D01*
X028182Y025898D01*
X028257D01*
X028243Y024242D02*
Y024557D01*
X028228Y024242D02*
Y024557D01*
X028288Y024242D02*
X028108D01*
X028063Y024257D01*
X028048Y024272D01*
X028033Y024302D01*
Y024332D01*
X028048Y024362D01*
X028063Y024377D01*
X028108Y024392D01*
X028228D01*
X028108Y024242D02*
X028078Y024257D01*
X028063Y024272D01*
X028048Y024302D01*
Y024332D01*
X028063Y024362D01*
X028078Y024377D01*
X028108Y024392D01*
X028288Y024557D02*
X028183D01*
X028153Y024392D02*
X028123Y024407D01*
X028108Y024422D01*
X028063Y024527D01*
X028048Y024542D01*
X028033D01*
X028018Y024527D01*
X028123Y024407D02*
X028108Y024437D01*
X028078Y024542D01*
X028063Y024557D01*
X028033D01*
X028018Y024527D01*
Y024512D01*
X027963Y024302D02*
X027948Y024317D01*
X027963Y024332D01*
X027978Y024317D01*
Y024302D01*
X027963Y024272D01*
X027948Y024257D01*
X027903Y024242D01*
X027843D01*
X027798Y024257D01*
X027783Y024272D01*
X027768Y024302D01*
Y024332D01*
X027783Y024362D01*
X027828Y024392D01*
X027903Y024422D01*
X027933Y024437D01*
X027963Y024467D01*
X027978Y024512D01*
Y024557D01*
X027843Y024242D02*
X027813Y024257D01*
X027798Y024272D01*
X027783Y024302D01*
Y024332D01*
X027798Y024362D01*
X027843Y024392D01*
X027903Y024422D01*
X027978Y024527D02*
X027963Y024512D01*
X027933D01*
X027858Y024542D01*
X027813D01*
X027783Y024527D01*
X027768Y024512D01*
Y024482D01*
X027933Y024512D02*
X027858Y024557D01*
X027798D01*
X027783Y024542D01*
X027768Y024512D01*
X027527Y024347D02*
X027542Y024392D01*
X027572Y024422D01*
X027617Y024437D01*
X027632D01*
X027677Y024422D01*
X027707Y024392D01*
X027722Y024347D01*
Y024332D01*
X027707Y024287D01*
X027677Y024257D01*
X027632Y024242D01*
X027602D01*
X027557Y024257D01*
X027527Y024287D01*
X027512Y024332D01*
Y024422D01*
X027527Y024482D01*
X027542Y024512D01*
X027572Y024542D01*
X027617Y024557D01*
X027662D01*
X027692Y024542D01*
X027707Y024512D01*
Y024497D01*
X027692Y024482D01*
X027677Y024497D01*
X027692Y024512D01*
X027632Y024437D02*
X027662Y024422D01*
X027692Y024392D01*
X027707Y024347D01*
Y024332D01*
X027692Y024287D01*
X027662Y024257D01*
X027632Y024242D01*
X027602D02*
X027572Y024257D01*
X027542Y024287D01*
X027527Y024332D01*
Y024422D01*
X027542Y024482D01*
X027557Y024512D01*
X027587Y024542D01*
X027617Y024557D01*
X029658Y024287D02*
X029643Y024332D01*
Y024242D01*
X029658Y024287D01*
X029688Y024257D01*
X029733Y024242D01*
X029763D01*
X029808Y024257D01*
X029838Y024287D01*
X029853Y024317D01*
X029868Y024362D01*
Y024437D01*
X029853Y024482D01*
X029838Y024512D01*
X029808Y024542D01*
X029763Y024557D01*
X029733D01*
X029688Y024542D01*
X029658Y024512D01*
X029643Y024482D01*
X029763Y024242D02*
X029793Y024257D01*
X029823Y024287D01*
X029838Y024317D01*
X029853Y024362D01*
Y024437D01*
X029838Y024482D01*
X029823Y024512D01*
X029793Y024542D01*
X029763Y024557D01*
X029583Y024302D02*
X029568Y024317D01*
X029583Y024332D01*
X029598Y024317D01*
Y024302D01*
X029583Y024272D01*
X029568Y024257D01*
X029523Y024242D01*
X029463D01*
X029418Y024257D01*
X029403Y024272D01*
X029388Y024302D01*
Y024332D01*
X029403Y024362D01*
X029448Y024392D01*
X029523Y024422D01*
X029553Y024437D01*
X029583Y024467D01*
X029598Y024512D01*
Y024557D01*
X029463Y024242D02*
X029433Y024257D01*
X029418Y024272D01*
X029403Y024302D01*
Y024332D01*
X029418Y024362D01*
X029463Y024392D01*
X029523Y024422D01*
X029598Y024527D02*
X029583Y024512D01*
X029553D01*
X029478Y024542D01*
X029433D01*
X029403Y024527D01*
X029388Y024512D01*
Y024482D01*
X029553Y024512D02*
X029478Y024557D01*
X029418D01*
X029403Y024542D01*
X029388Y024512D01*
X029267Y024242D02*
X029312Y024257D01*
X029327Y024287D01*
Y024332D01*
X029312Y024362D01*
X029267Y024377D01*
X029207D01*
X029162Y024362D01*
X029147Y024332D01*
Y024287D01*
X029162Y024257D01*
X029207Y024242D01*
X029267D01*
X029297Y024257D01*
X029312Y024287D01*
Y024332D01*
X029297Y024362D01*
X029267Y024377D01*
X029207D02*
X029177Y024362D01*
X029162Y024332D01*
Y024287D01*
X029177Y024257D01*
X029207Y024242D01*
X029267Y024377D02*
X029312Y024392D01*
X029327Y024407D01*
X029342Y024437D01*
Y024497D01*
X029327Y024527D01*
X029312Y024542D01*
X029267Y024557D01*
X029207D01*
X029162Y024542D01*
X029147Y024527D01*
X029132Y024497D01*
Y024437D01*
X029147Y024407D01*
X029162Y024392D01*
X029207Y024377D01*
X029267D02*
X029297Y024392D01*
X029312Y024407D01*
X029327Y024437D01*
Y024497D01*
X029312Y024527D01*
X029297Y024542D01*
X029267Y024557D01*
X029207D02*
X029177Y024542D01*
X029162Y024527D01*
X029147Y024497D01*
Y024437D01*
X029162Y024407D01*
X029177Y024392D01*
X029207Y024377D01*
X030994Y024513D02*
X031009Y024468D01*
Y024558D01*
X030994Y024513D01*
X030964Y024543D01*
X030919Y024558D01*
X030889D01*
X030844Y024543D01*
X030814Y024513D01*
X030799Y024483D01*
X030784Y024438D01*
Y024363D01*
X030799Y024318D01*
X030814Y024288D01*
X030844Y024258D01*
X030889Y024243D01*
X030919D01*
X030964Y024258D01*
X030994Y024288D01*
X031009Y024318D01*
X030889Y024558D02*
X030859Y024543D01*
X030829Y024513D01*
X030814Y024483D01*
X030799Y024438D01*
Y024363D01*
X030814Y024318D01*
X030829Y024288D01*
X030859Y024258D01*
X030889Y024243D01*
X031069Y024498D02*
X031084Y024483D01*
X031069Y024468D01*
X031054Y024483D01*
Y024498D01*
X031069Y024528D01*
X031084Y024543D01*
X031129Y024558D01*
X031189D01*
X031234Y024543D01*
X031249Y024528D01*
X031264Y024498D01*
Y024468D01*
X031249Y024438D01*
X031204Y024408D01*
X031129Y024378D01*
X031099Y024363D01*
X031069Y024333D01*
X031054Y024288D01*
Y024243D01*
X031189Y024558D02*
X031219Y024543D01*
X031234Y024528D01*
X031249Y024498D01*
Y024468D01*
X031234Y024438D01*
X031189Y024408D01*
X031129Y024378D01*
X031054Y024273D02*
X031069Y024288D01*
X031099D01*
X031174Y024258D01*
X031219D01*
X031249Y024273D01*
X031264Y024288D01*
Y024318D01*
X031099Y024288D02*
X031174Y024243D01*
X031234D01*
X031249Y024258D01*
X031264Y024288D01*
X031311Y024498D02*
X031341Y024513D01*
X031386Y024558D01*
Y024243D01*
X031371Y024543D02*
Y024243D01*
X031311D02*
X031446D01*
X031458Y023342D02*
Y023657D01*
X031443Y023342D02*
Y023657D01*
X031503Y023342D02*
X031323D01*
X031278Y023357D01*
X031263Y023372D01*
X031248Y023402D01*
Y023432D01*
X031263Y023462D01*
X031278Y023477D01*
X031323Y023492D01*
X031443D01*
X031323Y023342D02*
X031293Y023357D01*
X031278Y023372D01*
X031263Y023402D01*
Y023432D01*
X031278Y023462D01*
X031293Y023477D01*
X031323Y023492D01*
X031503Y023657D02*
X031398D01*
X031368Y023492D02*
X031338Y023507D01*
X031323Y023522D01*
X031278Y023627D01*
X031263Y023642D01*
X031248D01*
X031233Y023627D01*
X031338Y023507D02*
X031323Y023537D01*
X031293Y023642D01*
X031278Y023657D01*
X031248D01*
X031233Y023627D01*
Y023612D01*
X031178Y023402D02*
X031163Y023417D01*
X031178Y023432D01*
X031193Y023417D01*
Y023402D01*
X031178Y023372D01*
X031163Y023357D01*
X031118Y023342D01*
X031058D01*
X031013Y023357D01*
X030998Y023372D01*
X030983Y023402D01*
Y023432D01*
X030998Y023462D01*
X031043Y023492D01*
X031118Y023522D01*
X031148Y023537D01*
X031178Y023567D01*
X031193Y023612D01*
Y023657D01*
X031058Y023342D02*
X031028Y023357D01*
X031013Y023372D01*
X030998Y023402D01*
Y023432D01*
X031013Y023462D01*
X031058Y023492D01*
X031118Y023522D01*
X031193Y023627D02*
X031178Y023612D01*
X031148D01*
X031073Y023642D01*
X031028D01*
X030998Y023627D01*
X030983Y023612D01*
Y023582D01*
X031148Y023612D02*
X031073Y023657D01*
X031013D01*
X030998Y023642D01*
X030983Y023612D01*
X030757Y023387D02*
X030772Y023402D01*
X030757Y023417D01*
X030742Y023402D01*
Y023387D01*
X030757Y023357D01*
X030787Y023342D01*
X030832D01*
X030877Y023357D01*
X030907Y023387D01*
X030921Y023417D01*
X030937Y023477D01*
Y023567D01*
X030921Y023612D01*
X030892Y023642D01*
X030847Y023657D01*
X030817D01*
X030772Y023642D01*
X030742Y023612D01*
X030727Y023567D01*
Y023552D01*
X030742Y023507D01*
X030772Y023477D01*
X030817Y023462D01*
X030832D01*
X030877Y023477D01*
X030907Y023507D01*
X030921Y023552D01*
X030832Y023342D02*
X030862Y023357D01*
X030892Y023387D01*
X030907Y023417D01*
X030921Y023477D01*
Y023567D01*
X030907Y023612D01*
X030877Y023642D01*
X030847Y023657D01*
X030817D02*
X030787Y023642D01*
X030757Y023612D01*
X030742Y023567D01*
Y023552D01*
X030757Y023507D01*
X030787Y023477D01*
X030817Y023462D01*
X027742Y023613D02*
X027757Y023568D01*
Y023658D01*
X027742Y023613D01*
X027712Y023643D01*
X027667Y023658D01*
X027637D01*
X027592Y023643D01*
X027562Y023613D01*
X027547Y023583D01*
X027532Y023538D01*
Y023463D01*
X027547Y023418D01*
X027562Y023388D01*
X027592Y023358D01*
X027637Y023343D01*
X027667D01*
X027712Y023358D01*
X027742Y023388D01*
X027757Y023418D01*
X027637Y023658D02*
X027607Y023643D01*
X027577Y023613D01*
X027562Y023583D01*
X027547Y023538D01*
Y023463D01*
X027562Y023418D01*
X027577Y023388D01*
X027607Y023358D01*
X027637Y023343D01*
X027817Y023598D02*
X027832Y023583D01*
X027817Y023568D01*
X027802Y023583D01*
Y023598D01*
X027817Y023628D01*
X027832Y023643D01*
X027877Y023658D01*
X027937D01*
X027982Y023643D01*
X027997Y023628D01*
X028012Y023598D01*
Y023568D01*
X027997Y023538D01*
X027952Y023508D01*
X027877Y023478D01*
X027847Y023463D01*
X027817Y023433D01*
X027802Y023388D01*
Y023343D01*
X027937Y023658D02*
X027967Y023643D01*
X027982Y023628D01*
X027997Y023598D01*
Y023568D01*
X027982Y023538D01*
X027937Y023508D01*
X027877Y023478D01*
X027802Y023373D02*
X027817Y023388D01*
X027847D01*
X027922Y023358D01*
X027967D01*
X027997Y023373D01*
X028012Y023388D01*
Y023418D01*
X027847Y023388D02*
X027922Y023343D01*
X027982D01*
X027997Y023358D01*
X028012Y023388D01*
X028238Y023613D02*
X028223Y023598D01*
X028238Y023583D01*
X028253Y023598D01*
Y023613D01*
X028238Y023643D01*
X028208Y023658D01*
X028163D01*
X028118Y023643D01*
X028088Y023613D01*
X028073Y023583D01*
X028058Y023523D01*
Y023433D01*
X028073Y023388D01*
X028103Y023358D01*
X028148Y023343D01*
X028178D01*
X028223Y023358D01*
X028253Y023388D01*
X028268Y023433D01*
Y023448D01*
X028253Y023493D01*
X028223Y023523D01*
X028178Y023538D01*
X028163D01*
X028118Y023523D01*
X028088Y023493D01*
X028073Y023448D01*
X028163Y023658D02*
X028133Y023643D01*
X028103Y023613D01*
X028088Y023583D01*
X028073Y023523D01*
Y023433D01*
X028088Y023388D01*
X028118Y023358D01*
X028148Y023343D01*
X028178D02*
X028208Y023358D01*
X028238Y023388D01*
X028253Y023433D01*
Y023448D01*
X028238Y023493D01*
X028208Y023523D01*
X028178Y023538D01*
X020355Y028658D02*
Y028343D01*
X02037Y028658D02*
Y028343D01*
X02031Y028658D02*
X020415D01*
X02031Y028343D02*
X020535D01*
Y028433D01*
X02052Y028343D01*
X020595Y028598D02*
X02061Y028583D01*
X020595Y028568D01*
X02058Y028583D01*
Y028598D01*
X020595Y028628D01*
X02061Y028643D01*
X020655Y028658D01*
X020715D01*
X02076Y028643D01*
X020775Y028628D01*
X02079Y028598D01*
Y028568D01*
X020775Y028538D01*
X02073Y028508D01*
X020655Y028478D01*
X020625Y028463D01*
X020595Y028433D01*
X02058Y028388D01*
Y028343D01*
X020715Y028658D02*
X020745Y028643D01*
X02076Y028628D01*
X020775Y028598D01*
Y028568D01*
X02076Y028538D01*
X020715Y028508D01*
X020655Y028478D01*
X02058Y028373D02*
X020595Y028388D01*
X020625D01*
X0207Y028358D01*
X020745D01*
X020775Y028373D01*
X02079Y028388D01*
Y028418D01*
X020625Y028388D02*
X0207Y028343D01*
X02076D01*
X020775Y028358D01*
X02079Y028388D01*
X017492Y025522D02*
X017807D01*
X017492Y025537D02*
X017807D01*
X017492Y025477D02*
Y025657D01*
X017507Y025702D01*
X017522Y025717D01*
X017552Y025732D01*
X017582D01*
X017612Y025717D01*
X017627Y025702D01*
X017642Y025657D01*
Y025537D01*
X017492Y025657D02*
X017507Y025687D01*
X017522Y025702D01*
X017552Y025717D01*
X017582D01*
X017612Y025702D01*
X017627Y025687D01*
X017642Y025657D01*
X017807Y025477D02*
Y025582D01*
X017642Y025612D02*
X017657Y025642D01*
X017672Y025657D01*
X017777Y025702D01*
X017792Y025717D01*
Y025732D01*
X017777Y025747D01*
X017657Y025642D02*
X017687Y025657D01*
X017792Y025687D01*
X017807Y025702D01*
Y025732D01*
X017777Y025747D01*
X017762D01*
X017552Y025802D02*
X017567Y025817D01*
X017582Y025802D01*
X017567Y025787D01*
X017552D01*
X017522Y025802D01*
X017507Y025817D01*
X017492Y025862D01*
Y025922D01*
X017507Y025967D01*
X017522Y025982D01*
X017552Y025997D01*
X017582D01*
X017612Y025982D01*
X017642Y025937D01*
X017672Y025862D01*
X017687Y025832D01*
X017717Y025802D01*
X017762Y025787D01*
X017807D01*
X017492Y025922D02*
X017507Y025952D01*
X017522Y025967D01*
X017552Y025982D01*
X017582D01*
X017612Y025967D01*
X017642Y025922D01*
X017672Y025862D01*
X017777Y025787D02*
X017762Y025802D01*
Y025832D01*
X017792Y025907D01*
Y025952D01*
X017777Y025982D01*
X017762Y025997D01*
X017732D01*
X017762Y025832D02*
X017807Y025907D01*
Y025967D01*
X017792Y025982D01*
X017762Y025997D01*
X017492Y026133D02*
X017507Y026088D01*
X017552Y026058D01*
X017627Y026043D01*
X017672D01*
X017747Y026058D01*
X017792Y026088D01*
X017807Y026133D01*
Y026163D01*
X017792Y026208D01*
X017747Y026238D01*
X017672Y026253D01*
X017627D01*
X017552Y026238D01*
X017507Y026208D01*
X017492Y026163D01*
Y026133D01*
X017507Y026103D01*
X017522Y026088D01*
X017552Y026073D01*
X017627Y026058D01*
X017672D01*
X017747Y026073D01*
X017777Y026088D01*
X017792Y026103D01*
X017807Y026133D01*
Y026163D02*
X017792Y026193D01*
X017777Y026208D01*
X017747Y026223D01*
X017672Y026238D01*
X017627D01*
X017552Y026223D01*
X017522Y026208D01*
X017507Y026193D01*
X017492Y026163D01*
X019987Y021492D02*
X020032Y021507D01*
X019942D01*
X019987Y021492D01*
X019957Y021462D01*
X019942Y021417D01*
Y021387D01*
X019957Y021342D01*
X019987Y021312D01*
X020017Y021297D01*
X020062Y021282D01*
X020137D01*
X020182Y021297D01*
X020212Y021312D01*
X020242Y021342D01*
X020257Y021387D01*
Y021417D01*
X020242Y021462D01*
X020212Y021492D01*
X020182Y021507D01*
X019942Y021387D02*
X019957Y021357D01*
X019987Y021327D01*
X020017Y021312D01*
X020062Y021297D01*
X020137D01*
X020182Y021312D01*
X020212Y021327D01*
X020242Y021357D01*
X020257Y021387D01*
X020002Y021567D02*
X020017Y021582D01*
X020032Y021567D01*
X020017Y021552D01*
X020002D01*
X019972Y021567D01*
X019957Y021582D01*
X019942Y021627D01*
Y021687D01*
X019957Y021732D01*
X019972Y021747D01*
X020002Y021762D01*
X020032D01*
X020062Y021747D01*
X020092Y021702D01*
X020122Y021627D01*
X020137Y021597D01*
X020167Y021567D01*
X020212Y021552D01*
X020257D01*
X019942Y021687D02*
X019957Y021717D01*
X019972Y021732D01*
X020002Y021747D01*
X020032D01*
X020062Y021732D01*
X020092Y021687D01*
X020122Y021627D01*
X020227Y021552D02*
X020212Y021567D01*
Y021597D01*
X020242Y021672D01*
Y021717D01*
X020227Y021747D01*
X020212Y021762D01*
X020182D01*
X020212Y021597D02*
X020257Y021672D01*
Y021732D01*
X020242Y021747D01*
X020212Y021762D01*
X019942Y021898D02*
X019957Y021853D01*
X020002Y021823D01*
X020077Y021808D01*
X020122D01*
X020197Y021823D01*
X020242Y021853D01*
X020257Y021898D01*
Y021928D01*
X020242Y021973D01*
X020197Y022003D01*
X020122Y022018D01*
X020077D01*
X020002Y022003D01*
X019957Y021973D01*
X019942Y021928D01*
Y021898D01*
X019957Y021868D01*
X019972Y021853D01*
X020002Y021838D01*
X020077Y021823D01*
X020122D01*
X020197Y021838D01*
X020227Y021853D01*
X020242Y021868D01*
X020257Y021898D01*
Y021928D02*
X020242Y021958D01*
X020227Y021973D01*
X020197Y021988D01*
X020122Y022003D01*
X020077D01*
X020002Y021988D01*
X019972Y021973D01*
X019957Y021958D01*
X019942Y021928D01*
X014913Y021509D02*
X014868Y021494D01*
X014958D01*
X014913Y021509D01*
X014943Y021539D01*
X014958Y021584D01*
Y021614D01*
X014943Y021659D01*
X014913Y021689D01*
X014883Y021704D01*
X014838Y021719D01*
X014763D01*
X014718Y021704D01*
X014688Y021689D01*
X014658Y021659D01*
X014643Y021614D01*
Y021584D01*
X014658Y021539D01*
X014688Y021509D01*
X014718Y021494D01*
X014958Y021614D02*
X014943Y021644D01*
X014913Y021674D01*
X014883Y021689D01*
X014838Y021704D01*
X014763D01*
X014718Y021689D01*
X014688Y021674D01*
X014658Y021644D01*
X014643Y021614D01*
X014898Y021449D02*
X014913Y021419D01*
X014958Y021374D01*
X014643D01*
X014943Y021389D02*
X014643D01*
Y021449D02*
Y021314D01*
X014687Y019854D02*
X014732Y019868D01*
X014642D01*
X014687Y019854D01*
X014657Y019824D01*
X014642Y019779D01*
Y019749D01*
X014657Y019704D01*
X014687Y019674D01*
X014717Y019659D01*
X014762Y019644D01*
X014837D01*
X014882Y019659D01*
X014912Y019674D01*
X014942Y019704D01*
X014957Y019749D01*
Y019779D01*
X014942Y019824D01*
X014912Y019854D01*
X014882Y019868D01*
X014642Y019749D02*
X014657Y019719D01*
X014687Y019689D01*
X014717Y019674D01*
X014762Y019659D01*
X014837D01*
X014882Y019674D01*
X014912Y019689D01*
X014942Y019719D01*
X014957Y019749D01*
X014687Y020093D02*
X014702Y020078D01*
X014717Y020093D01*
X014702Y020108D01*
X014687D01*
X014657Y020093D01*
X014642Y020063D01*
Y020018D01*
X014657Y019973D01*
X014687Y019943D01*
X014717Y019928D01*
X014777Y019913D01*
X014867D01*
X014912Y019928D01*
X014942Y019958D01*
X014957Y020003D01*
Y020033D01*
X014942Y020078D01*
X014912Y020108D01*
X014867Y020123D01*
X014852D01*
X014807Y020108D01*
X014777Y020078D01*
X014762Y020033D01*
Y020018D01*
X014777Y019973D01*
X014807Y019943D01*
X014852Y019928D01*
X014642Y020018D02*
X014657Y019988D01*
X014687Y019958D01*
X014717Y019943D01*
X014777Y019928D01*
X014867D01*
X014912Y019943D01*
X014942Y019973D01*
X014957Y020003D01*
Y020033D02*
X014942Y020063D01*
X014912Y020093D01*
X014867Y020108D01*
X014852D01*
X014807Y020093D01*
X014777Y020063D01*
X014762Y020033D01*
X01176Y016392D02*
Y016707D01*
X011745Y016392D02*
Y016707D01*
X011805Y016392D02*
X011625D01*
X01158Y016407D01*
X011565Y016422D01*
X01155Y016452D01*
Y016482D01*
X011565Y016512D01*
X01158Y016527D01*
X011625Y016542D01*
X011745D01*
X011625Y016392D02*
X011595Y016407D01*
X01158Y016422D01*
X011565Y016452D01*
Y016482D01*
X01158Y016512D01*
X011595Y016527D01*
X011625Y016542D01*
X011805Y016707D02*
X0117D01*
X01167Y016542D02*
X01164Y016557D01*
X011625Y016572D01*
X01158Y016677D01*
X011565Y016692D01*
X01155D01*
X011535Y016677D01*
X01164Y016557D02*
X011625Y016587D01*
X011595Y016692D01*
X01158Y016707D01*
X01155D01*
X011535Y016677D01*
Y016662D01*
X011494Y016452D02*
X011464Y016437D01*
X011419Y016392D01*
Y016707D01*
X011434Y016407D02*
Y016707D01*
X011494D02*
X011359D01*
X01111Y016497D02*
X011125Y016542D01*
X011155Y016572D01*
X0112Y016587D01*
X011215D01*
X01126Y016572D01*
X01129Y016542D01*
X011305Y016497D01*
Y016482D01*
X01129Y016437D01*
X01126Y016407D01*
X011215Y016392D01*
X011185D01*
X01114Y016407D01*
X01111Y016437D01*
X011095Y016482D01*
Y016572D01*
X01111Y016632D01*
X011125Y016662D01*
X011155Y016692D01*
X0112Y016707D01*
X011245D01*
X011275Y016692D01*
X01129Y016662D01*
Y016647D01*
X011275Y016632D01*
X01126Y016647D01*
X011275Y016662D01*
X011215Y016587D02*
X011245Y016572D01*
X011275Y016542D01*
X01129Y016497D01*
Y016482D01*
X011275Y016437D01*
X011245Y016407D01*
X011215Y016392D01*
X011185D02*
X011155Y016407D01*
X011125Y016437D01*
X01111Y016482D01*
Y016572D01*
X011125Y016632D01*
X01114Y016662D01*
X01117Y016692D01*
X0112Y016707D01*
X018503Y014993D02*
X018548Y015008D01*
X018458D01*
X018503Y014993D01*
X018473Y014963D01*
X018458Y014918D01*
Y014888D01*
X018473Y014843D01*
X018503Y014813D01*
X018533Y014798D01*
X018577Y014783D01*
X018652D01*
X018697Y014798D01*
X018727Y014813D01*
X018757Y014843D01*
X018772Y014888D01*
Y014918D01*
X018757Y014963D01*
X018727Y014993D01*
X018697Y015008D01*
X018458Y014888D02*
X018473Y014858D01*
X018503Y014828D01*
X018533Y014813D01*
X018577Y014798D01*
X018652D01*
X018697Y014813D01*
X018727Y014828D01*
X018757Y014858D01*
X018772Y014888D01*
X018518Y015053D02*
X018503Y015083D01*
X018458Y015128D01*
X018772D01*
X018473Y015113D02*
X018772D01*
Y015053D02*
Y015188D01*
X018518Y015257D02*
X018533Y015272D01*
X018548Y015257D01*
X018533Y015242D01*
X018518D01*
X018488Y015257D01*
X018473Y015272D01*
X018458Y015317D01*
Y015377D01*
X018473Y015422D01*
X018488Y015437D01*
X018518Y015452D01*
X018548D01*
X018577Y015437D01*
X018607Y015392D01*
X018637Y015317D01*
X018652Y015287D01*
X018682Y015257D01*
X018727Y015242D01*
X018772D01*
X018458Y015377D02*
X018473Y015407D01*
X018488Y015422D01*
X018518Y015437D01*
X018548D01*
X018577Y015422D01*
X018607Y015377D01*
X018637Y015317D01*
X018742Y015242D02*
X018727Y015257D01*
Y015287D01*
X018757Y015362D01*
Y015407D01*
X018742Y015437D01*
X018727Y015452D01*
X018697D01*
X018727Y015287D02*
X018772Y015362D01*
Y015422D01*
X018757Y015437D01*
X018727Y015452D01*
X017812Y014993D02*
X017857Y015008D01*
X017767D01*
X017812Y014993D01*
X017782Y014963D01*
X017767Y014918D01*
Y014888D01*
X017782Y014843D01*
X017812Y014813D01*
X017842Y014798D01*
X017887Y014783D01*
X017962D01*
X018007Y014798D01*
X018037Y014813D01*
X018067Y014843D01*
X018082Y014888D01*
Y014918D01*
X018067Y014963D01*
X018037Y014993D01*
X018007Y015008D01*
X017767Y014888D02*
X017782Y014858D01*
X017812Y014828D01*
X017842Y014813D01*
X017887Y014798D01*
X017962D01*
X018007Y014813D01*
X018037Y014828D01*
X018067Y014858D01*
X018082Y014888D01*
X017827Y015053D02*
X017812Y015083D01*
X017767Y015128D01*
X018082D01*
X017782Y015113D02*
X018082D01*
Y015053D02*
Y015188D01*
X017827Y015257D02*
X017842Y015272D01*
X017857Y015257D01*
X017842Y015242D01*
X017827D01*
X017797Y015257D01*
X017782Y015272D01*
X017767Y015317D01*
Y015377D01*
X017782Y015422D01*
X017812Y015437D01*
X017857D01*
X017887Y015422D01*
X017902Y015377D01*
Y015332D01*
X017767Y015377D02*
X017782Y015407D01*
X017812Y015422D01*
X017857D01*
X017887Y015407D01*
X017902Y015377D01*
X017917Y015407D01*
X017947Y015437D01*
X017977Y015452D01*
X018022D01*
X018052Y015437D01*
X018067Y015422D01*
X018082Y015377D01*
Y015317D01*
X018067Y015272D01*
X018052Y015257D01*
X018022Y015242D01*
X018007D01*
X017992Y015257D01*
X018007Y015272D01*
X018022Y015257D01*
X017932Y015422D02*
X017977Y015437D01*
X018022D01*
X018052Y015422D01*
X018067Y015407D01*
X018082Y015377D01*
X021613Y013395D02*
X021568Y01338D01*
X021658D01*
X021613Y013395D01*
X021643Y013425D01*
X021658Y01347D01*
Y0135D01*
X021643Y013545D01*
X021613Y013575D01*
X021583Y01359D01*
X021538Y013605D01*
X021463D01*
X021418Y01359D01*
X021388Y013575D01*
X021358Y013545D01*
X021343Y0135D01*
Y01347D01*
X021358Y013425D01*
X021388Y013395D01*
X021418Y01338D01*
X021658Y0135D02*
X021643Y01353D01*
X021613Y01356D01*
X021583Y013575D01*
X021538Y01359D01*
X021463D01*
X021418Y013575D01*
X021388Y01356D01*
X021358Y01353D01*
X021343Y0135D01*
X021658Y013335D02*
X021568D01*
X021598D02*
X021628Y01332D01*
X021658Y01329D01*
Y01326D01*
X021613Y013185D01*
Y013155D01*
X021628Y01314D01*
X021658Y013125D01*
X021628Y01332D02*
X021643Y01329D01*
Y01326D01*
X021613Y013185D01*
X021658Y013125D02*
X021613D01*
X021568Y01314D01*
X021493Y0132D01*
X021463Y013215D01*
X021418Y01323D01*
X021343D01*
X021568Y01314D02*
X021493Y013215D01*
X021463Y01323D01*
X021418Y013245D01*
X021343D01*
X021658Y01201D02*
X021343D01*
X021658Y011995D02*
X021343D01*
X021658Y012055D02*
Y011875D01*
X021643Y01183D01*
X021628Y011815D01*
X021598Y0118D01*
X021568D01*
X021538Y011815D01*
X021523Y01183D01*
X021508Y011875D01*
Y011995D01*
X021658Y011875D02*
X021643Y011845D01*
X021628Y01183D01*
X021598Y011815D01*
X021568D01*
X021538Y01183D01*
X021523Y011845D01*
X021508Y011875D01*
X021343Y012055D02*
Y01195D01*
X021508Y01192D02*
X021493Y01189D01*
X021478Y011875D01*
X021373Y01183D01*
X021358Y011815D01*
Y0118D01*
X021373Y011785D01*
X021493Y01189D02*
X021463Y011875D01*
X021358Y011845D01*
X021343Y01183D01*
Y0118D01*
X021373Y011785D01*
X021388D01*
X021598Y011744D02*
X021613Y011714D01*
X021658Y011669D01*
X021343D01*
X021643Y011684D02*
X021343D01*
Y011744D02*
Y011609D01*
X021658Y01148D02*
X021643Y011525D01*
X021613Y01154D01*
X021568D01*
X021538Y011525D01*
X021523Y01148D01*
Y01142D01*
X021538Y011375D01*
X021568Y01136D01*
X021613D01*
X021643Y011375D01*
X021658Y01142D01*
Y01148D01*
X021643Y01151D01*
X021613Y011525D01*
X021568D01*
X021538Y01151D01*
X021523Y01148D01*
Y01142D02*
X021538Y01139D01*
X021568Y011375D01*
X021613D01*
X021643Y01139D01*
X021658Y01142D01*
X021523Y01148D02*
X021508Y011525D01*
X021493Y01154D01*
X021463Y011555D01*
X021403D01*
X021373Y01154D01*
X021358Y011525D01*
X021343Y01148D01*
Y01142D01*
X021358Y011375D01*
X021373Y01136D01*
X021403Y011345D01*
X021463D01*
X021493Y01136D01*
X021508Y011375D01*
X021523Y01142D01*
Y01148D02*
X021508Y01151D01*
X021493Y011525D01*
X021463Y01154D01*
X021403D01*
X021373Y011525D01*
X021358Y01151D01*
X021343Y01148D01*
Y01142D02*
X021358Y01139D01*
X021373Y011375D01*
X021403Y01136D01*
X021463D01*
X021493Y011375D01*
X021508Y01139D01*
X021523Y01142D01*
X020395Y011192D02*
Y011507D01*
X02038Y011192D02*
Y011507D01*
X02044Y011192D02*
X02026D01*
X020215Y011207D01*
X0202Y011222D01*
X020185Y011252D01*
Y011282D01*
X0202Y011312D01*
X020215Y011327D01*
X02026Y011342D01*
X02038D01*
X02026Y011192D02*
X02023Y011207D01*
X020215Y011222D01*
X0202Y011252D01*
Y011282D01*
X020215Y011312D01*
X02023Y011327D01*
X02026Y011342D01*
X02044Y011507D02*
X020335D01*
X020305Y011342D02*
X020275Y011357D01*
X02026Y011372D01*
X020215Y011477D01*
X0202Y011492D01*
X020185D01*
X02017Y011477D01*
X020275Y011357D02*
X02026Y011387D01*
X02023Y011492D01*
X020215Y011507D01*
X020185D01*
X02017Y011477D01*
Y011462D01*
X020129Y011252D02*
X020099Y011237D01*
X020054Y011192D01*
Y011507D01*
X020069Y011207D02*
Y011507D01*
X020129D02*
X019994D01*
X01994Y011192D02*
Y011282D01*
Y011252D02*
X019925Y011222D01*
X019895Y011192D01*
X019865D01*
X01979Y011237D01*
X01976D01*
X019745Y011222D01*
X01973Y011192D01*
X019925Y011222D02*
X019895Y011207D01*
X019865D01*
X01979Y011237D01*
X01973Y011192D02*
Y011237D01*
X019745Y011282D01*
X019805Y011357D01*
X01982Y011387D01*
X019835Y011432D01*
Y011507D01*
X019745Y011282D02*
X01982Y011357D01*
X019835Y011387D01*
X01985Y011432D01*
Y011507D01*
X018728Y01293D02*
X018683Y012915D01*
X018773D01*
X018728Y01293D01*
X018758Y01296D01*
X018773Y013005D01*
Y013035D01*
X018758Y01308D01*
X018728Y01311D01*
X018698Y013125D01*
X018653Y01314D01*
X018578D01*
X018533Y013125D01*
X018503Y01311D01*
X018473Y01308D01*
X018458Y013035D01*
Y013005D01*
X018473Y01296D01*
X018503Y01293D01*
X018533Y012915D01*
X018773Y013035D02*
X018758Y013065D01*
X018728Y013095D01*
X018698Y01311D01*
X018653Y013125D01*
X018578D01*
X018533Y01311D01*
X018503Y013095D01*
X018473Y013065D01*
X018458Y013035D01*
X018668Y012675D02*
X018623Y01269D01*
X018593Y01272D01*
X018578Y012765D01*
Y01278D01*
X018593Y012825D01*
X018623Y012855D01*
X018668Y01287D01*
X018683D01*
X018728Y012855D01*
X018758Y012825D01*
X018773Y01278D01*
Y01275D01*
X018758Y012705D01*
X018728Y012675D01*
X018683Y01266D01*
X018593D01*
X018533Y012675D01*
X018503Y01269D01*
X018473Y01272D01*
X018458Y012765D01*
Y01281D01*
X018473Y01284D01*
X018503Y012855D01*
X018518D01*
X018533Y01284D01*
X018518Y012825D01*
X018503Y01284D01*
X018578Y01278D02*
X018593Y01281D01*
X018623Y01284D01*
X018668Y012855D01*
X018683D01*
X018728Y01284D01*
X018758Y01281D01*
X018773Y01278D01*
Y01275D02*
X018758Y01272D01*
X018728Y01269D01*
X018683Y012675D01*
X018593D01*
X018533Y01269D01*
X018503Y012705D01*
X018473Y012735D01*
X018458Y012765D01*
X018038Y013024D02*
X017993Y013009D01*
X018083D01*
X018038Y013024D01*
X018068Y013054D01*
X018083Y013099D01*
Y013129D01*
X018068Y013174D01*
X018038Y013204D01*
X018008Y013219D01*
X017963Y013234D01*
X017888D01*
X017843Y013219D01*
X017813Y013204D01*
X017783Y013174D01*
X017768Y013129D01*
Y013099D01*
X017783Y013054D01*
X017813Y013024D01*
X017843Y013009D01*
X018083Y013129D02*
X018068Y013159D01*
X018038Y013189D01*
X018008Y013204D01*
X017963Y013219D01*
X017888D01*
X017843Y013204D01*
X017813Y013189D01*
X017783Y013159D01*
X017768Y013129D01*
X018023Y012964D02*
X018038Y012934D01*
X018083Y012889D01*
X017768D01*
X018068Y012904D02*
X017768D01*
Y012964D02*
Y01283D01*
X018083Y012686D02*
X018068Y012731D01*
X018023Y012761D01*
X017948Y012776D01*
X017903D01*
X017828Y012761D01*
X017783Y012731D01*
X017768Y012686D01*
Y012656D01*
X017783Y012611D01*
X017828Y012581D01*
X017903Y012566D01*
X017948D01*
X018023Y012581D01*
X018068Y012611D01*
X018083Y012656D01*
Y012686D01*
X018068Y012716D01*
X018053Y012731D01*
X018023Y012746D01*
X017948Y012761D01*
X017903D01*
X017828Y012746D01*
X017798Y012731D01*
X017783Y012716D01*
X017768Y012686D01*
Y012656D02*
X017783Y012626D01*
X017798Y012611D01*
X017828Y012596D01*
X017903Y012581D01*
X017948D01*
X018023Y012596D01*
X018053Y012611D01*
X018068Y012626D01*
X018083Y012656D01*
X017363Y01293D02*
X017318Y012915D01*
X017408D01*
X017363Y01293D01*
X017393Y01296D01*
X017408Y013005D01*
Y013035D01*
X017393Y01308D01*
X017363Y01311D01*
X017333Y013125D01*
X017288Y01314D01*
X017213D01*
X017168Y013125D01*
X017138Y01311D01*
X017108Y01308D01*
X017093Y013035D01*
Y013005D01*
X017108Y01296D01*
X017138Y01293D01*
X017168Y012915D01*
X017408Y013035D02*
X017393Y013065D01*
X017363Y013095D01*
X017333Y01311D01*
X017288Y013125D01*
X017213D01*
X017168Y01311D01*
X017138Y013095D01*
X017108Y013065D01*
X017093Y013035D01*
X017408Y012795D02*
X017393Y01284D01*
X017363Y012855D01*
X017318D01*
X017288Y01284D01*
X017273Y012795D01*
Y012735D01*
X017288Y01269D01*
X017318Y012675D01*
X017363D01*
X017393Y01269D01*
X017408Y012735D01*
Y012795D01*
X017393Y012825D01*
X017363Y01284D01*
X017318D01*
X017288Y012825D01*
X017273Y012795D01*
Y012735D02*
X017288Y012705D01*
X017318Y01269D01*
X017363D01*
X017393Y012705D01*
X017408Y012735D01*
X017273Y012795D02*
X017258Y01284D01*
X017243Y012855D01*
X017213Y01287D01*
X017153D01*
X017123Y012855D01*
X017108Y01284D01*
X017093Y012795D01*
Y012735D01*
X017108Y01269D01*
X017123Y012675D01*
X017153Y01266D01*
X017213D01*
X017243Y012675D01*
X017258Y01269D01*
X017273Y012735D01*
Y012795D02*
X017258Y012825D01*
X017243Y01284D01*
X017213Y012855D01*
X017153D01*
X017123Y01284D01*
X017108Y012825D01*
X017093Y012795D01*
Y012735D02*
X017108Y012705D01*
X017123Y01269D01*
X017153Y012675D01*
X017213D01*
X017243Y01269D01*
X017258Y012705D01*
X017273Y012735D01*
X017137Y015031D02*
X017182Y015046D01*
X017092D01*
X017137Y015031D01*
X017107Y015001D01*
X017092Y014956D01*
Y014926D01*
X017107Y014881D01*
X017137Y014851D01*
X017167Y014836D01*
X017212Y014821D01*
X017287D01*
X017332Y014836D01*
X017362Y014851D01*
X017392Y014881D01*
X017407Y014926D01*
Y014956D01*
X017392Y015001D01*
X017362Y015031D01*
X017332Y015046D01*
X017092Y014926D02*
X017107Y014896D01*
X017137Y014866D01*
X017167Y014851D01*
X017212Y014836D01*
X017287D01*
X017332Y014851D01*
X017362Y014866D01*
X017392Y014896D01*
X017407Y014926D01*
X017152Y015091D02*
X017137Y015121D01*
X017092Y015166D01*
X017407D01*
X017107Y015151D02*
X017407D01*
Y015091D02*
Y015226D01*
X017152Y01528D02*
X017137Y01531D01*
X017092Y015355D01*
X017407D01*
X017107Y01534D02*
X017407D01*
Y01528D02*
Y015415D01*
X019792Y014343D02*
X020107D01*
X019792Y014358D02*
X020107D01*
X019792Y014298D02*
Y014403D01*
X020107Y014298D02*
Y014523D01*
X020017D01*
X020107Y014508D01*
X019852Y014568D02*
X019837Y014597D01*
X019792Y014642D01*
X020107D01*
X019807Y014627D02*
X020107D01*
Y014568D02*
Y014702D01*
X042093Y022592D02*
Y022907D01*
X042078Y022592D02*
Y022907D01*
X042138Y022592D02*
X041958D01*
X041913Y022607D01*
X041898Y022622D01*
X041883Y022652D01*
Y022682D01*
X041898Y022712D01*
X041913Y022727D01*
X041958Y022742D01*
X042078D01*
X041958Y022592D02*
X041928Y022607D01*
X041913Y022622D01*
X041898Y022652D01*
Y022682D01*
X041913Y022712D01*
X041928Y022727D01*
X041958Y022742D01*
X042138Y022907D02*
X042033D01*
X042003Y022742D02*
X041973Y022757D01*
X041958Y022772D01*
X041913Y022877D01*
X041898Y022892D01*
X041883D01*
X041868Y022877D01*
X041973Y022757D02*
X041958Y022787D01*
X041928Y022892D01*
X041913Y022907D01*
X041883D01*
X041868Y022877D01*
Y022862D01*
X041813Y022652D02*
X041798Y022667D01*
X041813Y022682D01*
X041828Y022667D01*
Y022652D01*
X041813Y022622D01*
X041798Y022607D01*
X041753Y022592D01*
X041693D01*
X041648Y022607D01*
X041633Y022637D01*
Y022682D01*
X041648Y022712D01*
X041693Y022727D01*
X041738D01*
X041693Y022592D02*
X041663Y022607D01*
X041648Y022637D01*
Y022682D01*
X041663Y022712D01*
X041693Y022727D01*
X041663Y022742D01*
X041633Y022772D01*
X041618Y022802D01*
Y022847D01*
X041633Y022877D01*
X041648Y022892D01*
X041693Y022907D01*
X041753D01*
X041798Y022892D01*
X041813Y022877D01*
X041828Y022847D01*
Y022832D01*
X041813Y022817D01*
X041798Y022832D01*
X041813Y022847D01*
X041648Y022757D02*
X041633Y022802D01*
Y022847D01*
X041648Y022877D01*
X041663Y022892D01*
X041693Y022907D01*
X041392Y022637D02*
X041407Y022652D01*
X041392Y022667D01*
X041377Y022652D01*
Y022637D01*
X041392Y022607D01*
X041422Y022592D01*
X041467D01*
X041512Y022607D01*
X041542Y022637D01*
X041557Y022667D01*
X041572Y022727D01*
Y022817D01*
X041557Y022862D01*
X041527Y022892D01*
X041482Y022907D01*
X041452D01*
X041407Y022892D01*
X041377Y022862D01*
X041362Y022817D01*
Y022802D01*
X041377Y022757D01*
X041407Y022727D01*
X041452Y022712D01*
X041467D01*
X041512Y022727D01*
X041542Y022757D01*
X041557Y022802D01*
X041467Y022592D02*
X041497Y022607D01*
X041527Y022637D01*
X041542Y022667D01*
X041557Y022727D01*
Y022817D01*
X041542Y022862D01*
X041512Y022892D01*
X041482Y022907D01*
X041452D02*
X041422Y022892D01*
X041392Y022862D01*
X041377Y022817D01*
Y022802D01*
X041392Y022757D01*
X041422Y022727D01*
X041452Y022712D01*
X024957Y024308D02*
Y023993D01*
X024972Y024308D02*
Y023993D01*
X024912Y024308D02*
X025092D01*
X025137Y024293D01*
X025152Y024278D01*
X025167Y024248D01*
Y024218D01*
X025152Y024188D01*
X025137Y024173D01*
X025092Y024158D01*
X024972D01*
X025092Y024308D02*
X025122Y024293D01*
X025137Y024278D01*
X025152Y024248D01*
Y024218D01*
X025137Y024188D01*
X025122Y024173D01*
X025092Y024158D01*
X024912Y023993D02*
X025017D01*
X025047Y024158D02*
X025077Y024143D01*
X025092Y024128D01*
X025137Y024023D01*
X025152Y024008D01*
X025167D01*
X025182Y024023D01*
X025077Y024143D02*
X025092Y024113D01*
X025122Y024008D01*
X025137Y023993D01*
X025167D01*
X025182Y024023D01*
Y024038D01*
X025237Y024248D02*
X025252Y024233D01*
X025237Y024218D01*
X025222Y024233D01*
Y024248D01*
X025237Y024278D01*
X025252Y024293D01*
X025297Y024308D01*
X025357D01*
X025402Y024293D01*
X025417Y024263D01*
Y024218D01*
X025402Y024188D01*
X025357Y024173D01*
X025312D01*
X025357Y024308D02*
X025387Y024293D01*
X025402Y024263D01*
Y024218D01*
X025387Y024188D01*
X025357Y024173D01*
X025387Y024158D01*
X025417Y024128D01*
X025432Y024098D01*
Y024053D01*
X025417Y024023D01*
X025402Y024008D01*
X025357Y023993D01*
X025297D01*
X025252Y024008D01*
X025237Y024023D01*
X025222Y024053D01*
Y024068D01*
X025237Y024083D01*
X025252Y024068D01*
X025237Y024053D01*
X025402Y024143D02*
X025417Y024098D01*
Y024053D01*
X025402Y024023D01*
X025387Y024008D01*
X025357Y023993D01*
X025478Y024308D02*
Y024218D01*
Y024248D02*
X025493Y024278D01*
X025523Y024308D01*
X025553D01*
X025628Y024263D01*
X025658D01*
X025673Y024278D01*
X025688Y024308D01*
X025493Y024278D02*
X025523Y024293D01*
X025553D01*
X025628Y024263D01*
X025688Y024308D02*
Y024263D01*
X025673Y024218D01*
X025613Y024143D01*
X025598Y024113D01*
X025583Y024068D01*
Y023993D01*
X025673Y024218D02*
X025598Y024143D01*
X025583Y024113D01*
X025568Y024068D01*
Y023993D01*
X039857Y026758D02*
Y026443D01*
X039872Y026758D02*
Y026443D01*
X039812Y026758D02*
X039992D01*
X040037Y026743D01*
X040052Y026728D01*
X040067Y026698D01*
Y026668D01*
X040052Y026638D01*
X040037Y026623D01*
X039992Y026608D01*
X039872D01*
X039992Y026758D02*
X040022Y026743D01*
X040037Y026728D01*
X040052Y026698D01*
Y026668D01*
X040037Y026638D01*
X040022Y026623D01*
X039992Y026608D01*
X039812Y026443D02*
X039917D01*
X039947Y026608D02*
X039977Y026593D01*
X039992Y026578D01*
X040037Y026473D01*
X040052Y026458D01*
X040067D01*
X040082Y026473D01*
X039977Y026593D02*
X039992Y026563D01*
X040022Y026458D01*
X040037Y026443D01*
X040067D01*
X040082Y026473D01*
Y026488D01*
X040137Y026698D02*
X040152Y026683D01*
X040137Y026668D01*
X040122Y026683D01*
Y026698D01*
X040137Y026728D01*
X040152Y026743D01*
X040197Y026758D01*
X040257D01*
X040302Y026743D01*
X040317Y026728D01*
X040332Y026698D01*
Y026668D01*
X040317Y026638D01*
X040272Y026608D01*
X040197Y026578D01*
X040167Y026563D01*
X040137Y026533D01*
X040122Y026488D01*
Y026443D01*
X040257Y026758D02*
X040287Y026743D01*
X040302Y026728D01*
X040317Y026698D01*
Y026668D01*
X040302Y026638D01*
X040257Y026608D01*
X040197Y026578D01*
X040122Y026473D02*
X040137Y026488D01*
X040167D01*
X040242Y026458D01*
X040287D01*
X040317Y026473D01*
X040332Y026488D01*
Y026518D01*
X040167Y026488D02*
X040242Y026443D01*
X040302D01*
X040317Y026458D01*
X040332Y026488D01*
X040393Y026698D02*
X040408Y026683D01*
X040393Y026668D01*
X040378Y026683D01*
Y026698D01*
X040393Y026728D01*
X040408Y026743D01*
X040453Y026758D01*
X040513D01*
X040558Y026743D01*
X040573Y026713D01*
Y026668D01*
X040558Y026638D01*
X040513Y026623D01*
X040468D01*
X040513Y026758D02*
X040543Y026743D01*
X040558Y026713D01*
Y026668D01*
X040543Y026638D01*
X040513Y026623D01*
X040543Y026608D01*
X040573Y026578D01*
X040588Y026548D01*
Y026503D01*
X040573Y026473D01*
X040558Y026458D01*
X040513Y026443D01*
X040453D01*
X040408Y026458D01*
X040393Y026473D01*
X040378Y026503D01*
Y026518D01*
X040393Y026533D01*
X040408Y026518D01*
X040393Y026503D01*
X040558Y026593D02*
X040573Y026548D01*
Y026503D01*
X040558Y026473D01*
X040543Y026458D01*
X040513Y026443D01*
X043541Y023542D02*
Y023857D01*
X043526Y023542D02*
Y023857D01*
X043586Y023542D02*
X043406D01*
X043361Y023557D01*
X043346Y023572D01*
X043331Y023602D01*
Y023632D01*
X043346Y023662D01*
X043361Y023677D01*
X043406Y023692D01*
X043526D01*
X043406Y023542D02*
X043376Y023557D01*
X043361Y023572D01*
X043346Y023602D01*
Y023632D01*
X043361Y023662D01*
X043376Y023677D01*
X043406Y023692D01*
X043586Y023857D02*
X043481D01*
X043451Y023692D02*
X043421Y023707D01*
X043406Y023722D01*
X043361Y023827D01*
X043346Y023842D01*
X043331D01*
X043316Y023827D01*
X043421Y023707D02*
X043406Y023737D01*
X043376Y023842D01*
X043361Y023857D01*
X043331D01*
X043316Y023827D01*
Y023812D01*
X043261Y023602D02*
X043246Y023617D01*
X043261Y023632D01*
X043275Y023617D01*
Y023602D01*
X043261Y023572D01*
X043246Y023557D01*
X043201Y023542D01*
X043141D01*
X043096Y023557D01*
X043081Y023587D01*
Y023632D01*
X043096Y023662D01*
X043141Y023677D01*
X043186D01*
X043141Y023542D02*
X043111Y023557D01*
X043096Y023587D01*
Y023632D01*
X043111Y023662D01*
X043141Y023677D01*
X043111Y023692D01*
X043081Y023722D01*
X043066Y023752D01*
Y023797D01*
X043081Y023827D01*
X043096Y023842D01*
X043141Y023857D01*
X043201D01*
X043246Y023842D01*
X043261Y023827D01*
X043275Y023797D01*
Y023782D01*
X043261Y023767D01*
X043246Y023782D01*
X043261Y023797D01*
X043096Y023707D02*
X043081Y023752D01*
Y023797D01*
X043096Y023827D01*
X043111Y023842D01*
X043141Y023857D01*
X043019Y023602D02*
X042989Y023587D01*
X042944Y023542D01*
Y023857D01*
X042959Y023557D02*
Y023857D01*
X043019D02*
X042884D01*
X022963Y019276D02*
X022918Y019261D01*
X023008D01*
X022963Y019276D01*
X022993Y019306D01*
X023008Y019351D01*
Y019381D01*
X022993Y019426D01*
X022963Y019456D01*
X022933Y019471D01*
X022888Y019486D01*
X022813D01*
X022768Y019471D01*
X022738Y019456D01*
X022708Y019426D01*
X022693Y019381D01*
Y019351D01*
X022708Y019306D01*
X022738Y019276D01*
X022768Y019261D01*
X023008Y019381D02*
X022993Y019411D01*
X022963Y019441D01*
X022933Y019456D01*
X022888Y019471D01*
X022813D01*
X022768Y019456D01*
X022738Y019441D01*
X022708Y019411D01*
X022693Y019381D01*
X022948Y019216D02*
X022963Y019186D01*
X023008Y019141D01*
X022693D01*
X022993Y019156D02*
X022693D01*
Y019216D02*
Y019081D01*
X023008Y019027D02*
X022918D01*
X022948D02*
X022978Y019012D01*
X023008Y018982D01*
Y018952D01*
X022963Y018877D01*
Y018847D01*
X022978Y018832D01*
X023008Y018817D01*
X022978Y019012D02*
X022993Y018982D01*
Y018952D01*
X022963Y018877D01*
X023008Y018817D02*
X022963D01*
X022918Y018832D01*
X022843Y018892D01*
X022813Y018907D01*
X022768Y018922D01*
X022693D01*
X022918Y018832D02*
X022843Y018907D01*
X022813Y018922D01*
X022768Y018937D01*
X022693D01*
X023963Y019276D02*
X023918Y019261D01*
X024008D01*
X023963Y019276D01*
X023993Y019306D01*
X024008Y019351D01*
Y019381D01*
X023993Y019426D01*
X023963Y019456D01*
X023933Y019471D01*
X023888Y019486D01*
X023813D01*
X023768Y019471D01*
X023738Y019456D01*
X023708Y019426D01*
X023693Y019381D01*
Y019351D01*
X023708Y019306D01*
X023738Y019276D01*
X023768Y019261D01*
X024008Y019381D02*
X023993Y019411D01*
X023963Y019441D01*
X023933Y019456D01*
X023888Y019471D01*
X023813D01*
X023768Y019456D01*
X023738Y019441D01*
X023708Y019411D01*
X023693Y019381D01*
X023948Y019216D02*
X023963Y019186D01*
X024008Y019141D01*
X023693D01*
X023993Y019156D02*
X023693D01*
Y019216D02*
Y019081D01*
X023963Y018847D02*
X023948Y018862D01*
X023933Y018847D01*
X023948Y018832D01*
X023963D01*
X023993Y018847D01*
X024008Y018877D01*
Y018922D01*
X023993Y018967D01*
X023963Y018997D01*
X023933Y019012D01*
X023873Y019027D01*
X023783D01*
X023738Y019012D01*
X023708Y018982D01*
X023693Y018937D01*
Y018907D01*
X023708Y018862D01*
X023738Y018832D01*
X023783Y018817D01*
X023798D01*
X023843Y018832D01*
X023873Y018862D01*
X023888Y018907D01*
Y018922D01*
X023873Y018967D01*
X023843Y018997D01*
X023798Y019012D01*
X024008Y018922D02*
X023993Y018952D01*
X023963Y018982D01*
X023933Y018997D01*
X023873Y019012D01*
X023783D01*
X023738Y018997D01*
X023708Y018967D01*
X023693Y018937D01*
Y018907D02*
X023708Y018877D01*
X023738Y018847D01*
X023783Y018832D01*
X023798D01*
X023843Y018847D01*
X023873Y018877D01*
X023888Y018907D01*
X02485Y019276D02*
X024805Y019261D01*
X024895D01*
X02485Y019276D01*
X02488Y019306D01*
X024895Y019351D01*
Y019381D01*
X02488Y019426D01*
X02485Y019456D01*
X02482Y019471D01*
X024775Y019486D01*
X0247D01*
X024655Y019471D01*
X024625Y019456D01*
X024595Y019426D01*
X02458Y019381D01*
Y019351D01*
X024595Y019306D01*
X024625Y019276D01*
X024655Y019261D01*
X024895Y019381D02*
X02488Y019411D01*
X02485Y019441D01*
X02482Y019456D01*
X024775Y019471D01*
X0247D01*
X024655Y019456D01*
X024625Y019441D01*
X024595Y019411D01*
X02458Y019381D01*
X024835Y019216D02*
X02485Y019186D01*
X024895Y019141D01*
X02458D01*
X02488Y019156D02*
X02458D01*
Y019216D02*
Y019081D01*
X024895Y018952D02*
X02488Y018997D01*
X02485Y019012D01*
X024805D01*
X024775Y018997D01*
X02476Y018952D01*
Y018892D01*
X024775Y018847D01*
X024805Y018832D01*
X02485D01*
X02488Y018847D01*
X024895Y018892D01*
Y018952D01*
X02488Y018982D01*
X02485Y018997D01*
X024805D01*
X024775Y018982D01*
X02476Y018952D01*
Y018892D02*
X024775Y018862D01*
X024805Y018847D01*
X02485D01*
X02488Y018862D01*
X024895Y018892D01*
X02476Y018952D02*
X024745Y018997D01*
X02473Y019012D01*
X0247Y019027D01*
X02464D01*
X02461Y019012D01*
X024595Y018997D01*
X02458Y018952D01*
Y018892D01*
X024595Y018847D01*
X02461Y018832D01*
X02464Y018817D01*
X0247D01*
X02473Y018832D01*
X024745Y018847D01*
X02476Y018892D01*
Y018952D02*
X024745Y018982D01*
X02473Y018997D01*
X0247Y019012D01*
X02464D01*
X02461Y018997D01*
X024595Y018982D01*
X02458Y018952D01*
Y018892D02*
X024595Y018862D01*
X02461Y018847D01*
X02464Y018832D01*
X0247D01*
X02473Y018847D01*
X024745Y018862D01*
X02476Y018892D01*
X027244Y019181D02*
X027199Y019166D01*
X027289D01*
X027244Y019181D01*
X027274Y019211D01*
X027289Y019256D01*
Y019286D01*
X027274Y019331D01*
X027244Y019361D01*
X027214Y019376D01*
X027169Y019391D01*
X027094D01*
X027049Y019376D01*
X027019Y019361D01*
X026989Y019331D01*
X026974Y019286D01*
Y019256D01*
X026989Y019211D01*
X027019Y019181D01*
X027049Y019166D01*
X027289Y019286D02*
X027274Y019316D01*
X027244Y019346D01*
X027214Y019361D01*
X027169Y019376D01*
X027094D01*
X027049Y019361D01*
X027019Y019346D01*
X026989Y019316D01*
X026974Y019286D01*
X027289Y019091D02*
X027139Y019121D01*
X027169Y019091D01*
X027184Y019046D01*
Y019001D01*
X027169Y018956D01*
X027139Y018926D01*
X027094Y018911D01*
X027064D01*
X027019Y018926D01*
X026989Y018956D01*
X026974Y019001D01*
Y019046D01*
X026989Y019091D01*
X027004Y019106D01*
X027034Y019121D01*
X027049D01*
X027064Y019106D01*
X027049Y019091D01*
X027034Y019106D01*
X027184Y019001D02*
X027169Y018971D01*
X027139Y018941D01*
X027094Y018926D01*
X027064D01*
X027019Y018941D01*
X026989Y018971D01*
X026974Y019001D01*
X027289Y019091D02*
Y018941D01*
X027274Y019091D02*
Y019016D01*
X027289Y018941D01*
X028231Y019181D02*
X028187Y019166D01*
X028276D01*
X028231Y019181D01*
X028261Y019211D01*
X028276Y019256D01*
Y019286D01*
X028261Y019331D01*
X028231Y019361D01*
X028202Y019376D01*
X028157Y019391D01*
X028082D01*
X028037Y019376D01*
X028007Y019361D01*
X027977Y019331D01*
X027962Y019286D01*
Y019256D01*
X027977Y019211D01*
X028007Y019181D01*
X028037Y019166D01*
X028276Y019286D02*
X028261Y019316D01*
X028231Y019346D01*
X028202Y019361D01*
X028157Y019376D01*
X028082D01*
X028037Y019361D01*
X028007Y019346D01*
X027977Y019316D01*
X027962Y019286D01*
X028217Y019106D02*
X028202Y019091D01*
X028187Y019106D01*
X028202Y019121D01*
X028217D01*
X028246Y019106D01*
X028261Y019091D01*
X028276Y019046D01*
Y018986D01*
X028261Y018941D01*
X028246Y018926D01*
X028217Y018911D01*
X028187D01*
X028157Y018926D01*
X028127Y018971D01*
X028097Y019046D01*
X028082Y019076D01*
X028052Y019106D01*
X028007Y019121D01*
X027962D01*
X028276Y018986D02*
X028261Y018956D01*
X028246Y018941D01*
X028217Y018926D01*
X028187D01*
X028157Y018941D01*
X028127Y018986D01*
X028097Y019046D01*
X027992Y019121D02*
X028007Y019106D01*
Y019076D01*
X027977Y019001D01*
Y018956D01*
X027992Y018926D01*
X028007Y018911D01*
X028037D01*
X028007Y019076D02*
X027962Y019001D01*
Y018941D01*
X027977Y018926D01*
X028007Y018911D01*
X029113Y019181D02*
X029068Y019166D01*
X029158D01*
X029113Y019181D01*
X029143Y019211D01*
X029158Y019256D01*
Y019286D01*
X029143Y019331D01*
X029113Y019361D01*
X029083Y019376D01*
X029038Y019391D01*
X028963D01*
X028918Y019376D01*
X028888Y019361D01*
X028858Y019331D01*
X028843Y019286D01*
Y019256D01*
X028858Y019211D01*
X028888Y019181D01*
X028918Y019166D01*
X029158Y019286D02*
X029143Y019316D01*
X029113Y019346D01*
X029083Y019361D01*
X029038Y019376D01*
X028963D01*
X028918Y019361D01*
X028888Y019346D01*
X028858Y019316D01*
X028843Y019286D01*
X029098Y019106D02*
X029083Y019091D01*
X029068Y019106D01*
X029083Y019121D01*
X029098D01*
X029128Y019106D01*
X029143Y019091D01*
X029158Y019046D01*
Y018986D01*
X029143Y018941D01*
X029113Y018926D01*
X029068D01*
X029038Y018941D01*
X029023Y018986D01*
Y019031D01*
X029158Y018986D02*
X029143Y018956D01*
X029113Y018941D01*
X029068D01*
X029038Y018956D01*
X029023Y018986D01*
X029008Y018956D01*
X028978Y018926D01*
X028948Y018911D01*
X028903D01*
X028873Y018926D01*
X028858Y018941D01*
X028843Y018986D01*
Y019046D01*
X028858Y019091D01*
X028873Y019106D01*
X028903Y019121D01*
X028918D01*
X028933Y019106D01*
X028918Y019091D01*
X028903Y019106D01*
X028993Y018941D02*
X028948Y018926D01*
X028903D01*
X028873Y018941D01*
X028858Y018956D01*
X028843Y018986D01*
X026257Y019196D02*
X026212Y019181D01*
X026302D01*
X026257Y019196D01*
X026287Y019226D01*
X026302Y019271D01*
Y019301D01*
X026287Y019346D01*
X026257Y019376D01*
X026227Y019391D01*
X026182Y019406D01*
X026107D01*
X026062Y019391D01*
X026032Y019376D01*
X026002Y019346D01*
X025987Y019301D01*
Y019271D01*
X026002Y019226D01*
X026032Y019196D01*
X026062Y019181D01*
X026302Y019301D02*
X026287Y019331D01*
X026257Y019361D01*
X026227Y019376D01*
X026182Y019391D01*
X026107D01*
X026062Y019376D01*
X026032Y019361D01*
X026002Y019331D01*
X025987Y019301D01*
X026272Y018986D02*
X025987D01*
X026077Y018896D02*
Y019136D01*
X026302Y018971D01*
X025987D01*
Y019031D02*
Y018926D01*
X018313Y018591D02*
X018268Y018576D01*
X018358D01*
X018313Y018591D01*
X018343Y018621D01*
X018358Y018666D01*
Y018696D01*
X018343Y018741D01*
X018313Y018771D01*
X018283Y018786D01*
X018238Y018801D01*
X018163D01*
X018118Y018786D01*
X018088Y018771D01*
X018058Y018741D01*
X018043Y018696D01*
Y018666D01*
X018058Y018621D01*
X018088Y018591D01*
X018118Y018576D01*
X018358Y018696D02*
X018343Y018726D01*
X018313Y018756D01*
X018283Y018771D01*
X018238Y018786D01*
X018163D01*
X018118Y018771D01*
X018088Y018756D01*
X018058Y018726D01*
X018043Y018696D01*
X018298Y018531D02*
X018313Y018501D01*
X018358Y018456D01*
X018043D01*
X018343Y018471D02*
X018043D01*
Y018531D02*
Y018396D01*
X018358Y018312D02*
X018208Y018342D01*
X018238Y018312D01*
X018253Y018267D01*
Y018222D01*
X018238Y018177D01*
X018208Y018147D01*
X018163Y018132D01*
X018133D01*
X018088Y018147D01*
X018058Y018177D01*
X018043Y018222D01*
Y018267D01*
X018058Y018312D01*
X018073Y018327D01*
X018103Y018342D01*
X018118D01*
X018133Y018327D01*
X018118Y018312D01*
X018103Y018327D01*
X018253Y018222D02*
X018238Y018192D01*
X018208Y018162D01*
X018163Y018147D01*
X018133D01*
X018088Y018162D01*
X018058Y018192D01*
X018043Y018222D01*
X018358Y018312D02*
Y018162D01*
X018343Y018312D02*
Y018237D01*
X018358Y018162D01*
X017363Y018624D02*
X017318Y018609D01*
X017408D01*
X017363Y018624D01*
X017393Y018654D01*
X017408Y018699D01*
Y018729D01*
X017393Y018774D01*
X017363Y018804D01*
X017333Y018819D01*
X017288Y018834D01*
X017213D01*
X017168Y018819D01*
X017138Y018804D01*
X017108Y018774D01*
X017093Y018729D01*
Y018699D01*
X017108Y018654D01*
X017138Y018624D01*
X017168Y018609D01*
X017408Y018729D02*
X017393Y018759D01*
X017363Y018789D01*
X017333Y018804D01*
X017288Y018819D01*
X017213D01*
X017168Y018804D01*
X017138Y018789D01*
X017108Y018759D01*
X017093Y018729D01*
X017348Y018564D02*
X017363Y018534D01*
X017408Y01849D01*
X017093D01*
X017393Y018505D02*
X017093D01*
Y018564D02*
Y01843D01*
X017378Y018226D02*
X017093D01*
X017183Y018136D02*
Y018376D01*
X017408Y018211D01*
X017093D01*
Y018271D02*
Y018166D01*
X036442Y011035D02*
X036757D01*
X036442Y01105D02*
X036757D01*
X036442Y01099D02*
Y01117D01*
X036457Y011215D01*
X036472Y01123D01*
X036502Y011245D01*
X036532D01*
X036562Y01123D01*
X036577Y011215D01*
X036592Y01117D01*
Y01105D01*
X036442Y01117D02*
X036457Y0112D01*
X036472Y011215D01*
X036502Y01123D01*
X036532D01*
X036562Y011215D01*
X036577Y0112D01*
X036592Y01117D01*
X036757Y01099D02*
Y011095D01*
X036592Y011125D02*
X036607Y011155D01*
X036622Y01117D01*
X036727Y011215D01*
X036742Y01123D01*
Y011245D01*
X036727Y01126D01*
X036607Y011155D02*
X036637Y01117D01*
X036742Y0112D01*
X036757Y011215D01*
Y011245D01*
X036727Y01126D01*
X036712D01*
X036442Y0113D02*
X036532D01*
X036502D02*
X036472Y011315D01*
X036442Y011345D01*
Y011375D01*
X036487Y01145D01*
Y01148D01*
X036472Y011495D01*
X036442Y01151D01*
X036472Y011315D02*
X036457Y011345D01*
Y011375D01*
X036487Y01145D01*
X036442Y01151D02*
X036487D01*
X036532Y011495D01*
X036607Y011435D01*
X036637Y01142D01*
X036682Y011405D01*
X036757D01*
X036532Y011495D02*
X036607Y01142D01*
X036637Y011405D01*
X036682Y01139D01*
X036757D01*
X035542Y011035D02*
X035857D01*
X035542Y01105D02*
X035857D01*
X035542Y01099D02*
Y01117D01*
X035557Y011215D01*
X035572Y01123D01*
X035602Y011245D01*
X035632D01*
X035662Y01123D01*
X035677Y011215D01*
X035692Y01117D01*
Y01105D01*
X035542Y01117D02*
X035557Y0112D01*
X035572Y011215D01*
X035602Y01123D01*
X035632D01*
X035662Y011215D01*
X035677Y0112D01*
X035692Y01117D01*
X035857Y01099D02*
Y011095D01*
X035692Y011125D02*
X035707Y011155D01*
X035722Y01117D01*
X035827Y011215D01*
X035842Y01123D01*
Y011245D01*
X035827Y01126D01*
X035707Y011155D02*
X035737Y01117D01*
X035842Y0112D01*
X035857Y011215D01*
Y011245D01*
X035827Y01126D01*
X035812D01*
X035647Y011495D02*
X035692Y01148D01*
X035722Y01145D01*
X035737Y011405D01*
Y01139D01*
X035722Y011345D01*
X035692Y011315D01*
X035647Y0113D01*
X035632D01*
X035587Y011315D01*
X035557Y011345D01*
X035542Y01139D01*
Y01142D01*
X035557Y011465D01*
X035587Y011495D01*
X035632Y01151D01*
X035722D01*
X035782Y011495D01*
X035812Y01148D01*
X035842Y01145D01*
X035857Y011405D01*
Y01136D01*
X035842Y01133D01*
X035812Y011315D01*
X035797D01*
X035782Y01133D01*
X035797Y011345D01*
X035812Y01133D01*
X035737Y01139D02*
X035722Y01136D01*
X035692Y01133D01*
X035647Y011315D01*
X035632D01*
X035587Y01133D01*
X035557Y01136D01*
X035542Y01139D01*
Y01142D02*
X035557Y01145D01*
X035587Y01148D01*
X035632Y011495D01*
X035722D01*
X035782Y01148D01*
X035812Y011465D01*
X035842Y011435D01*
X035857Y011405D01*
X030538Y011107D02*
X030852D01*
X030538Y011122D02*
X030852D01*
X030538Y011062D02*
Y011242D01*
X030552Y011287D01*
X030567Y011302D01*
X030597Y011317D01*
X030627D01*
X030657Y011302D01*
X030672Y011287D01*
X030687Y011242D01*
Y011122D01*
X030538Y011242D02*
X030552Y011272D01*
X030567Y011287D01*
X030597Y011302D01*
X030627D01*
X030657Y011287D01*
X030672Y011272D01*
X030687Y011242D01*
X030852Y011062D02*
Y011167D01*
X030687Y011197D02*
X030702Y011227D01*
X030717Y011242D01*
X030822Y011287D01*
X030837Y011302D01*
Y011317D01*
X030822Y011332D01*
X030702Y011227D02*
X030732Y011242D01*
X030837Y011272D01*
X030852Y011287D01*
Y011317D01*
X030822Y011332D01*
X030807D01*
X030538Y011447D02*
X030552Y011402D01*
X030582Y011387D01*
X030627D01*
X030657Y011402D01*
X030672Y011447D01*
Y011507D01*
X030657Y011552D01*
X030627Y011567D01*
X030582D01*
X030552Y011552D01*
X030538Y011507D01*
Y011447D01*
X030552Y011417D01*
X030582Y011402D01*
X030627D01*
X030657Y011417D01*
X030672Y011447D01*
Y011507D02*
X030657Y011537D01*
X030627Y011552D01*
X030582D01*
X030552Y011537D01*
X030538Y011507D01*
X030672Y011447D02*
X030687Y011402D01*
X030702Y011387D01*
X030732Y011372D01*
X030792D01*
X030822Y011387D01*
X030837Y011402D01*
X030852Y011447D01*
Y011507D01*
X030837Y011552D01*
X030822Y011567D01*
X030792Y011582D01*
X030732D01*
X030702Y011567D01*
X030687Y011552D01*
X030672Y011507D01*
Y011447D02*
X030687Y011417D01*
X030702Y011402D01*
X030732Y011387D01*
X030792D01*
X030822Y011402D01*
X030837Y011417D01*
X030852Y011447D01*
Y011507D02*
X030837Y011537D01*
X030822Y011552D01*
X030792Y011567D01*
X030732D01*
X030702Y011552D01*
X030687Y011537D01*
X030672Y011507D01*
X033337Y028507D02*
X033382Y028522D01*
X033292D01*
X033337Y028507D01*
X033307Y028477D01*
X033292Y028432D01*
Y028402D01*
X033307Y028357D01*
X033337Y028327D01*
X033367Y028312D01*
X033412Y028297D01*
X033487D01*
X033532Y028312D01*
X033562Y028327D01*
X033592Y028357D01*
X033607Y028402D01*
Y028432D01*
X033592Y028477D01*
X033562Y028507D01*
X033532Y028522D01*
X033292Y028402D02*
X033307Y028372D01*
X033337Y028342D01*
X033367Y028327D01*
X033412Y028312D01*
X033487D01*
X033532Y028327D01*
X033562Y028342D01*
X033592Y028372D01*
X033607Y028402D01*
X033352Y028582D02*
X033367Y028597D01*
X033382Y028582D01*
X033367Y028567D01*
X033352D01*
X033322Y028582D01*
X033307Y028597D01*
X033292Y028642D01*
Y028702D01*
X033307Y028747D01*
X033322Y028762D01*
X033352Y028777D01*
X033382D01*
X033412Y028762D01*
X033442Y028717D01*
X033472Y028642D01*
X033487Y028612D01*
X033517Y028582D01*
X033562Y028567D01*
X033607D01*
X033292Y028702D02*
X033307Y028732D01*
X033322Y028747D01*
X033352Y028762D01*
X033382D01*
X033412Y028747D01*
X033442Y028702D01*
X033472Y028642D01*
X033577Y028567D02*
X033562Y028582D01*
Y028612D01*
X033592Y028687D01*
Y028732D01*
X033577Y028762D01*
X033562Y028777D01*
X033532D01*
X033562Y028612D02*
X033607Y028687D01*
Y028747D01*
X033592Y028762D01*
X033562Y028777D01*
X033292Y028853D02*
X033442Y028823D01*
X033412Y028853D01*
X033397Y028898D01*
Y028943D01*
X033412Y028988D01*
X033442Y029018D01*
X033487Y029033D01*
X033517D01*
X033562Y029018D01*
X033592Y028988D01*
X033607Y028943D01*
Y028898D01*
X033592Y028853D01*
X033577Y028838D01*
X033547Y028823D01*
X033532D01*
X033517Y028838D01*
X033532Y028853D01*
X033547Y028838D01*
X033397Y028943D02*
X033412Y028973D01*
X033442Y029003D01*
X033487Y029018D01*
X033517D01*
X033562Y029003D01*
X033592Y028973D01*
X033607Y028943D01*
X033292Y028853D02*
Y029003D01*
X033307Y028853D02*
Y028928D01*
X033292Y029003D01*
X034237Y028492D02*
X034282Y028507D01*
X034192D01*
X034237Y028492D01*
X034207Y028462D01*
X034192Y028417D01*
Y028387D01*
X034207Y028342D01*
X034237Y028312D01*
X034267Y028297D01*
X034312Y028282D01*
X034387D01*
X034432Y028297D01*
X034462Y028312D01*
X034492Y028342D01*
X034507Y028387D01*
Y028417D01*
X034492Y028462D01*
X034462Y028492D01*
X034432Y028507D01*
X034192Y028387D02*
X034207Y028357D01*
X034237Y028327D01*
X034267Y028312D01*
X034312Y028297D01*
X034387D01*
X034432Y028312D01*
X034462Y028327D01*
X034492Y028357D01*
X034507Y028387D01*
X034252Y028567D02*
X034267Y028582D01*
X034282Y028567D01*
X034267Y028552D01*
X034252D01*
X034222Y028567D01*
X034207Y028582D01*
X034192Y028627D01*
Y028687D01*
X034207Y028732D01*
X034222Y028747D01*
X034252Y028762D01*
X034282D01*
X034312Y028747D01*
X034342Y028702D01*
X034372Y028627D01*
X034387Y028597D01*
X034417Y028567D01*
X034462Y028552D01*
X034507D01*
X034192Y028687D02*
X034207Y028717D01*
X034222Y028732D01*
X034252Y028747D01*
X034282D01*
X034312Y028732D01*
X034342Y028687D01*
X034372Y028627D01*
X034477Y028552D02*
X034462Y028567D01*
Y028597D01*
X034492Y028672D01*
Y028717D01*
X034477Y028747D01*
X034462Y028762D01*
X034432D01*
X034462Y028597D02*
X034507Y028672D01*
Y028732D01*
X034492Y028747D01*
X034462Y028762D01*
X034222Y028958D02*
X034507D01*
X034417Y029048D02*
Y028808D01*
X034192Y028973D01*
X034507D01*
Y028913D02*
Y029018D01*
X032436Y028492D02*
X032481Y028507D01*
X032391D01*
X032436Y028492D01*
X032406Y028462D01*
X032391Y028417D01*
Y028387D01*
X032406Y028342D01*
X032436Y028312D01*
X032466Y028297D01*
X032511Y028282D01*
X032586D01*
X032631Y028297D01*
X032661Y028312D01*
X032691Y028342D01*
X032706Y028387D01*
Y028417D01*
X032691Y028462D01*
X032661Y028492D01*
X032631Y028507D01*
X032391Y028387D02*
X032406Y028357D01*
X032436Y028327D01*
X032466Y028312D01*
X032511Y028297D01*
X032586D01*
X032631Y028312D01*
X032661Y028327D01*
X032691Y028357D01*
X032706Y028387D01*
X032451Y028567D02*
X032466Y028582D01*
X032481Y028567D01*
X032466Y028552D01*
X032451D01*
X032421Y028567D01*
X032406Y028582D01*
X032391Y028627D01*
Y028687D01*
X032406Y028732D01*
X032421Y028747D01*
X032451Y028762D01*
X032481D01*
X032511Y028747D01*
X032541Y028702D01*
X032571Y028627D01*
X032586Y028597D01*
X032616Y028567D01*
X032661Y028552D01*
X032706D01*
X032391Y028687D02*
X032406Y028717D01*
X032421Y028732D01*
X032451Y028747D01*
X032481D01*
X032511Y028732D01*
X032541Y028687D01*
X032571Y028627D01*
X032676Y028552D02*
X032661Y028567D01*
Y028597D01*
X032691Y028672D01*
Y028717D01*
X032676Y028747D01*
X032661Y028762D01*
X032631D01*
X032661Y028597D02*
X032706Y028672D01*
Y028732D01*
X032691Y028747D01*
X032661Y028762D01*
X032451Y028823D02*
X032466Y028838D01*
X032481Y028823D01*
X032466Y028808D01*
X032451D01*
X032421Y028823D01*
X032406Y028838D01*
X032391Y028883D01*
Y028943D01*
X032406Y028988D01*
X032436Y029003D01*
X032481D01*
X032511Y028988D01*
X032526Y028943D01*
Y028898D01*
X032391Y028943D02*
X032406Y028973D01*
X032436Y028988D01*
X032481D01*
X032511Y028973D01*
X032526Y028943D01*
X032541Y028973D01*
X032571Y029003D01*
X032601Y029018D01*
X032646D01*
X032676Y029003D01*
X032691Y028988D01*
X032706Y028943D01*
Y028883D01*
X032691Y028838D01*
X032676Y028823D01*
X032646Y028808D01*
X032631D01*
X032616Y028823D01*
X032631Y028838D01*
X032646Y028823D01*
X032556Y028988D02*
X032601Y029003D01*
X032646D01*
X032676Y028988D01*
X032691Y028973D01*
X032706Y028943D01*
X029742Y026857D02*
X030057D01*
X029742Y026872D02*
X030057D01*
X029742Y026812D02*
Y026992D01*
X029757Y027037D01*
X029772Y027052D01*
X029802Y027067D01*
X029832D01*
X029862Y027052D01*
X029877Y027037D01*
X029892Y026992D01*
Y026872D01*
X029742Y026992D02*
X029757Y027022D01*
X029772Y027037D01*
X029802Y027052D01*
X029832D01*
X029862Y027037D01*
X029877Y027022D01*
X029892Y026992D01*
X030057Y026812D02*
Y026917D01*
X029892Y026947D02*
X029907Y026977D01*
X029922Y026992D01*
X030027Y027037D01*
X030042Y027052D01*
Y027067D01*
X030027Y027082D01*
X029907Y026977D02*
X029937Y026992D01*
X030042Y027022D01*
X030057Y027037D01*
Y027067D01*
X030027Y027082D01*
X030012D01*
X029802Y027137D02*
X029817Y027152D01*
X029832Y027137D01*
X029817Y027122D01*
X029802D01*
X029772Y027137D01*
X029757Y027152D01*
X029742Y027197D01*
Y027257D01*
X029757Y027302D01*
X029772Y027317D01*
X029802Y027332D01*
X029832D01*
X029862Y027317D01*
X029892Y027272D01*
X029922Y027197D01*
X029937Y027167D01*
X029967Y027137D01*
X030012Y027122D01*
X030057D01*
X029742Y027257D02*
X029757Y027287D01*
X029772Y027302D01*
X029802Y027317D01*
X029832D01*
X029862Y027302D01*
X029892Y027257D01*
X029922Y027197D01*
X030027Y027122D02*
X030012Y027137D01*
Y027167D01*
X030042Y027242D01*
Y027287D01*
X030027Y027317D01*
X030012Y027332D01*
X029982D01*
X030012Y027167D02*
X030057Y027242D01*
Y027302D01*
X030042Y027317D01*
X030012Y027332D01*
X029742Y027408D02*
X029892Y027378D01*
X029862Y027408D01*
X029847Y027453D01*
Y027498D01*
X029862Y027543D01*
X029892Y027573D01*
X029937Y027588D01*
X029967D01*
X030012Y027573D01*
X030042Y027543D01*
X030057Y027498D01*
Y027453D01*
X030042Y027408D01*
X030027Y027393D01*
X029997Y027378D01*
X029982D01*
X029967Y027393D01*
X029982Y027408D01*
X029997Y027393D01*
X029847Y027498D02*
X029862Y027528D01*
X029892Y027558D01*
X029937Y027573D01*
X029967D01*
X030012Y027558D01*
X030042Y027528D01*
X030057Y027498D01*
X029742Y027408D02*
Y027558D01*
X029757Y027408D02*
Y027483D01*
X029742Y027558D01*
X028892Y026842D02*
X029207D01*
X028892Y026857D02*
X029207D01*
X028892Y026797D02*
Y026977D01*
X028907Y027022D01*
X028922Y027037D01*
X028952Y027052D01*
X028982D01*
X029012Y027037D01*
X029027Y027022D01*
X029042Y026977D01*
Y026857D01*
X028892Y026977D02*
X028907Y027007D01*
X028922Y027022D01*
X028952Y027037D01*
X028982D01*
X029012Y027022D01*
X029027Y027007D01*
X029042Y026977D01*
X029207Y026797D02*
Y026902D01*
X029042Y026932D02*
X029057Y026962D01*
X029072Y026977D01*
X029177Y027022D01*
X029192Y027037D01*
Y027052D01*
X029177Y027067D01*
X029057Y026962D02*
X029087Y026977D01*
X029192Y027007D01*
X029207Y027022D01*
Y027052D01*
X029177Y027067D01*
X029162D01*
X028952Y027122D02*
X028967Y027137D01*
X028982Y027122D01*
X028967Y027107D01*
X028952D01*
X028922Y027122D01*
X028907Y027137D01*
X028892Y027182D01*
Y027242D01*
X028907Y027287D01*
X028922Y027302D01*
X028952Y027317D01*
X028982D01*
X029012Y027302D01*
X029042Y027257D01*
X029072Y027182D01*
X029087Y027152D01*
X029117Y027122D01*
X029162Y027107D01*
X029207D01*
X028892Y027242D02*
X028907Y027272D01*
X028922Y027287D01*
X028952Y027302D01*
X028982D01*
X029012Y027287D01*
X029042Y027242D01*
X029072Y027182D01*
X029177Y027107D02*
X029162Y027122D01*
Y027152D01*
X029192Y027227D01*
Y027272D01*
X029177Y027302D01*
X029162Y027317D01*
X029132D01*
X029162Y027152D02*
X029207Y027227D01*
Y027287D01*
X029192Y027302D01*
X029162Y027317D01*
X028922Y027513D02*
X029207D01*
X029117Y027603D02*
Y027363D01*
X028892Y027528D01*
X029207D01*
Y027468D02*
Y027573D01*
X043408Y024486D02*
X043393Y024531D01*
Y024441D01*
X043408Y024486D01*
X043438Y024456D01*
X043483Y024441D01*
X043513D01*
X043558Y024456D01*
X043588Y024486D01*
X043603Y024516D01*
X043618Y024561D01*
Y024636D01*
X043603Y024681D01*
X043588Y024711D01*
X043558Y024741D01*
X043513Y024756D01*
X043483D01*
X043438Y024741D01*
X043408Y024711D01*
X043393Y024681D01*
X043513Y024441D02*
X043543Y024456D01*
X043573Y024486D01*
X043588Y024516D01*
X043603Y024561D01*
Y024636D01*
X043588Y024681D01*
X043573Y024711D01*
X043543Y024741D01*
X043513Y024756D01*
X043333Y024501D02*
X043318Y024516D01*
X043333Y024531D01*
X043348Y024516D01*
Y024501D01*
X043333Y024471D01*
X043318Y024456D01*
X043273Y024441D01*
X043213D01*
X043168Y024456D01*
X043153Y024486D01*
Y024531D01*
X043168Y024561D01*
X043213Y024576D01*
X043258D01*
X043213Y024441D02*
X043183Y024456D01*
X043168Y024486D01*
Y024531D01*
X043183Y024561D01*
X043213Y024576D01*
X043183Y024591D01*
X043153Y024621D01*
X043138Y024651D01*
Y024696D01*
X043153Y024726D01*
X043168Y024741D01*
X043213Y024756D01*
X043273D01*
X043318Y024741D01*
X043333Y024726D01*
X043348Y024696D01*
Y024681D01*
X043333Y024666D01*
X043318Y024681D01*
X043333Y024696D01*
X043168Y024606D02*
X043153Y024651D01*
Y024696D01*
X043168Y024726D01*
X043183Y024741D01*
X043213Y024756D01*
X043077Y024501D02*
X043062Y024516D01*
X043077Y024531D01*
X043092Y024516D01*
Y024501D01*
X043077Y024471D01*
X043062Y024456D01*
X043017Y024441D01*
X042957D01*
X042912Y024456D01*
X042897Y024471D01*
X042882Y024501D01*
Y024531D01*
X042897Y024561D01*
X042942Y024591D01*
X043017Y024621D01*
X043047Y024636D01*
X043077Y024666D01*
X043092Y024711D01*
Y024756D01*
X042957Y024441D02*
X042927Y024456D01*
X042912Y024471D01*
X042897Y024501D01*
Y024531D01*
X042912Y024561D01*
X042957Y024591D01*
X043017Y024621D01*
X043092Y024726D02*
X043077Y024711D01*
X043047D01*
X042972Y024741D01*
X042927D01*
X042897Y024726D01*
X042882Y024711D01*
Y024681D01*
X043047Y024711D02*
X042972Y024756D01*
X042912D01*
X042897Y024741D01*
X042882Y024711D01*
X024928Y022308D02*
Y021993D01*
X024943Y022308D02*
Y021993D01*
X024883Y022308D02*
X025063D01*
X025108Y022293D01*
X025123Y022278D01*
X025138Y022248D01*
Y022218D01*
X025123Y022188D01*
X025108Y022173D01*
X025063Y022158D01*
X024943D01*
X025063Y022308D02*
X025093Y022293D01*
X025108Y022278D01*
X025123Y022248D01*
Y022218D01*
X025108Y022188D01*
X025093Y022173D01*
X025063Y022158D01*
X024883Y021993D02*
X024988D01*
X025018Y022158D02*
X025048Y022143D01*
X025063Y022128D01*
X025108Y022023D01*
X025123Y022008D01*
X025138D01*
X025153Y022023D01*
X025048Y022143D02*
X025063Y022113D01*
X025093Y022008D01*
X025108Y021993D01*
X025138D01*
X025153Y022023D01*
Y022038D01*
X025344Y022278D02*
Y021993D01*
X025433Y022083D02*
X025194D01*
X025359Y022308D01*
Y021993D01*
X025299D02*
X025403D01*
X025627Y022278D02*
Y021993D01*
X025717Y022083D02*
X025477D01*
X025642Y022308D01*
Y021993D01*
X025582D02*
X025687D01*
M02*
