G04*
G04 #@! TF.GenerationSoftware,Altium Limited,Altium Designer,21.3.2 (30)*
G04*
G04 Layer_Color=8388736*
%FSTAX24Y24*%
%MOIN*%
G70*
G04*
G04 #@! TF.SameCoordinates,31FF7248-0B4B-413F-84E3-F9EDAC069AC3*
G04*
G04*
G04 #@! TF.FilePolarity,Negative*
G04*
G01*
G75*
%ADD44R,0.0474X0.0454*%
G04:AMPARAMS|DCode=45|XSize=43.8mil|YSize=40.7mil|CornerRadius=12.7mil|HoleSize=0mil|Usage=FLASHONLY|Rotation=90.000|XOffset=0mil|YOffset=0mil|HoleType=Round|Shape=RoundedRectangle|*
%AMROUNDEDRECTD45*
21,1,0.0438,0.0154,0,0,90.0*
21,1,0.0185,0.0407,0,0,90.0*
1,1,0.0253,0.0077,0.0093*
1,1,0.0253,0.0077,-0.0093*
1,1,0.0253,-0.0077,-0.0093*
1,1,0.0253,-0.0077,0.0093*
%
%ADD45ROUNDEDRECTD45*%
G04:AMPARAMS|DCode=46|XSize=39.5mil|YSize=47.4mil|CornerRadius=7.9mil|HoleSize=0mil|Usage=FLASHONLY|Rotation=0.000|XOffset=0mil|YOffset=0mil|HoleType=Round|Shape=RoundedRectangle|*
%AMROUNDEDRECTD46*
21,1,0.0395,0.0315,0,0,0.0*
21,1,0.0236,0.0474,0,0,0.0*
1,1,0.0159,0.0118,-0.0157*
1,1,0.0159,-0.0118,-0.0157*
1,1,0.0159,-0.0118,0.0157*
1,1,0.0159,0.0118,0.0157*
%
%ADD46ROUNDEDRECTD46*%
%ADD47R,0.0454X0.0474*%
%ADD48R,0.0474X0.0316*%
%ADD49R,0.0860X0.0300*%
%ADD50R,0.0324X0.0304*%
G04:AMPARAMS|DCode=51|XSize=85.6mil|YSize=31.6mil|CornerRadius=7mil|HoleSize=0mil|Usage=FLASHONLY|Rotation=0.000|XOffset=0mil|YOffset=0mil|HoleType=Round|Shape=RoundedRectangle|*
%AMROUNDEDRECTD51*
21,1,0.0856,0.0177,0,0,0.0*
21,1,0.0717,0.0316,0,0,0.0*
1,1,0.0139,0.0358,-0.0089*
1,1,0.0139,-0.0358,-0.0089*
1,1,0.0139,-0.0358,0.0089*
1,1,0.0139,0.0358,0.0089*
%
%ADD51ROUNDEDRECTD51*%
%ADD52R,0.0808X0.1458*%
G04:AMPARAMS|DCode=53|XSize=55.6mil|YSize=36.7mil|CornerRadius=6.6mil|HoleSize=0mil|Usage=FLASHONLY|Rotation=90.000|XOffset=0mil|YOffset=0mil|HoleType=Round|Shape=RoundedRectangle|*
%AMROUNDEDRECTD53*
21,1,0.0556,0.0236,0,0,90.0*
21,1,0.0425,0.0367,0,0,90.0*
1,1,0.0132,0.0118,0.0212*
1,1,0.0132,0.0118,-0.0212*
1,1,0.0132,-0.0118,-0.0212*
1,1,0.0132,-0.0118,0.0212*
%
%ADD53ROUNDEDRECTD53*%
G04:AMPARAMS|DCode=54|XSize=44.6mil|YSize=59.6mil|CornerRadius=6.7mil|HoleSize=0mil|Usage=FLASHONLY|Rotation=270.000|XOffset=0mil|YOffset=0mil|HoleType=Round|Shape=RoundedRectangle|*
%AMROUNDEDRECTD54*
21,1,0.0446,0.0461,0,0,270.0*
21,1,0.0311,0.0596,0,0,270.0*
1,1,0.0135,-0.0230,-0.0156*
1,1,0.0135,-0.0230,0.0156*
1,1,0.0135,0.0230,0.0156*
1,1,0.0135,0.0230,-0.0156*
%
%ADD54ROUNDEDRECTD54*%
G04:AMPARAMS|DCode=55|XSize=135.6mil|YSize=59.6mil|CornerRadius=7.9mil|HoleSize=0mil|Usage=FLASHONLY|Rotation=270.000|XOffset=0mil|YOffset=0mil|HoleType=Round|Shape=RoundedRectangle|*
%AMROUNDEDRECTD55*
21,1,0.1356,0.0438,0,0,270.0*
21,1,0.1198,0.0596,0,0,270.0*
1,1,0.0157,-0.0219,-0.0599*
1,1,0.0157,-0.0219,0.0599*
1,1,0.0157,0.0219,0.0599*
1,1,0.0157,0.0219,-0.0599*
%
%ADD55ROUNDEDRECTD55*%
G04:AMPARAMS|DCode=56|XSize=43.8mil|YSize=40.7mil|CornerRadius=12.7mil|HoleSize=0mil|Usage=FLASHONLY|Rotation=0.000|XOffset=0mil|YOffset=0mil|HoleType=Round|Shape=RoundedRectangle|*
%AMROUNDEDRECTD56*
21,1,0.0438,0.0154,0,0,0.0*
21,1,0.0185,0.0407,0,0,0.0*
1,1,0.0253,0.0093,-0.0077*
1,1,0.0253,-0.0093,-0.0077*
1,1,0.0253,-0.0093,0.0077*
1,1,0.0253,0.0093,0.0077*
%
%ADD56ROUNDEDRECTD56*%
%ADD57R,0.0513X0.0316*%
%ADD58R,0.0474X0.0462*%
%ADD59R,0.1064X0.0671*%
%ADD60R,0.0690X0.0671*%
%ADD61R,0.0611X0.0237*%
%ADD62R,0.0316X0.0552*%
%ADD63R,0.0867X0.1497*%
G04:AMPARAMS|DCode=64|XSize=57.6mil|YSize=32mil|CornerRadius=10mil|HoleSize=0mil|Usage=FLASHONLY|Rotation=180.000|XOffset=0mil|YOffset=0mil|HoleType=Round|Shape=RoundedRectangle|*
%AMROUNDEDRECTD64*
21,1,0.0576,0.0120,0,0,180.0*
21,1,0.0376,0.0320,0,0,180.0*
1,1,0.0200,-0.0188,0.0060*
1,1,0.0200,0.0188,0.0060*
1,1,0.0200,0.0188,-0.0060*
1,1,0.0200,-0.0188,-0.0060*
%
%ADD64ROUNDEDRECTD64*%
%ADD65R,0.0867X0.0434*%
%ADD66R,0.0434X0.0867*%
%ADD67R,0.0604X0.0604*%
%ADD68R,0.0789X0.0541*%
%ADD69R,0.0595X0.0595*%
%ADD70C,0.0595*%
%ADD71C,0.0867*%
%ADD72R,0.0836X0.0836*%
%ADD73C,0.0836*%
%ADD74C,0.0356*%
%ADD75O,0.1280X0.0680*%
%ADD76O,0.0454X0.0592*%
%ADD77C,0.1458*%
%ADD78C,0.0700*%
%ADD79R,0.0700X0.0700*%
%ADD80C,0.0198*%
%ADD81O,0.1680X0.1080*%
%ADD82O,0.1080X0.1680*%
G36*
X046998Y012546D02*
Y012056D01*
X046997Y012043D01*
X046996Y012031D01*
X046995Y012019D01*
X046993Y012006D01*
X04699Y011994D01*
X046986Y011983D01*
X046982Y011971D01*
X046977Y011959D01*
X046972Y011948D01*
X046966Y011937D01*
X046959Y011927D01*
X046952Y011917D01*
X046945Y011907D01*
X046937Y011898D01*
X046928Y011889D01*
X046919Y01188D01*
X04691Y011872D01*
X0469Y011865D01*
X04689Y011857D01*
X04688Y011851D01*
X046869Y011845D01*
X046857Y01184D01*
X046846Y011835D01*
X046834Y011831D01*
X046822Y011827D01*
X046811Y011824D01*
X046798Y011822D01*
X046786Y01182D01*
X046774Y01182D01*
X046761Y011819D01*
X046545D01*
X046533Y01182D01*
X04652Y01182D01*
X046508Y011822D01*
X046496Y011824D01*
X046484Y011827D01*
X046472Y011831D01*
X04646Y011835D01*
X046449Y01184D01*
X046438Y011845D01*
X046427Y011851D01*
X046416Y011857D01*
X046406Y011865D01*
X046396Y011872D01*
X046387Y01188D01*
X046378Y011889D01*
X046369Y011898D01*
X046361Y011907D01*
X046354Y011917D01*
X046347Y011927D01*
X04634Y011937D01*
X046334Y011948D01*
X046329Y011959D01*
X046324Y011971D01*
X04632Y011983D01*
X046317Y011994D01*
X046314Y012006D01*
X046311Y012019D01*
X04631Y012031D01*
X046309Y012043D01*
X046309Y012056D01*
Y012546D01*
X046998D01*
D02*
G37*
G36*
X046309Y01478D02*
X04631Y014793D01*
X046311Y014805D01*
X046314Y014817D01*
X046317Y014829D01*
X04632Y014841D01*
X046324Y014853D01*
X046329Y014864D01*
X046334Y014875D01*
X04634Y014886D01*
X046347Y014897D01*
X046354Y014907D01*
X046361Y014917D01*
X046369Y014926D01*
X046378Y014935D01*
X046387Y014944D01*
X046396Y014952D01*
X046406Y014959D01*
X046416Y014966D01*
X046427Y014973D01*
X046438Y014979D01*
X046449Y014984D01*
X04646Y014989D01*
X046472Y014993D01*
X046484Y014996D01*
X046496Y014999D01*
X046508Y015002D01*
X04652Y015003D01*
X046533Y015004D01*
X046545Y015004D01*
X046761D01*
X046774Y015004D01*
X046786Y015003D01*
X046798Y015002D01*
X046811Y014999D01*
X046822Y014996D01*
X046834Y014993D01*
X046846Y014989D01*
X046857Y014984D01*
X046869Y014979D01*
X04688Y014973D01*
X04689Y014966D01*
X0469Y014959D01*
X04691Y014952D01*
X046919Y014944D01*
X046928Y014935D01*
X046937Y014926D01*
X046945Y014917D01*
X046952Y014907D01*
X046959Y014897D01*
X046966Y014886D01*
X046972Y014875D01*
X046977Y014864D01*
X046982Y014853D01*
X046986Y014841D01*
X04699Y014829D01*
X046993Y014817D01*
X046995Y014805D01*
X046996Y014793D01*
X046997Y01478D01*
X046998Y014768D01*
Y014278D01*
X046309D01*
Y014768D01*
X046309Y01478D01*
D02*
G37*
D44*
X02915Y014835D02*
D03*
Y015465D02*
D03*
X02905Y017835D02*
D03*
Y017206D02*
D03*
X0281Y017835D02*
D03*
Y017206D02*
D03*
X04145Y014235D02*
D03*
Y014865D02*
D03*
X0415Y01323D02*
D03*
Y0126D02*
D03*
X044206Y022308D02*
D03*
Y021678D02*
D03*
X043406Y022308D02*
D03*
Y021678D02*
D03*
X03085Y025965D02*
D03*
Y025335D02*
D03*
X029933Y025965D02*
D03*
Y025335D02*
D03*
X029017Y025965D02*
D03*
Y025335D02*
D03*
X0281Y025965D02*
D03*
Y025335D02*
D03*
X01765Y02618D02*
D03*
Y02555D02*
D03*
X0148Y021202D02*
D03*
Y021832D02*
D03*
Y020198D02*
D03*
Y019569D02*
D03*
X0215Y01305D02*
D03*
Y01368D02*
D03*
Y012015D02*
D03*
Y011385D02*
D03*
X02285Y019466D02*
D03*
Y018836D02*
D03*
X02385Y019466D02*
D03*
Y018836D02*
D03*
X024738Y019466D02*
D03*
Y018836D02*
D03*
X027131Y019466D02*
D03*
Y018836D02*
D03*
X028119Y019466D02*
D03*
Y018836D02*
D03*
X029Y019466D02*
D03*
Y018836D02*
D03*
X026144Y019466D02*
D03*
Y018836D02*
D03*
X0182Y018781D02*
D03*
Y018152D02*
D03*
X01725Y0188D02*
D03*
Y01817D02*
D03*
X0366Y011565D02*
D03*
Y010935D02*
D03*
X0357Y011565D02*
D03*
Y010935D02*
D03*
X030695Y011637D02*
D03*
Y011007D02*
D03*
X03345Y02835D02*
D03*
Y02898D02*
D03*
X03435Y02835D02*
D03*
Y02898D02*
D03*
X032549Y028335D02*
D03*
Y028965D02*
D03*
X0299Y027515D02*
D03*
Y026885D02*
D03*
X02905Y027515D02*
D03*
Y026885D02*
D03*
D45*
X0284Y014855D02*
D03*
Y015445D02*
D03*
D46*
X02455Y01795D02*
D03*
X023959D02*
D03*
X046245Y0154D02*
D03*
X045655D02*
D03*
X044151Y020858D02*
D03*
X04356D02*
D03*
X017995Y01725D02*
D03*
X017405D02*
D03*
D47*
X038485Y0183D02*
D03*
X039115D02*
D03*
X038468Y017427D02*
D03*
X039098D02*
D03*
X038398Y014976D02*
D03*
X039028D02*
D03*
X038419Y013481D02*
D03*
X039049D02*
D03*
X039038Y012606D02*
D03*
X038408D02*
D03*
X0384Y0116D02*
D03*
X03903D02*
D03*
X043835Y01365D02*
D03*
X044465D02*
D03*
X043835Y01275D02*
D03*
X044465D02*
D03*
X04145Y0275D02*
D03*
X04208D02*
D03*
X041434Y026567D02*
D03*
X042063D02*
D03*
X039885Y0275D02*
D03*
X040515D02*
D03*
X04203Y02555D02*
D03*
X0414D02*
D03*
X04203Y0246D02*
D03*
X0414D02*
D03*
Y0237D02*
D03*
X04203D02*
D03*
X041435Y02185D02*
D03*
X042065D02*
D03*
X041435Y02095D02*
D03*
X042065D02*
D03*
X037315Y02255D02*
D03*
X036685D02*
D03*
X027585Y0244D02*
D03*
X028215D02*
D03*
X029185D02*
D03*
X029815D02*
D03*
X03143D02*
D03*
X0308D02*
D03*
X0308Y0235D02*
D03*
X03143D02*
D03*
X028215D02*
D03*
X027585D02*
D03*
X011135Y01655D02*
D03*
X011765D02*
D03*
X0204Y01135D02*
D03*
X01977D02*
D03*
X042065Y02275D02*
D03*
X041435D02*
D03*
X024985Y02415D02*
D03*
X025615D02*
D03*
X040515Y0266D02*
D03*
X039885D02*
D03*
X04292Y0237D02*
D03*
X04355D02*
D03*
X043565Y024599D02*
D03*
X042935D02*
D03*
X025615Y02215D02*
D03*
X024985D02*
D03*
D48*
X040672Y014126D02*
D03*
Y014874D02*
D03*
X039728Y0145D02*
D03*
X040672Y012526D02*
D03*
Y013274D02*
D03*
X039728Y0129D02*
D03*
D49*
X04037Y0238D02*
D03*
Y0243D02*
D03*
Y0248D02*
D03*
Y0253D02*
D03*
X03843D02*
D03*
Y0248D02*
D03*
Y0243D02*
D03*
Y0238D02*
D03*
X03848Y0226D02*
D03*
Y0221D02*
D03*
Y0216D02*
D03*
Y0211D02*
D03*
X04042D02*
D03*
Y0216D02*
D03*
Y0221D02*
D03*
Y0226D02*
D03*
D50*
X0374Y021539D02*
D03*
Y021161D02*
D03*
X036775Y021161D02*
D03*
Y021539D02*
D03*
X03615Y021539D02*
D03*
Y021161D02*
D03*
X03625Y0246D02*
D03*
Y024978D02*
D03*
Y025568D02*
D03*
Y025946D02*
D03*
X0324Y025568D02*
D03*
Y025946D02*
D03*
Y0246D02*
D03*
Y024978D02*
D03*
X0201Y021461D02*
D03*
Y021839D02*
D03*
X018615Y014929D02*
D03*
Y015307D02*
D03*
X017925Y014929D02*
D03*
Y015307D02*
D03*
X018615Y013089D02*
D03*
Y012711D02*
D03*
X017925Y013089D02*
D03*
Y012711D02*
D03*
X01725Y013089D02*
D03*
Y012711D02*
D03*
X01725Y014929D02*
D03*
Y015307D02*
D03*
D51*
X033415Y025849D02*
D03*
Y025349D02*
D03*
Y024849D02*
D03*
Y024349D02*
D03*
X035364D02*
D03*
Y024849D02*
D03*
Y025349D02*
D03*
Y025849D02*
D03*
X017176Y0219D02*
D03*
Y0224D02*
D03*
Y0229D02*
D03*
Y0234D02*
D03*
X019124D02*
D03*
Y0229D02*
D03*
Y0224D02*
D03*
Y0219D02*
D03*
D52*
X019457Y0285D02*
D03*
X021643D02*
D03*
D53*
X01666Y026422D02*
D03*
Y025099D02*
D03*
D54*
X0191Y019052D02*
D03*
Y01815D02*
D03*
Y017248D02*
D03*
D55*
X021734Y01815D02*
D03*
D56*
X013195Y01655D02*
D03*
X012605D02*
D03*
D57*
X019526Y01295D02*
D03*
Y012576D02*
D03*
Y012202D02*
D03*
X02055D02*
D03*
Y012576D02*
D03*
Y01295D02*
D03*
D58*
X01789Y011948D02*
D03*
X017311D02*
D03*
D59*
X01995Y013772D02*
D03*
Y015228D02*
D03*
D60*
X046653Y013806D02*
D03*
Y013018D02*
D03*
D61*
X0456Y013924D02*
D03*
Y013668D02*
D03*
Y013412D02*
D03*
Y013156D02*
D03*
Y0129D02*
D03*
D62*
X044Y015798D02*
D03*
X0435D02*
D03*
X043D02*
D03*
X0425D02*
D03*
X042D02*
D03*
X0415D02*
D03*
X041D02*
D03*
X0405D02*
D03*
Y018002D02*
D03*
X041D02*
D03*
X0415D02*
D03*
X042D02*
D03*
X0425D02*
D03*
X043D02*
D03*
X0435D02*
D03*
X044D02*
D03*
D63*
X021889Y02565D02*
D03*
X019211D02*
D03*
D64*
X0232Y02389D02*
D03*
X023972Y024264D02*
D03*
Y023516D02*
D03*
X0232Y02249D02*
D03*
X023972Y022864D02*
D03*
Y022116D02*
D03*
D65*
X030754Y019494D02*
D03*
Y018994D02*
D03*
Y018494D02*
D03*
Y017994D02*
D03*
Y017494D02*
D03*
Y016994D02*
D03*
Y016494D02*
D03*
Y015994D02*
D03*
Y015494D02*
D03*
Y014994D02*
D03*
Y014494D02*
D03*
Y013994D02*
D03*
Y013494D02*
D03*
Y012994D02*
D03*
X037446D02*
D03*
Y013494D02*
D03*
Y013994D02*
D03*
Y014494D02*
D03*
Y014994D02*
D03*
Y015494D02*
D03*
Y015994D02*
D03*
Y016494D02*
D03*
Y016994D02*
D03*
Y017494D02*
D03*
Y017994D02*
D03*
Y018494D02*
D03*
Y018994D02*
D03*
Y019494D02*
D03*
D66*
X03185Y0126D02*
D03*
X03235D02*
D03*
X03285D02*
D03*
X03335D02*
D03*
X03385D02*
D03*
X03435D02*
D03*
X03485D02*
D03*
X03535D02*
D03*
X03585D02*
D03*
X03635D02*
D03*
D67*
X032984Y017263D02*
D03*
X033706D02*
D03*
X034429D02*
D03*
X032984Y016541D02*
D03*
X033706D02*
D03*
X034429D02*
D03*
X032984Y015819D02*
D03*
X033706D02*
D03*
X034429D02*
D03*
D68*
X01615Y013679D02*
D03*
Y012521D02*
D03*
D69*
X02425Y015984D02*
D03*
X0246Y028834D02*
D03*
D70*
X02425Y014016D02*
D03*
X0246Y026866D02*
D03*
D71*
X03145Y0289D02*
D03*
X02745D02*
D03*
D72*
X0157Y028702D02*
D03*
D73*
X0167D02*
D03*
X0177D02*
D03*
D74*
X01865Y0158D02*
D03*
X0179D02*
D03*
X01725D02*
D03*
D75*
X01082Y02314D02*
D03*
Y02136D02*
D03*
X01338Y02314D02*
D03*
Y02136D02*
D03*
X01082Y02009D02*
D03*
Y01831D02*
D03*
X01338Y02009D02*
D03*
Y01831D02*
D03*
D76*
X04559Y014396D02*
D03*
Y012428D02*
D03*
D77*
X01095Y02885D02*
D03*
X046606D02*
D03*
Y010886D02*
D03*
X01085Y01085D02*
D03*
D78*
X044657Y027708D02*
D03*
D79*
Y028692D02*
D03*
D80*
X033345Y017263D02*
D03*
X034068D02*
D03*
X032984Y016902D02*
D03*
X033706D02*
D03*
X034429D02*
D03*
X033345Y016541D02*
D03*
X034068D02*
D03*
X032984Y01618D02*
D03*
X033706D02*
D03*
X034429D02*
D03*
X033345Y015819D02*
D03*
X034068D02*
D03*
D81*
X01365Y02435D02*
D03*
D82*
X01215Y02635D02*
D03*
X01465D02*
D03*
M02*
