G04*
G04 #@! TF.GenerationSoftware,Altium Limited,Altium Designer,21.3.2 (30)*
G04*
G04 Layer_Color=8388736*
%FSTAX24Y24*%
%MOIN*%
G70*
G04*
G04 #@! TF.SameCoordinates,31FF7248-0B4B-413F-84E3-F9EDAC069AC3*
G04*
G04*
G04 #@! TF.FilePolarity,Positive*
G04*
G01*
G75*
%ADD17C,0.0138*%
D17*
X029563Y014422D02*
Y015878D01*
X028737D02*
X029563D01*
X028737Y014422D02*
X029563D01*
X028737D02*
Y015878D01*
X02915Y014953D02*
Y015347D01*
X028953Y01515D02*
X029347D01*
X028637Y016792D02*
Y018249D01*
Y016792D02*
X029463D01*
X028637Y018249D02*
X029463D01*
Y016792D02*
Y018249D01*
X02905Y017324D02*
Y017717D01*
X028853Y01752D02*
X029247D01*
X027687Y016792D02*
Y018249D01*
Y016792D02*
X028513D01*
X027687Y018249D02*
X028513D01*
Y016792D02*
Y018249D01*
X0281Y017324D02*
Y017717D01*
X027903Y01752D02*
X028297D01*
X038072Y017887D02*
X039528D01*
Y018713D01*
X038072Y017887D02*
Y018713D01*
X039528D01*
X038603Y0183D02*
X038997D01*
X0388Y018103D02*
Y018497D01*
X038055Y017013D02*
X039512D01*
Y01784D01*
X038055Y017013D02*
Y01784D01*
X039512D01*
X038587Y017427D02*
X03898D01*
X038783Y01723D02*
Y017624D01*
X037984Y014562D02*
X039441D01*
Y015389D01*
X037984Y014562D02*
Y015389D01*
X039441D01*
X038516Y014976D02*
X03891D01*
X038713Y014779D02*
Y015172D01*
X038005Y013067D02*
X039462D01*
Y013894D01*
X038005Y013067D02*
Y013894D01*
X039462D01*
X038537Y013481D02*
X03893D01*
X038734Y013284D02*
Y013678D01*
X037994Y013019D02*
X039451D01*
X037994Y012192D02*
Y013019D01*
X039451Y012192D02*
Y013019D01*
X037994Y012192D02*
X039451D01*
X038526Y012606D02*
X03892D01*
X038723Y012409D02*
Y012802D01*
X037987Y011187D02*
X039443D01*
Y012013D01*
X037987Y011187D02*
Y012013D01*
X039443D01*
X038518Y0116D02*
X038912D01*
X038715Y011403D02*
Y011797D01*
X041863Y013822D02*
Y015278D01*
X041037D02*
X041863D01*
X041037Y013822D02*
X041863D01*
X041037D02*
Y015278D01*
X04145Y014353D02*
Y014747D01*
X041253Y01455D02*
X041647D01*
X041087Y012187D02*
Y013643D01*
Y012187D02*
X041913D01*
X041087Y013643D02*
X041913D01*
Y012187D02*
Y013643D01*
X0415Y012718D02*
Y013112D01*
X041303Y012915D02*
X041697D01*
X043422Y013237D02*
X044878D01*
Y014063D01*
X043422Y013237D02*
Y014063D01*
X044878D01*
X043953Y01365D02*
X044347D01*
X04415Y013453D02*
Y013847D01*
X043422Y012337D02*
X044878D01*
Y013163D01*
X043422Y012337D02*
Y013163D01*
X044878D01*
X043953Y01275D02*
X044347D01*
X04415Y012553D02*
Y012947D01*
X04102Y026153D02*
X042477D01*
Y02698D01*
X04102Y026153D02*
Y02698D01*
X042477D01*
X041552Y026567D02*
X041945D01*
X041748Y02637D02*
Y026763D01*
X041715Y023503D02*
Y023897D01*
X041518Y0237D02*
X041912D01*
X040987Y023287D02*
X042443D01*
Y024113D01*
X040987Y023287D02*
Y024113D01*
X042443D01*
X043792Y021265D02*
Y022722D01*
Y021265D02*
X044619D01*
X043792Y022722D02*
X044619D01*
Y021265D02*
Y022722D01*
X044206Y021796D02*
Y02219D01*
X044009Y021993D02*
X044402D01*
X042992Y021265D02*
Y022722D01*
Y021265D02*
X043819D01*
X042992Y022722D02*
X043819D01*
Y021265D02*
Y022722D01*
X043406Y021796D02*
Y02219D01*
X043209Y021993D02*
X043602D01*
X017453Y025865D02*
X017847D01*
X01765Y025668D02*
Y026062D01*
X017237Y025137D02*
Y026593D01*
Y025137D02*
X018063D01*
X017237Y026593D02*
X018063D01*
Y025137D02*
Y026593D01*
X014603Y021517D02*
X014997D01*
X0148Y02132D02*
Y021713D01*
X015213Y020788D02*
Y022245D01*
X014387D02*
X015213D01*
X014387Y020788D02*
X015213D01*
X014387D02*
Y022245D01*
X014603Y019883D02*
X014997D01*
X0148Y019687D02*
Y02008D01*
X014387Y019155D02*
Y020612D01*
Y019155D02*
X015213D01*
X014387Y020612D02*
X015213D01*
Y019155D02*
Y020612D01*
X01145Y016353D02*
Y016747D01*
X011253Y01655D02*
X011647D01*
X010722Y016137D02*
X012178D01*
Y016963D01*
X010722Y016137D02*
Y016963D01*
X012178D01*
X022437Y018423D02*
Y01988D01*
Y018423D02*
X023263D01*
X022437Y01988D02*
X023263D01*
Y018423D02*
Y01988D01*
X02285Y018954D02*
Y019348D01*
X022653Y019151D02*
X023047D01*
X023437Y018423D02*
Y01988D01*
Y018423D02*
X024263D01*
X023437Y01988D02*
X024263D01*
Y018423D02*
Y01988D01*
X02385Y018954D02*
Y019348D01*
X023653Y019151D02*
X024047D01*
X024324Y018423D02*
Y01988D01*
Y018423D02*
X025151D01*
X024324Y01988D02*
X025151D01*
Y018423D02*
Y01988D01*
X024738Y018954D02*
Y019348D01*
X024541Y019151D02*
X024934D01*
X026718Y018423D02*
Y01988D01*
Y018423D02*
X027545D01*
X026718Y01988D02*
X027545D01*
Y018423D02*
Y01988D01*
X027131Y018954D02*
Y019348D01*
X026935Y019151D02*
X027328D01*
X027706Y018423D02*
Y01988D01*
Y018423D02*
X028532D01*
X027706Y01988D02*
X028532D01*
Y018423D02*
Y01988D01*
X028119Y018954D02*
Y019348D01*
X027922Y019151D02*
X028316D01*
X028587Y018423D02*
Y01988D01*
Y018423D02*
X029413D01*
X028587Y01988D02*
X029413D01*
Y018423D02*
Y01988D01*
X029Y018954D02*
Y019348D01*
X028803Y019151D02*
X029197D01*
X025731Y018423D02*
Y01988D01*
Y018423D02*
X026557D01*
X025731Y01988D02*
X026557D01*
Y018423D02*
Y01988D01*
X026144Y018954D02*
Y019348D01*
X025947Y019151D02*
X026341D01*
X017787Y017738D02*
Y019195D01*
Y017738D02*
X018613D01*
X017787Y019195D02*
X018613D01*
Y017738D02*
Y019195D01*
X0182Y01827D02*
Y018663D01*
X018003Y018467D02*
X018397D01*
X016837Y017757D02*
Y019213D01*
Y017757D02*
X017663D01*
X016837Y019213D02*
X017663D01*
Y017757D02*
Y019213D01*
X01725Y018288D02*
Y018682D01*
X017053Y018485D02*
X017447D01*
X036403Y01125D02*
X036797D01*
X0366Y011053D02*
Y011447D01*
X036187Y010522D02*
Y011978D01*
Y010522D02*
X037013D01*
X036187Y011978D02*
X037013D01*
Y010522D02*
Y011978D01*
X035503Y01125D02*
X035897D01*
X0357Y011053D02*
Y011447D01*
X035287Y010522D02*
Y011978D01*
Y010522D02*
X036113D01*
X035287Y011978D02*
X036113D01*
Y010522D02*
Y011978D01*
X030498Y011322D02*
X030892D01*
X030695Y011125D02*
Y011519D01*
X030282Y010593D02*
Y01205D01*
Y010593D02*
X031108D01*
X030282Y01205D02*
X031108D01*
Y010593D02*
Y01205D01*
X033863Y027937D02*
Y029393D01*
X033037D02*
X033863D01*
X033037Y027937D02*
X033863D01*
X033037D02*
Y029393D01*
X03345Y028468D02*
Y028862D01*
X033253Y028665D02*
X033647D01*
X034763Y027937D02*
Y029393D01*
X033937D02*
X034763D01*
X033937Y027937D02*
X034763D01*
X033937D02*
Y029393D01*
X03435Y028468D02*
Y028862D01*
X034153Y028665D02*
X034547D01*
X032962Y027922D02*
Y029378D01*
X032135D02*
X032962D01*
X032135Y027922D02*
X032962D01*
X032135D02*
Y029378D01*
X032549Y028453D02*
Y028847D01*
X032352Y02865D02*
X032746D01*
X042522Y025012D02*
X043978D01*
X042522Y024185D02*
Y025012D01*
X043978Y024185D02*
Y025012D01*
X042522Y024185D02*
X043978D01*
X043053Y024599D02*
X043447D01*
X04325Y024402D02*
Y024796D01*
M02*
