G04*
G04 #@! TF.GenerationSoftware,Altium Limited,Altium Designer,21.3.2 (30)*
G04*
G04 Layer_Color=16711935*
%FSTAX24Y24*%
%MOIN*%
G70*
G04*
G04 #@! TF.SameCoordinates,31FF7248-0B4B-413F-84E3-F9EDAC069AC3*
G04*
G04*
G04 #@! TF.FilePolarity,Negative*
G04*
G01*
G75*
%ADD69R,0.0595X0.0595*%
%ADD70C,0.0595*%
%ADD71C,0.0867*%
%ADD72R,0.0836X0.0836*%
%ADD73C,0.0836*%
%ADD74C,0.0356*%
%ADD75O,0.1280X0.0680*%
%ADD76O,0.0454X0.0592*%
%ADD77C,0.1458*%
%ADD78C,0.0700*%
%ADD79R,0.0700X0.0700*%
%ADD80C,0.0198*%
%ADD81O,0.1680X0.1080*%
%ADD82O,0.1080X0.1680*%
G36*
X046309Y012044D02*
X04631Y012054D01*
X046311Y012064D01*
X046313Y012074D01*
X046315Y012083D01*
X046318Y012093D01*
X046321Y012103D01*
X046325Y012112D01*
X04633Y012121D01*
X046334Y01213D01*
X04634Y012139D01*
X046345Y012147D01*
X046352Y012155D01*
X046358Y012162D01*
X046365Y01217D01*
X046372Y012176D01*
X04638Y012183D01*
X046388Y012189D01*
X046396Y012195D01*
X046405Y0122D01*
X046413Y012205D01*
X046422Y012209D01*
X046432Y012213D01*
X046441Y012217D01*
X046451Y012219D01*
X046461Y012222D01*
X04647Y012223D01*
X046481Y012225D01*
X046491Y012226D01*
X0465D01*
X046501Y012226D01*
X046806Y012226D01*
X046816D01*
X046826Y012225D01*
X046836Y012223D01*
X046846Y012222D01*
X046856Y012219D01*
X046865Y012217D01*
X046874Y012213D01*
X046884Y012209D01*
X046893Y012205D01*
X046902Y0122D01*
X04691Y012195D01*
X046919Y012189D01*
X046926Y012183D01*
X046934Y012176D01*
X046941Y01217D01*
X046948Y012162D01*
X046955Y012155D01*
X046961Y012147D01*
X046967Y012139D01*
X046972Y01213D01*
X046977Y012121D01*
X046981Y012112D01*
X046985Y012103D01*
X046988Y012093D01*
X046991Y012083D01*
X046993Y012074D01*
X046995Y012064D01*
X046996Y012054D01*
X046997Y012044D01*
X046998Y012034D01*
X046997Y012024D01*
X046996Y012014D01*
X046995Y012004D01*
X046993Y011994D01*
X046991Y011984D01*
X046988Y011974D01*
X046985Y011965D01*
X046981Y011956D01*
X046977Y011947D01*
X046972Y011938D01*
X046967Y011929D01*
X046961Y011921D01*
X046955Y011913D01*
X046948Y011906D01*
X046941Y011898D01*
X046934Y011891D01*
X046926Y011885D01*
X046919Y011879D01*
X04691Y011873D01*
X046902Y011868D01*
X046893Y011863D01*
X046884Y011859D01*
X046874Y011855D01*
X046865Y011851D01*
X046856Y011848D01*
X046846Y011846D01*
X046836Y011844D01*
X046826Y011843D01*
X046816Y011842D01*
X046806D01*
X0465D01*
X046491D01*
X046481Y011843D01*
X04647Y011844D01*
X046461Y011846D01*
X046451Y011848D01*
X046441Y011851D01*
X046432Y011855D01*
X046422Y011859D01*
X046413Y011863D01*
X046405Y011868D01*
X046396Y011873D01*
X046388Y011879D01*
X04638Y011885D01*
X046372Y011891D01*
X046365Y011898D01*
X046358Y011906D01*
X046352Y011913D01*
X046345Y011921D01*
X04634Y011929D01*
X046334Y011938D01*
X04633Y011947D01*
X046325Y011956D01*
X046321Y011965D01*
X046318Y011974D01*
X046315Y011984D01*
X046313Y011994D01*
X046311Y012004D01*
X04631Y012014D01*
X046309Y012024D01*
X046309Y012034D01*
X046309Y012044D01*
D02*
G37*
G36*
Y0148D02*
X04631Y01481D01*
X046311Y01482D01*
X046313Y01483D01*
X046315Y014839D01*
X046318Y014849D01*
X046321Y014859D01*
X046325Y014868D01*
X04633Y014877D01*
X046334Y014886D01*
X04634Y014894D01*
X046345Y014903D01*
X046352Y014911D01*
X046358Y014918D01*
X046365Y014926D01*
X046372Y014932D01*
X04638Y014939D01*
X046388Y014945D01*
X046396Y014951D01*
X046405Y014956D01*
X046413Y014961D01*
X046422Y014965D01*
X046432Y014969D01*
X046441Y014972D01*
X046451Y014975D01*
X046461Y014978D01*
X04647Y014979D01*
X046481Y014981D01*
X046491Y014981D01*
X0465D01*
X046501Y014982D01*
X046806Y014981D01*
X046816D01*
X046826Y014981D01*
X046836Y014979D01*
X046846Y014978D01*
X046856Y014975D01*
X046865Y014972D01*
X046874Y014969D01*
X046884Y014965D01*
X046893Y014961D01*
X046902Y014956D01*
X04691Y014951D01*
X046919Y014945D01*
X046926Y014939D01*
X046934Y014932D01*
X046941Y014926D01*
X046948Y014918D01*
X046955Y014911D01*
X046961Y014903D01*
X046967Y014894D01*
X046972Y014886D01*
X046977Y014877D01*
X046981Y014868D01*
X046985Y014859D01*
X046988Y014849D01*
X046991Y014839D01*
X046993Y01483D01*
X046995Y01482D01*
X046996Y01481D01*
X046997Y0148D01*
X046998Y01479D01*
X046997Y01478D01*
X046996Y01477D01*
X046995Y01476D01*
X046993Y01475D01*
X046991Y01474D01*
X046988Y01473D01*
X046985Y014721D01*
X046981Y014712D01*
X046977Y014703D01*
X046972Y014694D01*
X046967Y014685D01*
X046961Y014677D01*
X046955Y014669D01*
X046948Y014661D01*
X046941Y014654D01*
X046934Y014647D01*
X046926Y014641D01*
X046919Y014635D01*
X04691Y014629D01*
X046902Y014624D01*
X046893Y014619D01*
X046884Y014615D01*
X046874Y014611D01*
X046865Y014607D01*
X046856Y014604D01*
X046846Y014602D01*
X046836Y0146D01*
X046826Y014599D01*
X046816Y014598D01*
X046806D01*
X0465D01*
X046491D01*
X046481Y014599D01*
X04647Y0146D01*
X046461Y014602D01*
X046451Y014604D01*
X046441Y014607D01*
X046432Y014611D01*
X046422Y014615D01*
X046413Y014619D01*
X046405Y014624D01*
X046396Y014629D01*
X046388Y014635D01*
X04638Y014641D01*
X046372Y014647D01*
X046365Y014654D01*
X046358Y014661D01*
X046352Y014669D01*
X046345Y014677D01*
X04634Y014685D01*
X046334Y014694D01*
X04633Y014703D01*
X046325Y014712D01*
X046321Y014721D01*
X046318Y01473D01*
X046315Y01474D01*
X046313Y01475D01*
X046311Y01476D01*
X04631Y01477D01*
X046309Y01478D01*
X046309Y01479D01*
X046309Y0148D01*
D02*
G37*
D69*
X02425Y015984D02*
D03*
X0246Y028834D02*
D03*
D70*
X02425Y014016D02*
D03*
X0246Y026866D02*
D03*
D71*
X03145Y0289D02*
D03*
X02745D02*
D03*
D72*
X0157Y028702D02*
D03*
D73*
X0167D02*
D03*
X0177D02*
D03*
D74*
X01865Y0158D02*
D03*
X0179D02*
D03*
X01725D02*
D03*
D75*
X01082Y02314D02*
D03*
Y02136D02*
D03*
X01338Y02314D02*
D03*
Y02136D02*
D03*
X01082Y02009D02*
D03*
Y01831D02*
D03*
X01338Y02009D02*
D03*
Y01831D02*
D03*
D76*
X04559Y014396D02*
D03*
Y012428D02*
D03*
D77*
X01095Y02885D02*
D03*
X046606D02*
D03*
Y010886D02*
D03*
X01085Y01085D02*
D03*
D78*
X044657Y027708D02*
D03*
D79*
Y028692D02*
D03*
D80*
X033345Y017263D02*
D03*
X034068D02*
D03*
X032984Y016902D02*
D03*
X033706D02*
D03*
X034429D02*
D03*
X033345Y016541D02*
D03*
X034068D02*
D03*
X032984Y01618D02*
D03*
X033706D02*
D03*
X034429D02*
D03*
X033345Y015819D02*
D03*
X034068D02*
D03*
D81*
X01365Y02435D02*
D03*
D82*
X01215Y02635D02*
D03*
X01465D02*
D03*
M02*
