G04*
G04 #@! TF.GenerationSoftware,Altium Limited,Altium Designer,21.3.2 (30)*
G04*
G04 Layer_Color=16711935*
%FSTAX24Y24*%
%MOIN*%
G70*
G04*
G04 #@! TF.SameCoordinates,31FF7248-0B4B-413F-84E3-F9EDAC069AC3*
G04*
G04*
G04 #@! TF.FilePolarity,Positive*
G04*
G01*
G75*
%ADD10C,0.0079*%
%ADD11C,0.0050*%
%ADD12C,0.0060*%
%ADD13C,0.0000*%
%ADD17C,0.0138*%
%ADD18C,0.0033*%
%ADD101C,0.0020*%
G36*
X0404Y016D02*
X0406D01*
Y0156D01*
X0404D01*
Y016D01*
D02*
G37*
G36*
X0409D02*
X0411D01*
Y0156D01*
X0409D01*
Y016D01*
D02*
G37*
G36*
X0414D02*
X0416D01*
Y0156D01*
X0414D01*
Y016D01*
D02*
G37*
G36*
X0419D02*
X0421D01*
Y0156D01*
X0419D01*
Y016D01*
D02*
G37*
G36*
X0404Y0182D02*
X0406D01*
Y017795D01*
X0404D01*
Y0182D01*
D02*
G37*
G36*
X0409D02*
X0411D01*
Y017795D01*
X0409D01*
Y0182D01*
D02*
G37*
G36*
X0414D02*
X0416D01*
Y017795D01*
X0414D01*
Y0182D01*
D02*
G37*
G36*
X0419D02*
X0421D01*
Y017795D01*
X0419D01*
Y0182D01*
D02*
G37*
G36*
X0424Y016D02*
X0426D01*
Y0156D01*
X0424D01*
Y016D01*
D02*
G37*
G36*
X0429D02*
X0431D01*
Y0156D01*
X0429D01*
Y016D01*
D02*
G37*
G36*
X0434D02*
X0436D01*
Y0156D01*
X0434D01*
Y016D01*
D02*
G37*
G36*
X0439D02*
X0441D01*
Y015575D01*
X0439D01*
Y016D01*
D02*
G37*
G36*
X0424Y0182D02*
X0426D01*
Y017795D01*
X0424D01*
Y0182D01*
D02*
G37*
G36*
X0429D02*
X0431D01*
Y017795D01*
X0429D01*
Y0182D01*
D02*
G37*
G36*
X0434D02*
X0436D01*
Y017795D01*
X0434D01*
Y0182D01*
D02*
G37*
G36*
X0439D02*
X0441D01*
Y017795D01*
X0439D01*
Y0182D01*
D02*
G37*
D10*
X024289Y017244D02*
G03*
X024289Y017244I-000039J0D01*
G01*
X032868Y025837D02*
G03*
X032868Y025837I-000039J0D01*
G01*
X024639Y030094D02*
G03*
X024639Y030094I-000039J0D01*
G01*
X014535Y028702D02*
G03*
X014535Y028702I-000039J0D01*
G01*
X016699Y024658D02*
G03*
X016699Y024658I-000039J0D01*
G01*
X019939Y0219D02*
G03*
X019939Y0219I-000039J0D01*
G01*
X019157Y019721D02*
G03*
X019157Y019721I-000039J0D01*
G01*
X045118Y0129D02*
G03*
X045118Y0129I-000039J0D01*
G01*
X044696Y029948D02*
G03*
X044696Y029948I-000039J0D01*
G01*
X018621Y02565D02*
G03*
X018621Y02565I-000039J0D01*
G01*
X030202Y01949D02*
G03*
X030202Y01949I-000039J0D01*
G01*
D11*
X026219Y015D02*
G03*
X026219Y015I-001969J0D01*
G01*
X026569Y02785D02*
G03*
X026569Y02785I-001969J0D01*
G01*
D12*
X01315Y0214D02*
G03*
X01315Y0214I-0002J0D01*
G01*
X01145D02*
G03*
X01145Y0214I-0002J0D01*
G01*
Y02305D02*
G03*
X01145Y02305I-0002J0D01*
G01*
X01315Y0231D02*
G03*
X01315Y0231I-0002J0D01*
G01*
Y01835D02*
G03*
X01315Y01835I-0002J0D01*
G01*
X01145D02*
G03*
X01145Y01835I-0002J0D01*
G01*
Y02D02*
G03*
X01145Y02I-0002J0D01*
G01*
X01315Y02005D02*
G03*
X01315Y02005I-0002J0D01*
G01*
D13*
X03952Y02357D02*
G03*
X03928Y02357I-00012J0D01*
G01*
X03933Y02283D02*
G03*
X03957Y02283I00012J0D01*
G01*
D17*
X028243Y014835D02*
Y015465D01*
X028557D01*
Y014835D02*
Y015465D01*
X028243Y014835D02*
X028557D01*
X023664Y017625D02*
Y018275D01*
X024845D01*
Y017625D02*
Y018275D01*
X023664Y017625D02*
X024845D01*
X045359Y015075D02*
Y015725D01*
X046541D01*
Y015075D02*
Y015725D01*
X045359Y015075D02*
X046541D01*
X043265Y021183D02*
X044446D01*
X043265Y020533D02*
Y021183D01*
Y020533D02*
X044446D01*
Y021183D01*
X04019Y0237D02*
Y0239D01*
Y0237D02*
X04062D01*
Y0239D01*
X04019D02*
X04062D01*
X04019Y0242D02*
Y0244D01*
Y0242D02*
X04062D01*
Y0244D01*
X04019D02*
X04062D01*
X04019Y0247D02*
Y0249D01*
Y0247D02*
X04062D01*
Y0249D01*
X04019D02*
X04062D01*
X04019Y0252D02*
Y0254D01*
Y0252D02*
X04062D01*
Y0254D01*
X04019D02*
X04062D01*
X03861Y0252D02*
Y0254D01*
X03818D02*
X03861D01*
X03818Y0252D02*
Y0254D01*
Y0252D02*
X03861D01*
Y0247D02*
Y0249D01*
X03818D02*
X03861D01*
X03818Y0247D02*
Y0249D01*
Y0247D02*
X03861D01*
Y0242D02*
Y0244D01*
X03818D02*
X03861D01*
X03818Y0242D02*
Y0244D01*
Y0242D02*
X03861D01*
Y0237D02*
Y0239D01*
X03818D02*
X03861D01*
X03818Y0237D02*
Y0239D01*
Y0237D02*
X03861D01*
Y02553D02*
X04019D01*
X03861Y02357D02*
Y02553D01*
Y02357D02*
X03928D01*
X03952D01*
X04019D01*
Y02553D01*
X03866Y0225D02*
Y0227D01*
X03823D02*
X03866D01*
X03823Y0225D02*
Y0227D01*
Y0225D02*
X03866D01*
Y022D02*
Y0222D01*
X03823D02*
X03866D01*
X03823Y022D02*
Y0222D01*
Y022D02*
X03866D01*
Y0215D02*
Y0217D01*
X03823D02*
X03866D01*
X03823Y0215D02*
Y0217D01*
Y0215D02*
X03866D01*
Y021D02*
Y0212D01*
X03823D02*
X03866D01*
X03823Y021D02*
Y0212D01*
Y021D02*
X03866D01*
X04024D02*
Y0212D01*
Y021D02*
X04067D01*
Y0212D01*
X04024D02*
X04067D01*
X04024Y0215D02*
Y0217D01*
Y0215D02*
X04067D01*
Y0217D01*
X04024D02*
X04067D01*
X04024Y022D02*
Y0222D01*
Y022D02*
X04067D01*
Y0222D01*
X04024D02*
X04067D01*
X04024Y0225D02*
Y0227D01*
Y0225D02*
X04067D01*
Y0227D01*
X04024D02*
X04067D01*
X03866Y02087D02*
X04024D01*
Y02283D01*
X03957D02*
X04024D01*
X03933D02*
X03957D01*
X03866D02*
X03933D01*
X03866Y02087D02*
Y02283D01*
X033602Y026084D02*
X035177D01*
X033602Y024115D02*
X035177D01*
X033602D02*
Y026084D01*
X035177Y024115D02*
Y026084D01*
X027243Y0291D02*
X031657D01*
Y0287D02*
Y0291D01*
X027243Y0287D02*
X031657D01*
X027243D02*
Y0291D01*
X014712Y029836D02*
X018688D01*
Y028064D02*
Y029836D01*
X014712Y028064D02*
X018688D01*
X014712D02*
Y029836D01*
X016994Y025197D02*
Y026323D01*
X016325D02*
X016994D01*
X016325Y025197D02*
Y026323D01*
Y025197D02*
X016994D01*
X017382Y021685D02*
Y023615D01*
X018918Y021685D02*
Y023615D01*
X017382D02*
X018918D01*
X017382Y021685D02*
X018918D01*
X019727Y019431D02*
X021107D01*
Y016869D02*
Y019431D01*
X019727Y016869D02*
X021107D01*
X019727D02*
Y019431D01*
X017109Y016925D02*
Y017575D01*
X018291D01*
Y016925D02*
Y017575D01*
X017109Y016925D02*
X018291D01*
X012585Y016393D02*
Y016707D01*
Y016393D02*
X013215D01*
Y016707D01*
X012585D02*
X013215D01*
X017254Y011759D02*
Y012137D01*
X017947Y011759D02*
Y012137D01*
X017254D02*
X017947D01*
X017254Y011759D02*
X017947D01*
X01295Y0224D02*
X01305Y02205D01*
Y02245D02*
Y02275D01*
Y02175D02*
Y02205D01*
X0116Y02135D02*
X0126D01*
X0116Y0231D02*
X0126D01*
X0111Y02105D02*
X01125D01*
X01295D02*
X0131D01*
X01295Y02345D02*
X0131D01*
X0111D02*
X01125D01*
X0116Y02175D02*
X0126D01*
X0116D02*
Y02275D01*
X0126D01*
Y02175D02*
Y02275D01*
X0133Y02265D02*
Y02325D01*
X0131Y02345D02*
X0133Y02325D01*
Y02125D02*
Y02185D01*
X0131Y02105D02*
X0133Y02125D01*
X0109Y02265D02*
Y02325D01*
X0111Y02345D01*
X0109Y02125D02*
X0111Y02105D01*
X0109Y02125D02*
Y02185D01*
X0475Y014869D02*
Y014996D01*
X047708D01*
X0475Y011827D02*
Y011955D01*
Y011827D02*
X047708D01*
X045531Y011955D02*
X047224D01*
X0475D01*
X047708Y011827D02*
Y014996D01*
X045531Y014869D02*
X0475D01*
X045531Y011955D02*
Y014869D01*
X01295Y01935D02*
X01305Y019D01*
Y0194D02*
Y0197D01*
Y0187D02*
Y019D01*
X0116Y0183D02*
X0126D01*
X0116Y02005D02*
X0126D01*
X0111Y018D02*
X01125D01*
X01295D02*
X0131D01*
X01295Y0204D02*
X0131D01*
X0111D02*
X01125D01*
X0116Y0187D02*
X0126D01*
X0116D02*
Y0197D01*
X0126D01*
Y0187D02*
Y0197D01*
X0133Y0196D02*
Y0202D01*
X0131Y0204D02*
X0133Y0202D01*
Y0182D02*
Y0188D01*
X0131Y018D02*
X0133Y0182D01*
X0109Y0196D02*
Y0202D01*
X0111Y0204D01*
X0109Y0182D02*
X0111Y018D01*
X0109Y0182D02*
Y0188D01*
X043318Y029657D02*
X045582D01*
Y026743D02*
Y029657D01*
X043318Y026743D02*
X045582D01*
X043318D02*
Y029657D01*
X019197Y026811D02*
X021903D01*
Y024489D02*
Y026811D01*
X019197Y024489D02*
X021903D01*
X019197D02*
Y026811D01*
X02331Y02449D02*
X023861D01*
X02331Y023289D02*
Y02449D01*
Y023289D02*
X023861D01*
Y02449D01*
X02331Y02309D02*
X023861D01*
X02331Y021889D02*
Y02309D01*
Y021889D02*
X023861D01*
Y02309D01*
X030557Y019962D02*
X037643D01*
Y012403D02*
Y019962D01*
X030557Y012403D02*
X037643D01*
X030557D02*
Y019962D01*
X037643D01*
X0158Y012431D02*
Y013769D01*
X0165Y012431D02*
Y013769D01*
X0158Y012431D02*
X0165D01*
X0158Y013769D02*
X0165D01*
D18*
X02389Y018107D02*
Y017793D01*
X023905Y018107D02*
Y017793D01*
X023995Y018017D02*
Y017898D01*
X023845Y018107D02*
X024085D01*
Y018017D01*
X02407Y018107D01*
X023905Y017958D02*
X023995D01*
X023845Y017793D02*
X02395D01*
X024173Y018107D02*
Y017793D01*
X024188Y018107D02*
Y017793D01*
X024128Y018107D02*
X024308D01*
X024353Y018092D01*
X024368Y018077D01*
X024383Y018047D01*
Y018017D01*
X024368Y017987D01*
X024353Y017972D01*
X024308Y017958D01*
Y018107D02*
X024338Y018092D01*
X024353Y018077D01*
X024368Y018047D01*
Y018017D01*
X024353Y017987D01*
X024338Y017972D01*
X024308Y017958D01*
X024188D02*
X024308D01*
X024353Y017943D01*
X024368Y017928D01*
X024383Y017898D01*
Y017853D01*
X024368Y017823D01*
X024353Y017808D01*
X024308Y017793D01*
X024128D01*
X024308Y017958D02*
X024338Y017943D01*
X024353Y017928D01*
X024368Y017898D01*
Y017853D01*
X024353Y017823D01*
X024338Y017808D01*
X024308Y017793D01*
X024575Y018077D02*
Y017793D01*
X024665Y017883D02*
X024425D01*
X02459Y018107D01*
Y017793D01*
X02453D02*
X024635D01*
X045637Y015557D02*
Y015243D01*
X045652Y015557D02*
Y015243D01*
X045742Y015467D02*
Y015348D01*
X045592Y015557D02*
X045832D01*
Y015467D01*
X045817Y015557D01*
X045652Y015408D02*
X045742D01*
X045592Y015243D02*
X045697D01*
X045921Y015557D02*
Y015243D01*
X045936Y015557D02*
Y015243D01*
X045876Y015557D02*
X046056D01*
X046101Y015542D01*
X046116Y015527D01*
X046131Y015497D01*
Y015467D01*
X046116Y015437D01*
X046101Y015422D01*
X046056Y015408D01*
Y015557D02*
X046086Y015542D01*
X046101Y015527D01*
X046116Y015497D01*
Y015467D01*
X046101Y015437D01*
X046086Y015422D01*
X046056Y015408D01*
X045936D02*
X046056D01*
X046101Y015393D01*
X046116Y015378D01*
X046131Y015348D01*
Y015303D01*
X046116Y015273D01*
X046101Y015258D01*
X046056Y015243D01*
X045876D01*
X046056Y015408D02*
X046086Y015393D01*
X046101Y015378D01*
X046116Y015348D01*
Y015303D01*
X046101Y015273D01*
X046086Y015258D01*
X046056Y015243D01*
X046173Y015497D02*
X046203Y015512D01*
X046248Y015557D01*
Y015243D01*
X046233Y015542D02*
Y015243D01*
X046173D02*
X046308D01*
X044206Y020701D02*
Y021016D01*
X044191Y020701D02*
Y021016D01*
X044101Y020791D02*
Y020911D01*
X044251Y020701D02*
X044011D01*
Y020791D01*
X044026Y020701D01*
X044191Y020851D02*
X044101D01*
X044251Y021016D02*
X044146D01*
X043922Y020701D02*
Y021016D01*
X043907Y020701D02*
Y021016D01*
X043967Y020701D02*
X043787D01*
X043742Y020716D01*
X043727Y020731D01*
X043712Y020761D01*
Y020791D01*
X043727Y020821D01*
X043742Y020836D01*
X043787Y020851D01*
Y020701D02*
X043757Y020716D01*
X043742Y020731D01*
X043727Y020761D01*
Y020791D01*
X043742Y020821D01*
X043757Y020836D01*
X043787Y020851D01*
X043907D02*
X043787D01*
X043742Y020866D01*
X043727Y020881D01*
X043712Y020911D01*
Y020956D01*
X043727Y020986D01*
X043742Y021001D01*
X043787Y021016D01*
X043967D01*
X043787Y020851D02*
X043757Y020866D01*
X043742Y020881D01*
X043727Y020911D01*
Y020956D01*
X043742Y020986D01*
X043757Y021001D01*
X043787Y021016D01*
X04364Y020701D02*
X04367Y020851D01*
X04364Y020821D01*
X043595Y020806D01*
X04355D01*
X043505Y020821D01*
X043475Y020851D01*
X04346Y020896D01*
Y020926D01*
X043475Y020971D01*
X043505Y021001D01*
X04355Y021016D01*
X043595D01*
X04364Y021001D01*
X043655Y020986D01*
X04367Y020956D01*
Y020941D01*
X043655Y020926D01*
X04364Y020941D01*
X043655Y020956D01*
X04355Y020806D02*
X04352Y020821D01*
X04349Y020851D01*
X043475Y020896D01*
Y020926D01*
X04349Y020971D01*
X04352Y021001D01*
X04355Y021016D01*
X04364Y020701D02*
X04349D01*
X04364Y020716D02*
X043565D01*
X04349Y020701D01*
X01735Y017407D02*
Y017093D01*
X017365Y017407D02*
Y017093D01*
X017455Y017317D02*
Y017198D01*
X017305Y017407D02*
X017545D01*
Y017317D01*
X01753Y017407D01*
X017365Y017257D02*
X017455D01*
X017305Y017093D02*
X01741D01*
X017633Y017407D02*
Y017093D01*
X017648Y017407D02*
Y017093D01*
X017588Y017407D02*
X017768D01*
X017813Y017392D01*
X017828Y017377D01*
X017843Y017347D01*
Y017317D01*
X017828Y017287D01*
X017813Y017272D01*
X017768Y017257D01*
Y017407D02*
X017798Y017392D01*
X017813Y017377D01*
X017828Y017347D01*
Y017317D01*
X017813Y017287D01*
X017798Y017272D01*
X017768Y017257D01*
X017648D02*
X017768D01*
X017813Y017242D01*
X017828Y017228D01*
X017843Y017198D01*
Y017153D01*
X017828Y017123D01*
X017813Y017108D01*
X017768Y017093D01*
X017588D01*
X017768Y017257D02*
X017798Y017242D01*
X017813Y017228D01*
X017828Y017198D01*
Y017153D01*
X017813Y017123D01*
X017798Y017108D01*
X017768Y017093D01*
X0179Y017347D02*
X017915Y017332D01*
X0179Y017317D01*
X017885Y017332D01*
Y017347D01*
X0179Y017377D01*
X017915Y017392D01*
X01796Y017407D01*
X01802D01*
X018065Y017392D01*
X01808Y017362D01*
Y017317D01*
X018065Y017287D01*
X01802Y017272D01*
X017975D01*
X01802Y017407D02*
X01805Y017392D01*
X018065Y017362D01*
Y017317D01*
X01805Y017287D01*
X01802Y017272D01*
X01805Y017257D01*
X01808Y017228D01*
X018095Y017198D01*
Y017153D01*
X01808Y017123D01*
X018065Y017108D01*
X01802Y017093D01*
X01796D01*
X017915Y017108D01*
X0179Y017123D01*
X017885Y017153D01*
Y017168D01*
X0179Y017183D01*
X017915Y017168D01*
X0179Y017153D01*
X018065Y017242D02*
X01808Y017198D01*
Y017153D01*
X018065Y017123D01*
X01805Y017108D01*
X01802Y017093D01*
X010549Y023066D02*
Y023351D01*
X010459Y023261D02*
X010699D01*
X010534Y023036D01*
Y023351D01*
X010594D02*
X010489D01*
X013887Y023096D02*
X013872Y023111D01*
X013887Y023126D01*
X013902Y023111D01*
Y023096D01*
X013887Y023066D01*
X013872Y023051D01*
X013827Y023036D01*
X013767D01*
X013722Y023051D01*
X013707Y023081D01*
Y023126D01*
X013722Y023156D01*
X013767Y023171D01*
X013812D01*
X013767Y023036D02*
X013737Y023051D01*
X013722Y023081D01*
Y023126D01*
X013737Y023156D01*
X013767Y023171D01*
X013737Y023186D01*
X013707Y023216D01*
X013692Y023246D01*
Y023291D01*
X013707Y023321D01*
X013722Y023336D01*
X013767Y023351D01*
X013827D01*
X013872Y023336D01*
X013887Y023321D01*
X013902Y023291D01*
Y023276D01*
X013887Y023261D01*
X013872Y023276D01*
X013887Y023291D01*
X013722Y023201D02*
X013707Y023246D01*
Y023291D01*
X013722Y023321D01*
X013737Y023336D01*
X013767Y023351D01*
X010683Y021394D02*
X010668Y021409D01*
X010683Y021424D01*
X010698Y021409D01*
Y021394D01*
X010683Y021364D01*
X010668Y021349D01*
X010623Y021334D01*
X010563D01*
X010518Y021349D01*
X010503Y021364D01*
X010488Y021394D01*
Y021424D01*
X010503Y021454D01*
X010548Y021484D01*
X010623Y021514D01*
X010653Y021529D01*
X010683Y021559D01*
X010698Y021604D01*
Y021649D01*
X010563Y021334D02*
X010533Y021349D01*
X010518Y021364D01*
X010503Y021394D01*
Y021424D01*
X010518Y021454D01*
X010563Y021484D01*
X010623Y021514D01*
X010698Y021619D02*
X010683Y021604D01*
X010653D01*
X010578Y021634D01*
X010533D01*
X010503Y021619D01*
X010488Y021604D01*
Y021574D01*
X010653Y021604D02*
X010578Y021649D01*
X010518D01*
X010503Y021634D01*
X010488Y021604D01*
X013801Y021345D02*
X013771Y02133D01*
X013726Y021285D01*
Y0216D01*
X013741Y0213D02*
Y0216D01*
X013801D02*
X013666D01*
X010549Y020016D02*
Y020301D01*
X010459Y020211D02*
X010699D01*
X010534Y019986D01*
Y020301D01*
X010594D02*
X010489D01*
X013887Y020046D02*
X013872Y020061D01*
X013887Y020076D01*
X013902Y020061D01*
Y020046D01*
X013887Y020016D01*
X013872Y020001D01*
X013827Y019986D01*
X013767D01*
X013722Y020001D01*
X013707Y020031D01*
Y020076D01*
X013722Y020106D01*
X013767Y020121D01*
X013812D01*
X013767Y019986D02*
X013737Y020001D01*
X013722Y020031D01*
Y020076D01*
X013737Y020106D01*
X013767Y020121D01*
X013737Y020136D01*
X013707Y020166D01*
X013692Y020196D01*
Y020241D01*
X013707Y020271D01*
X013722Y020286D01*
X013767Y020301D01*
X013827D01*
X013872Y020286D01*
X013887Y020271D01*
X013902Y020241D01*
Y020226D01*
X013887Y020211D01*
X013872Y020226D01*
X013887Y020241D01*
X013722Y020151D02*
X013707Y020196D01*
Y020241D01*
X013722Y020271D01*
X013737Y020286D01*
X013767Y020301D01*
X010683Y018344D02*
X010668Y018359D01*
X010683Y018374D01*
X010698Y018359D01*
Y018344D01*
X010683Y018314D01*
X010668Y018299D01*
X010623Y018284D01*
X010563D01*
X010518Y018299D01*
X010503Y018314D01*
X010488Y018344D01*
Y018374D01*
X010503Y018404D01*
X010548Y018434D01*
X010623Y018464D01*
X010653Y018479D01*
X010683Y018509D01*
X010698Y018554D01*
Y018599D01*
X010563Y018284D02*
X010533Y018299D01*
X010518Y018314D01*
X010503Y018344D01*
Y018374D01*
X010518Y018404D01*
X010563Y018434D01*
X010623Y018464D01*
X010698Y018569D02*
X010683Y018554D01*
X010653D01*
X010578Y018584D01*
X010533D01*
X010503Y018569D01*
X010488Y018554D01*
Y018524D01*
X010653Y018554D02*
X010578Y018599D01*
X010518D01*
X010503Y018584D01*
X010488Y018554D01*
X013801Y018295D02*
X013771Y01828D01*
X013726Y018235D01*
Y01855D01*
X013741Y01825D02*
Y01855D01*
X013801D02*
X013666D01*
D101*
X01235Y02225D02*
G03*
X01235Y02225I-00025J0D01*
G01*
Y0192D02*
G03*
X01235Y0192I-00025J0D01*
G01*
M02*
