G04*
G04 #@! TF.GenerationSoftware,Altium Limited,Altium Designer,21.3.2 (30)*
G04*
G04 Layer_Physical_Order=2*
G04 Layer_Color=16711680*
%FSTAX24Y24*%
%MOIN*%
G70*
G04*
G04 #@! TF.SameCoordinates,31FF7248-0B4B-413F-84E3-F9EDAC069AC3*
G04*
G04*
G04 #@! TF.FilePolarity,Positive*
G04*
G01*
G75*
%ADD17C,0.0138*%
%ADD83C,0.0150*%
%ADD84C,0.0394*%
%ADD85R,0.0515X0.0515*%
%ADD86C,0.0515*%
%ADD87C,0.0787*%
%ADD88R,0.0756X0.0756*%
%ADD89C,0.0756*%
%ADD90C,0.0276*%
%ADD91O,0.1200X0.0600*%
%ADD92O,0.0374X0.0512*%
%ADD93O,0.0610X0.0305*%
%ADD94C,0.1378*%
%ADD95C,0.0620*%
%ADD96R,0.0620X0.0620*%
%ADD97C,0.0118*%
%ADD98O,0.1600X0.1000*%
%ADD99O,0.1000X0.1600*%
%ADD100C,0.0500*%
G36*
X0172Y02965D02*
Y02835D01*
X017Y02815D01*
X01635D01*
Y0282D01*
X01625Y0283D01*
Y02915D01*
X0161Y0293D01*
X01525D01*
X01515Y0292D01*
Y02725D01*
X0155Y0269D01*
Y0257D01*
X0152Y0254D01*
X01355Y0254D01*
X0132Y02575D01*
Y0272D01*
X01295Y02745D01*
X01175D01*
X0113Y027D01*
Y02525D01*
X01245Y0241D01*
Y018886D01*
X012398Y018835D01*
X012362Y018747D01*
Y018653D01*
X012398Y018565D01*
X012424Y01854D01*
X012424Y01854D01*
X012424Y018538D01*
X012425Y018537D01*
X012426Y018536D01*
X012427Y018532D01*
X012427Y018527D01*
X012428Y018522D01*
Y017898D01*
X012428Y017895D01*
X012427Y017885D01*
X012426Y017883D01*
X012426Y017882D01*
X012426Y017881D01*
X012426Y017881D01*
X012412Y017847D01*
Y017753D01*
X012448Y017665D01*
X01245Y017664D01*
Y016004D01*
X013854Y0146D01*
X01535D01*
X0154Y01455D01*
Y0128D01*
X01535Y01275D01*
X013D01*
X01145Y0143D01*
Y018083D01*
X011469Y018108D01*
X01151Y018206D01*
X011523Y01831D01*
X01151Y018414D01*
X011469Y018512D01*
X01145Y018537D01*
Y019863D01*
X011469Y019888D01*
X01151Y019986D01*
X011523Y02009D01*
X01151Y020194D01*
X011469Y020292D01*
X01145Y020317D01*
Y021133D01*
X011469Y021158D01*
X01151Y021256D01*
X011523Y02136D01*
X01151Y021464D01*
X011469Y021562D01*
X01145Y021587D01*
Y022913D01*
X011469Y022938D01*
X01151Y023036D01*
X011523Y02314D01*
X01151Y023244D01*
X011469Y023342D01*
X01145Y023367D01*
Y02365D01*
X0103Y0248D01*
Y02685D01*
X01025Y0269D01*
X0117Y02835D01*
X0132D01*
Y02945D01*
X01365Y0299D01*
X01695D01*
X0172Y02965D01*
D02*
G37*
G36*
X04487Y027481D02*
X044866Y027472D01*
X044863Y02746D01*
X044861Y027444D01*
X044857Y027403D01*
X044854Y027349D01*
X044854Y027282D01*
X04446D01*
X04446Y027318D01*
X04445Y02746D01*
X044447Y027472D01*
X044443Y027481D01*
X04444Y027486D01*
X044874D01*
X04487Y027481D01*
D02*
G37*
G36*
X041841Y026946D02*
X041837Y026939D01*
X041832Y026931D01*
X041829Y026922D01*
X041826Y026912D01*
X041823Y026901D01*
X041821Y026889D01*
X04182Y026877D01*
X041819Y026848D01*
X041681D01*
X041681Y026863D01*
X041679Y026889D01*
X041677Y026901D01*
X041674Y026912D01*
X041671Y026922D01*
X041668Y026931D01*
X041663Y026939D01*
X041659Y026946D01*
X041654Y026952D01*
X041846D01*
X041841Y026946D01*
D02*
G37*
G36*
X046Y02975D02*
Y029359D01*
X045993Y029353D01*
X045907Y029224D01*
X045848Y02908D01*
X045817Y028928D01*
Y028772D01*
X045848Y02862D01*
X045907Y028476D01*
X045993Y028347D01*
X046Y028341D01*
Y02675D01*
X04585Y0266D01*
X044956D01*
Y027332D01*
X044956Y027347D01*
X044959Y027396D01*
X044962Y027431D01*
X044963Y027439D01*
X044964Y027441D01*
X044964Y027442D01*
X044968Y027447D01*
X04497Y027457D01*
X044973Y027465D01*
X044974Y027476D01*
X044976Y027486D01*
X044974Y027496D01*
X044974Y027505D01*
X04497Y027515D01*
X044968Y027525D01*
X044963Y027533D01*
X044959Y027542D01*
X044956Y027545D01*
Y027708D01*
X044946Y027785D01*
X044916Y027858D01*
X044868Y02792D01*
X044806Y027967D01*
X044734Y027997D01*
X044657Y028007D01*
X044579Y027997D01*
X044507Y027967D01*
X044445Y02792D01*
X044397Y027858D01*
X044367Y027785D01*
X044357Y027708D01*
Y027545D01*
X044354Y027542D01*
X044351Y027533D01*
X044345Y027525D01*
X044343Y027515D01*
X044339Y027505D01*
X04434Y027496D01*
X044338Y027486D01*
X04434Y027476D01*
X04434Y027465D01*
X044344Y027457D01*
X044345Y027447D01*
X044349Y027442D01*
X044357Y02732D01*
Y0266D01*
X041922D01*
Y026873D01*
X041922Y026876D01*
X041923Y026882D01*
X041924Y026886D01*
X041925Y026887D01*
X041926Y026888D01*
X041926Y02689D01*
X041926Y02689D01*
X041952Y026915D01*
X041988Y027003D01*
Y027097D01*
X041952Y027185D01*
X041885Y027252D01*
X041797Y027288D01*
X041703D01*
X041615Y027252D01*
X041548Y027185D01*
X041512Y027097D01*
Y027003D01*
X041548Y026915D01*
X041574Y02689D01*
X041574Y02689D01*
X041574Y026888D01*
X041575Y026887D01*
X041576Y026886D01*
X041577Y026882D01*
X041577Y026877D01*
X041578Y026872D01*
Y0266D01*
X034188D01*
Y026654D01*
X034152Y026741D01*
X034085Y026808D01*
X033997Y026844D01*
X033903D01*
X033815Y026808D01*
X033748Y026741D01*
X033712Y026654D01*
Y0266D01*
X02825D01*
X027Y02535D01*
X02375D01*
X0227Y0243D01*
X0165D01*
X0159Y0237D01*
X014081D01*
X01405Y02375D01*
X014052Y023755D01*
X01406Y023761D01*
X014068Y023764D01*
X014082Y023766D01*
X014087Y02377D01*
X014092Y023771D01*
X014103Y023781D01*
X014116Y023789D01*
X014119Y023793D01*
X014123Y023797D01*
X01413Y02381D01*
X014138Y023822D01*
X014139Y023827D01*
X014141Y023832D01*
X014143Y023846D01*
X014145Y023861D01*
X014144Y023866D01*
X014145Y023872D01*
X01414Y023886D01*
X014138Y0239D01*
X014135Y023904D01*
X014133Y02391D01*
X014124Y023921D01*
X014116Y023933D01*
X014111Y023936D01*
X014107Y02394D01*
X014094Y023947D01*
X014082Y023955D01*
X014077Y023956D01*
X014072Y023959D01*
X014058Y02396D01*
X014043Y023963D01*
X013949D01*
Y02435D01*
X013939Y024427D01*
X013909Y0245D01*
X013862Y024562D01*
X0138Y024609D01*
X013727Y024639D01*
X01365Y024649D01*
X013573Y024639D01*
X0135Y024609D01*
X013438Y024562D01*
X013391Y0245D01*
X013361Y024427D01*
X013351Y02435D01*
Y023963D01*
X013257D01*
X013242Y02396D01*
X013228Y023959D01*
X013223Y023956D01*
X013218Y023955D01*
X013206Y023947D01*
X013193Y02394D01*
X013189Y023936D01*
X013184Y023933D01*
X013176Y023921D01*
X013167Y02391D01*
X013165Y023904D01*
X013162Y0239D01*
X01316Y023886D01*
X013155Y023872D01*
X013156Y023866D01*
X013155Y023861D01*
X013157Y023846D01*
X013159Y023832D01*
X013161Y023827D01*
X013162Y023822D01*
X01317Y02381D01*
X013177Y023797D01*
X013181Y023793D01*
X013184Y023789D01*
X013197Y023781D01*
X013208Y023771D01*
X013213Y02377D01*
X013218Y023766D01*
X013232Y023764D01*
X01324Y023761D01*
X013248Y023755D01*
X01325Y02375D01*
X013219Y0237D01*
X01305D01*
X01275Y024D01*
Y02425D01*
X011507Y025493D01*
Y027007D01*
X01175Y02725D01*
X01265D01*
X0129Y027D01*
Y0256D01*
X0133Y0252D01*
X01565D01*
X0176Y02715D01*
Y028196D01*
X017637Y028224D01*
X017763D01*
X017884Y028257D01*
X017993Y02832D01*
X018082Y028409D01*
X018145Y028517D01*
X018178Y028639D01*
Y028765D01*
X018145Y028886D01*
X018082Y028995D01*
X017993Y029084D01*
X017884Y029147D01*
X017763Y02918D01*
X017637D01*
X0176Y029208D01*
Y0298D01*
X017828Y030028D01*
X045722D01*
X046Y02975D01*
D02*
G37*
G36*
X034041Y026502D02*
X034037Y026495D01*
X034032Y026488D01*
X034029Y026479D01*
X034026Y026469D01*
X034023Y026458D01*
X034021Y026446D01*
X03402Y026433D01*
X034019Y026405D01*
X033881D01*
X033881Y026419D01*
X033879Y026446D01*
X033877Y026458D01*
X033874Y026469D01*
X033871Y026479D01*
X033868Y026488D01*
X033863Y026495D01*
X033859Y026502D01*
X033854Y026508D01*
X034046D01*
X034041Y026502D01*
D02*
G37*
G36*
X034706Y02639D02*
X034713Y026385D01*
X03472Y026381D01*
X034729Y026377D01*
X034739Y026374D01*
X03475Y026371D01*
X034762Y026369D01*
X034775Y026368D01*
X034803Y026367D01*
X034801Y026229D01*
X034786Y026229D01*
X034759Y026227D01*
X034747Y026225D01*
X034736Y026222D01*
X034727Y026219D01*
X034718Y026216D01*
X03471Y026212D01*
X034703Y026207D01*
X034697Y026202D01*
X0347Y026395D01*
X034706Y02639D01*
D02*
G37*
G36*
X036002Y026389D02*
X036009Y026384D01*
X036017Y02638D01*
X036026Y026377D01*
X036036Y026374D01*
X036047Y026371D01*
X036058Y026369D01*
X036071Y026368D01*
X0361Y026367D01*
Y026229D01*
X036085Y026229D01*
X036058Y026226D01*
X036047Y026225D01*
X036036Y026222D01*
X036026Y026219D01*
X036017Y026215D01*
X036009Y026211D01*
X036002Y026207D01*
X035996Y026201D01*
Y026394D01*
X036002Y026389D01*
D02*
G37*
G36*
X035799Y026201D02*
X035794Y026207D01*
X035787Y026211D01*
X035779Y026215D01*
X03577Y026219D01*
X03576Y026222D01*
X035749Y026225D01*
X035737Y026226D01*
X035724Y026228D01*
X035696Y026229D01*
Y026367D01*
X035711Y026367D01*
X035737Y026369D01*
X035749Y026371D01*
X03576Y026374D01*
X03577Y026377D01*
X035779Y02638D01*
X035787Y026384D01*
X035794Y026389D01*
X035799Y026394D01*
Y026201D01*
D02*
G37*
G36*
X041819Y026287D02*
X041821Y026261D01*
X041823Y026249D01*
X041826Y026238D01*
X041829Y026228D01*
X041832Y026219D01*
X041837Y026211D01*
X041841Y026204D01*
X041846Y026198D01*
X041654D01*
X041659Y026204D01*
X041663Y026211D01*
X041668Y026219D01*
X041671Y026228D01*
X041674Y026238D01*
X041677Y026249D01*
X041679Y026261D01*
X04168Y026273D01*
X041681Y026302D01*
X041819D01*
X041819Y026287D01*
D02*
G37*
G36*
X047478Y026022D02*
X047478Y010172D01*
X047048D01*
X047033Y010222D01*
X047109Y010273D01*
X047219Y010383D01*
X047306Y010512D01*
X047365Y010656D01*
X047395Y010808D01*
Y010964D01*
X047365Y011116D01*
X047306Y01126D01*
X047219Y011389D01*
X047109Y011499D01*
X04698Y011585D01*
X046836Y011644D01*
X046684Y011675D01*
X046529D01*
X046376Y011644D01*
X046233Y011585D01*
X046103Y011499D01*
X045993Y011389D01*
X045907Y01126D01*
X045848Y011116D01*
X045817Y010964D01*
Y010808D01*
X045848Y010656D01*
X045907Y010512D01*
X045993Y010383D01*
X046103Y010273D01*
X046179Y010222D01*
X046164Y010172D01*
X011342D01*
X011327Y01022D01*
X011353Y010237D01*
X011463Y010347D01*
X011549Y010476D01*
X011609Y01062D01*
X011639Y010772D01*
Y010928D01*
X011609Y01108D01*
X011549Y011224D01*
X011463Y011353D01*
X011353Y011463D01*
X011224Y011549D01*
X01108Y011609D01*
X010928Y011639D01*
X010772D01*
X01062Y011609D01*
X010476Y011549D01*
X010347Y011463D01*
X010237Y011353D01*
X01022Y011327D01*
X010172Y011342D01*
Y018028D01*
X01022Y018044D01*
X010235Y018025D01*
X010318Y017961D01*
X010416Y01792D01*
X01052Y017907D01*
X01112D01*
X011224Y01792D01*
X011298Y017951D01*
X011348Y017922D01*
Y0143D01*
X011356Y014261D01*
X011378Y014228D01*
X012928Y012678D01*
X012961Y012656D01*
X013Y012648D01*
X01535D01*
X015389Y012656D01*
X015422Y012678D01*
X015472Y012728D01*
X015494Y012761D01*
X015502Y0128D01*
Y01455D01*
X015494Y014589D01*
X015472Y014622D01*
X015422Y014672D01*
X015389Y014694D01*
X01535Y014702D01*
X013897D01*
X012552Y016047D01*
Y017664D01*
X012544Y017703D01*
X012542Y017706D01*
X012514Y017773D01*
Y017827D01*
X01252Y017842D01*
X012521Y017844D01*
X012522Y017846D01*
X012523Y017855D01*
X012526Y01786D01*
X012526Y017862D01*
X012526Y017863D01*
X012527Y017865D01*
X012527Y017865D01*
X012527Y017866D01*
X012527Y017866D01*
X012527Y01787D01*
X012528Y017875D01*
X012529Y017885D01*
X012529Y017888D01*
X01253Y017891D01*
X01253Y017894D01*
X012529Y017896D01*
X01253Y017898D01*
Y018522D01*
X012529Y018526D01*
X012529Y01853D01*
X012529Y018535D01*
X012528Y018539D01*
X012528Y018543D01*
X012527Y018548D01*
X012526Y018551D01*
X012526Y018554D01*
X012525Y018559D01*
X012524Y018562D01*
X012523Y018566D01*
X012523Y018566D01*
X012523Y018567D01*
X012519Y018573D01*
X012518Y018578D01*
X012518Y018579D01*
X012514Y018585D01*
X012512Y018591D01*
X012511Y018592D01*
X01251Y018593D01*
X012509Y018595D01*
X012509Y018595D01*
X012509Y018596D01*
X012509Y018596D01*
X012506Y018599D01*
X012505Y0186D01*
X012504Y018602D01*
X012504D01*
X012504Y018602D01*
X012501Y018605D01*
X012496Y018612D01*
X012485Y018623D01*
X012464Y018673D01*
Y018727D01*
X012485Y018777D01*
X012522Y018814D01*
X012544Y018847D01*
X012552Y018886D01*
Y0234D01*
X013405D01*
X013256Y023439D01*
X013294Y023434D01*
X013327Y023438D01*
X013357Y023453D01*
X013382Y023477D01*
X013404Y023512D01*
X013422Y023556D01*
X013435Y023611D01*
X01344Y023637D01*
X013435Y023662D01*
X013422Y023715D01*
X013404Y02376D01*
X013382Y023796D01*
X013357Y023824D01*
X013327Y023844D01*
X013294Y023857D01*
X013257Y023861D01*
X014043D01*
X014006Y023857D01*
X013973Y023844D01*
X013943Y023824D01*
X013918Y023796D01*
X013896Y02376D01*
X013878Y023715D01*
X013865Y023662D01*
X013859Y023628D01*
X013865Y023563D01*
X013874Y023503D01*
X0139Y0234D01*
X0159D01*
X01655Y02405D01*
X023D01*
X02405Y0251D01*
X0271D01*
X028083Y026083D01*
X033778D01*
Y0259D01*
X033791Y025834D01*
X033828Y025778D01*
X034278Y025329D01*
Y024171D01*
X033828Y023722D01*
X033791Y023666D01*
X033778Y0236D01*
Y02135D01*
X033791Y021284D01*
X033828Y021228D01*
X034128Y020928D01*
X034184Y020891D01*
X03425Y020878D01*
X035373D01*
X035376Y020878D01*
X035382Y020877D01*
X035386Y020876D01*
X035387Y020875D01*
X035388Y020874D01*
X03539Y020874D01*
X03539Y020874D01*
X035415Y020848D01*
X035503Y020812D01*
X035597D01*
X035685Y020848D01*
X035752Y020915D01*
X035788Y021003D01*
Y021097D01*
X035752Y021185D01*
X035685Y021252D01*
X035597Y021288D01*
X035503D01*
X035415Y021252D01*
X03539Y021226D01*
X03539Y021226D01*
X035388Y021226D01*
X035387Y021225D01*
X035386Y021224D01*
X035382Y021223D01*
X035377Y021223D01*
X035372Y021222D01*
X034321D01*
X034122Y021421D01*
Y023529D01*
X034572Y023978D01*
X034609Y024034D01*
X034622Y0241D01*
Y0254D01*
X034609Y025466D01*
X034572Y025522D01*
X034122Y025971D01*
Y026083D01*
X034501D01*
X034553Y026062D01*
X034647D01*
X034699Y026083D01*
X035794D01*
X035851Y02606D01*
X035945D01*
X036002Y026083D01*
X038616D01*
X038635Y026037D01*
X038628Y026031D01*
X038591Y025975D01*
X038578Y025909D01*
Y024721D01*
X038018Y024162D01*
X037972Y024181D01*
Y024523D01*
X037972Y024526D01*
X037973Y024532D01*
X037974Y024536D01*
X037975Y024537D01*
X037976Y024538D01*
X037976Y02454D01*
X037976Y02454D01*
X038002Y024565D01*
X038038Y024653D01*
Y024747D01*
X038002Y024835D01*
X037935Y024902D01*
X037847Y024938D01*
X037753D01*
X037709Y02492D01*
X037659Y024916D01*
X037642Y024942D01*
X037622Y024972D01*
X037472Y025122D01*
X037416Y025159D01*
X03735Y025172D01*
X036877D01*
X036874Y025172D01*
X036868Y025173D01*
X036864Y025174D01*
X036863Y025175D01*
X036862Y025176D01*
X03686Y025176D01*
X03686Y025176D01*
X036835Y025202D01*
X036747Y025238D01*
X036653D01*
X036565Y025202D01*
X036498Y025135D01*
X036462Y025047D01*
Y024953D01*
X036498Y024865D01*
X036565Y024798D01*
X036653Y024762D01*
X036747D01*
X036835Y024798D01*
X03686Y024824D01*
X03686Y024824D01*
X036862Y024824D01*
X036863Y024825D01*
X036864Y024826D01*
X036868Y024827D01*
X036873Y024827D01*
X036878Y024828D01*
X037279D01*
X037321Y024785D01*
Y024573D01*
X037328Y024539D01*
Y0236D01*
X037341Y023534D01*
X037378Y023478D01*
X037728Y023129D01*
Y022277D01*
X037728Y022274D01*
X037727Y022268D01*
X037726Y022264D01*
X037725Y022263D01*
X037724Y022262D01*
X037724Y02226D01*
X037724Y02226D01*
X037698Y022235D01*
X03768Y022189D01*
X03763Y022179D01*
X037231Y022578D01*
X037175Y022616D01*
X03711Y022629D01*
X036131D01*
X036107Y022679D01*
X036138Y022753D01*
Y022789D01*
X036138Y022789D01*
X036138Y02279D01*
X036139Y022791D01*
X036139Y022793D01*
X036142Y022796D01*
X036144Y0228D01*
X036148Y022804D01*
X03619Y022846D01*
X036227Y022902D01*
X03624Y022968D01*
Y02348D01*
X03624Y023483D01*
X036241Y023488D01*
X036242Y023493D01*
X036243Y023494D01*
X036243Y023495D01*
X036244Y023496D01*
X036244Y023497D01*
X03627Y023522D01*
X036306Y023609D01*
Y023704D01*
X03627Y023791D01*
X036203Y023858D01*
X036115Y023894D01*
X036021D01*
X035933Y023858D01*
X035866Y023791D01*
X03583Y023704D01*
Y023609D01*
X035866Y023522D01*
X035892Y023497D01*
X035892Y023496D01*
X035892Y023495D01*
X035893Y023494D01*
X035894Y023493D01*
X035895Y023488D01*
X035895Y023484D01*
X035896Y023478D01*
Y023041D01*
X035893Y023039D01*
X035891Y023039D01*
X03589Y023038D01*
X035889Y023038D01*
X035889Y023038D01*
X035853D01*
X035765Y023002D01*
X035698Y022935D01*
X035662Y022847D01*
Y022753D01*
X035693Y022679D01*
X035669Y022629D01*
X035595D01*
X035573Y022633D01*
X035318D01*
X035296Y022629D01*
X0352D01*
X035134Y022616D01*
X035078Y022578D01*
X03465Y02215D01*
X034613Y022094D01*
X0346Y022028D01*
Y022014D01*
X03457Y021984D01*
X034534Y021897D01*
Y021802D01*
X03457Y021715D01*
X034637Y021648D01*
X034725Y021612D01*
X034819D01*
X034906Y021648D01*
X034973Y021715D01*
X03501Y021802D01*
Y021897D01*
X034973Y021984D01*
X034972Y021985D01*
X035158Y022171D01*
X035208Y02215D01*
Y022107D01*
X035244Y02202D01*
X035311Y021953D01*
X035398Y021917D01*
X035493D01*
X03558Y021953D01*
X035606Y021978D01*
X035606Y021978D01*
X035607Y021979D01*
X035608Y02198D01*
X03561Y02198D01*
X035614Y021981D01*
X035618Y021982D01*
X035624Y021982D01*
X036924D01*
X037528Y021378D01*
X037584Y021341D01*
X03765Y021328D01*
X038879D01*
X039128Y021078D01*
X039184Y021041D01*
X03925Y021028D01*
X0399D01*
X039966Y021041D01*
X040022Y021078D01*
X040222Y021278D01*
X040259Y021334D01*
X040272Y0214D01*
Y0219D01*
X040259Y021966D01*
X040222Y022022D01*
X040147Y022097D01*
X040145Y022099D01*
X040142Y022104D01*
X040139Y022107D01*
X040139Y022109D01*
X040138Y02211D01*
X040138Y022111D01*
X040138Y022111D01*
Y022147D01*
X040102Y022235D01*
X040035Y022302D01*
X039947Y022338D01*
X039853D01*
X039765Y022302D01*
X039722Y022259D01*
X039672Y022279D01*
Y025523D01*
X039672Y025526D01*
X039673Y025532D01*
X039674Y025536D01*
X039675Y025537D01*
X039676Y025538D01*
X039676Y02554D01*
X039676Y02554D01*
X039702Y025565D01*
X039738Y025653D01*
Y025747D01*
X039704Y025828D01*
X039724Y025878D01*
X040429D01*
X040578Y025729D01*
Y025421D01*
X040278Y025122D01*
X040241Y025066D01*
X040228Y025D01*
Y023027D01*
X040228Y023024D01*
X040227Y023018D01*
X040226Y023014D01*
X040225Y023013D01*
X040224Y023012D01*
X040224Y02301D01*
X040224Y02301D01*
X040198Y022985D01*
X040162Y022897D01*
Y022803D01*
X040198Y022715D01*
X040265Y022648D01*
X040353Y022612D01*
X040447D01*
X040535Y022648D01*
X040602Y022715D01*
X040638Y022803D01*
Y022897D01*
X040602Y022985D01*
X040576Y02301D01*
X040576Y02301D01*
X040576Y023012D01*
X040575Y023013D01*
X040574Y023014D01*
X040573Y023018D01*
X040573Y023023D01*
X040572Y023028D01*
Y024929D01*
X040872Y025228D01*
X040909Y025284D01*
X040922Y02535D01*
Y0258D01*
X040919Y025817D01*
X040965Y025842D01*
X041378Y025428D01*
X041434Y025391D01*
X0415Y025378D01*
X043843D01*
X043848Y025365D01*
X043915Y025298D01*
X044003Y025262D01*
X044097D01*
X044185Y025298D01*
X044252Y025365D01*
X044288Y025453D01*
Y025547D01*
X044252Y025635D01*
X044185Y025702D01*
X044097Y025738D01*
X044003D01*
X043971Y025724D01*
X043932Y025722D01*
X041571D01*
X041256Y026037D01*
X041275Y026083D01*
X041512D01*
Y026053D01*
X041548Y025965D01*
X041615Y025898D01*
X041703Y025862D01*
X041797D01*
X041885Y025898D01*
X041952Y025965D01*
X041988Y026053D01*
Y026083D01*
X047417D01*
X047478Y026022D01*
D02*
G37*
G36*
X039591Y025596D02*
X039587Y025589D01*
X039582Y025581D01*
X039579Y025572D01*
X039576Y025562D01*
X039573Y025551D01*
X039571Y025539D01*
X03957Y025527D01*
X039569Y025498D01*
X039431D01*
X039431Y025513D01*
X039429Y025539D01*
X039427Y025551D01*
X039424Y025562D01*
X039421Y025572D01*
X039418Y025581D01*
X039413Y025589D01*
X039409Y025596D01*
X039404Y025602D01*
X039596D01*
X039591Y025596D01*
D02*
G37*
G36*
X043923Y025446D02*
X04392Y025453D01*
X043915Y025459D01*
X043909Y025464D01*
X043901Y025468D01*
X043893Y025472D01*
X043883Y025475D01*
X043872Y025478D01*
X043859Y02548D01*
X043846Y025481D01*
X043831Y025481D01*
X043898Y025619D01*
X043913Y025619D01*
X043985Y025623D01*
X04399Y025624D01*
X043993Y025626D01*
X043923Y025446D01*
D02*
G37*
G36*
X036804Y025091D02*
X036811Y025087D01*
X036819Y025082D01*
X036828Y025079D01*
X036838Y025076D01*
X036849Y025073D01*
X036861Y025071D01*
X036873Y02507D01*
X036902Y025069D01*
Y024931D01*
X036887Y024931D01*
X036861Y024929D01*
X036849Y024927D01*
X036838Y024924D01*
X036828Y024921D01*
X036819Y024918D01*
X036811Y024913D01*
X036804Y024909D01*
X036798Y024904D01*
Y025096D01*
X036804Y025091D01*
D02*
G37*
G36*
X037891Y024596D02*
X037887Y024589D01*
X037882Y024581D01*
X037879Y024572D01*
X037876Y024562D01*
X037873Y024551D01*
X037871Y024539D01*
X03787Y024527D01*
X037869Y024498D01*
X037731D01*
X037731Y024513D01*
X037729Y024539D01*
X037727Y024551D01*
X037724Y024562D01*
X037721Y024572D01*
X037718Y024581D01*
X037713Y024589D01*
X037709Y024596D01*
X037704Y024602D01*
X037896D01*
X037891Y024596D01*
D02*
G37*
G36*
X038092Y023894D02*
X038081Y023883D01*
X038064Y023863D01*
X038057Y023853D01*
X038051Y023844D01*
X038046Y023835D01*
X038042Y023826D01*
X03804Y023817D01*
X038038Y023809D01*
X038038Y023801D01*
X037901Y023938D01*
X037909Y023938D01*
X037917Y02394D01*
X037926Y023942D01*
X037935Y023946D01*
X037944Y023951D01*
X037953Y023957D01*
X037963Y023964D01*
X037973Y023972D01*
X037994Y023992D01*
X038092Y023894D01*
D02*
G37*
G36*
X039296Y025828D02*
X039262Y025747D01*
Y025653D01*
X039298Y025565D01*
X039324Y02554D01*
X039324Y02554D01*
X039324Y025538D01*
X039325Y025537D01*
X039326Y025536D01*
X039327Y025532D01*
X039327Y025527D01*
X039328Y025522D01*
Y022755D01*
X039278Y022745D01*
X039275Y022751D01*
X039208Y022818D01*
X039121Y022854D01*
X039026D01*
X038939Y022818D01*
X038872Y022751D01*
X038836Y022664D01*
Y022569D01*
X038872Y022482D01*
X038898Y022456D01*
X038898Y022456D01*
X038898Y022455D01*
X038899Y022454D01*
X038899Y022452D01*
X0389Y022448D01*
X038901Y022443D01*
X038902Y022438D01*
Y021995D01*
X038872Y021966D01*
X038147D01*
X038119Y022007D01*
X038138Y022053D01*
Y022147D01*
X038102Y022235D01*
X038076Y02226D01*
X038076Y02226D01*
X038076Y022262D01*
X038075Y022263D01*
X038074Y022264D01*
X038073Y022268D01*
X038073Y022273D01*
X038072Y022278D01*
Y0232D01*
X038059Y023266D01*
X038022Y023322D01*
X037823Y02352D01*
X037852Y023563D01*
X037853Y023562D01*
X037947D01*
X038035Y023598D01*
X038102Y023665D01*
X038138Y023753D01*
Y023789D01*
X038138Y023789D01*
X038138Y02379D01*
X038139Y023791D01*
X038139Y023793D01*
X038142Y023796D01*
X038144Y0238D01*
X038148Y023804D01*
X038872Y024528D01*
X038909Y024584D01*
X038922Y02465D01*
Y025838D01*
X038962Y025878D01*
X039276D01*
X039296Y025828D01*
D02*
G37*
G36*
X036159Y023552D02*
X036154Y023545D01*
X03615Y023538D01*
X036147Y023529D01*
X036144Y023519D01*
X036141Y023508D01*
X036139Y023496D01*
X036138Y023483D01*
X036137Y023455D01*
X035999D01*
X035999Y02347D01*
X035997Y023496D01*
X035995Y023508D01*
X035992Y023519D01*
X035989Y023529D01*
X035986Y023538D01*
X035981Y023545D01*
X035977Y023552D01*
X035972Y023558D01*
X036164D01*
X036159Y023552D01*
D02*
G37*
G36*
X040469Y023037D02*
X040471Y023011D01*
X040473Y022999D01*
X040476Y022988D01*
X040479Y022978D01*
X040482Y022969D01*
X040487Y022961D01*
X040491Y022954D01*
X040496Y022948D01*
X040304D01*
X040309Y022954D01*
X040313Y022961D01*
X040318Y022969D01*
X040321Y022978D01*
X040324Y022988D01*
X040327Y022999D01*
X040329Y023011D01*
X04033Y023023D01*
X040331Y023052D01*
X040469D01*
X040469Y023037D01*
D02*
G37*
G36*
X036092Y022894D02*
X036081Y022883D01*
X036064Y022863D01*
X036057Y022853D01*
X036051Y022844D01*
X036046Y022835D01*
X036042Y022826D01*
X03604Y022817D01*
X036038Y022809D01*
X036038Y022801D01*
X035901Y022938D01*
X035909Y022938D01*
X035917Y02294D01*
X035926Y022942D01*
X035935Y022946D01*
X035944Y022951D01*
X035953Y022957D01*
X035963Y022964D01*
X035973Y022972D01*
X035994Y022992D01*
X036092Y022894D01*
D02*
G37*
G36*
X039165Y022512D02*
X03916Y022505D01*
X039156Y022497D01*
X039153Y022488D01*
X03915Y022479D01*
X039147Y022468D01*
X039145Y022456D01*
X039144Y022443D01*
X039143Y022414D01*
X039005D01*
X039005Y022429D01*
X039002Y022456D01*
X039Y022468D01*
X038998Y022479D01*
X038995Y022488D01*
X038991Y022497D01*
X038987Y022505D01*
X038983Y022512D01*
X038977Y022518D01*
X03917D01*
X039165Y022512D01*
D02*
G37*
G36*
X037969Y022287D02*
X037971Y022261D01*
X037973Y022249D01*
X037976Y022238D01*
X037979Y022228D01*
X037982Y022219D01*
X037987Y022211D01*
X037991Y022204D01*
X037996Y022198D01*
X037804D01*
X037809Y022204D01*
X037813Y022211D01*
X037818Y022219D01*
X037821Y022228D01*
X037824Y022238D01*
X037827Y022249D01*
X037829Y022261D01*
X03783Y022273D01*
X037831Y022302D01*
X037969D01*
X037969Y022287D01*
D02*
G37*
G36*
X03555Y022246D02*
X035557Y022241D01*
X035565Y022237D01*
X035573Y022233D01*
X035583Y02223D01*
X035594Y022228D01*
X035606Y022226D01*
X035619Y022225D01*
X035648Y022223D01*
Y022086D01*
X035633Y022085D01*
X035606Y022083D01*
X035594Y022081D01*
X035583Y022079D01*
X035573Y022076D01*
X035565Y022072D01*
X035557Y022068D01*
X03555Y022063D01*
X035544Y022058D01*
Y022251D01*
X03555Y022246D01*
D02*
G37*
G36*
X040038Y022091D02*
X04004Y022083D01*
X040042Y022074D01*
X040046Y022065D01*
X040051Y022056D01*
X040057Y022047D01*
X040064Y022037D01*
X040072Y022027D01*
X040092Y022006D01*
X039994Y021908D01*
X039983Y021919D01*
X039963Y021936D01*
X039953Y021943D01*
X039944Y021949D01*
X039935Y021954D01*
X039926Y021958D01*
X039917Y02196D01*
X039909Y021962D01*
X039901Y021962D01*
X040038Y022099D01*
X040038Y022091D01*
D02*
G37*
G36*
X011348Y023367D02*
X011351Y023354D01*
X011352Y023341D01*
X011354Y023335D01*
X011356Y023328D01*
X011363Y023317D01*
X011369Y023305D01*
X01138Y02329D01*
X01141Y023218D01*
X011421Y02314D01*
X01141Y023062D01*
X01138Y02299D01*
X011369Y022975D01*
X011363Y022963D01*
X011356Y022952D01*
X011354Y022945D01*
X011352Y022939D01*
X011351Y022926D01*
X011348Y022913D01*
Y021748D01*
X011298Y021719D01*
X011224Y02175D01*
X01112Y021763D01*
X01052D01*
X010416Y02175D01*
X010318Y021709D01*
X010235Y021645D01*
X01022Y021626D01*
X010172Y021642D01*
Y0234D01*
X011348D01*
Y023367D01*
D02*
G37*
G36*
X039617Y021781D02*
X039637Y021764D01*
X039647Y021757D01*
X039656Y021751D01*
X039665Y021746D01*
X039674Y021742D01*
X039683Y02174D01*
X039691Y021738D01*
X039699Y021738D01*
X039562Y021601D01*
X039562Y021609D01*
X03956Y021617D01*
X039558Y021626D01*
X039554Y021635D01*
X039549Y021644D01*
X039543Y021653D01*
X039536Y021663D01*
X039528Y021673D01*
X039508Y021694D01*
X039606Y021792D01*
X039617Y021781D01*
D02*
G37*
G36*
X035452Y020954D02*
X035446Y020959D01*
X035439Y020963D01*
X035431Y020968D01*
X035422Y020971D01*
X035412Y020974D01*
X035401Y020977D01*
X035389Y020979D01*
X035377Y02098D01*
X035348Y020981D01*
Y021119D01*
X035363Y021119D01*
X035389Y021121D01*
X035401Y021123D01*
X035412Y021126D01*
X035422Y021129D01*
X035431Y021132D01*
X035439Y021137D01*
X035446Y021141D01*
X035452Y021146D01*
Y020954D01*
D02*
G37*
G36*
X010235Y021075D02*
X010318Y021011D01*
X010416Y02097D01*
X01052Y020957D01*
X01112D01*
X011224Y02097D01*
X011298Y021001D01*
X011348Y020972D01*
Y020317D01*
X011351Y020304D01*
X011352Y020291D01*
X011354Y020285D01*
X011356Y020278D01*
X011363Y020267D01*
X011369Y020255D01*
X01138Y02024D01*
X01141Y020168D01*
X011421Y02009D01*
X01141Y020012D01*
X01138Y01994D01*
X011369Y019925D01*
X011363Y019913D01*
X011356Y019902D01*
X011354Y019895D01*
X011352Y019889D01*
X011351Y019876D01*
X011348Y019863D01*
Y018698D01*
X011298Y018669D01*
X011224Y0187D01*
X01112Y018713D01*
X01052D01*
X010416Y0187D01*
X010318Y018659D01*
X010235Y018595D01*
X01022Y018576D01*
X010172Y018592D01*
Y021078D01*
X01022Y021094D01*
X010235Y021075D01*
D02*
G37*
%LPC*%
G36*
X024957Y029192D02*
X024243D01*
Y028477D01*
X024957D01*
Y029192D01*
D02*
G37*
G36*
X031515Y029394D02*
X031385D01*
X031259Y02936D01*
X031147Y029295D01*
X031055Y029203D01*
X03099Y029091D01*
X030956Y028965D01*
Y028835D01*
X03099Y028709D01*
X031055Y028597D01*
X031147Y028505D01*
X031259Y02844D01*
X031385Y028406D01*
X031515D01*
X031641Y02844D01*
X031753Y028505D01*
X031845Y028597D01*
X03191Y028709D01*
X031944Y028835D01*
Y028965D01*
X03191Y029091D01*
X031845Y029203D01*
X031753Y029295D01*
X031641Y02936D01*
X031515Y029394D01*
D02*
G37*
G36*
X027515D02*
X027385D01*
X027259Y02936D01*
X027147Y029295D01*
X027055Y029203D01*
X02699Y029091D01*
X026956Y028965D01*
Y028835D01*
X02699Y028709D01*
X027055Y028597D01*
X027147Y028505D01*
X027259Y02844D01*
X027385Y028406D01*
X027515D01*
X027641Y02844D01*
X027753Y028505D01*
X027845Y028597D01*
X02791Y028709D01*
X027944Y028835D01*
Y028965D01*
X02791Y029091D01*
X027845Y029203D01*
X027753Y029295D01*
X027641Y02936D01*
X027515Y029394D01*
D02*
G37*
G36*
X045067Y029102D02*
X044247D01*
Y028282D01*
X045067D01*
Y029102D01*
D02*
G37*
G36*
X01368Y021763D02*
X01308D01*
X012976Y02175D01*
X012878Y021709D01*
X012795Y021645D01*
X012731Y021562D01*
X01269Y021464D01*
X012677Y02136D01*
X01269Y021256D01*
X012731Y021158D01*
X012795Y021075D01*
X012878Y021011D01*
X012976Y02097D01*
X01308Y020957D01*
X01368D01*
X013784Y02097D01*
X013882Y021011D01*
X013965Y021075D01*
X014029Y021158D01*
X01407Y021256D01*
X014083Y02136D01*
X01407Y021464D01*
X014029Y021562D01*
X013965Y021645D01*
X013882Y021709D01*
X013784Y02175D01*
X01368Y021763D01*
D02*
G37*
G36*
X036047Y020438D02*
X035953D01*
X035865Y020402D01*
X03584Y020376D01*
X03584Y020376D01*
X035838Y020376D01*
X035837Y020375D01*
X035836Y020374D01*
X035832Y020373D01*
X035827Y020373D01*
X035822Y020372D01*
X035027D01*
X035024Y020372D01*
X035018Y020373D01*
X035014Y020374D01*
X035013Y020375D01*
X035012Y020376D01*
X03501Y020376D01*
X03501Y020376D01*
X034985Y020402D01*
X034897Y020438D01*
X034803D01*
X034715Y020402D01*
X034648Y020335D01*
X034612Y020247D01*
Y020153D01*
X034648Y020065D01*
X034715Y019998D01*
X034803Y019962D01*
X034897D01*
X034985Y019998D01*
X03501Y020024D01*
X03501Y020024D01*
X035012Y020024D01*
X035013Y020025D01*
X035014Y020026D01*
X035018Y020027D01*
X035023Y020027D01*
X035028Y020028D01*
X035823D01*
X035826Y020028D01*
X035832Y020027D01*
X035836Y020026D01*
X035837Y020025D01*
X035838Y020024D01*
X03584Y020024D01*
X03584Y020024D01*
X035865Y019998D01*
X035953Y019962D01*
X036047D01*
X036135Y019998D01*
X036202Y020065D01*
X036238Y020153D01*
Y020247D01*
X036202Y020335D01*
X036135Y020402D01*
X036047Y020438D01*
D02*
G37*
G36*
X022097Y021788D02*
X022003D01*
X021915Y021752D01*
X021848Y021685D01*
X021812Y021597D01*
Y021503D01*
X021848Y021415D01*
X021874Y02139D01*
X021874Y02139D01*
X021874Y021388D01*
X021875Y021387D01*
X021876Y021386D01*
X021877Y021382D01*
X021877Y021377D01*
X021878Y021372D01*
Y020427D01*
X021878Y020424D01*
X021877Y020418D01*
X021876Y020414D01*
X021875Y020413D01*
X021874Y020412D01*
X021874Y02041D01*
X021874Y02041D01*
X021848Y020385D01*
X021812Y020297D01*
Y020203D01*
X021848Y020115D01*
X021915Y020048D01*
X022003Y020012D01*
X022097D01*
X022185Y020048D01*
X022252Y020115D01*
X022288Y020203D01*
Y020297D01*
X022252Y020385D01*
X022226Y02041D01*
X022226Y02041D01*
X022226Y020412D01*
X022225Y020413D01*
X022224Y020414D01*
X022223Y020418D01*
X022223Y020423D01*
X022222Y020428D01*
Y021373D01*
X022222Y021376D01*
X022223Y021382D01*
X022224Y021386D01*
X022225Y021387D01*
X022226Y021388D01*
X022226Y02139D01*
X022226Y02139D01*
X022252Y021415D01*
X022288Y021503D01*
Y021597D01*
X022252Y021685D01*
X022185Y021752D01*
X022097Y021788D01*
D02*
G37*
G36*
X039837Y019553D02*
X039742D01*
X039655Y019517D01*
X039588Y01945D01*
X039552Y019363D01*
Y019268D01*
X039588Y019181D01*
X039655Y019114D01*
X039678Y019105D01*
Y018777D01*
X039678Y018774D01*
X039677Y018768D01*
X039676Y018764D01*
X039675Y018763D01*
X039674Y018762D01*
X039674Y01876D01*
X039674Y01876D01*
X039648Y018735D01*
X039612Y018647D01*
Y018553D01*
X039648Y018465D01*
X039715Y018398D01*
X039803Y018362D01*
X039897D01*
X039985Y018398D01*
X040052Y018465D01*
X040088Y018553D01*
Y018647D01*
X040052Y018735D01*
X040026Y01876D01*
X040026Y01876D01*
X040026Y018762D01*
X040025Y018763D01*
X040024Y018764D01*
X040023Y018768D01*
X040023Y018773D01*
X040022Y018778D01*
Y019255D01*
X040022Y019255D01*
X040028Y019268D01*
Y019363D01*
X039991Y01945D01*
X039924Y019517D01*
X039837Y019553D01*
D02*
G37*
G36*
X01368Y018713D02*
X01308D01*
X012976Y0187D01*
X012878Y018659D01*
X012795Y018595D01*
X012731Y018512D01*
X01269Y018414D01*
X012677Y01831D01*
X01269Y018206D01*
X012731Y018108D01*
X012795Y018025D01*
X012878Y017961D01*
X012976Y01792D01*
X01308Y017907D01*
X01368D01*
X013784Y01792D01*
X013882Y017961D01*
X013965Y018025D01*
X014029Y018108D01*
X01407Y018206D01*
X014083Y01831D01*
X01407Y018414D01*
X014029Y018512D01*
X013965Y018595D01*
X013882Y018659D01*
X013784Y0187D01*
X01368Y018713D01*
D02*
G37*
G36*
X024607Y016342D02*
X023893D01*
Y015627D01*
X024607D01*
Y016342D01*
D02*
G37*
G36*
X017947Y016038D02*
X017853D01*
X017765Y016002D01*
X017698Y015935D01*
X017662Y015847D01*
Y015753D01*
X017698Y015665D01*
X017765Y015598D01*
X017853Y015562D01*
X017947D01*
X018035Y015598D01*
X018102Y015665D01*
X018138Y015753D01*
Y015847D01*
X018102Y015935D01*
X018035Y016002D01*
X017947Y016038D01*
D02*
G37*
G36*
X017297D02*
X017203D01*
X017115Y016002D01*
X017048Y015935D01*
X017012Y015847D01*
Y015753D01*
X017048Y015665D01*
X017115Y015598D01*
X017203Y015562D01*
X017297D01*
X017385Y015598D01*
X017452Y015665D01*
X017488Y015753D01*
Y015847D01*
X017452Y015935D01*
X017385Y016002D01*
X017297Y016038D01*
D02*
G37*
G36*
X044047Y018738D02*
X043953D01*
X043865Y018702D01*
X043798Y018635D01*
X043762Y018547D01*
Y018453D01*
X043798Y018365D01*
X043824Y01834D01*
X043824Y01834D01*
X043824Y018338D01*
X043825Y018337D01*
X043826Y018336D01*
X043827Y018332D01*
X043827Y018327D01*
X043828Y018322D01*
Y015627D01*
X043828Y015624D01*
X043827Y015618D01*
X043826Y015614D01*
X043825Y015613D01*
X043824Y015612D01*
X043824Y01561D01*
X043824Y01561D01*
X043798Y015585D01*
X043762Y015497D01*
Y015403D01*
X043798Y015315D01*
X043865Y015248D01*
X043953Y015212D01*
X044047D01*
X044135Y015248D01*
X044202Y015315D01*
X044238Y015403D01*
Y015497D01*
X044202Y015585D01*
X044176Y01561D01*
X044176Y01561D01*
X044176Y015612D01*
X044175Y015613D01*
X044174Y015614D01*
X044173Y015618D01*
X044173Y015623D01*
X044172Y015628D01*
Y018323D01*
X044172Y018326D01*
X044173Y018332D01*
X044174Y018336D01*
X044175Y018337D01*
X044176Y018338D01*
X044176Y01834D01*
X044176Y01834D01*
X044202Y018365D01*
X044238Y018453D01*
Y018547D01*
X044202Y018635D01*
X044135Y018702D01*
X044047Y018738D01*
D02*
G37*
G36*
X032447Y023688D02*
X032353D01*
X032265Y023652D01*
X032198Y023585D01*
X032162Y023497D01*
Y023403D01*
X032198Y023315D01*
X032224Y02329D01*
X032224Y02329D01*
X032224Y023288D01*
X032225Y023287D01*
X032226Y023286D01*
X032227Y023282D01*
X032227Y023277D01*
X032228Y023272D01*
Y021871D01*
X032103Y021747D01*
X032101Y021745D01*
X032096Y021742D01*
X032093Y021739D01*
X032091Y021739D01*
X03209Y021738D01*
X032089Y021738D01*
X032089Y021738D01*
X032053D01*
X031965Y021702D01*
X031898Y021635D01*
X031862Y021547D01*
Y021477D01*
X031862Y021453D01*
X031817Y021431D01*
X031772D01*
X031685Y021395D01*
X031666Y021376D01*
X031665Y021375D01*
X031662Y021374D01*
X031657Y021373D01*
X031652Y021373D01*
X031647Y021372D01*
X0312D01*
X031134Y021359D01*
X031078Y021322D01*
X030978Y021222D01*
X030941Y021166D01*
X030928Y0211D01*
Y02D01*
X030941Y019934D01*
X030978Y019878D01*
X031078Y019778D01*
X031134Y019741D01*
X0312Y019728D01*
X032295D01*
X032301Y019722D01*
X032357Y019684D01*
X032423Y019671D01*
X032475D01*
X032498Y019615D01*
X032565Y019548D01*
X032653Y019512D01*
X032747D01*
X032835Y019548D01*
X032902Y019615D01*
X032938Y019703D01*
Y019797D01*
X032902Y019885D01*
X032835Y019952D01*
X032781Y019974D01*
X032754Y020012D01*
X032759Y020033D01*
X032788Y020103D01*
Y020143D01*
X032794Y020151D01*
X032822Y020178D01*
X032859Y020234D01*
X032872Y0203D01*
Y021123D01*
X032872Y021126D01*
X032873Y021132D01*
X032874Y021136D01*
X032875Y021137D01*
X032876Y021138D01*
X032876Y02114D01*
X032876Y02114D01*
X032902Y021165D01*
X032938Y021253D01*
Y021347D01*
X032902Y021435D01*
X032835Y021502D01*
X032771Y021528D01*
X032781Y021578D01*
X032979D01*
X033378Y021179D01*
Y01995D01*
X033391Y019884D01*
X033428Y019828D01*
X035678Y017579D01*
Y015377D01*
X035678Y015374D01*
X035677Y015368D01*
X035676Y015364D01*
X035675Y015363D01*
X035674Y015362D01*
X035674Y01536D01*
X035674Y01536D01*
X035648Y015335D01*
X035612Y015247D01*
Y015153D01*
X035648Y015065D01*
X035715Y014998D01*
X035803Y014962D01*
X035897D01*
X035985Y014998D01*
X036052Y015065D01*
X036088Y015153D01*
Y015247D01*
X036052Y015335D01*
X036026Y01536D01*
X036026Y01536D01*
X036026Y015362D01*
X036025Y015363D01*
X036024Y015364D01*
X036023Y015368D01*
X036023Y015373D01*
X036022Y015378D01*
Y01765D01*
X036009Y017716D01*
X035972Y017772D01*
X033722Y020021D01*
Y02125D01*
X033709Y021316D01*
X033672Y021372D01*
X033172Y021872D01*
X033116Y021909D01*
X03305Y021922D01*
X032572D01*
Y023273D01*
X032572Y023276D01*
X032573Y023282D01*
X032574Y023286D01*
X032575Y023287D01*
X032576Y023288D01*
X032576Y02329D01*
X032576Y02329D01*
X032602Y023315D01*
X032638Y023403D01*
Y023497D01*
X032602Y023585D01*
X032535Y023652D01*
X032447Y023688D01*
D02*
G37*
G36*
X046806Y015047D02*
X046501D01*
X046402Y015028D01*
X046319Y014972D01*
X046263Y014888D01*
X046243Y01479D01*
X046263Y014691D01*
X046319Y014608D01*
X046402Y014552D01*
X046501Y014532D01*
X046806D01*
X046904Y014552D01*
X046988Y014608D01*
X047044Y014691D01*
X047063Y01479D01*
X047044Y014888D01*
X046988Y014972D01*
X046904Y015028D01*
X046806Y015047D01*
D02*
G37*
G36*
X028097Y016938D02*
X028003D01*
X027915Y016902D01*
X027848Y016835D01*
X027812Y016747D01*
Y016653D01*
X027848Y016565D01*
X027915Y016498D01*
X028003Y016462D01*
X028052D01*
X028084Y016441D01*
X02815Y016428D01*
X030729D01*
X032683Y014473D01*
X032739Y014436D01*
X032805Y014423D01*
X039595D01*
X039661Y014436D01*
X0397Y014462D01*
X039747D01*
X039835Y014498D01*
X039902Y014565D01*
X039938Y014653D01*
Y014747D01*
X039902Y014835D01*
X039835Y014902D01*
X039747Y014938D01*
X039653D01*
X039565Y014902D01*
X039498Y014835D01*
X03947Y014767D01*
X032876D01*
X030922Y016722D01*
X030866Y016759D01*
X0308Y016772D01*
X028277D01*
X028252Y016835D01*
X028185Y016902D01*
X028097Y016938D01*
D02*
G37*
G36*
X04559Y014754D02*
X045515Y014745D01*
X045445Y014716D01*
X045385Y01467D01*
X045339Y01461D01*
X045311Y01454D01*
X045301Y014465D01*
Y014327D01*
X045311Y014252D01*
X045339Y014182D01*
X045385Y014122D01*
X045445Y014076D01*
X045515Y014048D01*
X04559Y014038D01*
X045665Y014048D01*
X045735Y014076D01*
X045795Y014122D01*
X045841Y014182D01*
X04587Y014252D01*
X04588Y014327D01*
Y014465D01*
X04587Y01454D01*
X045841Y01461D01*
X045795Y01467D01*
X045735Y014716D01*
X045665Y014745D01*
X04559Y014754D01*
D02*
G37*
G36*
X039747Y013338D02*
X039653D01*
X039565Y013302D01*
X039498Y013235D01*
X039462Y013147D01*
Y013053D01*
X039498Y012965D01*
X039565Y012898D01*
X039653Y012862D01*
X039747D01*
X039835Y012898D01*
X039902Y012965D01*
X039938Y013053D01*
Y013147D01*
X039902Y013235D01*
X039835Y013302D01*
X039747Y013338D01*
D02*
G37*
G36*
X035897Y014038D02*
X035803D01*
X035715Y014002D01*
X035648Y013935D01*
X035612Y013847D01*
Y013753D01*
X035648Y013665D01*
X035715Y013598D01*
X035803Y013562D01*
X035897D01*
X035985Y013598D01*
X03601Y013624D01*
X03601Y013624D01*
X036012Y013624D01*
X036013Y013625D01*
X036014Y013626D01*
X036018Y013627D01*
X036023Y013627D01*
X036028Y013628D01*
X036979D01*
X037878Y012728D01*
X037934Y012691D01*
X038Y012678D01*
X039129D01*
X039442Y012365D01*
X039417Y012319D01*
X0394Y012322D01*
X039227D01*
X039224Y012322D01*
X039218Y012323D01*
X039214Y012324D01*
X039213Y012325D01*
X039212Y012326D01*
X03921Y012326D01*
X03921Y012326D01*
X039185Y012352D01*
X039097Y012388D01*
X039003D01*
X038915Y012352D01*
X038848Y012285D01*
X038812Y012197D01*
Y012103D01*
X038848Y012015D01*
X038915Y011948D01*
X039003Y011912D01*
X039097D01*
X039185Y011948D01*
X03921Y011974D01*
X03921Y011974D01*
X039212Y011974D01*
X039213Y011975D01*
X039214Y011976D01*
X039218Y011977D01*
X039223Y011977D01*
X039228Y011978D01*
X039329D01*
X039553Y011753D01*
X039555Y011751D01*
X039558Y011746D01*
X039561Y011743D01*
X039561Y011741D01*
X039562Y01174D01*
X039562Y011739D01*
X039562Y011739D01*
Y011703D01*
X039598Y011615D01*
X039665Y011548D01*
X039753Y011512D01*
X039847D01*
X039935Y011548D01*
X040002Y011615D01*
X040038Y011703D01*
Y011797D01*
X040022Y011836D01*
X040049Y011878D01*
X040223D01*
X040226Y011878D01*
X040232Y011877D01*
X040236Y011876D01*
X040237Y011875D01*
X040238Y011874D01*
X04024Y011874D01*
X04024Y011874D01*
X040265Y011848D01*
X040353Y011812D01*
X040447D01*
X040535Y011848D01*
X040602Y011915D01*
X040638Y012003D01*
Y012097D01*
X040602Y012185D01*
X040535Y012252D01*
X040447Y012288D01*
X040353D01*
X040265Y012252D01*
X04024Y012226D01*
X04024Y012226D01*
X040238Y012226D01*
X040237Y012225D01*
X040236Y012224D01*
X040232Y012223D01*
X040227Y012223D01*
X040222Y012222D01*
X040071D01*
X039322Y012972D01*
X039266Y013009D01*
X0392Y013022D01*
X038071D01*
X037172Y013922D01*
X037116Y013959D01*
X03705Y013972D01*
X036027D01*
X036024Y013972D01*
X036018Y013973D01*
X036014Y013974D01*
X036013Y013975D01*
X036012Y013976D01*
X03601Y013976D01*
X03601Y013976D01*
X035985Y014002D01*
X035897Y014038D01*
D02*
G37*
G36*
X045147Y012988D02*
X045053D01*
X044965Y012952D01*
X044898Y012885D01*
X044862Y012797D01*
Y012703D01*
X044898Y012615D01*
X044965Y012548D01*
X045053Y012512D01*
X045147D01*
X045235Y012548D01*
X04526Y012574D01*
X045308Y012551D01*
X045301Y012496D01*
Y012359D01*
X045311Y012284D01*
X045339Y012214D01*
X045385Y012154D01*
X045445Y012108D01*
X045515Y012079D01*
X04559Y012069D01*
X045665Y012079D01*
X045735Y012108D01*
X045795Y012154D01*
X045841Y012214D01*
X04587Y012284D01*
X04588Y012359D01*
Y012496D01*
X04587Y012571D01*
X045841Y012641D01*
X045795Y012701D01*
X045735Y012747D01*
X045665Y012776D01*
X04559Y012786D01*
X045515Y012776D01*
X045445Y012747D01*
X045388Y012703D01*
X045377Y012705D01*
X045338Y012721D01*
Y012797D01*
X045302Y012885D01*
X045235Y012952D01*
X045147Y012988D01*
D02*
G37*
G36*
X046806Y012291D02*
X046501D01*
X046402Y012272D01*
X046319Y012216D01*
X046263Y012132D01*
X046243Y012034D01*
X046263Y011935D01*
X046319Y011852D01*
X046402Y011796D01*
X046501Y011776D01*
X046806D01*
X046904Y011796D01*
X046988Y011852D01*
X047044Y011935D01*
X047063Y012034D01*
X047044Y012132D01*
X046988Y012216D01*
X046904Y012272D01*
X046806Y012291D01*
D02*
G37*
G36*
X018697Y016038D02*
X018603D01*
X018515Y016002D01*
X018448Y015935D01*
X018412Y015847D01*
Y015753D01*
X018448Y015665D01*
X018515Y015598D01*
X018603Y015562D01*
X018639D01*
X018639Y015562D01*
X01864Y015562D01*
X018641Y015561D01*
X018643Y015561D01*
X018646Y015558D01*
X01865Y015556D01*
X018654Y015552D01*
X018878Y015329D01*
Y011572D01*
X018873Y011489D01*
X018868Y01144D01*
X018862Y0114D01*
X018858Y011382D01*
X018858Y01138D01*
X018857Y011379D01*
X018857Y011373D01*
X01885Y011346D01*
Y011254D01*
X018874Y011165D01*
X01892Y011085D01*
X018985Y01102D01*
X019065Y010974D01*
X019154Y01095D01*
X019246D01*
X019335Y010974D01*
X019415Y01102D01*
X01948Y011085D01*
X019526Y011165D01*
X01955Y011254D01*
Y011346D01*
X019526Y011435D01*
X01948Y011515D01*
X019415Y01158D01*
X019335Y011626D01*
X019246Y01165D01*
X019241D01*
X019237Y011651D01*
X01923Y011653D01*
X019227Y011654D01*
X019227Y011655D01*
X019226Y011655D01*
X019226Y011656D01*
X019225Y011658D01*
X019223Y011664D01*
X019222Y01167D01*
Y0154D01*
X019209Y015466D01*
X019172Y015522D01*
X018897Y015797D01*
X018895Y015799D01*
X018892Y015804D01*
X018889Y015807D01*
X018889Y015809D01*
X018888Y01581D01*
X018888Y015811D01*
X018888Y015811D01*
Y015847D01*
X018852Y015935D01*
X018785Y016002D01*
X018697Y016038D01*
D02*
G37*
%LPD*%
G36*
X035902Y020104D02*
X035896Y020109D01*
X035889Y020113D01*
X035881Y020118D01*
X035872Y020121D01*
X035862Y020124D01*
X035851Y020127D01*
X035839Y020129D01*
X035827Y02013D01*
X035798Y020131D01*
Y020269D01*
X035813Y020269D01*
X035839Y020271D01*
X035851Y020273D01*
X035862Y020276D01*
X035872Y020279D01*
X035881Y020282D01*
X035889Y020287D01*
X035896Y020291D01*
X035902Y020296D01*
Y020104D01*
D02*
G37*
G36*
X034954Y020291D02*
X034961Y020287D01*
X034969Y020282D01*
X034978Y020279D01*
X034988Y020276D01*
X034999Y020273D01*
X035011Y020271D01*
X035023Y02027D01*
X035052Y020269D01*
Y020131D01*
X035037Y020131D01*
X035011Y020129D01*
X034999Y020127D01*
X034988Y020124D01*
X034978Y020121D01*
X034969Y020118D01*
X034961Y020113D01*
X034954Y020109D01*
X034948Y020104D01*
Y020296D01*
X034954Y020291D01*
D02*
G37*
G36*
X022141Y021446D02*
X022137Y021439D01*
X022132Y021431D01*
X022129Y021422D01*
X022126Y021412D01*
X022123Y021401D01*
X022121Y021389D01*
X02212Y021377D01*
X022119Y021348D01*
X021981D01*
X021981Y021363D01*
X021979Y021389D01*
X021977Y021401D01*
X021974Y021412D01*
X021971Y021422D01*
X021968Y021431D01*
X021963Y021439D01*
X021959Y021446D01*
X021954Y021452D01*
X022146D01*
X022141Y021446D01*
D02*
G37*
G36*
X022119Y020437D02*
X022121Y020411D01*
X022123Y020399D01*
X022126Y020388D01*
X022129Y020378D01*
X022132Y020369D01*
X022137Y020361D01*
X022141Y020354D01*
X022146Y020348D01*
X021954D01*
X021959Y020354D01*
X021963Y020361D01*
X021968Y020369D01*
X021971Y020378D01*
X021974Y020388D01*
X021977Y020399D01*
X021979Y020411D01*
X02198Y020423D01*
X021981Y020452D01*
X022119D01*
X022119Y020437D01*
D02*
G37*
G36*
X039919Y019109D02*
X039781Y019095D01*
X039781Y01911D01*
X03978Y019124D01*
X039778Y019136D01*
X039775Y019147D01*
X039772Y019157D01*
X039768Y019165D01*
X039764Y019172D01*
X039759Y019178D01*
X039753Y019182D01*
X039746Y019185D01*
X039919Y019267D01*
X039919Y019109D01*
D02*
G37*
G36*
X039919Y018787D02*
X039921Y018761D01*
X039923Y018749D01*
X039926Y018738D01*
X039929Y018728D01*
X039932Y018719D01*
X039937Y018711D01*
X039941Y018704D01*
X039946Y018698D01*
X039754D01*
X039759Y018704D01*
X039763Y018711D01*
X039768Y018719D01*
X039771Y018728D01*
X039774Y018738D01*
X039777Y018749D01*
X039779Y018761D01*
X03978Y018773D01*
X039781Y018802D01*
X039919D01*
X039919Y018787D01*
D02*
G37*
G36*
X044091Y018396D02*
X044087Y018389D01*
X044082Y018381D01*
X044079Y018372D01*
X044076Y018362D01*
X044073Y018351D01*
X044071Y018339D01*
X04407Y018327D01*
X044069Y018298D01*
X043931D01*
X043931Y018313D01*
X043929Y018339D01*
X043927Y018351D01*
X043924Y018362D01*
X043921Y018372D01*
X043918Y018381D01*
X043913Y018389D01*
X043909Y018396D01*
X043904Y018402D01*
X044096D01*
X044091Y018396D01*
D02*
G37*
G36*
X044069Y015637D02*
X044071Y015611D01*
X044073Y015599D01*
X044076Y015588D01*
X044079Y015578D01*
X044082Y015569D01*
X044087Y015561D01*
X044091Y015554D01*
X044096Y015548D01*
X043904D01*
X043909Y015554D01*
X043913Y015561D01*
X043918Y015569D01*
X043921Y015578D01*
X043924Y015588D01*
X043927Y015599D01*
X043929Y015611D01*
X04393Y015623D01*
X043931Y015652D01*
X044069D01*
X044069Y015637D01*
D02*
G37*
G36*
X032491Y023346D02*
X032487Y023339D01*
X032482Y023331D01*
X032479Y023322D01*
X032476Y023312D01*
X032473Y023301D01*
X032471Y023289D01*
X03247Y023277D01*
X032469Y023248D01*
X032331D01*
X032331Y023263D01*
X032329Y023289D01*
X032327Y023301D01*
X032324Y023312D01*
X032321Y023322D01*
X032318Y023331D01*
X032313Y023339D01*
X032309Y023346D01*
X032304Y023352D01*
X032496D01*
X032491Y023346D01*
D02*
G37*
G36*
X03235Y02175D02*
X032516Y021681D01*
X032489Y02168D01*
X032463Y021677D01*
X032437Y021672D01*
X032413Y021666D01*
X032389Y021657D01*
X032366Y021646D01*
X032343Y021633D01*
X032322Y021619D01*
X032301Y021602D01*
X032285Y021587D01*
X032281Y021583D01*
X032264Y021563D01*
X032257Y021553D01*
X032251Y021544D01*
X032246Y021535D01*
X032242Y021526D01*
X03224Y021517D01*
X032238Y021509D01*
X032238Y021501D01*
X032101Y021638D01*
X032109Y021638D01*
X032117Y02164D01*
X032126Y021642D01*
X032135Y021646D01*
X032144Y021651D01*
X032153Y021657D01*
X032163Y021664D01*
X032173Y021672D01*
X032194Y021692D01*
X032283Y021603D01*
X032301Y021799D01*
X03235Y02175D01*
D02*
G37*
G36*
X031717Y021102D02*
X031711Y021107D01*
X031704Y021112D01*
X031697Y021117D01*
X031688Y021121D01*
X031678Y021124D01*
X031667Y021126D01*
X031656Y021128D01*
X031643Y02113D01*
X031614Y021131D01*
X031622Y021269D01*
X031637Y021269D01*
X031663Y021271D01*
X031675Y021273D01*
X031686Y021275D01*
X031696Y021278D01*
X031705Y021281D01*
X031713Y021285D01*
X03172Y02129D01*
X031726Y021294D01*
X031717Y021102D01*
D02*
G37*
G36*
X032791Y021196D02*
X032787Y021189D01*
X032782Y021181D01*
X032779Y021172D01*
X032776Y021162D01*
X032773Y021151D01*
X032771Y021139D01*
X03277Y021127D01*
X032769Y021098D01*
X032631D01*
X032631Y021113D01*
X032629Y021139D01*
X032627Y021151D01*
X032624Y021162D01*
X032621Y021172D01*
X032618Y021181D01*
X032613Y021189D01*
X032609Y021196D01*
X032604Y021202D01*
X032796D01*
X032791Y021196D01*
D02*
G37*
G36*
X032629Y021528D02*
X032565Y021502D01*
X032498Y021435D01*
X032462Y021347D01*
Y021253D01*
X032498Y021165D01*
X032524Y02114D01*
X032524Y02114D01*
X032524Y021138D01*
X032525Y021137D01*
X032526Y021136D01*
X032527Y021132D01*
X032527Y021127D01*
X032528Y021122D01*
Y020847D01*
X032486Y020819D01*
X032441Y020838D01*
X032346D01*
X032259Y020802D01*
X032237Y02078D01*
X032235Y02078D01*
X032221Y020778D01*
X031495D01*
X031427Y020765D01*
X031369Y020726D01*
X031322Y02068D01*
X031272Y0207D01*
Y021028D01*
X031638D01*
X031641Y021028D01*
X031646Y021027D01*
X03165Y021026D01*
X03165Y021026D01*
X03165Y021025D01*
X031652Y021025D01*
X031653Y021024D01*
X031685Y020992D01*
X031772Y020956D01*
X031867D01*
X031954Y020992D01*
X032021Y021059D01*
X032058Y021146D01*
Y021216D01*
X032058Y021241D01*
X032103Y021262D01*
X032147D01*
X032235Y021298D01*
X032302Y021365D01*
X032338Y021453D01*
Y021489D01*
X032338Y021489D01*
X032338Y02149D01*
X032339Y021491D01*
X032339Y021493D01*
X032342Y021496D01*
X032344Y0215D01*
X032348Y021504D01*
X032372Y021528D01*
X032382Y021537D01*
X032397Y021547D01*
X032412Y021555D01*
X032428Y021562D01*
X032444Y021568D01*
X03246Y021573D01*
X032478Y021576D01*
X032491Y021578D01*
X032619D01*
X032629Y021528D01*
D02*
G37*
G36*
X032295Y020504D02*
X03229Y020508D01*
X032284Y020511D01*
X032277Y020514D01*
X032269Y020517D01*
X032259Y02052D01*
X032249Y020522D01*
X032237Y020523D01*
X03221Y020525D01*
X032195Y020525D01*
Y020675D01*
X03221Y020675D01*
X032249Y020678D01*
X032259Y02068D01*
X032269Y020683D01*
X032277Y020686D01*
X032284Y020689D01*
X03229Y020692D01*
X032295Y020696D01*
Y020504D01*
D02*
G37*
G36*
X032227Y020422D02*
X032233Y020421D01*
X032237Y02042D01*
X032259Y020398D01*
X032346Y020362D01*
X032355D01*
X032376Y020312D01*
X032348Y020285D01*
X032312Y020197D01*
Y020103D01*
X032292Y020072D01*
X031272D01*
Y020181D01*
X031322Y020211D01*
X031383Y020186D01*
X031478D01*
X031565Y020222D01*
X031632Y020289D01*
X031668Y020377D01*
Y020422D01*
X032227D01*
X032227Y020422D01*
D02*
G37*
G36*
X032742Y020244D02*
X032731Y020233D01*
X032706Y020204D01*
X032699Y020196D01*
X032695Y020188D01*
X032691Y020181D01*
X032688Y020175D01*
X032687Y020169D01*
X032687Y020164D01*
X032564Y020287D01*
X032569Y020287D01*
X032575Y020288D01*
X032581Y020291D01*
X032588Y020295D01*
X032596Y020299D01*
X032604Y020306D01*
X032623Y020321D01*
X032644Y020342D01*
X032742Y020244D01*
D02*
G37*
G36*
X032676Y019886D02*
X032562Y019746D01*
X032561Y019751D01*
X032559Y019756D01*
X032555Y01976D01*
X032549Y019764D01*
X032542Y019767D01*
X032533Y01977D01*
X032522Y019772D01*
X03251Y019773D01*
X032497Y019774D01*
X032482Y019774D01*
X032516Y019912D01*
X032676Y019886D01*
D02*
G37*
G36*
X035919Y015387D02*
X035921Y015361D01*
X035923Y015349D01*
X035926Y015338D01*
X035929Y015328D01*
X035932Y015319D01*
X035937Y015311D01*
X035941Y015304D01*
X035946Y015298D01*
X035754D01*
X035759Y015304D01*
X035763Y015311D01*
X035768Y015319D01*
X035771Y015328D01*
X035774Y015338D01*
X035777Y015349D01*
X035779Y015361D01*
X03578Y015373D01*
X035781Y015402D01*
X035919D01*
X035919Y015387D01*
D02*
G37*
G36*
X035954Y013891D02*
X035961Y013887D01*
X035969Y013882D01*
X035978Y013879D01*
X035988Y013876D01*
X035999Y013873D01*
X036011Y013871D01*
X036023Y01387D01*
X036052Y013869D01*
Y013731D01*
X036037Y013731D01*
X036011Y013729D01*
X035999Y013727D01*
X035988Y013724D01*
X035978Y013721D01*
X035969Y013718D01*
X035961Y013713D01*
X035954Y013709D01*
X035948Y013704D01*
Y013896D01*
X035954Y013891D01*
D02*
G37*
G36*
X039154Y012241D02*
X039161Y012237D01*
X039169Y012232D01*
X039178Y012229D01*
X039188Y012226D01*
X039199Y012223D01*
X039211Y012221D01*
X039223Y01222D01*
X039252Y012219D01*
Y012081D01*
X039237Y012081D01*
X039211Y012079D01*
X039199Y012077D01*
X039188Y012074D01*
X039178Y012071D01*
X039169Y012068D01*
X039161Y012063D01*
X039154Y012059D01*
X039148Y012054D01*
Y012246D01*
X039154Y012241D01*
D02*
G37*
G36*
X040302Y011954D02*
X040296Y011959D01*
X040289Y011963D01*
X040281Y011968D01*
X040272Y011971D01*
X040262Y011974D01*
X040251Y011977D01*
X040239Y011979D01*
X040227Y01198D01*
X040198Y011981D01*
Y012119D01*
X040213Y012119D01*
X040239Y012121D01*
X040251Y012123D01*
X040262Y012126D01*
X040272Y012129D01*
X040281Y012132D01*
X040289Y012137D01*
X040296Y012141D01*
X040302Y012146D01*
Y011954D01*
D02*
G37*
G36*
X039717Y011931D02*
X039737Y011914D01*
X039747Y011907D01*
X039756Y011901D01*
X039765Y011896D01*
X039774Y011892D01*
X039783Y01189D01*
X039791Y011888D01*
X039799Y011888D01*
X039662Y011751D01*
X039662Y011759D01*
X03966Y011767D01*
X039658Y011776D01*
X039654Y011785D01*
X039649Y011794D01*
X039643Y011803D01*
X039636Y011813D01*
X039628Y011823D01*
X039608Y011844D01*
X039706Y011942D01*
X039717Y011931D01*
D02*
G37*
G36*
X018788Y015791D02*
X01879Y015783D01*
X018792Y015774D01*
X018796Y015765D01*
X018801Y015756D01*
X018807Y015747D01*
X018814Y015737D01*
X018822Y015727D01*
X018842Y015706D01*
X018744Y015608D01*
X018733Y015619D01*
X018713Y015636D01*
X018703Y015643D01*
X018694Y015649D01*
X018685Y015654D01*
X018676Y015658D01*
X018667Y01566D01*
X018659Y015662D01*
X018651Y015662D01*
X018788Y015799D01*
X018788Y015791D01*
D02*
G37*
G36*
X01912Y011663D02*
X019123Y011641D01*
X019129Y011622D01*
X019137Y011605D01*
X019147Y01159D01*
X01916Y011577D01*
X019175Y011567D01*
X019192Y011558D01*
X019211Y011552D01*
X019233Y011548D01*
X018957Y01136D01*
X018962Y01138D01*
X018969Y011427D01*
X018975Y011481D01*
X01898Y011576D01*
X018981Y01165D01*
X019119Y011686D01*
X01912Y011663D01*
D02*
G37*
D17*
X03985Y0186D02*
Y019255D01*
X03979Y019316D02*
X03985Y019255D01*
X0352Y022457D02*
X035314D01*
X034772Y022028D02*
X0352Y022457D01*
X034772Y02185D02*
Y022028D01*
X035314Y022457D02*
X035318Y022461D01*
X035577Y022457D02*
X03711D01*
X035573Y022461D02*
X035577Y022457D01*
X036995Y022155D02*
X037036Y022114D01*
X035445Y022155D02*
X036995D01*
X035318Y022461D02*
X035573D01*
X03235Y02175D02*
X0324Y0218D01*
X0321Y0215D02*
X03235Y02175D01*
X03305D01*
X03355Y02125D01*
Y01995D02*
Y02125D01*
Y01995D02*
X03585Y01765D01*
Y0152D02*
Y01765D01*
Y0138D02*
X03705D01*
X038Y01285D01*
X0392D01*
X04Y01205D01*
X0404D01*
X03905Y01215D02*
X0394D01*
X0398Y01175D01*
X03875Y02465D02*
Y025909D01*
X038891Y02605D02*
X0405D01*
X03875Y025909D02*
X038891Y02605D01*
X03395Y0259D02*
X03445Y0254D01*
X03395Y0259D02*
Y026607D01*
X036068Y022968D02*
Y023657D01*
X0378Y0239D02*
X0379Y0238D01*
X0378Y0239D02*
Y0247D01*
X0359Y0228D02*
X036068Y022968D01*
X037493Y024573D02*
X0375Y024566D01*
X03735Y025D02*
X0375Y02485D01*
Y0236D02*
Y024566D01*
Y024834D02*
Y02485D01*
X037493Y024573D02*
Y024827D01*
X0375Y024834D01*
X0379Y0221D02*
Y0232D01*
X0375Y0236D02*
X0379Y0232D01*
Y0238D02*
X03875Y02465D01*
X0405Y02605D02*
X04075Y0258D01*
X0395Y0218D02*
Y0257D01*
X04075Y02535D02*
Y0258D01*
X0404Y025D02*
X04075Y02535D01*
X0404Y02285D02*
Y025D01*
X0312Y0212D02*
X031813D01*
X0311Y02D02*
Y0211D01*
X0312Y0199D02*
X032366D01*
X031813Y0212D02*
X03182Y021193D01*
X0311Y0211D02*
X0312Y0212D01*
X0311Y02D02*
X0312Y0199D01*
X02205Y02025D02*
Y02155D01*
X0324Y0218D02*
Y02345D01*
X034602Y026298D02*
X035898D01*
X040752D01*
X03445Y0241D02*
Y0254D01*
X0346Y0263D02*
X034602Y026298D01*
X03395Y02135D02*
Y0236D01*
X03445Y0241D01*
X03425Y02105D02*
X03555D01*
X04405Y02555D02*
X0441Y0255D01*
X04405D02*
X0441D01*
X0415Y02555D02*
X04405D01*
X040752Y026298D02*
X0415Y02555D01*
X044Y01545D02*
Y0185D01*
X0126Y01785D02*
Y0187D01*
Y01785D02*
X01265Y0178D01*
X032423Y019843D02*
X032607D01*
X032366Y0199D02*
X032423Y019843D01*
X032607D02*
X0327Y01975D01*
X03255Y02015D02*
X0327Y0203D01*
Y0213D01*
X03395Y02135D02*
X03425Y02105D01*
X0399Y0212D02*
X0401Y0214D01*
X03925Y0212D02*
X0399D01*
X03895Y0215D02*
X03925Y0212D01*
X03711Y022457D02*
X037773Y021793D01*
X03765Y0215D02*
X03895D01*
X037036Y022114D02*
X03765Y0215D01*
X038943Y021793D02*
X039074Y021924D01*
X037773Y021793D02*
X038943D01*
X039074Y021924D02*
Y022616D01*
X0399Y0221D02*
X0401Y0219D01*
Y0214D02*
Y0219D01*
X0367Y025D02*
X03735D01*
X0395Y0218D02*
X0397Y0216D01*
X03485Y0202D02*
X036D01*
X04175Y0261D02*
Y02705D01*
X02815Y0166D02*
X0308D01*
X032805Y014595D02*
X039595D01*
X0308Y0166D02*
X032805Y014595D01*
X02805Y0167D02*
X02815Y0166D01*
X039595Y014595D02*
X0397Y0147D01*
X01905Y01145D02*
X0192Y0113D01*
X01905Y01145D02*
Y0154D01*
X01865Y0158D02*
X01905Y0154D01*
D83*
X031431Y020424D02*
Y020536D01*
X031495Y0206D01*
X032393D01*
D84*
X01338Y02314D02*
X01365Y02341D01*
Y02435D01*
X044657Y025747D02*
Y027708D01*
Y025747D02*
X044763Y025641D01*
D85*
X02425Y015984D02*
D03*
X0246Y028834D02*
D03*
D86*
X02425Y014016D02*
D03*
X0246Y026866D02*
D03*
D87*
X03145Y0289D02*
D03*
X02745D02*
D03*
D88*
X0157Y028702D02*
D03*
D89*
X0167D02*
D03*
X0177D02*
D03*
D90*
X01865Y0158D02*
D03*
X0179D02*
D03*
X01725D02*
D03*
X03979Y019316D02*
D03*
X034772Y02185D02*
D03*
X035445Y022155D02*
D03*
X036692Y022806D02*
D03*
X03585Y0152D02*
D03*
Y0138D02*
D03*
X0398Y01175D02*
D03*
X0404Y01205D02*
D03*
X0396Y0275D02*
D03*
X04435Y018D02*
D03*
X04495Y0142D02*
D03*
X04565Y01575D02*
D03*
X0451Y01275D02*
D03*
X03395Y026607D02*
D03*
X036068Y023657D02*
D03*
X035352Y02419D02*
D03*
X0378Y0247D02*
D03*
X0359Y0228D02*
D03*
X0379Y0238D02*
D03*
X0395Y0257D02*
D03*
X031431Y020424D02*
D03*
X03182Y021193D02*
D03*
X02205Y02025D02*
D03*
Y02155D02*
D03*
X0321Y0215D02*
D03*
X0324Y02345D02*
D03*
X02255Y02D02*
D03*
X025583D02*
D03*
X024067D02*
D03*
X024825D02*
D03*
X023308D02*
D03*
X026342D02*
D03*
X0271D02*
D03*
X0346Y0263D02*
D03*
X0324Y0244D02*
D03*
X04405Y0255D02*
D03*
X0442Y0227D02*
D03*
X0434D02*
D03*
X044Y0185D02*
D03*
X03905Y01215D02*
D03*
X0126Y0187D02*
D03*
X01265Y0178D02*
D03*
X0148Y0191D02*
D03*
X0331Y02775D02*
D03*
X0346Y02745D02*
D03*
X0351Y0278D02*
D03*
X0346D02*
D03*
X03355D02*
D03*
X0326Y02775D02*
D03*
X03355Y0274D02*
D03*
X0331D02*
D03*
X03265D02*
D03*
X0327Y01975D02*
D03*
X03255Y02015D02*
D03*
X032393Y0206D02*
D03*
X03185Y0132D02*
D03*
Y01205D02*
D03*
X03555Y02105D02*
D03*
X01765Y0234D02*
D03*
X01955D02*
D03*
X01975Y02145D02*
D03*
X039074Y022616D02*
D03*
X0379Y0221D02*
D03*
X0399D02*
D03*
X02395Y0231D02*
D03*
X024Y02455D02*
D03*
X0367Y025D02*
D03*
X035898Y026298D02*
D03*
X0397Y0216D02*
D03*
X0404Y02285D02*
D03*
X042365Y024602D02*
D03*
X036Y0202D02*
D03*
X03485D02*
D03*
X0385Y02085D02*
D03*
X0327Y0213D02*
D03*
X03985Y0253D02*
D03*
X04035Y02555D02*
D03*
X04245Y02275D02*
D03*
X04175Y02705D02*
D03*
Y0261D02*
D03*
X03655Y0246D02*
D03*
X03395Y02485D02*
D03*
X033955Y024365D02*
D03*
X0272Y0244D02*
D03*
X02725Y0235D02*
D03*
X01465Y0132D02*
D03*
Y01385D02*
D03*
Y0144D02*
D03*
X01515Y01315D02*
D03*
Y01385D02*
D03*
Y0144D02*
D03*
X02525Y026D02*
D03*
Y02655D02*
D03*
Y02715D02*
D03*
X02595Y026D02*
D03*
Y02655D02*
D03*
Y02715D02*
D03*
X02675Y026D02*
D03*
Y02655D02*
D03*
Y02715D02*
D03*
X02805Y0167D02*
D03*
X0397Y0147D02*
D03*
X01785Y0196D02*
D03*
X0107Y01655D02*
D03*
X044Y01545D02*
D03*
X03795Y0195D02*
D03*
X03835D02*
D03*
Y02D02*
D03*
X03795D02*
D03*
X0373D02*
D03*
X03985Y0186D02*
D03*
X0397Y0131D02*
D03*
X03695Y0109D02*
D03*
X03535Y01095D02*
D03*
X0311Y011D02*
D03*
X01845Y0196D02*
D03*
X0172D02*
D03*
X0173Y0137D02*
D03*
X01795D02*
D03*
X0187D02*
D03*
X01865Y0143D02*
D03*
X0179D02*
D03*
X01723Y014277D02*
D03*
D91*
X01082Y02314D02*
D03*
Y02136D02*
D03*
X01338Y02314D02*
D03*
Y02136D02*
D03*
X01082Y02009D02*
D03*
Y01831D02*
D03*
X01338Y02009D02*
D03*
Y01831D02*
D03*
D92*
X04559Y014396D02*
D03*
Y012428D02*
D03*
D93*
X046653Y01479D02*
D03*
Y012034D02*
D03*
D94*
X01095Y02885D02*
D03*
X046606D02*
D03*
Y010886D02*
D03*
X01085Y01085D02*
D03*
D95*
X044657Y027708D02*
D03*
D96*
Y028692D02*
D03*
D97*
X033345Y017263D02*
D03*
X034068D02*
D03*
X032984Y016902D02*
D03*
X033706D02*
D03*
X034429D02*
D03*
X033345Y016541D02*
D03*
X034068D02*
D03*
X032984Y01618D02*
D03*
X033706D02*
D03*
X034429D02*
D03*
X033345Y015819D02*
D03*
X034068D02*
D03*
D98*
X01365Y02435D02*
D03*
D99*
X01215Y02635D02*
D03*
X01465D02*
D03*
D100*
X02205Y012D02*
D03*
X0192Y0113D02*
D03*
M02*
