G04*
G04 #@! TF.GenerationSoftware,Altium Limited,Altium Designer,21.3.2 (30)*
G04*
G04 Layer_Color=8388736*
%FSTAX24Y24*%
%MOIN*%
G70*
G04*
G04 #@! TF.SameCoordinates,31FF7248-0B4B-413F-84E3-F9EDAC069AC3*
G04*
G04*
G04 #@! TF.FilePolarity,Positive*
G04*
G01*
G75*
%ADD17C,0.0138*%
%ADD18C,0.0033*%
D17*
X029307Y014835D02*
Y015465D01*
X028993Y014835D02*
Y015465D01*
X029307D01*
X028993Y014835D02*
X029307D01*
X028893Y017206D02*
Y017835D01*
X029207Y017206D02*
Y017835D01*
X028893Y017206D02*
X029207D01*
X028893Y017835D02*
X029207D01*
X027943Y017206D02*
Y017835D01*
X028257Y017206D02*
Y017835D01*
X027943Y017206D02*
X028257D01*
X027943Y017835D02*
X028257D01*
X038485Y018143D02*
X039115D01*
X038485Y018457D02*
X039115D01*
Y018143D02*
Y018457D01*
X038485Y018143D02*
Y018457D01*
X038468Y017269D02*
X039098D01*
X038468Y017584D02*
X039098D01*
Y017269D02*
Y017584D01*
X038468Y017269D02*
Y017584D01*
X038398Y014818D02*
X039028D01*
X038398Y015133D02*
X039028D01*
Y014818D02*
Y015133D01*
X038398Y014818D02*
Y015133D01*
X038419Y013323D02*
X039049D01*
X038419Y013638D02*
X039049D01*
Y013323D02*
Y013638D01*
X038419Y013323D02*
Y013638D01*
X038408Y012763D02*
X039038D01*
X038408Y012448D02*
X039038D01*
X038408D02*
Y012763D01*
X039038Y012448D02*
Y012763D01*
X0384Y011443D02*
X03903D01*
X0384Y011757D02*
X03903D01*
Y011443D02*
Y011757D01*
X0384Y011443D02*
Y011757D01*
X041607Y014235D02*
Y014865D01*
X041293Y014235D02*
Y014865D01*
X041607D01*
X041293Y014235D02*
X041607D01*
X041343Y0126D02*
Y01323D01*
X041657Y0126D02*
Y01323D01*
X041343Y0126D02*
X041657D01*
X041343Y01323D02*
X041657D01*
X043835Y013493D02*
X044465D01*
X043835Y013807D02*
X044465D01*
Y013493D02*
Y013807D01*
X043835Y013493D02*
Y013807D01*
Y012593D02*
X044465D01*
X043835Y012907D02*
X044465D01*
Y012593D02*
Y012907D01*
X043835Y012593D02*
Y012907D01*
X04145Y027343D02*
X04208D01*
X04145Y027657D02*
X04208D01*
Y027343D02*
Y027657D01*
X04145Y027343D02*
Y027657D01*
X041434Y026409D02*
X042063D01*
X041434Y026724D02*
X042063D01*
Y026409D02*
Y026724D01*
X041434Y026409D02*
Y026724D01*
X039885Y027343D02*
X040515D01*
X039885Y027657D02*
X040515D01*
Y027343D02*
Y027657D01*
X039885Y027343D02*
Y027657D01*
X0414Y025707D02*
X04203D01*
X0414Y025393D02*
X04203D01*
X0414D02*
Y025707D01*
X04203Y025393D02*
Y025707D01*
X0414Y024757D02*
X04203D01*
X0414Y024443D02*
X04203D01*
X0414D02*
Y024757D01*
X04203Y024443D02*
Y024757D01*
Y023543D02*
Y023857D01*
X0414Y023543D02*
Y023857D01*
Y023543D02*
X04203D01*
X0414Y023857D02*
X04203D01*
X041435Y021693D02*
X042065D01*
X041435Y022007D02*
X042065D01*
Y021693D02*
Y022007D01*
X041435Y021693D02*
Y022007D01*
Y020793D02*
X042065D01*
X041435Y021107D02*
X042065D01*
Y020793D02*
Y021107D01*
X041435Y020793D02*
Y021107D01*
X044048Y021678D02*
Y022308D01*
X044363Y021678D02*
Y022308D01*
X044048Y021678D02*
X044363D01*
X044048Y022308D02*
X044363D01*
X043248Y021678D02*
Y022308D01*
X043563Y021678D02*
Y022308D01*
X043248Y021678D02*
X043563D01*
X043248Y022308D02*
X043563D01*
X037243Y021035D02*
X037557D01*
X037243Y021665D02*
X037557D01*
X037243Y021035D02*
Y021665D01*
X037557Y021035D02*
Y021665D01*
X036618Y021665D02*
X036932D01*
X036618Y021035D02*
X036932D01*
Y021665D01*
X036618Y021035D02*
Y021665D01*
X035993Y021035D02*
X036307D01*
X035993Y021665D02*
X036307D01*
X035993Y021035D02*
Y021665D01*
X036307Y021035D02*
Y021665D01*
X036685Y022707D02*
X037315D01*
X036685Y022393D02*
X037315D01*
X036685D02*
Y022707D01*
X037315Y022393D02*
Y022707D01*
X036093Y025104D02*
X036407D01*
X036093Y024474D02*
X036407D01*
Y025104D01*
X036093Y024474D02*
Y025104D01*
Y026072D02*
X036407D01*
X036093Y025442D02*
X036407D01*
Y026072D01*
X036093Y025442D02*
Y026072D01*
X032243D02*
X032557D01*
X032243Y025442D02*
X032557D01*
Y026072D01*
X032243Y025442D02*
Y026072D01*
Y025104D02*
X032557D01*
X032243Y024474D02*
X032557D01*
Y025104D01*
X032243Y024474D02*
Y025104D01*
X030693Y025335D02*
X031007D01*
X030693Y025965D02*
X031007D01*
X030693Y025335D02*
Y025965D01*
X031007Y025335D02*
Y025965D01*
X029776Y025335D02*
Y025965D01*
X030091Y025335D02*
Y025965D01*
X029776Y025335D02*
X030091D01*
X029776Y025965D02*
X030091D01*
X028859Y025335D02*
Y025965D01*
X029174Y025335D02*
Y025965D01*
X028859Y025335D02*
X029174D01*
X028859Y025965D02*
X029174D01*
X027943Y025335D02*
X028257D01*
X027943Y025965D02*
X028257D01*
X027943Y025335D02*
Y025965D01*
X028257Y025335D02*
Y025965D01*
X028215Y024243D02*
Y024557D01*
X027585Y024243D02*
Y024557D01*
Y024243D02*
X028215D01*
X027585Y024557D02*
X028215D01*
X029815Y024243D02*
Y024557D01*
X029185Y024243D02*
Y024557D01*
Y024243D02*
X029815D01*
X029185Y024557D02*
X029815D01*
X0308Y024243D02*
Y024557D01*
X03143Y024243D02*
Y024557D01*
X0308D02*
X03143D01*
X0308Y024243D02*
X03143D01*
X03143Y023343D02*
Y023657D01*
X0308Y023343D02*
Y023657D01*
Y023343D02*
X03143D01*
X0308Y023657D02*
X03143D01*
X027585Y023343D02*
Y023657D01*
X028215Y023343D02*
Y023657D01*
X027585D02*
X028215D01*
X027585Y023343D02*
X028215D01*
X017493Y02555D02*
X017807D01*
X017493Y02618D02*
X017807D01*
X017493Y02555D02*
Y02618D01*
X017807Y02555D02*
Y02618D01*
X020257Y021335D02*
Y021965D01*
X019943Y021335D02*
Y021965D01*
X020257D01*
X019943Y021335D02*
X020257D01*
X014643Y021832D02*
X014957D01*
X014643Y021202D02*
X014957D01*
Y021832D01*
X014643Y021202D02*
Y021832D01*
Y019569D02*
X014957D01*
X014643Y020198D02*
X014957D01*
X014643Y019569D02*
Y020198D01*
X014957Y019569D02*
Y020198D01*
X011765Y016393D02*
Y016707D01*
X011135Y016393D02*
Y016707D01*
Y016393D02*
X011765D01*
X011135Y016707D02*
X011765D01*
X018773Y014803D02*
Y015433D01*
X018458Y014803D02*
Y015433D01*
X018773D01*
X018458Y014803D02*
X018773D01*
X018082D02*
Y015433D01*
X017768Y014803D02*
Y015433D01*
X018082D01*
X017768Y014803D02*
X018082D01*
X021343Y01368D02*
X021657D01*
X021343Y01305D02*
X021657D01*
Y01368D01*
X021343Y01305D02*
Y01368D01*
Y011385D02*
Y012015D01*
X021657Y011385D02*
Y012015D01*
X021343Y011385D02*
X021657D01*
X021343Y012015D02*
X021657D01*
X01977Y011507D02*
X0204D01*
X01977Y011193D02*
X0204D01*
X01977D02*
Y011507D01*
X0204Y011193D02*
Y011507D01*
X018458Y012585D02*
Y013215D01*
X018773Y012585D02*
Y013215D01*
X018458Y012585D02*
X018773D01*
X018458Y013215D02*
X018773D01*
X017768Y012585D02*
Y013215D01*
X018082Y012585D02*
Y013215D01*
X017768Y012585D02*
X018082D01*
X017768Y013215D02*
X018082D01*
X017093Y012585D02*
Y013215D01*
X017407Y012585D02*
Y013215D01*
X017093Y012585D02*
X017407D01*
X017093Y013215D02*
X017407D01*
X017407Y014803D02*
Y015433D01*
X017093Y014803D02*
Y015433D01*
X017407D01*
X017093Y014803D02*
X017407D01*
X041435Y022907D02*
X042065D01*
X041435Y022593D02*
X042065D01*
X041435D02*
Y022907D01*
X042065Y022593D02*
Y022907D01*
X024985Y023993D02*
X025615D01*
X024985Y024307D02*
X025615D01*
Y023993D02*
Y024307D01*
X024985Y023993D02*
Y024307D01*
X039885Y026443D02*
Y026757D01*
X040515Y026443D02*
Y026757D01*
X039885D02*
X040515D01*
X039885Y026443D02*
X040515D01*
X04355Y023543D02*
Y023857D01*
X04292Y023543D02*
Y023857D01*
Y023543D02*
X04355D01*
X04292Y023857D02*
X04355D01*
X022693Y018836D02*
Y019466D01*
X023007Y018836D02*
Y019466D01*
X022693Y018836D02*
X023007D01*
X022693Y019466D02*
X023007D01*
X023693Y018836D02*
Y019466D01*
X024007Y018836D02*
Y019466D01*
X023693Y018836D02*
X024007D01*
X023693Y019466D02*
X024007D01*
X02458Y018836D02*
Y019466D01*
X024895Y018836D02*
Y019466D01*
X02458Y018836D02*
X024895D01*
X02458Y019466D02*
X024895D01*
X026974Y018836D02*
Y019466D01*
X027289Y018836D02*
Y019466D01*
X026974Y018836D02*
X027289D01*
X026974Y019466D02*
X027289D01*
X027961Y018836D02*
Y019466D01*
X028276Y018836D02*
Y019466D01*
X027961Y018836D02*
X028276D01*
X027961Y019466D02*
X028276D01*
X028843Y018836D02*
Y019466D01*
X029157Y018836D02*
Y019466D01*
X028843Y018836D02*
X029157D01*
X028843Y019466D02*
X029157D01*
X025987Y018836D02*
Y019466D01*
X026302Y018836D02*
Y019466D01*
X025987Y018836D02*
X026302D01*
X025987Y019466D02*
X026302D01*
X018043Y018152D02*
Y018781D01*
X018357Y018152D02*
Y018781D01*
X018043Y018152D02*
X018357D01*
X018043Y018781D02*
X018357D01*
X017093Y01817D02*
Y0188D01*
X017407Y01817D02*
Y0188D01*
X017093Y01817D02*
X017407D01*
X017093Y0188D02*
X017407D01*
X036443Y010935D02*
X036757D01*
X036443Y011565D02*
X036757D01*
X036443Y010935D02*
Y011565D01*
X036757Y010935D02*
Y011565D01*
X035543Y010935D02*
X035857D01*
X035543Y011565D02*
X035857D01*
X035543Y010935D02*
Y011565D01*
X035857Y010935D02*
Y011565D01*
X030538Y011007D02*
X030853D01*
X030538Y011637D02*
X030853D01*
X030538Y011007D02*
Y011637D01*
X030853Y011007D02*
Y011637D01*
X033607Y02835D02*
Y02898D01*
X033293Y02835D02*
Y02898D01*
X033607D01*
X033293Y02835D02*
X033607D01*
X034507D02*
Y02898D01*
X034193Y02835D02*
Y02898D01*
X034507D01*
X034193Y02835D02*
X034507D01*
X032706Y028335D02*
Y028965D01*
X032391Y028335D02*
Y028965D01*
X032706D01*
X032391Y028335D02*
X032706D01*
X029743Y026885D02*
X030057D01*
X029743Y027515D02*
X030057D01*
X029743Y026885D02*
Y027515D01*
X030057Y026885D02*
Y027515D01*
X028893Y026885D02*
X029207D01*
X028893Y027515D02*
X029207D01*
X028893Y026885D02*
Y027515D01*
X029207Y026885D02*
Y027515D01*
X042935Y024756D02*
X043565D01*
X042935Y024441D02*
X043565D01*
X042935D02*
Y024756D01*
X043565Y024441D02*
Y024756D01*
X024985Y021993D02*
Y022307D01*
X025615Y021993D02*
Y022307D01*
X024985D02*
X025615D01*
X024985Y021993D02*
X025615D01*
D18*
X029052Y014913D02*
X029037Y014943D01*
X028992Y014988D01*
X029307D01*
X029007Y014973D02*
X029307D01*
Y014913D02*
Y015048D01*
X028992Y015147D02*
X029307D01*
X028992Y015162D02*
X029307D01*
X028992Y015357D02*
X029187Y015162D01*
X029127Y015237D02*
X029307Y015357D01*
X029127Y015222D02*
X029307Y015342D01*
X028992Y015102D02*
Y015207D01*
Y015297D02*
Y015387D01*
X029307Y015102D02*
Y015207D01*
Y015297D02*
Y015387D01*
X029148Y017886D02*
X029163Y017856D01*
X029208Y017811D01*
X028893D01*
X029193Y017826D02*
X028893D01*
Y017886D02*
Y017751D01*
X029208Y017607D02*
X029193Y017652D01*
X029148Y017682D01*
X029073Y017697D01*
X029028D01*
X028953Y017682D01*
X028908Y017652D01*
X028893Y017607D01*
Y017577D01*
X028908Y017532D01*
X028953Y017502D01*
X029028Y017487D01*
X029073D01*
X029148Y017502D01*
X029193Y017532D01*
X029208Y017577D01*
Y017607D01*
X029193Y017637D01*
X029178Y017652D01*
X029148Y017667D01*
X029073Y017682D01*
X029028D01*
X028953Y017667D01*
X028923Y017652D01*
X028908Y017637D01*
X028893Y017607D01*
Y017577D02*
X028908Y017547D01*
X028923Y017532D01*
X028953Y017517D01*
X029028Y017502D01*
X029073D01*
X029148Y017517D01*
X029178Y017532D01*
X029193Y017547D01*
X029208Y017577D01*
Y017395D02*
X028893D01*
X029208Y01738D02*
X028893D01*
X029208Y017185D02*
X029013Y01738D01*
X029073Y017305D02*
X028893Y017185D01*
X029073Y01732D02*
X028893Y0172D01*
X029208Y01744D02*
Y017335D01*
Y017245D02*
Y017155D01*
X028893Y01744D02*
Y017335D01*
Y017245D02*
Y017155D01*
X028258Y017694D02*
X028243Y017739D01*
X028198Y017769D01*
X028123Y017784D01*
X028078D01*
X028003Y017769D01*
X027958Y017739D01*
X027943Y017694D01*
Y017664D01*
X027958Y017619D01*
X028003Y017589D01*
X028078Y017574D01*
X028123D01*
X028198Y017589D01*
X028243Y017619D01*
X028258Y017664D01*
Y017694D01*
X028243Y017724D01*
X028228Y017739D01*
X028198Y017754D01*
X028123Y017769D01*
X028078D01*
X028003Y017754D01*
X027973Y017739D01*
X027958Y017724D01*
X027943Y017694D01*
Y017664D02*
X027958Y017634D01*
X027973Y017619D01*
X028003Y017604D01*
X028078Y017589D01*
X028123D01*
X028198Y017604D01*
X028228Y017619D01*
X028243Y017634D01*
X028258Y017664D01*
Y017482D02*
X027943D01*
X028258Y017467D02*
X027943D01*
X028258Y017527D02*
Y017347D01*
X028243Y017302D01*
X028228Y017287D01*
X028198Y017272D01*
X028168D01*
X028138Y017287D01*
X028123Y017302D01*
X028108Y017347D01*
Y017467D01*
X028258Y017347D02*
X028243Y017317D01*
X028228Y017302D01*
X028198Y017287D01*
X028168D01*
X028138Y017302D01*
X028123Y017317D01*
X028108Y017347D01*
X027943Y017527D02*
Y017422D01*
X028108Y017392D02*
X028093Y017362D01*
X028078Y017347D01*
X027973Y017302D01*
X027958Y017287D01*
Y017272D01*
X027973Y017257D01*
X028093Y017362D02*
X028063Y017347D01*
X027958Y017317D01*
X027943Y017302D01*
Y017272D01*
X027973Y017257D01*
X027988D01*
X038424Y018398D02*
X038439Y018383D01*
X038424Y018368D01*
X038409Y018383D01*
Y018398D01*
X038424Y018428D01*
X038439Y018443D01*
X038484Y018458D01*
X038544D01*
X038589Y018443D01*
X038604Y018428D01*
X038619Y018398D01*
Y018368D01*
X038604Y018338D01*
X038559Y018308D01*
X038484Y018278D01*
X038454Y018263D01*
X038424Y018233D01*
X038409Y018188D01*
Y018143D01*
X038544Y018458D02*
X038574Y018443D01*
X038589Y018428D01*
X038604Y018398D01*
Y018368D01*
X038589Y018338D01*
X038544Y018308D01*
X038484Y018278D01*
X038409Y018173D02*
X038424Y018188D01*
X038454D01*
X038529Y018158D01*
X038574D01*
X038604Y018173D01*
X038619Y018188D01*
Y018218D01*
X038454Y018188D02*
X038529Y018143D01*
X038589D01*
X038604Y018158D01*
X038619Y018188D01*
X03868Y018398D02*
X038695Y018383D01*
X03868Y018368D01*
X038665Y018383D01*
Y018398D01*
X03868Y018428D01*
X038695Y018443D01*
X03874Y018458D01*
X0388D01*
X038845Y018443D01*
X03886Y018428D01*
X038875Y018398D01*
Y018368D01*
X03886Y018338D01*
X038815Y018308D01*
X03874Y018278D01*
X03871Y018263D01*
X03868Y018233D01*
X038665Y018188D01*
Y018143D01*
X0388Y018458D02*
X03883Y018443D01*
X038845Y018428D01*
X03886Y018398D01*
Y018368D01*
X038845Y018338D01*
X0388Y018308D01*
X03874Y018278D01*
X038665Y018173D02*
X03868Y018188D01*
X03871D01*
X038785Y018158D01*
X03883D01*
X03886Y018173D01*
X038875Y018188D01*
Y018218D01*
X03871Y018188D02*
X038785Y018143D01*
X038845D01*
X03886Y018158D01*
X038875Y018188D01*
X038966Y018458D02*
Y018143D01*
X038981Y018458D02*
Y018143D01*
X038921Y018458D02*
X039101D01*
X039146Y018443D01*
X039161Y018428D01*
X039176Y018398D01*
Y018368D01*
X039161Y018338D01*
X039146Y018323D01*
X039101Y018308D01*
X038981D01*
X039101Y018458D02*
X039131Y018443D01*
X039146Y018428D01*
X039161Y018398D01*
Y018368D01*
X039146Y018338D01*
X039131Y018323D01*
X039101Y018308D01*
X038921Y018143D02*
X039026D01*
X039056Y018308D02*
X039086Y018293D01*
X039101Y018278D01*
X039146Y018173D01*
X039161Y018158D01*
X039176D01*
X039191Y018173D01*
X039086Y018293D02*
X039101Y018263D01*
X039131Y018158D01*
X039146Y018143D01*
X039176D01*
X039191Y018173D01*
Y018188D01*
X038407Y017524D02*
X038422Y017509D01*
X038407Y017494D01*
X038392Y017509D01*
Y017524D01*
X038407Y017554D01*
X038422Y017569D01*
X038467Y017584D01*
X038527D01*
X038572Y017569D01*
X038587Y017554D01*
X038602Y017524D01*
Y017494D01*
X038587Y017465D01*
X038542Y017435D01*
X038467Y017405D01*
X038437Y01739D01*
X038407Y01736D01*
X038392Y017315D01*
Y01727D01*
X038527Y017584D02*
X038557Y017569D01*
X038572Y017554D01*
X038587Y017524D01*
Y017494D01*
X038572Y017465D01*
X038527Y017435D01*
X038467Y017405D01*
X038392Y0173D02*
X038407Y017315D01*
X038437D01*
X038512Y017285D01*
X038557D01*
X038587Y0173D01*
X038602Y017315D01*
Y017345D01*
X038437Y017315D02*
X038512Y01727D01*
X038572D01*
X038587Y017285D01*
X038602Y017315D01*
X038663Y017524D02*
X038678Y017509D01*
X038663Y017494D01*
X038648Y017509D01*
Y017524D01*
X038663Y017554D01*
X038678Y017569D01*
X038723Y017584D01*
X038783D01*
X038828Y017569D01*
X038843Y017554D01*
X038858Y017524D01*
Y017494D01*
X038843Y017465D01*
X038798Y017435D01*
X038723Y017405D01*
X038693Y01739D01*
X038663Y01736D01*
X038648Y017315D01*
Y01727D01*
X038783Y017584D02*
X038813Y017569D01*
X038828Y017554D01*
X038843Y017524D01*
Y017494D01*
X038828Y017465D01*
X038783Y017435D01*
X038723Y017405D01*
X038648Y0173D02*
X038663Y017315D01*
X038693D01*
X038768Y017285D01*
X038813D01*
X038843Y0173D01*
X038858Y017315D01*
Y017345D01*
X038693Y017315D02*
X038768Y01727D01*
X038828D01*
X038843Y017285D01*
X038858Y017315D01*
X03895Y017584D02*
Y01727D01*
X038965Y017584D02*
Y01727D01*
X038905Y017584D02*
X039085D01*
X03913Y017569D01*
X039145Y017554D01*
X03916Y017524D01*
Y017494D01*
X039145Y017465D01*
X03913Y01745D01*
X039085Y017435D01*
X038965D01*
X039085Y017584D02*
X039115Y017569D01*
X03913Y017554D01*
X039145Y017524D01*
Y017494D01*
X03913Y017465D01*
X039115Y01745D01*
X039085Y017435D01*
X038905Y01727D02*
X03901D01*
X03904Y017435D02*
X03907Y01742D01*
X039085Y017405D01*
X03913Y0173D01*
X039145Y017285D01*
X03916D01*
X039175Y0173D01*
X03907Y01742D02*
X039085Y01739D01*
X039115Y017285D01*
X03913Y01727D01*
X03916D01*
X039175Y0173D01*
Y017315D01*
X038348Y015073D02*
X038378Y015088D01*
X038423Y015133D01*
Y014818D01*
X038408Y015118D02*
Y014818D01*
X038348D02*
X038483D01*
X038627Y015133D02*
X038582Y015118D01*
X038552Y015073D01*
X038537Y014998D01*
Y014953D01*
X038552Y014878D01*
X038582Y014833D01*
X038627Y014818D01*
X038657D01*
X038702Y014833D01*
X038732Y014878D01*
X038747Y014953D01*
Y014998D01*
X038732Y015073D01*
X038702Y015118D01*
X038657Y015133D01*
X038627D01*
X038597Y015118D01*
X038582Y015103D01*
X038567Y015073D01*
X038552Y014998D01*
Y014953D01*
X038567Y014878D01*
X038582Y014848D01*
X038597Y014833D01*
X038627Y014818D01*
X038657D02*
X038687Y014833D01*
X038702Y014848D01*
X038717Y014878D01*
X038732Y014953D01*
Y014998D01*
X038717Y015073D01*
X038702Y015103D01*
X038687Y015118D01*
X038657Y015133D01*
X038838D02*
Y014818D01*
X038853Y015133D02*
Y014818D01*
X039048Y015133D02*
X038853Y014938D01*
X038928Y014998D02*
X039048Y014818D01*
X038913Y014998D02*
X039033Y014818D01*
X038793Y015133D02*
X038898D01*
X038988D02*
X039078D01*
X038793Y014818D02*
X038898D01*
X038988D02*
X039078D01*
X038368Y013578D02*
X038398Y013593D01*
X038443Y013638D01*
Y013323D01*
X038428Y013623D02*
Y013323D01*
X038368D02*
X038503D01*
X038647Y013638D02*
X038602Y013623D01*
X038572Y013578D01*
X038557Y013503D01*
Y013458D01*
X038572Y013383D01*
X038602Y013338D01*
X038647Y013323D01*
X038677D01*
X038722Y013338D01*
X038752Y013383D01*
X038767Y013458D01*
Y013503D01*
X038752Y013578D01*
X038722Y013623D01*
X038677Y013638D01*
X038647D01*
X038617Y013623D01*
X038602Y013608D01*
X038587Y013578D01*
X038572Y013503D01*
Y013458D01*
X038587Y013383D01*
X038602Y013353D01*
X038617Y013338D01*
X038647Y013323D01*
X038677D02*
X038707Y013338D01*
X038722Y013353D01*
X038737Y013383D01*
X038752Y013458D01*
Y013503D01*
X038737Y013578D01*
X038722Y013608D01*
X038707Y013623D01*
X038677Y013638D01*
X038859D02*
Y013323D01*
X038874Y013638D02*
Y013323D01*
X039069Y013638D02*
X038874Y013443D01*
X038949Y013503D02*
X039069Y013323D01*
X038934Y013503D02*
X039054Y013323D01*
X038814Y013638D02*
X038919D01*
X039009D02*
X039099D01*
X038814Y013323D02*
X038919D01*
X039009D02*
X039099D01*
X039088Y012508D02*
X039058Y012493D01*
X039013Y012448D01*
Y012763D01*
X039028Y012463D02*
Y012763D01*
X039088D02*
X038953D01*
X038809Y012448D02*
X038854Y012463D01*
X038884Y012508D01*
X038899Y012583D01*
Y012628D01*
X038884Y012703D01*
X038854Y012748D01*
X038809Y012763D01*
X038779D01*
X038734Y012748D01*
X038704Y012703D01*
X038689Y012628D01*
Y012583D01*
X038704Y012508D01*
X038734Y012463D01*
X038779Y012448D01*
X038809D01*
X038839Y012463D01*
X038854Y012478D01*
X038869Y012508D01*
X038884Y012583D01*
Y012628D01*
X038869Y012703D01*
X038854Y012733D01*
X038839Y012748D01*
X038809Y012763D01*
X038779D02*
X038749Y012748D01*
X038734Y012733D01*
X038719Y012703D01*
X038704Y012628D01*
Y012583D01*
X038719Y012508D01*
X038734Y012478D01*
X038749Y012463D01*
X038779Y012448D01*
X038598D02*
Y012763D01*
X038583Y012448D02*
Y012763D01*
X038388Y012448D02*
X038583Y012643D01*
X038508Y012583D02*
X038388Y012763D01*
X038523Y012583D02*
X038403Y012763D01*
X038643Y012448D02*
X038538D01*
X038448D02*
X038358D01*
X038643Y012763D02*
X038538D01*
X038448D02*
X038358D01*
X038542Y011758D02*
X038497Y011743D01*
X038467Y011698D01*
X038452Y011623D01*
Y011578D01*
X038467Y011503D01*
X038497Y011458D01*
X038542Y011443D01*
X038572D01*
X038617Y011458D01*
X038647Y011503D01*
X038662Y011578D01*
Y011623D01*
X038647Y011698D01*
X038617Y011743D01*
X038572Y011758D01*
X038542D01*
X038512Y011743D01*
X038497Y011728D01*
X038482Y011698D01*
X038467Y011623D01*
Y011578D01*
X038482Y011503D01*
X038497Y011473D01*
X038512Y011458D01*
X038542Y011443D01*
X038572D02*
X038602Y011458D01*
X038617Y011473D01*
X038632Y011503D01*
X038647Y011578D01*
Y011623D01*
X038632Y011698D01*
X038617Y011728D01*
X038602Y011743D01*
X038572Y011758D01*
X038753D02*
Y011443D01*
X038768Y011758D02*
Y011443D01*
X038708Y011758D02*
X038888D01*
X038933Y011743D01*
X038948Y011728D01*
X038963Y011698D01*
Y011668D01*
X038948Y011638D01*
X038933Y011623D01*
X038888Y011608D01*
X038768D01*
X038888Y011758D02*
X038918Y011743D01*
X038933Y011728D01*
X038948Y011698D01*
Y011668D01*
X038933Y011638D01*
X038918Y011623D01*
X038888Y011608D01*
X038708Y011443D02*
X038813D01*
X038843Y011608D02*
X038873Y011593D01*
X038888Y011578D01*
X038933Y011473D01*
X038948Y011458D01*
X038963D01*
X038978Y011473D01*
X038873Y011593D02*
X038888Y011563D01*
X038918Y011458D01*
X038933Y011443D01*
X038963D01*
X038978Y011473D01*
Y011488D01*
X041352Y014185D02*
X041337Y014215D01*
X041292Y01426D01*
X041607D01*
X041307Y014245D02*
X041607D01*
Y014185D02*
Y01432D01*
X041292Y014464D02*
X041307Y014419D01*
X041352Y014389D01*
X041427Y014374D01*
X041472D01*
X041547Y014389D01*
X041592Y014419D01*
X041607Y014464D01*
Y014494D01*
X041592Y014539D01*
X041547Y014569D01*
X041472Y014584D01*
X041427D01*
X041352Y014569D01*
X041307Y014539D01*
X041292Y014494D01*
Y014464D01*
X041307Y014434D01*
X041322Y014419D01*
X041352Y014404D01*
X041427Y014389D01*
X041472D01*
X041547Y014404D01*
X041577Y014419D01*
X041592Y014434D01*
X041607Y014464D01*
Y014494D02*
X041592Y014524D01*
X041577Y014539D01*
X041547Y014554D01*
X041472Y014569D01*
X041427D01*
X041352Y014554D01*
X041322Y014539D01*
X041307Y014524D01*
X041292Y014494D01*
Y014675D02*
X041607D01*
X041292Y01469D02*
X041607D01*
X041292Y014885D02*
X041487Y01469D01*
X041427Y014765D02*
X041607Y014885D01*
X041427Y01475D02*
X041607Y01487D01*
X041292Y01463D02*
Y014735D01*
Y014825D02*
Y014915D01*
X041607Y01463D02*
Y014735D01*
Y014825D02*
Y014915D01*
X041598Y01328D02*
X041613Y01325D01*
X041658Y013205D01*
X041343D01*
X041643Y01322D02*
X041343D01*
Y01328D02*
Y013145D01*
X041658Y013001D02*
X041643Y013046D01*
X041598Y013076D01*
X041523Y013091D01*
X041478D01*
X041403Y013076D01*
X041358Y013046D01*
X041343Y013001D01*
Y012971D01*
X041358Y012926D01*
X041403Y012896D01*
X041478Y012881D01*
X041523D01*
X041598Y012896D01*
X041643Y012926D01*
X041658Y012971D01*
Y013001D01*
X041643Y013031D01*
X041628Y013046D01*
X041598Y013061D01*
X041523Y013076D01*
X041478D01*
X041403Y013061D01*
X041373Y013046D01*
X041358Y013031D01*
X041343Y013001D01*
Y012971D02*
X041358Y012941D01*
X041373Y012926D01*
X041403Y012911D01*
X041478Y012896D01*
X041523D01*
X041598Y012911D01*
X041628Y012926D01*
X041643Y012941D01*
X041658Y012971D01*
Y01279D02*
X041343D01*
X041658Y012775D02*
X041343D01*
X041658Y01258D02*
X041463Y012775D01*
X041523Y0127D02*
X041343Y01258D01*
X041523Y012715D02*
X041343Y012595D01*
X041658Y012835D02*
Y01273D01*
Y01264D02*
Y01255D01*
X041343Y012835D02*
Y01273D01*
Y01264D02*
Y01255D01*
X043774Y013748D02*
X043789Y013733D01*
X043774Y013718D01*
X043759Y013733D01*
Y013748D01*
X043774Y013778D01*
X043789Y013793D01*
X043834Y013808D01*
X043894D01*
X043939Y013793D01*
X043954Y013778D01*
X043969Y013748D01*
Y013718D01*
X043954Y013688D01*
X043909Y013658D01*
X043834Y013628D01*
X043804Y013613D01*
X043774Y013583D01*
X043759Y013538D01*
Y013493D01*
X043894Y013808D02*
X043924Y013793D01*
X043939Y013778D01*
X043954Y013748D01*
Y013718D01*
X043939Y013688D01*
X043894Y013658D01*
X043834Y013628D01*
X043759Y013523D02*
X043774Y013538D01*
X043804D01*
X043879Y013508D01*
X043924D01*
X043954Y013523D01*
X043969Y013538D01*
Y013568D01*
X043804Y013538D02*
X043879Y013493D01*
X043939D01*
X043954Y013508D01*
X043969Y013538D01*
X04403Y013748D02*
X044045Y013733D01*
X04403Y013718D01*
X044015Y013733D01*
Y013748D01*
X04403Y013778D01*
X044045Y013793D01*
X04409Y013808D01*
X04415D01*
X044195Y013793D01*
X04421Y013778D01*
X044225Y013748D01*
Y013718D01*
X04421Y013688D01*
X044165Y013658D01*
X04409Y013628D01*
X04406Y013613D01*
X04403Y013583D01*
X044015Y013538D01*
Y013493D01*
X04415Y013808D02*
X04418Y013793D01*
X044195Y013778D01*
X04421Y013748D01*
Y013718D01*
X044195Y013688D01*
X04415Y013658D01*
X04409Y013628D01*
X044015Y013523D02*
X04403Y013538D01*
X04406D01*
X044135Y013508D01*
X04418D01*
X04421Y013523D01*
X044225Y013538D01*
Y013568D01*
X04406Y013538D02*
X044135Y013493D01*
X044195D01*
X04421Y013508D01*
X044225Y013538D01*
X044316Y013808D02*
Y013493D01*
X044331Y013808D02*
Y013493D01*
X044271Y013808D02*
X044451D01*
X044496Y013793D01*
X044511Y013778D01*
X044526Y013748D01*
Y013718D01*
X044511Y013688D01*
X044496Y013673D01*
X044451Y013658D01*
X044331D01*
X044451Y013808D02*
X044481Y013793D01*
X044496Y013778D01*
X044511Y013748D01*
Y013718D01*
X044496Y013688D01*
X044481Y013673D01*
X044451Y013658D01*
X044271Y013493D02*
X044376D01*
X044406Y013658D02*
X044436Y013643D01*
X044451Y013628D01*
X044496Y013523D01*
X044511Y013508D01*
X044526D01*
X044541Y013523D01*
X044436Y013643D02*
X044451Y013613D01*
X044481Y013508D01*
X044496Y013493D01*
X044526D01*
X044541Y013523D01*
Y013538D01*
X043774Y012848D02*
X043789Y012833D01*
X043774Y012818D01*
X043759Y012833D01*
Y012848D01*
X043774Y012878D01*
X043789Y012893D01*
X043834Y012908D01*
X043894D01*
X043939Y012893D01*
X043954Y012878D01*
X043969Y012848D01*
Y012818D01*
X043954Y012788D01*
X043909Y012758D01*
X043834Y012728D01*
X043804Y012713D01*
X043774Y012683D01*
X043759Y012638D01*
Y012593D01*
X043894Y012908D02*
X043924Y012893D01*
X043939Y012878D01*
X043954Y012848D01*
Y012818D01*
X043939Y012788D01*
X043894Y012758D01*
X043834Y012728D01*
X043759Y012623D02*
X043774Y012638D01*
X043804D01*
X043879Y012608D01*
X043924D01*
X043954Y012623D01*
X043969Y012638D01*
Y012668D01*
X043804Y012638D02*
X043879Y012593D01*
X043939D01*
X043954Y012608D01*
X043969Y012638D01*
X04403Y012848D02*
X044045Y012833D01*
X04403Y012818D01*
X044015Y012833D01*
Y012848D01*
X04403Y012878D01*
X044045Y012893D01*
X04409Y012908D01*
X04415D01*
X044195Y012893D01*
X04421Y012878D01*
X044225Y012848D01*
Y012818D01*
X04421Y012788D01*
X044165Y012758D01*
X04409Y012728D01*
X04406Y012713D01*
X04403Y012683D01*
X044015Y012638D01*
Y012593D01*
X04415Y012908D02*
X04418Y012893D01*
X044195Y012878D01*
X04421Y012848D01*
Y012818D01*
X044195Y012788D01*
X04415Y012758D01*
X04409Y012728D01*
X044015Y012623D02*
X04403Y012638D01*
X04406D01*
X044135Y012608D01*
X04418D01*
X04421Y012623D01*
X044225Y012638D01*
Y012668D01*
X04406Y012638D02*
X044135Y012593D01*
X044195D01*
X04421Y012608D01*
X044225Y012638D01*
X044316Y012908D02*
Y012593D01*
X044331Y012908D02*
Y012593D01*
X044271Y012908D02*
X044451D01*
X044496Y012893D01*
X044511Y012878D01*
X044526Y012848D01*
Y012818D01*
X044511Y012788D01*
X044496Y012773D01*
X044451Y012758D01*
X044331D01*
X044451Y012908D02*
X044481Y012893D01*
X044496Y012878D01*
X044511Y012848D01*
Y012818D01*
X044496Y012788D01*
X044481Y012773D01*
X044451Y012758D01*
X044271Y012593D02*
X044376D01*
X044406Y012758D02*
X044436Y012743D01*
X044451Y012728D01*
X044496Y012623D01*
X044511Y012608D01*
X044526D01*
X044541Y012623D01*
X044436Y012743D02*
X044451Y012713D01*
X044481Y012608D01*
X044496Y012593D01*
X044526D01*
X044541Y012623D01*
Y012638D01*
X041381Y027598D02*
X041396Y027583D01*
X041381Y027568D01*
X041366Y027583D01*
Y027598D01*
X041381Y027628D01*
X041396Y027643D01*
X041441Y027658D01*
X041501D01*
X041546Y027643D01*
X041561Y027613D01*
Y027568D01*
X041546Y027538D01*
X041501Y027523D01*
X041456D01*
X041501Y027658D02*
X041531Y027643D01*
X041546Y027613D01*
Y027568D01*
X041531Y027538D01*
X041501Y027523D01*
X041531Y027508D01*
X041561Y027478D01*
X041576Y027448D01*
Y027403D01*
X041561Y027373D01*
X041546Y027358D01*
X041501Y027343D01*
X041441D01*
X041396Y027358D01*
X041381Y027373D01*
X041366Y027403D01*
Y027418D01*
X041381Y027433D01*
X041396Y027418D01*
X041381Y027403D01*
X041546Y027493D02*
X041561Y027448D01*
Y027403D01*
X041546Y027373D01*
X041531Y027358D01*
X041501Y027343D01*
X041712Y027658D02*
X041668Y027643D01*
X041638Y027598D01*
X041623Y027523D01*
Y027478D01*
X041638Y027403D01*
X041668Y027358D01*
X041712Y027343D01*
X041742D01*
X041787Y027358D01*
X041817Y027403D01*
X041832Y027478D01*
Y027523D01*
X041817Y027598D01*
X041787Y027643D01*
X041742Y027658D01*
X041712D01*
X041683Y027643D01*
X041668Y027628D01*
X041653Y027598D01*
X041638Y027523D01*
Y027478D01*
X041653Y027403D01*
X041668Y027373D01*
X041683Y027358D01*
X041712Y027343D01*
X041742D02*
X041772Y027358D01*
X041787Y027373D01*
X041802Y027403D01*
X041817Y027478D01*
Y027523D01*
X041802Y027598D01*
X041787Y027628D01*
X041772Y027643D01*
X041742Y027658D01*
X041924D02*
Y027343D01*
X041939Y027658D02*
Y027343D01*
X042134Y027658D02*
X041939Y027463D01*
X042014Y027523D02*
X042134Y027343D01*
X041999Y027523D02*
X042119Y027343D01*
X041879Y027658D02*
X041984D01*
X042074D02*
X042164D01*
X041879Y027343D02*
X041984D01*
X042074D02*
X042164D01*
X041251Y026664D02*
X041281Y026679D01*
X041326Y026724D01*
Y026409D01*
X041311Y026709D02*
Y026409D01*
X041251D02*
X041386D01*
X04153Y026724D02*
X041485Y026709D01*
X041455Y026664D01*
X04144Y026589D01*
Y026544D01*
X041455Y026469D01*
X041485Y026424D01*
X04153Y026409D01*
X04156D01*
X041605Y026424D01*
X041635Y026469D01*
X04165Y026544D01*
Y026589D01*
X041635Y026664D01*
X041605Y026709D01*
X04156Y026724D01*
X04153D01*
X0415Y026709D01*
X041485Y026694D01*
X04147Y026664D01*
X041455Y026589D01*
Y026544D01*
X04147Y026469D01*
X041485Y026439D01*
X0415Y026424D01*
X04153Y026409D01*
X04156D02*
X04159Y026424D01*
X041605Y026439D01*
X04162Y026469D01*
X041635Y026544D01*
Y026589D01*
X04162Y026664D01*
X041605Y026694D01*
X04159Y026709D01*
X04156Y026724D01*
X041741Y026619D02*
Y026409D01*
X041756Y026619D02*
Y026409D01*
Y026574D02*
X041786Y026604D01*
X041831Y026619D01*
X041861D01*
X041906Y026604D01*
X041921Y026574D01*
Y026409D01*
X041861Y026619D02*
X041891Y026604D01*
X041906Y026574D01*
Y026409D01*
X041696Y026619D02*
X041756D01*
X041696Y026409D02*
X041801D01*
X041861D02*
X041966D01*
X042051Y026724D02*
Y026409D01*
X042066Y026724D02*
Y026409D01*
X042156Y026634D02*
Y026514D01*
X042006Y026724D02*
X042246D01*
Y026634D01*
X042231Y026724D01*
X042066Y026574D02*
X042156D01*
X042006Y026409D02*
X042111D01*
X039835Y027598D02*
X039865Y027613D01*
X03991Y027658D01*
Y027343D01*
X039895Y027643D02*
Y027343D01*
X039835D02*
X03997D01*
X040114Y027658D02*
X040069Y027643D01*
X040039Y027598D01*
X040024Y027523D01*
Y027478D01*
X040039Y027403D01*
X040069Y027358D01*
X040114Y027343D01*
X040144D01*
X040189Y027358D01*
X040219Y027403D01*
X040234Y027478D01*
Y027523D01*
X040219Y027598D01*
X040189Y027643D01*
X040144Y027658D01*
X040114D01*
X040084Y027643D01*
X040069Y027628D01*
X040054Y027598D01*
X040039Y027523D01*
Y027478D01*
X040054Y027403D01*
X040069Y027373D01*
X040084Y027358D01*
X040114Y027343D01*
X040144D02*
X040174Y027358D01*
X040189Y027373D01*
X040204Y027403D01*
X040219Y027478D01*
Y027523D01*
X040204Y027598D01*
X040189Y027628D01*
X040174Y027643D01*
X040144Y027658D01*
X040325D02*
Y027343D01*
X04034Y027658D02*
Y027343D01*
X040535Y027658D02*
X04034Y027463D01*
X040415Y027523D02*
X040535Y027343D01*
X0404Y027523D02*
X04052Y027343D01*
X04028Y027658D02*
X040385D01*
X040475D02*
X040565D01*
X04028Y027343D02*
X040385D01*
X040475D02*
X040565D01*
X041937Y025452D02*
X041907Y025437D01*
X041862Y025392D01*
Y025707D01*
X041877Y025407D02*
Y025707D01*
X041937D02*
X041802D01*
X041703Y025392D02*
Y025707D01*
X041688Y025392D02*
Y025707D01*
X041538Y025497D02*
X041688Y025647D01*
X041613Y025587D02*
X041523Y025707D01*
X041628Y025587D02*
X041538Y025707D01*
X041748Y025392D02*
X041688D01*
X041583Y025497D02*
X041493D01*
X041748Y025707D02*
X041643D01*
X041583D02*
X041493D01*
X041937Y024502D02*
X041907Y024487D01*
X041862Y024442D01*
Y024757D01*
X041877Y024457D02*
Y024757D01*
X041937D02*
X041802D01*
X041703Y024442D02*
Y024757D01*
X041688Y024442D02*
Y024757D01*
X041538Y024547D02*
X041688Y024697D01*
X041613Y024637D02*
X041523Y024757D01*
X041628Y024637D02*
X041538Y024757D01*
X041748Y024442D02*
X041688D01*
X041583Y024547D02*
X041493D01*
X041748Y024757D02*
X041643D01*
X041583D02*
X041493D01*
X042213Y023602D02*
X042183Y023587D01*
X042138Y023542D01*
Y023857D01*
X042153Y023557D02*
Y023857D01*
X042213D02*
X042078D01*
X041934Y023542D02*
X041979Y023557D01*
X042009Y023602D01*
X042024Y023677D01*
Y023722D01*
X042009Y023797D01*
X041979Y023842D01*
X041934Y023857D01*
X041904D01*
X041859Y023842D01*
X041829Y023797D01*
X041814Y023722D01*
Y023677D01*
X041829Y023602D01*
X041859Y023557D01*
X041904Y023542D01*
X041934D01*
X041964Y023557D01*
X041979Y023572D01*
X041994Y023602D01*
X042009Y023677D01*
Y023722D01*
X041994Y023797D01*
X041979Y023827D01*
X041964Y023842D01*
X041934Y023857D01*
X041904D02*
X041874Y023842D01*
X041859Y023827D01*
X041844Y023797D01*
X041829Y023722D01*
Y023677D01*
X041844Y023602D01*
X041859Y023572D01*
X041874Y023557D01*
X041904Y023542D01*
X041722Y023647D02*
Y023857D01*
X041707Y023647D02*
Y023857D01*
Y023692D02*
X041677Y023662D01*
X041632Y023647D01*
X041602D01*
X041557Y023662D01*
X041542Y023692D01*
Y023857D01*
X041602Y023647D02*
X041572Y023662D01*
X041557Y023692D01*
Y023857D01*
X041767Y023647D02*
X041707D01*
X041767Y023857D02*
X041662D01*
X041602D02*
X041498D01*
X041412Y023542D02*
Y023857D01*
X041397Y023542D02*
Y023857D01*
X041307Y023632D02*
Y023752D01*
X041457Y023542D02*
X041217D01*
Y023632D01*
X041232Y023542D01*
X041397Y023692D02*
X041307D01*
X041457Y023857D02*
X041352D01*
X041385Y021948D02*
X041415Y021963D01*
X04146Y022008D01*
Y021693D01*
X041445Y021993D02*
Y021693D01*
X041385D02*
X04152D01*
X041664Y022008D02*
X041619Y021993D01*
X041589Y021948D01*
X041574Y021873D01*
Y021828D01*
X041589Y021753D01*
X041619Y021708D01*
X041664Y021693D01*
X041694D01*
X041739Y021708D01*
X041769Y021753D01*
X041784Y021828D01*
Y021873D01*
X041769Y021948D01*
X041739Y021993D01*
X041694Y022008D01*
X041664D01*
X041634Y021993D01*
X041619Y021978D01*
X041604Y021948D01*
X041589Y021873D01*
Y021828D01*
X041604Y021753D01*
X041619Y021723D01*
X041634Y021708D01*
X041664Y021693D01*
X041694D02*
X041724Y021708D01*
X041739Y021723D01*
X041754Y021753D01*
X041769Y021828D01*
Y021873D01*
X041754Y021948D01*
X041739Y021978D01*
X041724Y021993D01*
X041694Y022008D01*
X041875D02*
Y021693D01*
X04189Y022008D02*
Y021693D01*
X042085Y022008D02*
X04189Y021813D01*
X041965Y021873D02*
X042085Y021693D01*
X04195Y021873D02*
X04207Y021693D01*
X04183Y022008D02*
X041935D01*
X042025D02*
X042115D01*
X04183Y021693D02*
X041935D01*
X042025D02*
X042115D01*
X041385Y021048D02*
X041415Y021063D01*
X04146Y021108D01*
Y020793D01*
X041445Y021093D02*
Y020793D01*
X041385D02*
X04152D01*
X041664Y021108D02*
X041619Y021093D01*
X041589Y021048D01*
X041574Y020973D01*
Y020928D01*
X041589Y020853D01*
X041619Y020808D01*
X041664Y020793D01*
X041694D01*
X041739Y020808D01*
X041769Y020853D01*
X041784Y020928D01*
Y020973D01*
X041769Y021048D01*
X041739Y021093D01*
X041694Y021108D01*
X041664D01*
X041634Y021093D01*
X041619Y021078D01*
X041604Y021048D01*
X041589Y020973D01*
Y020928D01*
X041604Y020853D01*
X041619Y020823D01*
X041634Y020808D01*
X041664Y020793D01*
X041694D02*
X041724Y020808D01*
X041739Y020823D01*
X041754Y020853D01*
X041769Y020928D01*
Y020973D01*
X041754Y021048D01*
X041739Y021078D01*
X041724Y021093D01*
X041694Y021108D01*
X041875D02*
Y020793D01*
X04189Y021108D02*
Y020793D01*
X042085Y021108D02*
X04189Y020913D01*
X041965Y020973D02*
X042085Y020793D01*
X04195Y020973D02*
X04207Y020793D01*
X04183Y021108D02*
X041935D01*
X042025D02*
X042115D01*
X04183Y020793D02*
X041935D01*
X042025D02*
X042115D01*
X044303Y022592D02*
X044318Y022562D01*
X044363Y022517D01*
X044048D01*
X044348Y022532D02*
X044048D01*
Y022592D02*
Y022457D01*
X044363Y022313D02*
X044348Y022358D01*
X044303Y022388D01*
X044228Y022403D01*
X044183D01*
X044108Y022388D01*
X044063Y022358D01*
X044048Y022313D01*
Y022283D01*
X044063Y022238D01*
X044108Y022208D01*
X044183Y022193D01*
X044228D01*
X044303Y022208D01*
X044348Y022238D01*
X044363Y022283D01*
Y022313D01*
X044348Y022343D01*
X044333Y022358D01*
X044303Y022373D01*
X044228Y022388D01*
X044183D01*
X044108Y022373D01*
X044078Y022358D01*
X044063Y022343D01*
X044048Y022313D01*
Y022283D02*
X044063Y022253D01*
X044078Y022238D01*
X044108Y022223D01*
X044183Y022208D01*
X044228D01*
X044303Y022223D01*
X044333Y022238D01*
X044348Y022253D01*
X044363Y022283D01*
X044303Y021848D02*
X044288Y021833D01*
X044273Y021848D01*
X044288Y021863D01*
X044303D01*
X044333Y021848D01*
X044348Y021833D01*
X044363Y021803D01*
Y021758D01*
X044348Y021713D01*
X044333Y021698D01*
X044303Y021683D01*
X044273D01*
X044243Y021698D01*
X044228Y021713D01*
X044198Y021773D01*
X044153D01*
X044363Y021758D02*
X044348Y021728D01*
X044333Y021713D01*
X044303Y021698D01*
X044273D01*
X044243Y021713D01*
X044213Y021743D01*
X044078Y021773D02*
X044063Y021788D01*
X044048Y021773D01*
X044063Y021758D01*
X044078Y021773D01*
X044363Y021589D02*
X044048D01*
X044363Y021574D02*
X044048D01*
X044273Y021484D02*
X044153D01*
X044363Y021634D02*
Y021394D01*
X044273D01*
X044363Y021409D01*
X044213Y021574D02*
Y021484D01*
X044048Y021634D02*
Y021529D01*
X043503Y022592D02*
X043518Y022562D01*
X043563Y022517D01*
X043248D01*
X043548Y022532D02*
X043248D01*
Y022592D02*
Y022457D01*
X043563Y022313D02*
X043548Y022358D01*
X043503Y022388D01*
X043428Y022403D01*
X043383D01*
X043308Y022388D01*
X043263Y022358D01*
X043248Y022313D01*
Y022283D01*
X043263Y022238D01*
X043308Y022208D01*
X043383Y022193D01*
X043428D01*
X043503Y022208D01*
X043548Y022238D01*
X043563Y022283D01*
Y022313D01*
X043548Y022343D01*
X043533Y022358D01*
X043503Y022373D01*
X043428Y022388D01*
X043383D01*
X043308Y022373D01*
X043278Y022358D01*
X043263Y022343D01*
X043248Y022313D01*
Y022283D02*
X043263Y022253D01*
X043278Y022238D01*
X043308Y022223D01*
X043383Y022208D01*
X043428D01*
X043503Y022223D01*
X043533Y022238D01*
X043548Y022253D01*
X043563Y022283D01*
X043503Y021848D02*
X043488Y021833D01*
X043473Y021848D01*
X043488Y021863D01*
X043503D01*
X043533Y021848D01*
X043548Y021833D01*
X043563Y021803D01*
Y021758D01*
X043548Y021713D01*
X043533Y021698D01*
X043503Y021683D01*
X043473D01*
X043443Y021698D01*
X043428Y021713D01*
X043398Y021773D01*
X043353D01*
X043563Y021758D02*
X043548Y021728D01*
X043533Y021713D01*
X043503Y021698D01*
X043473D01*
X043443Y021713D01*
X043413Y021743D01*
X043278Y021773D02*
X043263Y021788D01*
X043248Y021773D01*
X043263Y021758D01*
X043278Y021773D01*
X043563Y021589D02*
X043248D01*
X043563Y021574D02*
X043248D01*
X043473Y021484D02*
X043353D01*
X043563Y021634D02*
Y021394D01*
X043473D01*
X043563Y021409D01*
X043413Y021574D02*
Y021484D01*
X043248Y021634D02*
Y021529D01*
X037302Y020966D02*
X037317Y020981D01*
X037332Y020966D01*
X037317Y020951D01*
X037302D01*
X037272Y020966D01*
X037257Y020981D01*
X037242Y021026D01*
Y021086D01*
X037257Y021131D01*
X037287Y021146D01*
X037332D01*
X037362Y021131D01*
X037377Y021086D01*
Y021041D01*
X037242Y021086D02*
X037257Y021116D01*
X037287Y021131D01*
X037332D01*
X037362Y021116D01*
X037377Y021086D01*
X037392Y021116D01*
X037422Y021146D01*
X037452Y021161D01*
X037497D01*
X037527Y021146D01*
X037542Y021131D01*
X037557Y021086D01*
Y021026D01*
X037542Y020981D01*
X037527Y020966D01*
X037497Y020951D01*
X037482D01*
X037467Y020966D01*
X037482Y020981D01*
X037497Y020966D01*
X037407Y021131D02*
X037452Y021146D01*
X037497D01*
X037527Y021131D01*
X037542Y021116D01*
X037557Y021086D01*
X037242Y021298D02*
X037257Y021253D01*
X037302Y021223D01*
X037377Y021208D01*
X037422D01*
X037497Y021223D01*
X037542Y021253D01*
X037557Y021298D01*
Y021328D01*
X037542Y021373D01*
X037497Y021403D01*
X037422Y021418D01*
X037377D01*
X037302Y021403D01*
X037257Y021373D01*
X037242Y021328D01*
Y021298D01*
X037257Y021268D01*
X037272Y021253D01*
X037302Y021238D01*
X037377Y021223D01*
X037422D01*
X037497Y021238D01*
X037527Y021253D01*
X037542Y021268D01*
X037557Y021298D01*
Y021328D02*
X037542Y021358D01*
X037527Y021373D01*
X037497Y021388D01*
X037422Y021403D01*
X037377D01*
X037302Y021388D01*
X037272Y021373D01*
X037257Y021358D01*
X037242Y021328D01*
Y021509D02*
X037557D01*
X037242Y021524D02*
X037557D01*
X037242Y021719D02*
X037437Y021524D01*
X037377Y021599D02*
X037557Y021719D01*
X037377Y021584D02*
X037557Y021704D01*
X037242Y021464D02*
Y021569D01*
Y021659D02*
Y021749D01*
X037557Y021464D02*
Y021569D01*
Y021659D02*
Y021749D01*
X036873Y021734D02*
X036858Y021719D01*
X036843Y021734D01*
X036858Y021749D01*
X036873D01*
X036903Y021734D01*
X036918Y021719D01*
X036933Y021674D01*
Y021614D01*
X036918Y021569D01*
X036888Y021554D01*
X036843D01*
X036813Y021569D01*
X036798Y021614D01*
Y021659D01*
X036933Y021614D02*
X036918Y021584D01*
X036888Y021569D01*
X036843D01*
X036813Y021584D01*
X036798Y021614D01*
X036783Y021584D01*
X036753Y021554D01*
X036723Y021539D01*
X036678D01*
X036648Y021554D01*
X036633Y021569D01*
X036618Y021614D01*
Y021674D01*
X036633Y021719D01*
X036648Y021734D01*
X036678Y021749D01*
X036693D01*
X036708Y021734D01*
X036693Y021719D01*
X036678Y021734D01*
X036768Y021569D02*
X036723Y021554D01*
X036678D01*
X036648Y021569D01*
X036633Y021584D01*
X036618Y021614D01*
X036933Y021402D02*
X036918Y021447D01*
X036873Y021477D01*
X036798Y021492D01*
X036753D01*
X036678Y021477D01*
X036633Y021447D01*
X036618Y021402D01*
Y021372D01*
X036633Y021327D01*
X036678Y021297D01*
X036753Y021282D01*
X036798D01*
X036873Y021297D01*
X036918Y021327D01*
X036933Y021372D01*
Y021402D01*
X036918Y021432D01*
X036903Y021447D01*
X036873Y021462D01*
X036798Y021477D01*
X036753D01*
X036678Y021462D01*
X036648Y021447D01*
X036633Y021432D01*
X036618Y021402D01*
Y021372D02*
X036633Y021342D01*
X036648Y021327D01*
X036678Y021312D01*
X036753Y021297D01*
X036798D01*
X036873Y021312D01*
X036903Y021327D01*
X036918Y021342D01*
X036933Y021372D01*
Y021191D02*
X036618D01*
X036933Y021176D02*
X036618D01*
X036933Y020981D02*
X036738Y021176D01*
X036798Y021101D02*
X036618Y020981D01*
X036798Y021116D02*
X036618Y020996D01*
X036933Y021236D02*
Y021131D01*
Y021041D02*
Y020951D01*
X036618Y021236D02*
Y021131D01*
Y021041D02*
Y020951D01*
X036052Y020966D02*
X036067Y020981D01*
X036082Y020966D01*
X036067Y020951D01*
X036052D01*
X036022Y020966D01*
X036007Y020981D01*
X035992Y021026D01*
Y021086D01*
X036007Y021131D01*
X036037Y021146D01*
X036082D01*
X036112Y021131D01*
X036127Y021086D01*
Y021041D01*
X035992Y021086D02*
X036007Y021116D01*
X036037Y021131D01*
X036082D01*
X036112Y021116D01*
X036127Y021086D01*
X036142Y021116D01*
X036172Y021146D01*
X036202Y021161D01*
X036247D01*
X036277Y021146D01*
X036292Y021131D01*
X036307Y021086D01*
Y021026D01*
X036292Y020981D01*
X036277Y020966D01*
X036247Y020951D01*
X036232D01*
X036217Y020966D01*
X036232Y020981D01*
X036247Y020966D01*
X036157Y021131D02*
X036202Y021146D01*
X036247D01*
X036277Y021131D01*
X036292Y021116D01*
X036307Y021086D01*
X035992Y021298D02*
X036007Y021253D01*
X036052Y021223D01*
X036127Y021208D01*
X036172D01*
X036247Y021223D01*
X036292Y021253D01*
X036307Y021298D01*
Y021328D01*
X036292Y021373D01*
X036247Y021403D01*
X036172Y021418D01*
X036127D01*
X036052Y021403D01*
X036007Y021373D01*
X035992Y021328D01*
Y021298D01*
X036007Y021268D01*
X036022Y021253D01*
X036052Y021238D01*
X036127Y021223D01*
X036172D01*
X036247Y021238D01*
X036277Y021253D01*
X036292Y021268D01*
X036307Y021298D01*
Y021328D02*
X036292Y021358D01*
X036277Y021373D01*
X036247Y021388D01*
X036172Y021403D01*
X036127D01*
X036052Y021388D01*
X036022Y021373D01*
X036007Y021358D01*
X035992Y021328D01*
Y021509D02*
X036307D01*
X035992Y021524D02*
X036307D01*
X035992Y021719D02*
X036187Y021524D01*
X036127Y021599D02*
X036307Y021719D01*
X036127Y021584D02*
X036307Y021704D01*
X035992Y021464D02*
Y021569D01*
Y021659D02*
Y021749D01*
X036307Y021464D02*
Y021569D01*
Y021659D02*
Y021749D01*
X037241Y022392D02*
X037271Y022542D01*
X037241Y022512D01*
X037196Y022497D01*
X037151D01*
X037106Y022512D01*
X037076Y022542D01*
X037061Y022587D01*
Y022617D01*
X037076Y022662D01*
X037106Y022692D01*
X037151Y022707D01*
X037196D01*
X037241Y022692D01*
X037256Y022677D01*
X037271Y022647D01*
Y022632D01*
X037256Y022617D01*
X037241Y022632D01*
X037256Y022647D01*
X037151Y022497D02*
X037121Y022512D01*
X037091Y022542D01*
X037076Y022587D01*
Y022617D01*
X037091Y022662D01*
X037121Y022692D01*
X037151Y022707D01*
X037241Y022392D02*
X037091D01*
X037241Y022407D02*
X037166D01*
X037091Y022392D01*
X036969D02*
Y022707D01*
X036954Y022392D02*
Y022707D01*
X036759Y022392D02*
X036954Y022587D01*
X036879Y022527D02*
X036759Y022707D01*
X036894Y022527D02*
X036774Y022707D01*
X037014Y022392D02*
X036909D01*
X036819D02*
X036729D01*
X037014Y022707D02*
X036909D01*
X036819D02*
X036729D01*
X036348Y025011D02*
X036363Y024981D01*
X036408Y024936D01*
X036093D01*
X036393Y024951D02*
X036093D01*
Y025011D02*
Y024876D01*
X036408Y024777D02*
X036093D01*
X036408Y024762D02*
X036093D01*
X036303Y024612D02*
X036153Y024762D01*
X036213Y024687D02*
X036093Y024597D01*
X036213Y024702D02*
X036093Y024612D01*
X036408Y024822D02*
Y024762D01*
X036303Y024657D02*
Y024567D01*
X036093Y024822D02*
Y024717D01*
Y024657D02*
Y024567D01*
X036348Y025979D02*
X036363Y025949D01*
X036408Y025904D01*
X036093D01*
X036393Y025919D02*
X036093D01*
Y025979D02*
Y025844D01*
X036408Y025745D02*
X036093D01*
X036408Y02573D02*
X036093D01*
X036303Y02558D02*
X036153Y02573D01*
X036213Y025655D02*
X036093Y025565D01*
X036213Y02567D02*
X036093Y02558D01*
X036408Y02579D02*
Y02573D01*
X036303Y025625D02*
Y025535D01*
X036093Y02579D02*
Y025685D01*
Y025625D02*
Y025535D01*
X032498Y025979D02*
X032513Y025949D01*
X032558Y025904D01*
X032243D01*
X032543Y025919D02*
X032243D01*
Y025979D02*
Y025844D01*
X032558Y025745D02*
X032243D01*
X032558Y02573D02*
X032243D01*
X032453Y02558D02*
X032303Y02573D01*
X032363Y025655D02*
X032243Y025565D01*
X032363Y02567D02*
X032243Y02558D01*
X032558Y02579D02*
Y02573D01*
X032453Y025625D02*
Y025535D01*
X032243Y02579D02*
Y025685D01*
Y025625D02*
Y025535D01*
X032498Y025011D02*
X032513Y024981D01*
X032558Y024936D01*
X032243D01*
X032543Y024951D02*
X032243D01*
Y025011D02*
Y024876D01*
X032558Y024777D02*
X032243D01*
X032558Y024762D02*
X032243D01*
X032453Y024612D02*
X032303Y024762D01*
X032363Y024687D02*
X032243Y024597D01*
X032363Y024702D02*
X032243Y024612D01*
X032558Y024822D02*
Y024762D01*
X032453Y024657D02*
Y024567D01*
X032243Y024822D02*
Y024717D01*
Y024657D02*
Y024567D01*
X0307Y025019D02*
X030715Y025034D01*
X03073Y025019D01*
X030715Y025004D01*
X0307D01*
X03067Y025019D01*
X030655Y025034D01*
X03064Y025079D01*
Y025139D01*
X030655Y025184D01*
X03067Y025199D01*
X0307Y025214D01*
X03073D01*
X03076Y025199D01*
X03079Y025154D01*
X03082Y025079D01*
X030835Y025049D01*
X030865Y025019D01*
X03091Y025004D01*
X030955D01*
X03064Y025139D02*
X030655Y025169D01*
X03067Y025184D01*
X0307Y025199D01*
X03073D01*
X03076Y025184D01*
X03079Y025139D01*
X03082Y025079D01*
X030925Y025004D02*
X03091Y025019D01*
Y025049D01*
X03094Y025124D01*
Y025169D01*
X030925Y025199D01*
X03091Y025214D01*
X03088D01*
X03091Y025049D02*
X030955Y025124D01*
Y025184D01*
X03094Y025199D01*
X03091Y025214D01*
X0307Y025275D02*
X030715Y02529D01*
X03073Y025275D01*
X030715Y02526D01*
X0307D01*
X03067Y025275D01*
X030655Y02529D01*
X03064Y025335D01*
Y025395D01*
X030655Y02544D01*
X03067Y025455D01*
X0307Y02547D01*
X03073D01*
X03076Y025455D01*
X03079Y02541D01*
X03082Y025335D01*
X030835Y025305D01*
X030865Y025275D01*
X03091Y02526D01*
X030955D01*
X03064Y025395D02*
X030655Y025425D01*
X03067Y02544D01*
X0307Y025455D01*
X03073D01*
X03076Y02544D01*
X03079Y025395D01*
X03082Y025335D01*
X030925Y02526D02*
X03091Y025275D01*
Y025305D01*
X03094Y02538D01*
Y025425D01*
X030925Y025455D01*
X03091Y02547D01*
X03088D01*
X03091Y025305D02*
X030955Y02538D01*
Y02544D01*
X03094Y025455D01*
X03091Y02547D01*
X03064Y025607D02*
X030655Y025562D01*
X0307Y025532D01*
X030775Y025517D01*
X03082D01*
X030895Y025532D01*
X03094Y025562D01*
X030955Y025607D01*
Y025637D01*
X03094Y025682D01*
X030895Y025712D01*
X03082Y025726D01*
X030775D01*
X0307Y025712D01*
X030655Y025682D01*
X03064Y025637D01*
Y025607D01*
X030655Y025577D01*
X03067Y025562D01*
X0307Y025547D01*
X030775Y025532D01*
X03082D01*
X030895Y025547D01*
X030925Y025562D01*
X03094Y025577D01*
X030955Y025607D01*
Y025637D02*
X03094Y025667D01*
X030925Y025682D01*
X030895Y025697D01*
X03082Y025712D01*
X030775D01*
X0307Y025697D01*
X03067Y025682D01*
X030655Y025667D01*
X03064Y025637D01*
X030745Y025818D02*
X03106D01*
X030745Y025833D02*
X03106D01*
X03079D02*
X03076Y025863D01*
X030745Y025893D01*
Y025923D01*
X03076Y025968D01*
X03079Y025998D01*
X030835Y026013D01*
X030865D01*
X03091Y025998D01*
X03094Y025968D01*
X030955Y025923D01*
Y025893D01*
X03094Y025863D01*
X03091Y025833D01*
X030745Y025923D02*
X03076Y025953D01*
X03079Y025983D01*
X030835Y025998D01*
X030865D01*
X03091Y025983D01*
X03094Y025953D01*
X030955Y025923D01*
X030745Y025773D02*
Y025833D01*
X03106Y025773D02*
Y025878D01*
X03064Y026101D02*
X030955D01*
X03064Y026116D02*
X030955D01*
X03073Y026206D02*
X03085D01*
X03064Y026056D02*
Y026296D01*
X03073D01*
X03064Y026281D01*
X03079Y026116D02*
Y026206D01*
X030955Y026056D02*
Y026161D01*
X030091Y025823D02*
X030076Y025868D01*
X030031Y025898D01*
X029956Y025913D01*
X029911D01*
X029836Y025898D01*
X029791Y025868D01*
X029776Y025823D01*
Y025793D01*
X029791Y025748D01*
X029836Y025718D01*
X029911Y025703D01*
X029956D01*
X030031Y025718D01*
X030076Y025748D01*
X030091Y025793D01*
Y025823D01*
X030076Y025853D01*
X030061Y025868D01*
X030031Y025883D01*
X029956Y025898D01*
X029911D01*
X029836Y025883D01*
X029806Y025868D01*
X029791Y025853D01*
X029776Y025823D01*
Y025793D02*
X029791Y025763D01*
X029806Y025748D01*
X029836Y025733D01*
X029911Y025718D01*
X029956D01*
X030031Y025733D01*
X030061Y025748D01*
X030076Y025763D01*
X030091Y025793D01*
Y025612D02*
X029776D01*
X030091Y025597D02*
X029776D01*
X030091Y025657D02*
Y025477D01*
X030076Y025432D01*
X030061Y025417D01*
X030031Y025402D01*
X030001D01*
X029971Y025417D01*
X029956Y025432D01*
X029941Y025477D01*
Y025597D01*
X030091Y025477D02*
X030076Y025447D01*
X030061Y025432D01*
X030031Y025417D01*
X030001D01*
X029971Y025432D01*
X029956Y025447D01*
X029941Y025477D01*
X029776Y025657D02*
Y025552D01*
X029941Y025522D02*
X029926Y025492D01*
X029911Y025477D01*
X029806Y025432D01*
X029791Y025417D01*
Y025402D01*
X029806Y025387D01*
X029926Y025492D02*
X029896Y025477D01*
X029791Y025447D01*
X029776Y025432D01*
Y025402D01*
X029806Y025387D01*
X029821D01*
X029174Y025823D02*
X029159Y025868D01*
X029114Y025898D01*
X029039Y025913D01*
X028994D01*
X028919Y025898D01*
X028874Y025868D01*
X028859Y025823D01*
Y025793D01*
X028874Y025748D01*
X028919Y025718D01*
X028994Y025703D01*
X029039D01*
X029114Y025718D01*
X029159Y025748D01*
X029174Y025793D01*
Y025823D01*
X029159Y025853D01*
X029144Y025868D01*
X029114Y025883D01*
X029039Y025898D01*
X028994D01*
X028919Y025883D01*
X028889Y025868D01*
X028874Y025853D01*
X028859Y025823D01*
Y025793D02*
X028874Y025763D01*
X028889Y025748D01*
X028919Y025733D01*
X028994Y025718D01*
X029039D01*
X029114Y025733D01*
X029144Y025748D01*
X029159Y025763D01*
X029174Y025793D01*
Y025612D02*
X028859D01*
X029174Y025597D02*
X028859D01*
X029174Y025657D02*
Y025477D01*
X029159Y025432D01*
X029144Y025417D01*
X029114Y025402D01*
X029084D01*
X029054Y025417D01*
X029039Y025432D01*
X029024Y025477D01*
Y025597D01*
X029174Y025477D02*
X029159Y025447D01*
X029144Y025432D01*
X029114Y025417D01*
X029084D01*
X029054Y025432D01*
X029039Y025447D01*
X029024Y025477D01*
X028859Y025657D02*
Y025552D01*
X029024Y025522D02*
X029009Y025492D01*
X028994Y025477D01*
X028889Y025432D01*
X028874Y025417D01*
Y025402D01*
X028889Y025387D01*
X029009Y025492D02*
X028979Y025477D01*
X028874Y025447D01*
X028859Y025432D01*
Y025402D01*
X028889Y025387D01*
X028904D01*
X02795Y025019D02*
X027965Y025034D01*
X02798Y025019D01*
X027965Y025004D01*
X02795D01*
X02792Y025019D01*
X027905Y025034D01*
X02789Y025079D01*
Y025139D01*
X027905Y025184D01*
X02792Y025199D01*
X02795Y025214D01*
X02798D01*
X02801Y025199D01*
X02804Y025154D01*
X02807Y025079D01*
X028085Y025049D01*
X028115Y025019D01*
X02816Y025004D01*
X028205D01*
X02789Y025139D02*
X027905Y025169D01*
X02792Y025184D01*
X02795Y025199D01*
X02798D01*
X02801Y025184D01*
X02804Y025139D01*
X02807Y025079D01*
X028175Y025004D02*
X02816Y025019D01*
Y025049D01*
X02819Y025124D01*
Y025169D01*
X028175Y025199D01*
X02816Y025214D01*
X02813D01*
X02816Y025049D02*
X028205Y025124D01*
Y025184D01*
X02819Y025199D01*
X02816Y025214D01*
X02795Y025275D02*
X027965Y02529D01*
X02798Y025275D01*
X027965Y02526D01*
X02795D01*
X02792Y025275D01*
X027905Y02529D01*
X02789Y025335D01*
Y025395D01*
X027905Y02544D01*
X02792Y025455D01*
X02795Y02547D01*
X02798D01*
X02801Y025455D01*
X02804Y02541D01*
X02807Y025335D01*
X028085Y025305D01*
X028115Y025275D01*
X02816Y02526D01*
X028205D01*
X02789Y025395D02*
X027905Y025425D01*
X02792Y02544D01*
X02795Y025455D01*
X02798D01*
X02801Y02544D01*
X02804Y025395D01*
X02807Y025335D01*
X028175Y02526D02*
X02816Y025275D01*
Y025305D01*
X02819Y02538D01*
Y025425D01*
X028175Y025455D01*
X02816Y02547D01*
X02813D01*
X02816Y025305D02*
X028205Y02538D01*
Y02544D01*
X02819Y025455D01*
X02816Y02547D01*
X02789Y025607D02*
X027905Y025562D01*
X02795Y025532D01*
X028025Y025517D01*
X02807D01*
X028145Y025532D01*
X02819Y025562D01*
X028205Y025607D01*
Y025637D01*
X02819Y025682D01*
X028145Y025712D01*
X02807Y025726D01*
X028025D01*
X02795Y025712D01*
X027905Y025682D01*
X02789Y025637D01*
Y025607D01*
X027905Y025577D01*
X02792Y025562D01*
X02795Y025547D01*
X028025Y025532D01*
X02807D01*
X028145Y025547D01*
X028175Y025562D01*
X02819Y025577D01*
X028205Y025607D01*
Y025637D02*
X02819Y025667D01*
X028175Y025682D01*
X028145Y025697D01*
X02807Y025712D01*
X028025D01*
X02795Y025697D01*
X02792Y025682D01*
X027905Y025667D01*
X02789Y025637D01*
X027995Y025818D02*
X02831D01*
X027995Y025833D02*
X02831D01*
X02804D02*
X02801Y025863D01*
X027995Y025893D01*
Y025923D01*
X02801Y025968D01*
X02804Y025998D01*
X028085Y026013D01*
X028115D01*
X02816Y025998D01*
X02819Y025968D01*
X028205Y025923D01*
Y025893D01*
X02819Y025863D01*
X02816Y025833D01*
X027995Y025923D02*
X02801Y025953D01*
X02804Y025983D01*
X028085Y025998D01*
X028115D01*
X02816Y025983D01*
X02819Y025953D01*
X028205Y025923D01*
X027995Y025773D02*
Y025833D01*
X02831Y025773D02*
Y025878D01*
X02789Y026101D02*
X028205D01*
X02789Y026116D02*
X028205D01*
X02798Y026206D02*
X0281D01*
X02789Y026056D02*
Y026296D01*
X02798D01*
X02789Y026281D01*
X02804Y026116D02*
Y026206D01*
X028205Y026056D02*
Y026161D01*
X028261Y024302D02*
X028231Y024287D01*
X028186Y024242D01*
Y024557D01*
X028201Y024257D02*
Y024557D01*
X028261D02*
X028126D01*
X028027Y024242D02*
Y024557D01*
X028012Y024242D02*
Y024557D01*
X027817Y024242D02*
X028012Y024437D01*
X027937Y024377D02*
X027817Y024557D01*
X027952Y024377D02*
X027833Y024557D01*
X028072Y024242D02*
X027967D01*
X027877D02*
X027788D01*
X028072Y024557D02*
X027967D01*
X027877D02*
X027788D01*
X027734Y024302D02*
X027719Y024317D01*
X027734Y024332D01*
X027749Y024317D01*
Y024302D01*
X027734Y024272D01*
X027719Y024257D01*
X027674Y024242D01*
X027614D01*
X027569Y024257D01*
X027554Y024272D01*
X027539Y024302D01*
Y024332D01*
X027554Y024362D01*
X027599Y024392D01*
X027674Y024422D01*
X027704Y024437D01*
X027734Y024467D01*
X027749Y024512D01*
Y024557D01*
X027614Y024242D02*
X027584Y024257D01*
X027569Y024272D01*
X027554Y024302D01*
Y024332D01*
X027569Y024362D01*
X027614Y024392D01*
X027674Y024422D01*
X027749Y024527D02*
X027734Y024512D01*
X027704D01*
X027629Y024542D01*
X027584D01*
X027554Y024527D01*
X027539Y024512D01*
Y024482D01*
X027704Y024512D02*
X027629Y024557D01*
X027569D01*
X027554Y024542D01*
X027539Y024512D01*
X02987Y024302D02*
X02984Y024287D01*
X029795Y024242D01*
Y024557D01*
X02981Y024257D02*
Y024557D01*
X02987D02*
X029735D01*
X029636Y024347D02*
Y024557D01*
X029621Y024347D02*
Y024557D01*
Y024392D02*
X029591Y024362D01*
X029546Y024347D01*
X029516D01*
X029471Y024362D01*
X029456Y024392D01*
Y024557D01*
X029516Y024347D02*
X029486Y024362D01*
X029471Y024392D01*
Y024557D01*
X029681Y024347D02*
X029621D01*
X029681Y024557D02*
X029576D01*
X029516D02*
X029411D01*
X029325Y024242D02*
Y024557D01*
X02931Y024242D02*
Y024557D01*
X02922Y024332D02*
Y024452D01*
X02937Y024242D02*
X02913D01*
Y024332D01*
X029145Y024242D01*
X02931Y024392D02*
X02922D01*
X02937Y024557D02*
X029265D01*
X030631Y02455D02*
X030661Y024565D01*
X030706Y02461D01*
Y024295D01*
X030691Y024595D02*
Y024295D01*
X030631D02*
X030766D01*
X03091Y02461D02*
X030865Y024595D01*
X030835Y02455D01*
X03082Y024475D01*
Y02443D01*
X030835Y024355D01*
X030865Y02431D01*
X03091Y024295D01*
X03094D01*
X030985Y02431D01*
X031015Y024355D01*
X03103Y02443D01*
Y024475D01*
X031015Y02455D01*
X030985Y024595D01*
X03094Y02461D01*
X03091D01*
X03088Y024595D01*
X030865Y02458D01*
X03085Y02455D01*
X030835Y024475D01*
Y02443D01*
X03085Y024355D01*
X030865Y024325D01*
X03088Y02431D01*
X03091Y024295D01*
X03094D02*
X03097Y02431D01*
X030985Y024325D01*
X031Y024355D01*
X031015Y02443D01*
Y024475D01*
X031Y02455D01*
X030985Y02458D01*
X03097Y024595D01*
X03094Y02461D01*
X031121Y024505D02*
Y02419D01*
X031136Y024505D02*
Y02419D01*
Y02446D02*
X031166Y02449D01*
X031196Y024505D01*
X031226D01*
X031271Y02449D01*
X031301Y02446D01*
X031316Y024415D01*
Y024385D01*
X031301Y02434D01*
X031271Y02431D01*
X031226Y024295D01*
X031196D01*
X031166Y02431D01*
X031136Y02434D01*
X031226Y024505D02*
X031256Y02449D01*
X031286Y02446D01*
X031301Y024415D01*
Y024385D01*
X031286Y02434D01*
X031256Y02431D01*
X031226Y024295D01*
X031076Y024505D02*
X031136D01*
X031076Y02419D02*
X031181D01*
X031404Y02461D02*
Y024295D01*
X031419Y02461D02*
Y024295D01*
X031509Y02452D02*
Y0244D01*
X031359Y02461D02*
X031599D01*
Y02452D01*
X031584Y02461D01*
X031419Y02446D02*
X031509D01*
X031359Y024295D02*
X031464D01*
X031476Y023402D02*
X031446Y023387D01*
X031401Y023342D01*
Y023657D01*
X031416Y023357D02*
Y023657D01*
X031476D02*
X031341D01*
X031242Y023342D02*
Y023657D01*
X031227Y023342D02*
Y023657D01*
X031032Y023342D02*
X031227Y023537D01*
X031152Y023477D02*
X031032Y023657D01*
X031167Y023477D02*
X031047Y023657D01*
X031287Y023342D02*
X031182D01*
X031092D02*
X031002D01*
X031287Y023657D02*
X031182D01*
X031092D02*
X031002D01*
X030948Y023402D02*
X030933Y023417D01*
X030948Y023432D01*
X030963Y023417D01*
Y023402D01*
X030948Y023372D01*
X030933Y023357D01*
X030889Y023342D01*
X030829D01*
X030784Y023357D01*
X030769Y023372D01*
X030754Y023402D01*
Y023432D01*
X030769Y023462D01*
X030814Y023492D01*
X030889Y023522D01*
X030919Y023537D01*
X030948Y023567D01*
X030963Y023612D01*
Y023657D01*
X030829Y023342D02*
X030799Y023357D01*
X030784Y023372D01*
X030769Y023402D01*
Y023432D01*
X030784Y023462D01*
X030829Y023492D01*
X030889Y023522D01*
X030963Y023627D02*
X030948Y023612D01*
X030919D01*
X030844Y023642D01*
X030799D01*
X030769Y023627D01*
X030754Y023612D01*
Y023582D01*
X030919Y023612D02*
X030844Y023657D01*
X030784D01*
X030769Y023642D01*
X030754Y023612D01*
X027416Y02365D02*
X027446Y023665D01*
X027491Y02371D01*
Y023395D01*
X027476Y023695D02*
Y023395D01*
X027416D02*
X027551D01*
X027695Y02371D02*
X02765Y023695D01*
X02762Y02365D01*
X027605Y023575D01*
Y02353D01*
X02762Y023455D01*
X02765Y02341D01*
X027695Y023395D01*
X027725D01*
X02777Y02341D01*
X0278Y023455D01*
X027815Y02353D01*
Y023575D01*
X0278Y02365D01*
X02777Y023695D01*
X027725Y02371D01*
X027695D01*
X027665Y023695D01*
X02765Y02368D01*
X027635Y02365D01*
X02762Y023575D01*
Y02353D01*
X027635Y023455D01*
X02765Y023425D01*
X027665Y02341D01*
X027695Y023395D01*
X027725D02*
X027755Y02341D01*
X02777Y023425D01*
X027785Y023455D01*
X0278Y02353D01*
Y023575D01*
X027785Y02365D01*
X02777Y02368D01*
X027755Y023695D01*
X027725Y02371D01*
X027906Y023605D02*
Y02329D01*
X027921Y023605D02*
Y02329D01*
Y02356D02*
X027951Y02359D01*
X027981Y023605D01*
X028011D01*
X028056Y02359D01*
X028086Y02356D01*
X028101Y023515D01*
Y023485D01*
X028086Y02344D01*
X028056Y02341D01*
X028011Y023395D01*
X027981D01*
X027951Y02341D01*
X027921Y02344D01*
X028011Y023605D02*
X028041Y02359D01*
X028071Y02356D01*
X028086Y023515D01*
Y023485D01*
X028071Y02344D01*
X028041Y02341D01*
X028011Y023395D01*
X027861Y023605D02*
X027921D01*
X027861Y02329D02*
X027966D01*
X028189Y02371D02*
Y023395D01*
X028204Y02371D02*
Y023395D01*
X028294Y02362D02*
Y0235D01*
X028144Y02371D02*
X028384D01*
Y02362D01*
X028369Y02371D01*
X028204Y02356D02*
X028294D01*
X028144Y023395D02*
X028249D01*
X020132Y028598D02*
X020147Y028583D01*
X020132Y028568D01*
X020117Y028583D01*
Y028598D01*
X020132Y028628D01*
X020147Y028643D01*
X020192Y028658D01*
X020252D01*
X020297Y028643D01*
X020312Y028613D01*
Y028568D01*
X020297Y028538D01*
X020252Y028523D01*
X020207D01*
X020252Y028658D02*
X020282Y028643D01*
X020297Y028613D01*
Y028568D01*
X020282Y028538D01*
X020252Y028523D01*
X020282Y028508D01*
X020312Y028478D01*
X020327Y028448D01*
Y028403D01*
X020312Y028373D01*
X020297Y028358D01*
X020252Y028343D01*
X020192D01*
X020147Y028358D01*
X020132Y028373D01*
X020117Y028403D01*
Y028418D01*
X020132Y028433D01*
X020147Y028418D01*
X020132Y028403D01*
X020297Y028493D02*
X020312Y028448D01*
Y028403D01*
X020297Y028373D01*
X020282Y028358D01*
X020252Y028343D01*
X020418Y028553D02*
Y028388D01*
X020433Y028358D01*
X020478Y028343D01*
X020508D01*
X020553Y028358D01*
X020583Y028388D01*
X020433Y028553D02*
Y028388D01*
X020448Y028358D01*
X020478Y028343D01*
X020583Y028553D02*
Y028343D01*
X020598Y028553D02*
Y028343D01*
X020373Y028553D02*
X020433D01*
X020538D02*
X020598D01*
X020583Y028343D02*
X020643D01*
X020728Y028658D02*
Y028343D01*
X020743Y028658D02*
Y028343D01*
X020923Y028658D02*
Y028343D01*
X020938Y028658D02*
Y028343D01*
X020683Y028658D02*
X020788D01*
X020878D02*
X020983D01*
X020743Y028508D02*
X020923D01*
X020683Y028343D02*
X020788D01*
X020878D02*
X020983D01*
X017492Y025692D02*
X017507Y025647D01*
X017552Y025617D01*
X017627Y025602D01*
X017672D01*
X017747Y025617D01*
X017792Y025647D01*
X017807Y025692D01*
Y025722D01*
X017792Y025767D01*
X017747Y025797D01*
X017672Y025812D01*
X017627D01*
X017552Y025797D01*
X017507Y025767D01*
X017492Y025722D01*
Y025692D01*
X017507Y025662D01*
X017522Y025647D01*
X017552Y025632D01*
X017627Y025617D01*
X017672D01*
X017747Y025632D01*
X017777Y025647D01*
X017792Y025662D01*
X017807Y025692D01*
Y025722D02*
X017792Y025752D01*
X017777Y025767D01*
X017747Y025782D01*
X017672Y025797D01*
X017627D01*
X017552Y025782D01*
X017522Y025767D01*
X017507Y025752D01*
X017492Y025722D01*
Y025903D02*
X017807D01*
X017492Y025918D02*
X017807D01*
X017492Y025858D02*
Y026038D01*
X017507Y026083D01*
X017522Y026098D01*
X017552Y026113D01*
X017582D01*
X017612Y026098D01*
X017627Y026083D01*
X017642Y026038D01*
Y025918D01*
X017492Y026038D02*
X017507Y026068D01*
X017522Y026083D01*
X017552Y026098D01*
X017582D01*
X017612Y026083D01*
X017627Y026068D01*
X017642Y026038D01*
X017807Y025858D02*
Y025963D01*
X017642Y025993D02*
X017657Y026023D01*
X017672Y026038D01*
X017777Y026083D01*
X017792Y026098D01*
Y026113D01*
X017777Y026128D01*
X017657Y026023D02*
X017687Y026038D01*
X017792Y026068D01*
X017807Y026083D01*
Y026113D01*
X017777Y026128D01*
X017762D01*
X020002Y021024D02*
X019987Y021054D01*
X019942Y021099D01*
X020257D01*
X019957Y021084D02*
X020257D01*
Y021024D02*
Y021159D01*
X019942Y021303D02*
X019957Y021258D01*
X020002Y021228D01*
X020077Y021213D01*
X020122D01*
X020197Y021228D01*
X020242Y021258D01*
X020257Y021303D01*
Y021333D01*
X020242Y021378D01*
X020197Y021408D01*
X020122Y021423D01*
X020077D01*
X020002Y021408D01*
X019957Y021378D01*
X019942Y021333D01*
Y021303D01*
X019957Y021273D01*
X019972Y021258D01*
X020002Y021243D01*
X020077Y021228D01*
X020122D01*
X020197Y021243D01*
X020227Y021258D01*
X020242Y021273D01*
X020257Y021303D01*
Y021333D02*
X020242Y021363D01*
X020227Y021378D01*
X020197Y021393D01*
X020122Y021408D01*
X020077D01*
X020002Y021393D01*
X019972Y021378D01*
X019957Y021363D01*
X019942Y021333D01*
Y021559D02*
X019957Y021514D01*
X020002Y021484D01*
X020077Y021469D01*
X020122D01*
X020197Y021484D01*
X020242Y021514D01*
X020257Y021559D01*
Y021589D01*
X020242Y021634D01*
X020197Y021664D01*
X020122Y021679D01*
X020077D01*
X020002Y021664D01*
X019957Y021634D01*
X019942Y021589D01*
Y021559D01*
X019957Y021529D01*
X019972Y021514D01*
X020002Y021499D01*
X020077Y021484D01*
X020122D01*
X020197Y021499D01*
X020227Y021514D01*
X020242Y021529D01*
X020257Y021559D01*
Y021589D02*
X020242Y021619D01*
X020227Y021634D01*
X020197Y021649D01*
X020122Y021664D01*
X020077D01*
X020002Y021649D01*
X019972Y021634D01*
X019957Y021619D01*
X019942Y021589D01*
X020047Y021771D02*
X020257D01*
X020047Y021786D02*
X020257D01*
X020092D02*
X020062Y021816D01*
X020047Y021861D01*
Y021891D01*
X020062Y021936D01*
X020092Y021951D01*
X020257D01*
X020047Y021891D02*
X020062Y021921D01*
X020092Y021936D01*
X020257D01*
X020047Y021726D02*
Y021786D01*
X020257Y021726D02*
Y021831D01*
Y021891D02*
Y021996D01*
X019942Y022081D02*
X020257D01*
X019942Y022096D02*
X020257D01*
X020032Y022186D02*
X020152D01*
X019942Y022036D02*
Y022276D01*
X020032D01*
X019942Y022261D01*
X020092Y022096D02*
Y022186D01*
X020257Y022036D02*
Y022141D01*
X014898Y022143D02*
X014913Y022113D01*
X014958Y022068D01*
X014643D01*
X014943Y022083D02*
X014643D01*
Y022143D02*
Y022008D01*
X014958Y021864D02*
X014943Y021909D01*
X014898Y021939D01*
X014823Y021954D01*
X014778D01*
X014703Y021939D01*
X014658Y021909D01*
X014643Y021864D01*
Y021834D01*
X014658Y021789D01*
X014703Y021759D01*
X014778Y021744D01*
X014823D01*
X014898Y021759D01*
X014943Y021789D01*
X014958Y021834D01*
Y021864D01*
X014943Y021894D01*
X014928Y021909D01*
X014898Y021924D01*
X014823Y021939D01*
X014778D01*
X014703Y021924D01*
X014673Y021909D01*
X014658Y021894D01*
X014643Y021864D01*
Y021834D02*
X014658Y021804D01*
X014673Y021789D01*
X014703Y021774D01*
X014778Y021759D01*
X014823D01*
X014898Y021774D01*
X014928Y021789D01*
X014943Y021804D01*
X014958Y021834D01*
Y021607D02*
X014943Y021652D01*
X014898Y021682D01*
X014823Y021697D01*
X014778D01*
X014703Y021682D01*
X014658Y021652D01*
X014643Y021607D01*
Y021577D01*
X014658Y021532D01*
X014703Y021502D01*
X014778Y021487D01*
X014823D01*
X014898Y021502D01*
X014943Y021532D01*
X014958Y021577D01*
Y021607D01*
X014943Y021637D01*
X014928Y021652D01*
X014898Y021667D01*
X014823Y021682D01*
X014778D01*
X014703Y021667D01*
X014673Y021652D01*
X014658Y021637D01*
X014643Y021607D01*
Y021577D02*
X014658Y021547D01*
X014673Y021532D01*
X014703Y021517D01*
X014778Y021502D01*
X014823D01*
X014898Y021517D01*
X014928Y021532D01*
X014943Y021547D01*
X014958Y021577D01*
X014853Y021396D02*
X014643D01*
X014853Y021381D02*
X014643D01*
X014808D02*
X014838Y021351D01*
X014853Y021306D01*
Y021276D01*
X014838Y021231D01*
X014808Y021216D01*
X014643D01*
X014853Y021276D02*
X014838Y021246D01*
X014808Y021231D01*
X014643D01*
X014853Y021441D02*
Y021381D01*
X014643Y021441D02*
Y021336D01*
Y021276D02*
Y021171D01*
X014958Y021085D02*
X014643D01*
X014958Y02107D02*
X014643D01*
X014868Y02098D02*
X014748D01*
X014958Y02113D02*
Y02089D01*
X014868D01*
X014958Y020905D01*
X014808Y02107D02*
Y02098D01*
X014643Y02113D02*
Y021025D01*
X014702Y019257D02*
X014687Y019287D01*
X014642Y019332D01*
X014957D01*
X014657Y019317D02*
X014957D01*
Y019257D02*
Y019392D01*
X014642Y019536D02*
X014657Y019491D01*
X014702Y019461D01*
X014777Y019446D01*
X014822D01*
X014897Y019461D01*
X014942Y019491D01*
X014957Y019536D01*
Y019566D01*
X014942Y019611D01*
X014897Y019641D01*
X014822Y019656D01*
X014777D01*
X014702Y019641D01*
X014657Y019611D01*
X014642Y019566D01*
Y019536D01*
X014657Y019506D01*
X014672Y019491D01*
X014702Y019476D01*
X014777Y019461D01*
X014822D01*
X014897Y019476D01*
X014927Y019491D01*
X014942Y019506D01*
X014957Y019536D01*
Y019566D02*
X014942Y019596D01*
X014927Y019611D01*
X014897Y019626D01*
X014822Y019641D01*
X014777D01*
X014702Y019626D01*
X014672Y019611D01*
X014657Y019596D01*
X014642Y019566D01*
Y019793D02*
X014657Y019748D01*
X014702Y019718D01*
X014777Y019703D01*
X014822D01*
X014897Y019718D01*
X014942Y019748D01*
X014957Y019793D01*
Y019823D01*
X014942Y019868D01*
X014897Y019898D01*
X014822Y019913D01*
X014777D01*
X014702Y019898D01*
X014657Y019868D01*
X014642Y019823D01*
Y019793D01*
X014657Y019763D01*
X014672Y019748D01*
X014702Y019733D01*
X014777Y019718D01*
X014822D01*
X014897Y019733D01*
X014927Y019748D01*
X014942Y019763D01*
X014957Y019793D01*
Y019823D02*
X014942Y019853D01*
X014927Y019868D01*
X014897Y019883D01*
X014822Y019898D01*
X014777D01*
X014702Y019883D01*
X014672Y019868D01*
X014657Y019853D01*
X014642Y019823D01*
X014747Y020004D02*
X014957D01*
X014747Y020019D02*
X014957D01*
X014792D02*
X014762Y020049D01*
X014747Y020094D01*
Y020124D01*
X014762Y020169D01*
X014792Y020184D01*
X014957D01*
X014747Y020124D02*
X014762Y020154D01*
X014792Y020169D01*
X014957D01*
X014747Y019959D02*
Y020019D01*
X014957Y019959D02*
Y020064D01*
Y020124D02*
Y020229D01*
X014642Y020315D02*
X014957D01*
X014642Y02033D02*
X014957D01*
X014732Y02042D02*
X014852D01*
X014642Y02027D02*
Y02051D01*
X014732D01*
X014642Y020495D01*
X014792Y02033D02*
Y02042D01*
X014957Y02027D02*
Y020375D01*
X011687Y016452D02*
X011657Y016437D01*
X011612Y016392D01*
Y016707D01*
X011627Y016407D02*
Y016707D01*
X011687D02*
X011552D01*
X011453Y016392D02*
Y016707D01*
X011438Y016392D02*
Y016707D01*
X011243Y016392D02*
X011438Y016587D01*
X011363Y016527D02*
X011243Y016707D01*
X011378Y016527D02*
X011258Y016707D01*
X011498Y016392D02*
X011393D01*
X011303D02*
X011213D01*
X011498Y016707D02*
X011393D01*
X011303D02*
X011213D01*
X018518Y01462D02*
X018503Y01465D01*
X018458Y014695D01*
X018772D01*
X018473Y01468D02*
X018772D01*
Y01462D02*
Y014755D01*
X018458Y014899D02*
X018473Y014854D01*
X018518Y014824D01*
X018592Y014809D01*
X018637D01*
X018712Y014824D01*
X018757Y014854D01*
X018772Y014899D01*
Y014929D01*
X018757Y014974D01*
X018712Y015004D01*
X018637Y015019D01*
X018592D01*
X018518Y015004D01*
X018473Y014974D01*
X018458Y014929D01*
Y014899D01*
X018473Y014869D01*
X018488Y014854D01*
X018518Y014839D01*
X018592Y014824D01*
X018637D01*
X018712Y014839D01*
X018742Y014854D01*
X018757Y014869D01*
X018772Y014899D01*
Y014929D02*
X018757Y014959D01*
X018742Y014974D01*
X018712Y014989D01*
X018637Y015004D01*
X018592D01*
X018518Y014989D01*
X018488Y014974D01*
X018473Y014959D01*
X018458Y014929D01*
X018562Y01511D02*
X018727D01*
X018757Y015125D01*
X018772Y01517D01*
Y0152D01*
X018757Y015245D01*
X018727Y015275D01*
X018562Y015125D02*
X018727D01*
X018757Y01514D01*
X018772Y01517D01*
X018562Y015275D02*
X018772D01*
X018562Y01529D02*
X018772D01*
X018562Y015065D02*
Y015125D01*
Y01523D02*
Y01529D01*
X018772Y015275D02*
Y015335D01*
X018458Y015421D02*
X018772D01*
X018458Y015436D02*
X018772D01*
X018548Y015526D02*
X018667D01*
X018458Y015376D02*
Y015616D01*
X018548D01*
X018458Y015601D01*
X018607Y015436D02*
Y015526D01*
X018772Y015376D02*
Y015481D01*
X017827Y01462D02*
X017812Y01465D01*
X017767Y014695D01*
X018082D01*
X017782Y01468D02*
X018082D01*
Y01462D02*
Y014755D01*
X017767Y014899D02*
X017782Y014854D01*
X017827Y014824D01*
X017902Y014809D01*
X017947D01*
X018022Y014824D01*
X018067Y014854D01*
X018082Y014899D01*
Y014929D01*
X018067Y014974D01*
X018022Y015004D01*
X017947Y015019D01*
X017902D01*
X017827Y015004D01*
X017782Y014974D01*
X017767Y014929D01*
Y014899D01*
X017782Y014869D01*
X017797Y014854D01*
X017827Y014839D01*
X017902Y014824D01*
X017947D01*
X018022Y014839D01*
X018052Y014854D01*
X018067Y014869D01*
X018082Y014899D01*
Y014929D02*
X018067Y014959D01*
X018052Y014974D01*
X018022Y014989D01*
X017947Y015004D01*
X017902D01*
X017827Y014989D01*
X017797Y014974D01*
X017782Y014959D01*
X017767Y014929D01*
X017872Y01511D02*
X018037D01*
X018067Y015125D01*
X018082Y01517D01*
Y0152D01*
X018067Y015245D01*
X018037Y015275D01*
X017872Y015125D02*
X018037D01*
X018067Y01514D01*
X018082Y01517D01*
X017872Y015275D02*
X018082D01*
X017872Y01529D02*
X018082D01*
X017872Y015065D02*
Y015125D01*
Y01523D02*
Y01529D01*
X018082Y015275D02*
Y015335D01*
X017767Y015421D02*
X018082D01*
X017767Y015436D02*
X018082D01*
X017857Y015526D02*
X017977D01*
X017767Y015376D02*
Y015616D01*
X017857D01*
X017767Y015601D01*
X017917Y015436D02*
Y015526D01*
X018082Y015376D02*
Y015481D01*
X021598Y013991D02*
X021613Y013961D01*
X021658Y013916D01*
X021343D01*
X021643Y013931D02*
X021343D01*
Y013991D02*
Y013856D01*
X021658Y013712D02*
X021643Y013757D01*
X021598Y013787D01*
X021523Y013802D01*
X021478D01*
X021403Y013787D01*
X021358Y013757D01*
X021343Y013712D01*
Y013682D01*
X021358Y013637D01*
X021403Y013607D01*
X021478Y013592D01*
X021523D01*
X021598Y013607D01*
X021643Y013637D01*
X021658Y013682D01*
Y013712D01*
X021643Y013742D01*
X021628Y013757D01*
X021598Y013772D01*
X021523Y013787D01*
X021478D01*
X021403Y013772D01*
X021373Y013757D01*
X021358Y013742D01*
X021343Y013712D01*
Y013682D02*
X021358Y013652D01*
X021373Y013637D01*
X021403Y013622D01*
X021478Y013607D01*
X021523D01*
X021598Y013622D01*
X021628Y013637D01*
X021643Y013652D01*
X021658Y013682D01*
Y013456D02*
X021643Y013501D01*
X021598Y013531D01*
X021523Y013546D01*
X021478D01*
X021403Y013531D01*
X021358Y013501D01*
X021343Y013456D01*
Y013426D01*
X021358Y013381D01*
X021403Y013351D01*
X021478Y013336D01*
X021523D01*
X021598Y013351D01*
X021643Y013381D01*
X021658Y013426D01*
Y013456D01*
X021643Y013486D01*
X021628Y013501D01*
X021598Y013516D01*
X021523Y013531D01*
X021478D01*
X021403Y013516D01*
X021373Y013501D01*
X021358Y013486D01*
X021343Y013456D01*
Y013426D02*
X021358Y013396D01*
X021373Y013381D01*
X021403Y013366D01*
X021478Y013351D01*
X021523D01*
X021598Y013366D01*
X021628Y013381D01*
X021643Y013396D01*
X021658Y013426D01*
X021553Y013244D02*
X021343D01*
X021553Y013229D02*
X021343D01*
X021508D02*
X021538Y013199D01*
X021553Y013154D01*
Y013124D01*
X021538Y013079D01*
X021508Y013064D01*
X021343D01*
X021553Y013124D02*
X021538Y013094D01*
X021508Y013079D01*
X021343D01*
X021553Y013289D02*
Y013229D01*
X021343Y013289D02*
Y013184D01*
Y013124D02*
Y013019D01*
X021658Y012934D02*
X021343D01*
X021658Y012919D02*
X021343D01*
X021568Y012829D02*
X021448D01*
X021658Y012979D02*
Y012739D01*
X021568D01*
X021658Y012754D01*
X021508Y012919D02*
Y012829D01*
X021343Y012979D02*
Y012874D01*
X021598Y012065D02*
X021613Y012035D01*
X021658Y01199D01*
X021343D01*
X021643Y012005D02*
X021343D01*
Y012065D02*
Y01193D01*
X021658Y011786D02*
X021643Y011831D01*
X021598Y011861D01*
X021523Y011876D01*
X021478D01*
X021403Y011861D01*
X021358Y011831D01*
X021343Y011786D01*
Y011756D01*
X021358Y011711D01*
X021403Y011681D01*
X021478Y011666D01*
X021523D01*
X021598Y011681D01*
X021643Y011711D01*
X021658Y011756D01*
Y011786D01*
X021643Y011816D01*
X021628Y011831D01*
X021598Y011846D01*
X021523Y011861D01*
X021478D01*
X021403Y011846D01*
X021373Y011831D01*
X021358Y011816D01*
X021343Y011786D01*
Y011756D02*
X021358Y011726D01*
X021373Y011711D01*
X021403Y011696D01*
X021478Y011681D01*
X021523D01*
X021598Y011696D01*
X021628Y011711D01*
X021643Y011726D01*
X021658Y011756D01*
Y011575D02*
X021343D01*
X021658Y01156D02*
X021343D01*
X021658Y011365D02*
X021463Y01156D01*
X021523Y011485D02*
X021343Y011365D01*
X021523Y0115D02*
X021343Y01138D01*
X021658Y01162D02*
Y011515D01*
Y011425D02*
Y011335D01*
X021343Y01162D02*
Y011515D01*
Y011425D02*
Y011335D01*
X020523Y011222D02*
Y011507D01*
X020433Y011417D02*
X020673D01*
X020508Y011192D01*
Y011507D01*
X020568D02*
X020463D01*
X020194Y011297D02*
X020209Y011342D01*
X020239Y011372D01*
X020284Y011387D01*
X020299D01*
X020344Y011372D01*
X020374Y011342D01*
X020389Y011297D01*
Y011282D01*
X020374Y011237D01*
X020344Y011207D01*
X020299Y011192D01*
X020269D01*
X020224Y011207D01*
X020194Y011237D01*
X020179Y011282D01*
Y011372D01*
X020194Y011432D01*
X020209Y011462D01*
X020239Y011492D01*
X020284Y011507D01*
X020329D01*
X020359Y011492D01*
X020374Y011462D01*
Y011447D01*
X020359Y011432D01*
X020344Y011447D01*
X020359Y011462D01*
X020299Y011387D02*
X020329Y011372D01*
X020359Y011342D01*
X020374Y011297D01*
Y011282D01*
X020359Y011237D01*
X020329Y011207D01*
X020299Y011192D01*
X020269D02*
X020239Y011207D01*
X020209Y011237D01*
X020194Y011282D01*
Y011372D01*
X020209Y011432D01*
X020224Y011462D01*
X020254Y011492D01*
X020284Y011507D01*
X020118Y011477D02*
X020133Y011492D01*
X020118Y011507D01*
X020103Y011492D01*
X020118Y011477D01*
X019844Y011297D02*
X019859Y011342D01*
X019889Y011372D01*
X019934Y011387D01*
X019949D01*
X019994Y011372D01*
X020024Y011342D01*
X020039Y011297D01*
Y011282D01*
X020024Y011237D01*
X019994Y011207D01*
X019949Y011192D01*
X019919D01*
X019874Y011207D01*
X019844Y011237D01*
X019829Y011282D01*
Y011372D01*
X019844Y011432D01*
X019859Y011462D01*
X019889Y011492D01*
X019934Y011507D01*
X019979D01*
X020009Y011492D01*
X020024Y011462D01*
Y011447D01*
X020009Y011432D01*
X019994Y011447D01*
X020009Y011462D01*
X019949Y011387D02*
X019979Y011372D01*
X020009Y011342D01*
X020024Y011297D01*
Y011282D01*
X020009Y011237D01*
X019979Y011207D01*
X019949Y011192D01*
X019919D02*
X019889Y011207D01*
X019859Y011237D01*
X019844Y011282D01*
Y011372D01*
X019859Y011432D01*
X019874Y011462D01*
X019904Y011492D01*
X019934Y011507D01*
X019737Y011192D02*
Y011507D01*
X019722Y011192D02*
Y011507D01*
X019527Y011192D02*
X019722Y011387D01*
X019647Y011327D02*
X019527Y011507D01*
X019662Y011327D02*
X019542Y011507D01*
X019782Y011192D02*
X019677D01*
X019587D02*
X019497D01*
X019782Y011507D02*
X019677D01*
X019587D02*
X019497D01*
X018713Y013398D02*
X018728Y013368D01*
X018773Y013323D01*
X018458D01*
X018758Y013338D02*
X018458D01*
Y013398D02*
Y013263D01*
X018773Y013119D02*
X018758Y013164D01*
X018713Y013194D01*
X018638Y013209D01*
X018593D01*
X018518Y013194D01*
X018473Y013164D01*
X018458Y013119D01*
Y013089D01*
X018473Y013044D01*
X018518Y013014D01*
X018593Y012999D01*
X018638D01*
X018713Y013014D01*
X018758Y013044D01*
X018773Y013089D01*
Y013119D01*
X018758Y013149D01*
X018743Y013164D01*
X018713Y013179D01*
X018638Y013194D01*
X018593D01*
X018518Y013179D01*
X018488Y013164D01*
X018473Y013149D01*
X018458Y013119D01*
Y013089D02*
X018473Y013059D01*
X018488Y013044D01*
X018518Y013029D01*
X018593Y013014D01*
X018638D01*
X018713Y013029D01*
X018743Y013044D01*
X018758Y013059D01*
X018773Y013089D01*
X018668Y012907D02*
X018503D01*
X018473Y012892D01*
X018458Y012847D01*
Y012817D01*
X018473Y012773D01*
X018503Y012743D01*
X018668Y012892D02*
X018503D01*
X018473Y012877D01*
X018458Y012847D01*
X018668Y012743D02*
X018458D01*
X018668Y012728D02*
X018458D01*
X018668Y012952D02*
Y012892D01*
Y012788D02*
Y012728D01*
X018458Y012743D02*
Y012683D01*
X018773Y012597D02*
X018458D01*
X018773Y012582D02*
X018458D01*
X018683Y012492D02*
X018563D01*
X018773Y012642D02*
Y012402D01*
X018683D01*
X018773Y012417D01*
X018623Y012582D02*
Y012492D01*
X018458Y012642D02*
Y012537D01*
X018023Y013398D02*
X018038Y013368D01*
X018083Y013323D01*
X017768D01*
X018068Y013338D02*
X017768D01*
Y013398D02*
Y013263D01*
X018083Y013119D02*
X018068Y013164D01*
X018023Y013194D01*
X017948Y013209D01*
X017903D01*
X017828Y013194D01*
X017783Y013164D01*
X017768Y013119D01*
Y013089D01*
X017783Y013044D01*
X017828Y013014D01*
X017903Y012999D01*
X017948D01*
X018023Y013014D01*
X018068Y013044D01*
X018083Y013089D01*
Y013119D01*
X018068Y013149D01*
X018053Y013164D01*
X018023Y013179D01*
X017948Y013194D01*
X017903D01*
X017828Y013179D01*
X017798Y013164D01*
X017783Y013149D01*
X017768Y013119D01*
Y013089D02*
X017783Y013059D01*
X017798Y013044D01*
X017828Y013029D01*
X017903Y013014D01*
X017948D01*
X018023Y013029D01*
X018053Y013044D01*
X018068Y013059D01*
X018083Y013089D01*
X017978Y012907D02*
X017813D01*
X017783Y012892D01*
X017768Y012847D01*
Y012817D01*
X017783Y012773D01*
X017813Y012743D01*
X017978Y012892D02*
X017813D01*
X017783Y012877D01*
X017768Y012847D01*
X017978Y012743D02*
X017768D01*
X017978Y012728D02*
X017768D01*
X017978Y012952D02*
Y012892D01*
Y012788D02*
Y012728D01*
X017768Y012743D02*
Y012683D01*
X018083Y012597D02*
X017768D01*
X018083Y012582D02*
X017768D01*
X017993Y012492D02*
X017873D01*
X018083Y012642D02*
Y012402D01*
X017993D01*
X018083Y012417D01*
X017933Y012582D02*
Y012492D01*
X017768Y012642D02*
Y012537D01*
X017348Y013398D02*
X017363Y013368D01*
X017408Y013323D01*
X017093D01*
X017393Y013338D02*
X017093D01*
Y013398D02*
Y013263D01*
X017408Y013119D02*
X017393Y013164D01*
X017348Y013194D01*
X017273Y013209D01*
X017228D01*
X017153Y013194D01*
X017108Y013164D01*
X017093Y013119D01*
Y013089D01*
X017108Y013044D01*
X017153Y013014D01*
X017228Y012999D01*
X017273D01*
X017348Y013014D01*
X017393Y013044D01*
X017408Y013089D01*
Y013119D01*
X017393Y013149D01*
X017378Y013164D01*
X017348Y013179D01*
X017273Y013194D01*
X017228D01*
X017153Y013179D01*
X017123Y013164D01*
X017108Y013149D01*
X017093Y013119D01*
Y013089D02*
X017108Y013059D01*
X017123Y013044D01*
X017153Y013029D01*
X017228Y013014D01*
X017273D01*
X017348Y013029D01*
X017378Y013044D01*
X017393Y013059D01*
X017408Y013089D01*
X017303Y012907D02*
X017138D01*
X017108Y012892D01*
X017093Y012847D01*
Y012818D01*
X017108Y012773D01*
X017138Y012743D01*
X017303Y012892D02*
X017138D01*
X017108Y012877D01*
X017093Y012847D01*
X017303Y012743D02*
X017093D01*
X017303Y012728D02*
X017093D01*
X017303Y012952D02*
Y012892D01*
Y012788D02*
Y012728D01*
X017093Y012743D02*
Y012683D01*
X017408Y012597D02*
X017093D01*
X017408Y012582D02*
X017093D01*
X017318Y012492D02*
X017198D01*
X017408Y012642D02*
Y012402D01*
X017318D01*
X017408Y012417D01*
X017258Y012582D02*
Y012492D01*
X017093Y012642D02*
Y012537D01*
X017152Y01462D02*
X017137Y01465D01*
X017092Y014695D01*
X017407D01*
X017107Y01468D02*
X017407D01*
Y01462D02*
Y014755D01*
X017092Y014899D02*
X017107Y014854D01*
X017152Y014824D01*
X017227Y014809D01*
X017272D01*
X017347Y014824D01*
X017392Y014854D01*
X017407Y014899D01*
Y014929D01*
X017392Y014974D01*
X017347Y015004D01*
X017272Y015019D01*
X017227D01*
X017152Y015004D01*
X017107Y014974D01*
X017092Y014929D01*
Y014899D01*
X017107Y014869D01*
X017122Y014854D01*
X017152Y014839D01*
X017227Y014824D01*
X017272D01*
X017347Y014839D01*
X017377Y014854D01*
X017392Y014869D01*
X017407Y014899D01*
Y014929D02*
X017392Y014959D01*
X017377Y014974D01*
X017347Y014989D01*
X017272Y015004D01*
X017227D01*
X017152Y014989D01*
X017122Y014974D01*
X017107Y014959D01*
X017092Y014929D01*
X017197Y01511D02*
X017362D01*
X017392Y015125D01*
X017407Y01517D01*
Y0152D01*
X017392Y015245D01*
X017362Y015275D01*
X017197Y015125D02*
X017362D01*
X017392Y01514D01*
X017407Y01517D01*
X017197Y015275D02*
X017407D01*
X017197Y01529D02*
X017407D01*
X017197Y015065D02*
Y015125D01*
Y01523D02*
Y01529D01*
X017407Y015275D02*
Y015335D01*
X017092Y015421D02*
X017407D01*
X017092Y015436D02*
X017407D01*
X017182Y015526D02*
X017302D01*
X017092Y015376D02*
Y015616D01*
X017182D01*
X017092Y015601D01*
X017242Y015436D02*
Y015526D01*
X017407Y015376D02*
Y015481D01*
X019852Y013906D02*
X019867Y013921D01*
X019882Y013906D01*
X019867Y013891D01*
X019852D01*
X019822Y013906D01*
X019807Y013921D01*
X019792Y013966D01*
Y014026D01*
X019807Y014071D01*
X019822Y014086D01*
X019852Y014101D01*
X019882D01*
X019912Y014086D01*
X019942Y014041D01*
X019972Y013966D01*
X019987Y013936D01*
X020017Y013906D01*
X020062Y013891D01*
X020107D01*
X019792Y014026D02*
X019807Y014056D01*
X019822Y014071D01*
X019852Y014086D01*
X019882D01*
X019912Y014071D01*
X019942Y014026D01*
X019972Y013966D01*
X020077Y013891D02*
X020062Y013906D01*
Y013936D01*
X020092Y014011D01*
Y014056D01*
X020077Y014086D01*
X020062Y014101D01*
X020032D01*
X020062Y013936D02*
X020107Y014011D01*
Y014071D01*
X020092Y014086D01*
X020062Y014101D01*
X020077Y014163D02*
X020092Y014148D01*
X020107Y014163D01*
X020092Y014178D01*
X020077Y014163D01*
X019852Y014257D02*
X019867Y014272D01*
X019882Y014257D01*
X019867Y014242D01*
X019852D01*
X019822Y014257D01*
X019807Y014272D01*
X019792Y014317D01*
Y014377D01*
X019807Y014422D01*
X019822Y014437D01*
X019852Y014452D01*
X019882D01*
X019912Y014437D01*
X019942Y014392D01*
X019972Y014317D01*
X019987Y014287D01*
X020017Y014257D01*
X020062Y014242D01*
X020107D01*
X019792Y014377D02*
X019807Y014407D01*
X019822Y014422D01*
X019852Y014437D01*
X019882D01*
X019912Y014422D01*
X019942Y014377D01*
X019972Y014317D01*
X020077Y014242D02*
X020062Y014257D01*
Y014287D01*
X020092Y014362D01*
Y014407D01*
X020077Y014437D01*
X020062Y014452D01*
X020032D01*
X020062Y014287D02*
X020107Y014362D01*
Y014422D01*
X020092Y014437D01*
X020062Y014452D01*
X019897Y014544D02*
X020062D01*
X020092Y014559D01*
X020107Y014603D01*
Y014633D01*
X020092Y014678D01*
X020062Y014708D01*
X019897Y014559D02*
X020062D01*
X020092Y014574D01*
X020107Y014603D01*
X019897Y014708D02*
X020107D01*
X019897Y014723D02*
X020107D01*
X019897Y014499D02*
Y014559D01*
Y014663D02*
Y014723D01*
X020107Y014708D02*
Y014768D01*
X019792Y014854D02*
X020107D01*
X019792Y014869D02*
X020107D01*
X019792Y015049D02*
X020107D01*
X019792Y015064D02*
X020107D01*
X019792Y014809D02*
Y014914D01*
Y015004D02*
Y015109D01*
X019942Y014869D02*
Y015049D01*
X020107Y014809D02*
Y014914D01*
Y015004D02*
Y015109D01*
X041991Y022592D02*
X042021Y022742D01*
X041991Y022712D01*
X041946Y022697D01*
X041901D01*
X041856Y022712D01*
X041826Y022742D01*
X041811Y022787D01*
Y022817D01*
X041826Y022862D01*
X041856Y022892D01*
X041901Y022907D01*
X041946D01*
X041991Y022892D01*
X042006Y022877D01*
X042021Y022847D01*
Y022832D01*
X042006Y022817D01*
X041991Y022832D01*
X042006Y022847D01*
X041901Y022697D02*
X041871Y022712D01*
X041841Y022742D01*
X041826Y022787D01*
Y022817D01*
X041841Y022862D01*
X041871Y022892D01*
X041901Y022907D01*
X041991Y022592D02*
X041841D01*
X041991Y022607D02*
X041916D01*
X041841Y022592D01*
X041719D02*
Y022907D01*
X041704Y022592D02*
Y022907D01*
X041509Y022592D02*
X041704Y022787D01*
X041629Y022727D02*
X041509Y022907D01*
X041644Y022727D02*
X041524Y022907D01*
X041764Y022592D02*
X041659D01*
X041569D02*
X041479D01*
X041764Y022907D02*
X041659D01*
X041569D02*
X041479D01*
X024939Y024248D02*
X024969Y024263D01*
X025014Y024308D01*
Y023993D01*
X024999Y024293D02*
Y023993D01*
X024939D02*
X025074D01*
X025173Y024308D02*
Y023993D01*
X025188Y024308D02*
Y023993D01*
X025382Y024308D02*
X025188Y024113D01*
X025263Y024173D02*
X025382Y023993D01*
X025248Y024173D02*
X025368Y023993D01*
X025128Y024308D02*
X025233D01*
X025323D02*
X025412D01*
X025128Y023993D02*
X025233D01*
X025323D02*
X025412D01*
X025466Y024248D02*
X025481Y024233D01*
X025466Y024218D01*
X025451Y024233D01*
Y024248D01*
X025466Y024278D01*
X025481Y024293D01*
X025526Y024308D01*
X025586D01*
X025631Y024293D01*
X025646Y024278D01*
X025661Y024248D01*
Y024218D01*
X025646Y024188D01*
X025601Y024158D01*
X025526Y024128D01*
X025496Y024113D01*
X025466Y024083D01*
X025451Y024038D01*
Y023993D01*
X025586Y024308D02*
X025616Y024293D01*
X025631Y024278D01*
X025646Y024248D01*
Y024218D01*
X025631Y024188D01*
X025586Y024158D01*
X025526Y024128D01*
X025451Y024023D02*
X025466Y024038D01*
X025496D01*
X025571Y024008D01*
X025616D01*
X025646Y024023D01*
X025661Y024038D01*
Y024068D01*
X025496Y024038D02*
X025571Y023993D01*
X025631D01*
X025646Y024008D01*
X025661Y024038D01*
X039963Y026698D02*
X039993Y026713D01*
X040038Y026758D01*
Y026443D01*
X040023Y026743D02*
Y026443D01*
X039963D02*
X040098D01*
X040197Y026758D02*
Y026443D01*
X040212Y026758D02*
Y026443D01*
X040407Y026758D02*
X040212Y026563D01*
X040287Y026623D02*
X040407Y026443D01*
X040272Y026623D02*
X040392Y026443D01*
X040152Y026758D02*
X040257D01*
X040347D02*
X040437D01*
X040152Y026443D02*
X040257D01*
X040347D02*
X040437D01*
X043457Y023602D02*
X043427Y023587D01*
X043382Y023542D01*
Y023857D01*
X043397Y023557D02*
Y023857D01*
X043457D02*
X043322D01*
X043223Y023542D02*
Y023857D01*
X043208Y023542D02*
Y023857D01*
X043058Y023647D02*
X043208Y023797D01*
X043133Y023737D02*
X043043Y023857D01*
X043148Y023737D02*
X043058Y023857D01*
X043268Y023542D02*
X043208D01*
X043103Y023647D02*
X043013D01*
X043268Y023857D02*
X043163D01*
X043103D02*
X043013D01*
X022948Y01975D02*
X022963Y01972D01*
X023008Y019675D01*
X022693D01*
X022993Y01969D02*
X022693D01*
Y01975D02*
Y019615D01*
X023008Y019471D02*
X022993Y019516D01*
X022948Y019546D01*
X022873Y019561D01*
X022828D01*
X022753Y019546D01*
X022708Y019516D01*
X022693Y019471D01*
Y019441D01*
X022708Y019396D01*
X022753Y019366D01*
X022828Y019351D01*
X022873D01*
X022948Y019366D01*
X022993Y019396D01*
X023008Y019441D01*
Y019471D01*
X022993Y019501D01*
X022978Y019516D01*
X022948Y019531D01*
X022873Y019546D01*
X022828D01*
X022753Y019531D01*
X022723Y019516D01*
X022708Y019501D01*
X022693Y019471D01*
Y019441D02*
X022708Y019411D01*
X022723Y019396D01*
X022753Y019381D01*
X022828Y019366D01*
X022873D01*
X022948Y019381D01*
X022978Y019396D01*
X022993Y019411D01*
X023008Y019441D01*
X022948Y019006D02*
X022933Y018991D01*
X022918Y019006D01*
X022933Y019021D01*
X022948D01*
X022978Y019006D01*
X022993Y018991D01*
X023008Y018961D01*
Y018916D01*
X022993Y018872D01*
X022978Y018857D01*
X022948Y018842D01*
X022918D01*
X022888Y018857D01*
X022873Y018872D01*
X022843Y018931D01*
X022798D01*
X023008Y018916D02*
X022993Y018886D01*
X022978Y018872D01*
X022948Y018857D01*
X022918D01*
X022888Y018872D01*
X022858Y018901D01*
X022723Y018931D02*
X022708Y018946D01*
X022693Y018931D01*
X022708Y018916D01*
X022723Y018931D01*
X023008Y018747D02*
X022693D01*
X023008Y018732D02*
X022693D01*
X022918Y018642D02*
X022798D01*
X023008Y018792D02*
Y018552D01*
X022918D01*
X023008Y018567D01*
X022858Y018732D02*
Y018642D01*
X022693Y018792D02*
Y018687D01*
X023948Y019777D02*
X023963Y019747D01*
X024008Y019702D01*
X023693D01*
X023993Y019717D02*
X023693D01*
Y019777D02*
Y019642D01*
X024008Y019498D02*
X023993Y019543D01*
X023948Y019573D01*
X023873Y019588D01*
X023828D01*
X023753Y019573D01*
X023708Y019543D01*
X023693Y019498D01*
Y019468D01*
X023708Y019423D01*
X023753Y019393D01*
X023828Y019378D01*
X023873D01*
X023948Y019393D01*
X023993Y019423D01*
X024008Y019468D01*
Y019498D01*
X023993Y019528D01*
X023978Y019543D01*
X023948Y019558D01*
X023873Y019573D01*
X023828D01*
X023753Y019558D01*
X023723Y019543D01*
X023708Y019528D01*
X023693Y019498D01*
Y019468D02*
X023708Y019438D01*
X023723Y019423D01*
X023753Y019408D01*
X023828Y019393D01*
X023873D01*
X023948Y019408D01*
X023978Y019423D01*
X023993Y019438D01*
X024008Y019468D01*
Y019242D02*
X023993Y019287D01*
X023948Y019317D01*
X023873Y019332D01*
X023828D01*
X023753Y019317D01*
X023708Y019287D01*
X023693Y019242D01*
Y019212D01*
X023708Y019167D01*
X023753Y019137D01*
X023828Y019122D01*
X023873D01*
X023948Y019137D01*
X023993Y019167D01*
X024008Y019212D01*
Y019242D01*
X023993Y019272D01*
X023978Y019287D01*
X023948Y019302D01*
X023873Y019317D01*
X023828D01*
X023753Y019302D01*
X023723Y019287D01*
X023708Y019272D01*
X023693Y019242D01*
Y019212D02*
X023708Y019182D01*
X023723Y019167D01*
X023753Y019152D01*
X023828Y019137D01*
X023873D01*
X023948Y019152D01*
X023978Y019167D01*
X023993Y019182D01*
X024008Y019212D01*
X023903Y01903D02*
X023693D01*
X023903Y019015D02*
X023693D01*
X023858D02*
X023888Y018985D01*
X023903Y01894D01*
Y01891D01*
X023888Y018865D01*
X023858Y018851D01*
X023693D01*
X023903Y01891D02*
X023888Y01888D01*
X023858Y018865D01*
X023693D01*
X023903Y019075D02*
Y019015D01*
X023693Y019075D02*
Y01897D01*
Y01891D02*
Y018806D01*
X024008Y01872D02*
X023693D01*
X024008Y018705D02*
X023693D01*
X023918Y018615D02*
X023798D01*
X024008Y018765D02*
Y018525D01*
X023918D01*
X024008Y01854D01*
X023858Y018705D02*
Y018615D01*
X023693Y018765D02*
Y01866D01*
X024835Y01975D02*
X02485Y01972D01*
X024895Y019675D01*
X02458D01*
X02488Y01969D02*
X02458D01*
Y01975D02*
Y019615D01*
X024895Y019471D02*
X02488Y019516D01*
X024835Y019546D01*
X02476Y019561D01*
X024715D01*
X02464Y019546D01*
X024595Y019516D01*
X02458Y019471D01*
Y019441D01*
X024595Y019396D01*
X02464Y019366D01*
X024715Y019351D01*
X02476D01*
X024835Y019366D01*
X02488Y019396D01*
X024895Y019441D01*
Y019471D01*
X02488Y019501D01*
X024865Y019516D01*
X024835Y019531D01*
X02476Y019546D01*
X024715D01*
X02464Y019531D01*
X02461Y019516D01*
X024595Y019501D01*
X02458Y019471D01*
Y019441D02*
X024595Y019411D01*
X02461Y019396D01*
X02464Y019381D01*
X024715Y019366D01*
X02476D01*
X024835Y019381D01*
X024865Y019396D01*
X02488Y019411D01*
X024895Y019441D01*
X024835Y019006D02*
X02482Y018991D01*
X024805Y019006D01*
X02482Y019021D01*
X024835D01*
X024865Y019006D01*
X02488Y018991D01*
X024895Y018961D01*
Y018916D01*
X02488Y018872D01*
X024865Y018857D01*
X024835Y018842D01*
X024805D01*
X024775Y018857D01*
X02476Y018872D01*
X02473Y018931D01*
X024685D01*
X024895Y018916D02*
X02488Y018886D01*
X024865Y018872D01*
X024835Y018857D01*
X024805D01*
X024775Y018872D01*
X024745Y018901D01*
X02461Y018931D02*
X024595Y018946D01*
X02458Y018931D01*
X024595Y018916D01*
X02461Y018931D01*
X024895Y018747D02*
X02458D01*
X024895Y018732D02*
X02458D01*
X024805Y018642D02*
X024685D01*
X024895Y018792D02*
Y018552D01*
X024805D01*
X024895Y018567D01*
X024745Y018732D02*
Y018642D01*
X02458Y018792D02*
Y018687D01*
X027229Y019777D02*
X027244Y019747D01*
X027289Y019702D01*
X026974D01*
X027274Y019717D02*
X026974D01*
Y019777D02*
Y019642D01*
X027289Y019498D02*
X027274Y019543D01*
X027229Y019573D01*
X027154Y019588D01*
X027109D01*
X027034Y019573D01*
X026989Y019543D01*
X026974Y019498D01*
Y019468D01*
X026989Y019423D01*
X027034Y019393D01*
X027109Y019378D01*
X027154D01*
X027229Y019393D01*
X027274Y019423D01*
X027289Y019468D01*
Y019498D01*
X027274Y019528D01*
X027259Y019543D01*
X027229Y019558D01*
X027154Y019573D01*
X027109D01*
X027034Y019558D01*
X027004Y019543D01*
X026989Y019528D01*
X026974Y019498D01*
Y019468D02*
X026989Y019438D01*
X027004Y019423D01*
X027034Y019408D01*
X027109Y019393D01*
X027154D01*
X027229Y019408D01*
X027259Y019423D01*
X027274Y019438D01*
X027289Y019468D01*
Y019242D02*
X027274Y019287D01*
X027229Y019317D01*
X027154Y019332D01*
X027109D01*
X027034Y019317D01*
X026989Y019287D01*
X026974Y019242D01*
Y019212D01*
X026989Y019167D01*
X027034Y019137D01*
X027109Y019122D01*
X027154D01*
X027229Y019137D01*
X027274Y019167D01*
X027289Y019212D01*
Y019242D01*
X027274Y019272D01*
X027259Y019287D01*
X027229Y019302D01*
X027154Y019317D01*
X027109D01*
X027034Y019302D01*
X027004Y019287D01*
X026989Y019272D01*
X026974Y019242D01*
Y019212D02*
X026989Y019182D01*
X027004Y019167D01*
X027034Y019152D01*
X027109Y019137D01*
X027154D01*
X027229Y019152D01*
X027259Y019167D01*
X027274Y019182D01*
X027289Y019212D01*
X027184Y01903D02*
X026974D01*
X027184Y019015D02*
X026974D01*
X027139D02*
X027169Y018985D01*
X027184Y01894D01*
Y01891D01*
X027169Y018865D01*
X027139Y018851D01*
X026974D01*
X027184Y01891D02*
X027169Y01888D01*
X027139Y018865D01*
X026974D01*
X027184Y019075D02*
Y019015D01*
X026974Y019075D02*
Y01897D01*
Y01891D02*
Y018806D01*
X027289Y01872D02*
X026974D01*
X027289Y018705D02*
X026974D01*
X027199Y018615D02*
X027079D01*
X027289Y018765D02*
Y018525D01*
X027199D01*
X027289Y01854D01*
X027139Y018705D02*
Y018615D01*
X026974Y018765D02*
Y01866D01*
X028217Y019777D02*
X028231Y019747D01*
X028276Y019702D01*
X027962D01*
X028261Y019717D02*
X027962D01*
Y019777D02*
Y019642D01*
X028276Y019498D02*
X028261Y019543D01*
X028217Y019573D01*
X028142Y019588D01*
X028097D01*
X028022Y019573D01*
X027977Y019543D01*
X027962Y019498D01*
Y019468D01*
X027977Y019423D01*
X028022Y019393D01*
X028097Y019378D01*
X028142D01*
X028217Y019393D01*
X028261Y019423D01*
X028276Y019468D01*
Y019498D01*
X028261Y019528D01*
X028246Y019543D01*
X028217Y019558D01*
X028142Y019573D01*
X028097D01*
X028022Y019558D01*
X027992Y019543D01*
X027977Y019528D01*
X027962Y019498D01*
Y019468D02*
X027977Y019438D01*
X027992Y019423D01*
X028022Y019408D01*
X028097Y019393D01*
X028142D01*
X028217Y019408D01*
X028246Y019423D01*
X028261Y019438D01*
X028276Y019468D01*
Y019242D02*
X028261Y019287D01*
X028217Y019317D01*
X028142Y019332D01*
X028097D01*
X028022Y019317D01*
X027977Y019287D01*
X027962Y019242D01*
Y019212D01*
X027977Y019167D01*
X028022Y019137D01*
X028097Y019122D01*
X028142D01*
X028217Y019137D01*
X028261Y019167D01*
X028276Y019212D01*
Y019242D01*
X028261Y019272D01*
X028246Y019287D01*
X028217Y019302D01*
X028142Y019317D01*
X028097D01*
X028022Y019302D01*
X027992Y019287D01*
X027977Y019272D01*
X027962Y019242D01*
Y019212D02*
X027977Y019182D01*
X027992Y019167D01*
X028022Y019152D01*
X028097Y019137D01*
X028142D01*
X028217Y019152D01*
X028246Y019167D01*
X028261Y019182D01*
X028276Y019212D01*
X028172Y01903D02*
X027962D01*
X028172Y019015D02*
X027962D01*
X028127D02*
X028157Y018985D01*
X028172Y01894D01*
Y01891D01*
X028157Y018865D01*
X028127Y018851D01*
X027962D01*
X028172Y01891D02*
X028157Y01888D01*
X028127Y018865D01*
X027962D01*
X028172Y019075D02*
Y019015D01*
X027962Y019075D02*
Y01897D01*
Y01891D02*
Y018806D01*
X028276Y01872D02*
X027962D01*
X028276Y018705D02*
X027962D01*
X028187Y018615D02*
X028067D01*
X028276Y018765D02*
Y018525D01*
X028187D01*
X028276Y01854D01*
X028127Y018705D02*
Y018615D01*
X027962Y018765D02*
Y01866D01*
X029098Y01975D02*
X029113Y01972D01*
X029158Y019675D01*
X028843D01*
X029143Y01969D02*
X028843D01*
Y01975D02*
Y019615D01*
X029158Y019471D02*
X029143Y019516D01*
X029098Y019546D01*
X029023Y019561D01*
X028978D01*
X028903Y019546D01*
X028858Y019516D01*
X028843Y019471D01*
Y019441D01*
X028858Y019396D01*
X028903Y019366D01*
X028978Y019351D01*
X029023D01*
X029098Y019366D01*
X029143Y019396D01*
X029158Y019441D01*
Y019471D01*
X029143Y019501D01*
X029128Y019516D01*
X029098Y019531D01*
X029023Y019546D01*
X028978D01*
X028903Y019531D01*
X028873Y019516D01*
X028858Y019501D01*
X028843Y019471D01*
Y019441D02*
X028858Y019411D01*
X028873Y019396D01*
X028903Y019381D01*
X028978Y019366D01*
X029023D01*
X029098Y019381D01*
X029128Y019396D01*
X029143Y019411D01*
X029158Y019441D01*
X029098Y019006D02*
X029083Y018991D01*
X029068Y019006D01*
X029083Y019021D01*
X029098D01*
X029128Y019006D01*
X029143Y018991D01*
X029158Y018961D01*
Y018916D01*
X029143Y018872D01*
X029128Y018857D01*
X029098Y018842D01*
X029068D01*
X029038Y018857D01*
X029023Y018872D01*
X028993Y018931D01*
X028948D01*
X029158Y018916D02*
X029143Y018886D01*
X029128Y018872D01*
X029098Y018857D01*
X029068D01*
X029038Y018872D01*
X029008Y018901D01*
X028873Y018931D02*
X028858Y018946D01*
X028843Y018931D01*
X028858Y018916D01*
X028873Y018931D01*
X029158Y018747D02*
X028843D01*
X029158Y018732D02*
X028843D01*
X029068Y018642D02*
X028948D01*
X029158Y018792D02*
Y018552D01*
X029068D01*
X029158Y018567D01*
X029008Y018732D02*
Y018642D01*
X028843Y018792D02*
Y018687D01*
X026242Y01975D02*
X026257Y01972D01*
X026302Y019675D01*
X025987D01*
X026287Y01969D02*
X025987D01*
Y01975D02*
Y019615D01*
X026302Y019471D02*
X026287Y019516D01*
X026242Y019546D01*
X026167Y019561D01*
X026122D01*
X026047Y019546D01*
X026002Y019516D01*
X025987Y019471D01*
Y019441D01*
X026002Y019396D01*
X026047Y019366D01*
X026122Y019351D01*
X026167D01*
X026242Y019366D01*
X026287Y019396D01*
X026302Y019441D01*
Y019471D01*
X026287Y019501D01*
X026272Y019516D01*
X026242Y019531D01*
X026167Y019546D01*
X026122D01*
X026047Y019531D01*
X026017Y019516D01*
X026002Y019501D01*
X025987Y019471D01*
Y019441D02*
X026002Y019411D01*
X026017Y019396D01*
X026047Y019381D01*
X026122Y019366D01*
X026167D01*
X026242Y019381D01*
X026272Y019396D01*
X026287Y019411D01*
X026302Y019441D01*
X026242Y019006D02*
X026227Y018991D01*
X026212Y019006D01*
X026227Y019021D01*
X026242D01*
X026272Y019006D01*
X026287Y018991D01*
X026302Y018961D01*
Y018916D01*
X026287Y018872D01*
X026272Y018857D01*
X026242Y018842D01*
X026212D01*
X026182Y018857D01*
X026167Y018872D01*
X026137Y018931D01*
X026092D01*
X026302Y018916D02*
X026287Y018886D01*
X026272Y018872D01*
X026242Y018857D01*
X026212D01*
X026182Y018872D01*
X026152Y018901D01*
X026017Y018931D02*
X026002Y018946D01*
X025987Y018931D01*
X026002Y018916D01*
X026017Y018931D01*
X026302Y018747D02*
X025987D01*
X026302Y018732D02*
X025987D01*
X026212Y018642D02*
X026092D01*
X026302Y018792D02*
Y018552D01*
X026212D01*
X026302Y018567D01*
X026152Y018732D02*
Y018642D01*
X025987Y018792D02*
Y018687D01*
X018298Y019066D02*
X018313Y019036D01*
X018358Y018991D01*
X018043D01*
X018343Y019006D02*
X018043D01*
Y019066D02*
Y018931D01*
X018358Y018787D02*
X018343Y018832D01*
X018298Y018862D01*
X018223Y018877D01*
X018178D01*
X018103Y018862D01*
X018058Y018832D01*
X018043Y018787D01*
Y018757D01*
X018058Y018712D01*
X018103Y018682D01*
X018178Y018667D01*
X018223D01*
X018298Y018682D01*
X018343Y018712D01*
X018358Y018757D01*
Y018787D01*
X018343Y018817D01*
X018328Y018832D01*
X018298Y018847D01*
X018223Y018862D01*
X018178D01*
X018103Y018847D01*
X018073Y018832D01*
X018058Y018817D01*
X018043Y018787D01*
Y018757D02*
X018058Y018727D01*
X018073Y018712D01*
X018103Y018697D01*
X018178Y018682D01*
X018223D01*
X018298Y018697D01*
X018328Y018712D01*
X018343Y018727D01*
X018358Y018757D01*
X018298Y018322D02*
X018283Y018307D01*
X018268Y018322D01*
X018283Y018337D01*
X018298D01*
X018328Y018322D01*
X018343Y018307D01*
X018358Y018277D01*
Y018232D01*
X018343Y018187D01*
X018328Y018172D01*
X018298Y018157D01*
X018268D01*
X018238Y018172D01*
X018223Y018187D01*
X018193Y018247D01*
X018148D01*
X018358Y018232D02*
X018343Y018202D01*
X018328Y018187D01*
X018298Y018172D01*
X018268D01*
X018238Y018187D01*
X018208Y018217D01*
X018073Y018247D02*
X018058Y018262D01*
X018043Y018247D01*
X018058Y018232D01*
X018073Y018247D01*
X018358Y018062D02*
X018043D01*
X018358Y018047D02*
X018043D01*
X018268Y017957D02*
X018148D01*
X018358Y018107D02*
Y017867D01*
X018268D01*
X018358Y017882D01*
X018208Y018047D02*
Y017957D01*
X018043Y018107D02*
Y018002D01*
X017348Y019084D02*
X017363Y019054D01*
X017408Y019009D01*
X017093D01*
X017393Y019024D02*
X017093D01*
Y019084D02*
Y018949D01*
X017408Y018805D02*
X017393Y01885D01*
X017348Y01888D01*
X017273Y018895D01*
X017228D01*
X017153Y01888D01*
X017108Y01885D01*
X017093Y018805D01*
Y018775D01*
X017108Y01873D01*
X017153Y0187D01*
X017228Y018685D01*
X017273D01*
X017348Y0187D01*
X017393Y01873D01*
X017408Y018775D01*
Y018805D01*
X017393Y018835D01*
X017378Y01885D01*
X017348Y018865D01*
X017273Y01888D01*
X017228D01*
X017153Y018865D01*
X017123Y01885D01*
X017108Y018835D01*
X017093Y018805D01*
Y018775D02*
X017108Y018745D01*
X017123Y01873D01*
X017153Y018715D01*
X017228Y0187D01*
X017273D01*
X017348Y018715D01*
X017378Y01873D01*
X017393Y018745D01*
X017408Y018775D01*
X017348Y01834D02*
X017333Y018325D01*
X017318Y01834D01*
X017333Y018355D01*
X017348D01*
X017378Y01834D01*
X017393Y018325D01*
X017408Y018295D01*
Y01825D01*
X017393Y018205D01*
X017378Y01819D01*
X017348Y018175D01*
X017318D01*
X017288Y01819D01*
X017273Y018205D01*
X017243Y018265D01*
X017198D01*
X017408Y01825D02*
X017393Y01822D01*
X017378Y018205D01*
X017348Y01819D01*
X017318D01*
X017288Y018205D01*
X017258Y018235D01*
X017123Y018265D02*
X017108Y01828D01*
X017093Y018265D01*
X017108Y01825D01*
X017123Y018265D01*
X017408Y018081D02*
X017093D01*
X017408Y018066D02*
X017093D01*
X017318Y017976D02*
X017198D01*
X017408Y018126D02*
Y017886D01*
X017318D01*
X017408Y017901D01*
X017258Y018066D02*
Y017976D01*
X017093Y018126D02*
Y018021D01*
X036502Y010885D02*
X036487Y010915D01*
X036442Y01096D01*
X036757D01*
X036457Y010945D02*
X036757D01*
Y010885D02*
Y01102D01*
X036442Y011164D02*
X036457Y011119D01*
X036502Y011089D01*
X036577Y011074D01*
X036622D01*
X036697Y011089D01*
X036742Y011119D01*
X036757Y011164D01*
Y011194D01*
X036742Y011239D01*
X036697Y011269D01*
X036622Y011284D01*
X036577D01*
X036502Y011269D01*
X036457Y011239D01*
X036442Y011194D01*
Y011164D01*
X036457Y011134D01*
X036472Y011119D01*
X036502Y011104D01*
X036577Y011089D01*
X036622D01*
X036697Y011104D01*
X036727Y011119D01*
X036742Y011134D01*
X036757Y011164D01*
Y011194D02*
X036742Y011224D01*
X036727Y011239D01*
X036697Y011254D01*
X036622Y011269D01*
X036577D01*
X036502Y011254D01*
X036472Y011239D01*
X036457Y011224D01*
X036442Y011194D01*
Y011375D02*
X036757D01*
X036442Y01139D02*
X036757D01*
X036442Y011585D02*
X036637Y01139D01*
X036577Y011465D02*
X036757Y011585D01*
X036577Y01145D02*
X036757Y01157D01*
X036442Y01133D02*
Y011435D01*
Y011525D02*
Y011615D01*
X036757Y01133D02*
Y011435D01*
Y011525D02*
Y011615D01*
X035602Y010885D02*
X035587Y010915D01*
X035542Y01096D01*
X035857D01*
X035557Y010945D02*
X035857D01*
Y010885D02*
Y01102D01*
X035542Y011164D02*
X035557Y011119D01*
X035602Y011089D01*
X035677Y011074D01*
X035722D01*
X035797Y011089D01*
X035842Y011119D01*
X035857Y011164D01*
Y011194D01*
X035842Y011239D01*
X035797Y011269D01*
X035722Y011284D01*
X035677D01*
X035602Y011269D01*
X035557Y011239D01*
X035542Y011194D01*
Y011164D01*
X035557Y011134D01*
X035572Y011119D01*
X035602Y011104D01*
X035677Y011089D01*
X035722D01*
X035797Y011104D01*
X035827Y011119D01*
X035842Y011134D01*
X035857Y011164D01*
Y011194D02*
X035842Y011224D01*
X035827Y011239D01*
X035797Y011254D01*
X035722Y011269D01*
X035677D01*
X035602Y011254D01*
X035572Y011239D01*
X035557Y011224D01*
X035542Y011194D01*
Y011375D02*
X035857D01*
X035542Y01139D02*
X035857D01*
X035542Y011585D02*
X035737Y01139D01*
X035677Y011465D02*
X035857Y011585D01*
X035677Y01145D02*
X035857Y01157D01*
X035542Y01133D02*
Y011435D01*
Y011525D02*
Y011615D01*
X035857Y01133D02*
Y011435D01*
Y011525D02*
Y011615D01*
X030597Y010957D02*
X030582Y010987D01*
X030538Y011032D01*
X030852D01*
X030552Y011017D02*
X030852D01*
Y010957D02*
Y011092D01*
X030538Y011236D02*
X030552Y011191D01*
X030597Y011161D01*
X030672Y011146D01*
X030717D01*
X030792Y011161D01*
X030837Y011191D01*
X030852Y011236D01*
Y011266D01*
X030837Y011311D01*
X030792Y011341D01*
X030717Y011356D01*
X030672D01*
X030597Y011341D01*
X030552Y011311D01*
X030538Y011266D01*
Y011236D01*
X030552Y011206D01*
X030567Y011191D01*
X030597Y011176D01*
X030672Y011161D01*
X030717D01*
X030792Y011176D01*
X030822Y011191D01*
X030837Y011206D01*
X030852Y011236D01*
Y011266D02*
X030837Y011296D01*
X030822Y011311D01*
X030792Y011326D01*
X030717Y011341D01*
X030672D01*
X030597Y011326D01*
X030567Y011311D01*
X030552Y011296D01*
X030538Y011266D01*
Y011447D02*
X030852D01*
X030538Y011462D02*
X030852D01*
X030538Y011657D02*
X030732Y011462D01*
X030672Y011537D02*
X030852Y011657D01*
X030672Y011522D02*
X030852Y011642D01*
X030538Y011402D02*
Y011507D01*
Y011597D02*
Y011687D01*
X030852Y011402D02*
Y011507D01*
Y011597D02*
Y011687D01*
X033352Y028167D02*
X033337Y028197D01*
X033292Y028242D01*
X033607D01*
X033307Y028227D02*
X033607D01*
Y028167D02*
Y028302D01*
X033292Y028446D02*
X033307Y028401D01*
X033352Y028371D01*
X033427Y028356D01*
X033472D01*
X033547Y028371D01*
X033592Y028401D01*
X033607Y028446D01*
Y028476D01*
X033592Y028521D01*
X033547Y028551D01*
X033472Y028566D01*
X033427D01*
X033352Y028551D01*
X033307Y028521D01*
X033292Y028476D01*
Y028446D01*
X033307Y028416D01*
X033322Y028401D01*
X033352Y028386D01*
X033427Y028371D01*
X033472D01*
X033547Y028386D01*
X033577Y028401D01*
X033592Y028416D01*
X033607Y028446D01*
Y028476D02*
X033592Y028506D01*
X033577Y028521D01*
X033547Y028536D01*
X033472Y028551D01*
X033427D01*
X033352Y028536D01*
X033322Y028521D01*
X033307Y028506D01*
X033292Y028476D01*
X033397Y028657D02*
X033562D01*
X033592Y028672D01*
X033607Y028717D01*
Y028747D01*
X033592Y028792D01*
X033562Y028822D01*
X033397Y028672D02*
X033562D01*
X033592Y028687D01*
X033607Y028717D01*
X033397Y028822D02*
X033607D01*
X033397Y028837D02*
X033607D01*
X033397Y028612D02*
Y028672D01*
Y028777D02*
Y028837D01*
X033607Y028822D02*
Y028882D01*
X033292Y028968D02*
X033607D01*
X033292Y028983D02*
X033607D01*
X033382Y029073D02*
X033502D01*
X033292Y028923D02*
Y029163D01*
X033382D01*
X033292Y029148D01*
X033442Y028983D02*
Y029073D01*
X033607Y028923D02*
Y029028D01*
X034252Y028167D02*
X034237Y028197D01*
X034192Y028242D01*
X034507D01*
X034207Y028227D02*
X034507D01*
Y028167D02*
Y028302D01*
X034192Y028446D02*
X034207Y028401D01*
X034252Y028371D01*
X034327Y028356D01*
X034372D01*
X034447Y028371D01*
X034492Y028401D01*
X034507Y028446D01*
Y028476D01*
X034492Y028521D01*
X034447Y028551D01*
X034372Y028566D01*
X034327D01*
X034252Y028551D01*
X034207Y028521D01*
X034192Y028476D01*
Y028446D01*
X034207Y028416D01*
X034222Y028401D01*
X034252Y028386D01*
X034327Y028371D01*
X034372D01*
X034447Y028386D01*
X034477Y028401D01*
X034492Y028416D01*
X034507Y028446D01*
Y028476D02*
X034492Y028506D01*
X034477Y028521D01*
X034447Y028536D01*
X034372Y028551D01*
X034327D01*
X034252Y028536D01*
X034222Y028521D01*
X034207Y028506D01*
X034192Y028476D01*
X034297Y028657D02*
X034462D01*
X034492Y028672D01*
X034507Y028717D01*
Y028747D01*
X034492Y028792D01*
X034462Y028822D01*
X034297Y028672D02*
X034462D01*
X034492Y028687D01*
X034507Y028717D01*
X034297Y028822D02*
X034507D01*
X034297Y028837D02*
X034507D01*
X034297Y028612D02*
Y028672D01*
Y028777D02*
Y028837D01*
X034507Y028822D02*
Y028882D01*
X034192Y028968D02*
X034507D01*
X034192Y028983D02*
X034507D01*
X034282Y029073D02*
X034402D01*
X034192Y028923D02*
Y029163D01*
X034282D01*
X034192Y029148D01*
X034342Y028983D02*
Y029073D01*
X034507Y028923D02*
Y029028D01*
X032451Y028152D02*
X032436Y028182D01*
X032391Y028227D01*
X032706D01*
X032406Y028212D02*
X032706D01*
Y028152D02*
Y028287D01*
X032391Y028431D02*
X032406Y028386D01*
X032451Y028356D01*
X032526Y028341D01*
X032571D01*
X032646Y028356D01*
X032691Y028386D01*
X032706Y028431D01*
Y028461D01*
X032691Y028506D01*
X032646Y028536D01*
X032571Y028551D01*
X032526D01*
X032451Y028536D01*
X032406Y028506D01*
X032391Y028461D01*
Y028431D01*
X032406Y028401D01*
X032421Y028386D01*
X032451Y028371D01*
X032526Y028356D01*
X032571D01*
X032646Y028371D01*
X032676Y028386D01*
X032691Y028401D01*
X032706Y028431D01*
Y028461D02*
X032691Y028491D01*
X032676Y028506D01*
X032646Y028521D01*
X032571Y028536D01*
X032526D01*
X032451Y028521D01*
X032421Y028506D01*
X032406Y028491D01*
X032391Y028461D01*
X032496Y028643D02*
X032661D01*
X032691Y028658D01*
X032706Y028703D01*
Y028732D01*
X032691Y028777D01*
X032661Y028807D01*
X032496Y028658D02*
X032661D01*
X032691Y028673D01*
X032706Y028703D01*
X032496Y028807D02*
X032706D01*
X032496Y028822D02*
X032706D01*
X032496Y028598D02*
Y028658D01*
Y028762D02*
Y028822D01*
X032706Y028807D02*
Y028867D01*
X032391Y028953D02*
X032706D01*
X032391Y028968D02*
X032706D01*
X032481Y029058D02*
X032601D01*
X032391Y028908D02*
Y029148D01*
X032481D01*
X032391Y029133D01*
X032541Y028968D02*
Y029058D01*
X032706Y028908D02*
Y029013D01*
X029742Y027027D02*
X029757Y026982D01*
X029802Y026952D01*
X029877Y026937D01*
X029922D01*
X029997Y026952D01*
X030042Y026982D01*
X030057Y027027D01*
Y027057D01*
X030042Y027102D01*
X029997Y027132D01*
X029922Y027147D01*
X029877D01*
X029802Y027132D01*
X029757Y027102D01*
X029742Y027057D01*
Y027027D01*
X029757Y026997D01*
X029772Y026982D01*
X029802Y026967D01*
X029877Y026952D01*
X029922D01*
X029997Y026967D01*
X030027Y026982D01*
X030042Y026997D01*
X030057Y027027D01*
Y027057D02*
X030042Y027087D01*
X030027Y027102D01*
X029997Y027117D01*
X029922Y027132D01*
X029877D01*
X029802Y027117D01*
X029772Y027102D01*
X029757Y027087D01*
X029742Y027057D01*
Y027238D02*
X030057D01*
X029742Y027253D02*
X030057D01*
X029742Y027193D02*
Y027373D01*
X029757Y027418D01*
X029772Y027433D01*
X029802Y027448D01*
X029832D01*
X029862Y027433D01*
X029877Y027418D01*
X029892Y027373D01*
Y027253D01*
X029742Y027373D02*
X029757Y027403D01*
X029772Y027418D01*
X029802Y027433D01*
X029832D01*
X029862Y027418D01*
X029877Y027403D01*
X029892Y027373D01*
X030057Y027193D02*
Y027298D01*
X029892Y027328D02*
X029907Y027358D01*
X029922Y027373D01*
X030027Y027418D01*
X030042Y027433D01*
Y027448D01*
X030027Y027463D01*
X029907Y027358D02*
X029937Y027373D01*
X030042Y027403D01*
X030057Y027418D01*
Y027448D01*
X030027Y027463D01*
X030012D01*
X028892Y027027D02*
X028907Y026982D01*
X028952Y026952D01*
X029027Y026937D01*
X029072D01*
X029147Y026952D01*
X029192Y026982D01*
X029207Y027027D01*
Y027057D01*
X029192Y027102D01*
X029147Y027132D01*
X029072Y027147D01*
X029027D01*
X028952Y027132D01*
X028907Y027102D01*
X028892Y027057D01*
Y027027D01*
X028907Y026997D01*
X028922Y026982D01*
X028952Y026967D01*
X029027Y026952D01*
X029072D01*
X029147Y026967D01*
X029177Y026982D01*
X029192Y026997D01*
X029207Y027027D01*
Y027057D02*
X029192Y027087D01*
X029177Y027102D01*
X029147Y027117D01*
X029072Y027132D01*
X029027D01*
X028952Y027117D01*
X028922Y027102D01*
X028907Y027087D01*
X028892Y027057D01*
Y027238D02*
X029207D01*
X028892Y027253D02*
X029207D01*
X028892Y027193D02*
Y027373D01*
X028907Y027418D01*
X028922Y027433D01*
X028952Y027448D01*
X028982D01*
X029012Y027433D01*
X029027Y027418D01*
X029042Y027373D01*
Y027253D01*
X028892Y027373D02*
X028907Y027403D01*
X028922Y027418D01*
X028952Y027433D01*
X028982D01*
X029012Y027418D01*
X029027Y027403D01*
X029042Y027373D01*
X029207Y027193D02*
Y027298D01*
X029042Y027328D02*
X029057Y027358D01*
X029072Y027373D01*
X029177Y027418D01*
X029192Y027433D01*
Y027448D01*
X029177Y027463D01*
X029057Y027358D02*
X029087Y027373D01*
X029192Y027403D01*
X029207Y027418D01*
Y027448D01*
X029177Y027463D01*
X029162D01*
X043748Y024501D02*
X043718Y024486D01*
X043673Y024441D01*
Y024756D01*
X043688Y024456D02*
Y024756D01*
X043748D02*
X043613D01*
X043469Y024441D02*
X043514Y024456D01*
X043544Y024501D01*
X043559Y024576D01*
Y024621D01*
X043544Y024696D01*
X043514Y024741D01*
X043469Y024756D01*
X043439D01*
X043394Y024741D01*
X043364Y024696D01*
X043349Y024621D01*
Y024576D01*
X043364Y024501D01*
X043394Y024456D01*
X043439Y024441D01*
X043469D01*
X043499Y024456D01*
X043514Y024471D01*
X043529Y024501D01*
X043544Y024576D01*
Y024621D01*
X043529Y024696D01*
X043514Y024726D01*
X043499Y024741D01*
X043469Y024756D01*
X043439D02*
X043409Y024741D01*
X043394Y024726D01*
X043379Y024696D01*
X043364Y024621D01*
Y024576D01*
X043379Y024501D01*
X043394Y024471D01*
X043409Y024456D01*
X043439Y024441D01*
X043257Y024546D02*
Y024756D01*
X043242Y024546D02*
Y024756D01*
Y024591D02*
X043212Y024561D01*
X043168Y024546D01*
X043138D01*
X043093Y024561D01*
X043078Y024591D01*
Y024756D01*
X043138Y024546D02*
X043108Y024561D01*
X043093Y024591D01*
Y024756D01*
X043302Y024546D02*
X043242D01*
X043302Y024756D02*
X043197D01*
X043138D02*
X043033D01*
X042947Y024441D02*
Y024756D01*
X042932Y024441D02*
Y024756D01*
X042842Y024531D02*
Y024651D01*
X042992Y024441D02*
X042752D01*
Y024531D01*
X042767Y024441D01*
X042932Y024591D02*
X042842D01*
X042992Y024756D02*
X042887D01*
X024939Y022248D02*
X024969Y022263D01*
X025014Y022308D01*
Y021993D01*
X024999Y022293D02*
Y021993D01*
X024939D02*
X025074D01*
X025173Y022308D02*
Y021993D01*
X025188Y022308D02*
Y021993D01*
X025382Y022308D02*
X025188Y022113D01*
X025263Y022173D02*
X025382Y021993D01*
X025248Y022173D02*
X025368Y021993D01*
X025128Y022308D02*
X025233D01*
X025323D02*
X025412D01*
X025128Y021993D02*
X025233D01*
X025323D02*
X025412D01*
X025466Y022248D02*
X025481Y022233D01*
X025466Y022218D01*
X025451Y022233D01*
Y022248D01*
X025466Y022278D01*
X025481Y022293D01*
X025526Y022308D01*
X025586D01*
X025631Y022293D01*
X025646Y022278D01*
X025661Y022248D01*
Y022218D01*
X025646Y022188D01*
X025601Y022158D01*
X025526Y022128D01*
X025496Y022113D01*
X025466Y022083D01*
X025451Y022038D01*
Y021993D01*
X025586Y022308D02*
X025616Y022293D01*
X025631Y022278D01*
X025646Y022248D01*
Y022218D01*
X025631Y022188D01*
X025586Y022158D01*
X025526Y022128D01*
X025451Y022023D02*
X025466Y022038D01*
X025496D01*
X025571Y022008D01*
X025616D01*
X025646Y022023D01*
X025661Y022038D01*
Y022068D01*
X025496Y022038D02*
X025571Y021993D01*
X025631D01*
X025646Y022008D01*
X025661Y022038D01*
M02*
